<svg width="18" height="18" viewBox="0 0 18 18" fill="none" xmlns="http://www.w3.org/2000/svg">
<path d="M5.69922 12.1114H11.3987" stroke="#00291C" stroke-width="1.0625" stroke-linecap="round" stroke-linejoin="round"/>
<path d="M5.69922 9.26164H8.54896" stroke="#00291C" stroke-width="1.0625" stroke-linecap="round" stroke-linejoin="round"/>
<path d="M9.26152 1.78108V2.1373C9.26152 4.15237 9.26152 5.1599 9.88753 5.7859C10.5136 6.41191 11.5211 6.41191 13.5361 6.41191H13.8923M14.2486 7.59234V9.97408C14.2486 12.6608 14.2486 14.0042 13.4139 14.8389C12.5793 15.6736 11.2358 15.6736 8.54908 15.6736C5.86232 15.6736 4.51895 15.6736 3.68428 14.8389C2.84961 14.0042 2.84961 12.6608 2.84961 9.97408V6.73666C2.84961 4.4248 2.84961 3.26887 3.48088 2.48592C3.60841 2.32774 3.75248 2.18367 3.91066 2.05613C4.69361 1.42487 5.84954 1.42487 8.16138 1.42487C8.66407 1.42487 8.91535 1.42487 9.14553 1.50609C9.19341 1.52298 9.24029 1.54242 9.2861 1.56432C9.50631 1.66962 9.68399 1.84734 10.0394 2.20276L13.4139 5.57724C13.8257 5.98907 14.0316 6.19498 14.1401 6.45683C14.2486 6.71868 14.2486 7.00989 14.2486 7.59234Z" stroke="#00291C" stroke-width="1.0625" stroke-linecap="round" stroke-linejoin="round"/>
</svg>
