<svg width="18" height="18" viewBox="0 0 18 18" fill="none" xmlns="http://www.w3.org/2000/svg">
<path d="M5.70039 4.98704H11.9342C13.4351 4.98704 14.1855 4.98704 14.7246 5.34724C14.958 5.50318 15.1583 5.70355 15.3143 5.93693C15.6745 6.476 15.6745 7.22644 15.6745 8.72732C15.6745 11.2288 15.6745 12.4795 15.0741 13.378C14.8143 13.7669 14.4803 14.1009 14.0914 14.3608C13.1928 14.9611 11.9422 14.9611 9.44067 14.9611H8.55013C5.19167 14.9611 3.51245 14.9611 2.46912 13.9178C1.42578 12.8745 1.42578 11.1952 1.42578 7.83678V5.65977C1.42578 4.36566 1.42578 3.7186 1.69673 3.23307C1.88988 2.88698 2.17545 2.6014 2.52155 2.40826C3.00707 2.13731 3.65413 2.13731 4.94825 2.13731C5.77735 2.13731 6.1919 2.13731 6.55478 2.27339C7.3833 2.58409 7.72498 3.33675 8.09887 4.08448L8.55013 4.98704" stroke="#00291C" stroke-width="1.06865" stroke-linecap="round"/>
</svg>
