<svg width="20" height="20" viewBox="0 0 20 20" fill="none" xmlns="http://www.w3.org/2000/svg">
<path d="M9.98975 8.73804H9.99724M13.3147 8.73804H13.3222M6.66479 8.73804H6.67226" stroke="#00291C" stroke-width="1.66435" stroke-linecap="round" stroke-linejoin="round"/>
<path d="M1.66479 8.7381C1.66479 8.09666 1.676 7.47052 1.69732 6.86595C1.767 4.89081 1.80185 3.90323 2.60521 3.09382C3.40858 2.28441 4.42404 2.24097 6.45497 2.15408C7.56922 2.1064 8.75568 2.08069 9.98655 2.08069C11.2174 2.08069 12.4039 2.1064 13.5181 2.15408C15.5491 2.24097 16.5646 2.28441 17.3679 3.09382C18.1713 3.90323 18.2061 4.89081 18.2758 6.86595C18.2971 7.47052 18.3083 8.09666 18.3083 8.7381C18.3083 9.37954 18.2971 10.0057 18.2758 10.6102C18.2061 12.5854 18.1713 13.573 17.3679 14.3824C16.5646 15.1918 15.5491 15.2352 13.5181 15.3221C12.9073 15.3482 12.2749 15.3678 11.6254 15.3801C11.0086 15.3918 10.7002 15.3977 10.4293 15.5009C10.1583 15.604 9.93038 15.7995 9.47435 16.1905L7.66065 17.7457C7.55055 17.8401 7.4103 17.892 7.26526 17.892C6.9298 17.892 6.65785 17.6201 6.65785 17.2846V15.3305C6.58996 15.3278 6.52233 15.325 6.45496 15.3221C4.42403 15.2352 3.40858 15.1918 2.60521 14.3823C1.80185 13.573 1.767 12.5854 1.69732 10.6102C1.676 10.0057 1.66479 9.37954 1.66479 8.7381Z" stroke="#00291C" stroke-width="1.24826" stroke-linecap="round" stroke-linejoin="round"/>
</svg>
