<svg width="100" height="108" viewBox="0 0 100 108" fill="none" xmlns="http://www.w3.org/2000/svg">
<path d="M5.29757 1.56807L0.231377 13.9263C0.0346337 14.3985 -0.0185325 14.9183 0.0784668 15.4207L15.924 97.4703C16.3287 99.565 19.0296 100.182 20.3035 98.4703L40.8021 70.9377L71.1411 106.979C71.6627 107.579 72.5531 107.691 73.2065 107.238L90.0834 94.0603L98.7447 81.623C99.0055 81.249 98.9689 80.7431 98.6569 80.4097L76.9592 57.2297L91.8953 56.7244C92.5166 56.7037 93.0895 56.3826 93.4317 55.8637L99.7751 46.5916C100.159 46.0086 99.9407 45.2203 99.3102 44.9192L6.87857 0.963197C6.27562 0.67586 5.55453 0.951306 5.29757 1.56807Z" fill="white"/>
<path d="M6.61493 3.77494L23.1392 75.6562C23.7759 78.4249 27.3905 79.1322 29.0239 76.8076L43.8888 55.6475C44.2796 55.0902 45.0823 55.0257 45.5572 55.5137L78.3351 89.1482C79.5295 90.3742 81.4131 90.6122 82.8749 89.7222L93.6928 83.1376C95.1388 82.2575 95.4152 80.2722 94.2634 79.0309L65.4715 47.9762C64.8283 47.2828 65.3156 46.1559 66.2618 46.1492L87.0125 46.0041C89.534 45.9865 90.3075 42.5785 88.0402 41.4737L8.15115 2.55405C7.32931 2.15359 6.41009 2.88453 6.61493 3.77494Z" fill="url(#paint0_linear_269_434)"/>
<path d="M6.61493 3.77494L23.1392 75.6562C23.7759 78.4249 27.3905 79.1322 29.0239 76.8076L43.8888 55.6475C44.2796 55.0902 45.0823 55.0257 45.5572 55.5137L78.3351 89.1482C79.5295 90.3742 81.4131 90.6122 82.8749 89.7222L93.6928 83.1376C95.1388 82.2575 95.4152 80.2722 94.2634 79.0309L65.4715 47.9762C64.8283 47.2828 65.3156 46.1559 66.2618 46.1492L87.0125 46.0041C89.534 45.9865 90.3075 42.5785 88.0402 41.4737L8.15115 2.55405C7.32931 2.15359 6.41009 2.88453 6.61493 3.77494Z" stroke="white" stroke-width="2" stroke-miterlimit="10"/>
<defs>
<linearGradient id="paint0_linear_269_434" x1="50.782" y1="2.44163" x2="50.782" y2="90.2578" gradientUnits="userSpaceOnUse">
<stop stop-color="#FF4E50"/>
<stop offset="1" stop-color="#F9D423"/>
</linearGradient>
</defs>
</svg>
