<svg width="1440" height="900" viewBox="0 0 1440 900" fill="none" xmlns="http://www.w3.org/2000/svg">
<path d="M-1.5 1176L158.834 1027.88L1281.67 1027.88L1441.5 904M-1.5 1156L158.834 1007.88L1281.67 1007.88L1441.5 884M-1.5 1136L158.834 987.879L1281.67 987.878L1441.5 864M-1.5 1116L158.834 967.879L1281.67 967.878L1441.5 844M-1.5 1096L158.834 947.879L1281.67 947.878L1441.5 824M-1.5 1076L158.834 927.879L1281.67 927.878L1441.5 804M-1.5 1056L158.834 907.879L1281.67 907.878L1441.5 784M-1.5 1036L158.834 887.879L1281.67 887.878L1441.5 764M-1.5 1016L158.834 867.879L1281.67 867.878L1441.5 744M-1.5 996L158.834 847.879L1281.67 847.878L1441.5 724M-1.5 976L158.834 827.879L1281.67 827.878L1441.5 704M-1.5 956L158.834 807.879L1281.67 807.878L1441.5 684M-1.5 936L158.834 787.879L1281.67 787.878L1441.5 664M-1.5 916L158.834 767.879L1281.67 767.878L1441.5 644M-1.5 896L158.834 747.879L1281.67 747.878L1441.5 624M-1.5 876L158.834 727.879L1281.67 727.878L1441.5 604M-1.5 856L158.834 707.879L1281.67 707.878L1441.5 584M-1.5 836L158.834 687.879L1281.67 687.878L1441.5 564M-1.5 816L158.834 667.879L1281.67 667.878L1441.5 544M-1.5 796L158.834 647.879L1281.67 647.878L1441.5 524M-1.5 776L158.834 627.879L1281.67 627.878L1441.5 504M-1.5 756L158.834 607.879L1281.67 607.878L1441.5 484M-1.5 736L158.834 587.879L1281.67 587.878L1441.5 464M-1.5 716L158.834 567.879L1281.67 567.878L1441.5 444M-1.5 696L158.834 547.879L1281.67 547.878L1441.5 424M-1.5 676L158.834 527.879L1281.67 527.878L1441.5 404M-1.5 656L158.834 507.879L1281.67 507.878L1441.5 384M-1.5 636L158.834 487.879L1281.67 487.878L1441.5 364M-1.5 616L158.834 467.879L1281.67 467.878L1441.5 344M-1.5 596L158.834 447.879L1281.67 447.878L1441.5 324M-1.5 576L158.834 427.879L1281.67 427.878L1441.5 304M-1.5 556L158.834 407.879L1281.67 407.878L1441.5 284M-1.5 536L158.834 387.879L1281.67 387.878L1441.5 264M-1.5 516L158.834 367.879L1281.67 367.878L1441.5 244M-1.5 496L158.834 347.879L1281.67 347.878L1441.5 224M-1.5 476L158.834 327.879L1281.67 327.878L1441.5 204M-1.5 456L158.834 307.879L1281.67 307.878L1441.5 184M-1.5 436L158.834 287.879L1281.67 287.878L1441.5 164M-1.5 416L158.834 267.879L1281.67 267.878L1441.5 144M-1.5 396L158.834 247.879L1281.67 247.878L1441.5 124M-1.5 376L158.834 227.879L1281.67 227.878L1441.5 104M-1.5 356L158.834 207.879L1281.67 207.878L1441.5 84.0001M-1.5 336L158.834 187.879L1281.67 187.878L1441.5 64.0001M-1.5 316L158.834 167.879L1281.67 167.878L1441.5 44.0001M-1.5 296L158.834 147.879L1281.67 147.878L1441.5 24.0001M-1.5 276L158.834 127.879L1281.67 127.878L1441.5 4.00006M-1.5 256L158.834 107.879L1281.67 107.878L1441.5 -15.9999M-1.5 236L158.834 87.8791L1281.67 87.8775L1441.5 -35.9999M-1.5 216L158.834 67.8791L1281.67 67.8775L1441.5 -55.9999M-1.5 196L158.834 47.8791L1281.67 47.8775L1441.5 -75.9999M-1.5 176L158.834 27.8791L1281.67 27.8775L1441.5 -95.9999M-1.5 156L158.834 7.87912L1281.67 7.87753L1441.5 -116M-1.5 136L158.834 -12.1209L1281.67 -12.1225L1441.5 -136M-1.5 116L158.834 -32.1209L1281.67 -32.1225L1441.5 -156M-1.5 95.9999L158.834 -52.1209L1281.67 -52.1225L1441.5 -176M-1.5 75.9999L158.834 -72.1209L1281.67 -72.1225L1441.5 -196M-1.5 55.9999L158.834 -92.1209L1281.67 -92.1225L1441.5 -216M-1.5 35.9999L158.834 -112.121L1281.67 -112.122L1441.5 -236M-1.5 15.9999L158.834 -132.121L1281.67 -132.122L1441.5 -256M-1.5 -4.00006L158.834 -152.121L1281.67 -152.122L1441.5 -276" stroke="url(#paint0_radial_3_89)" stroke-opacity="0.6"/>
<defs>
<radialGradient id="paint0_radial_3_89" cx="0" cy="0" r="1" gradientUnits="userSpaceOnUse" gradientTransform="translate(720 109.25) rotate(89.9549) scale(917 2101.37)">
<stop stop-color="#005138"/>
<stop offset="0.55" stop-color="#005138"/>
<stop offset="1" stop-color="#B4D13F"/>
</radialGradient>
</defs>
</svg>
