<svg width="12" height="12" viewBox="0 0 12 12" fill="none" xmlns="http://www.w3.org/2000/svg">
<path d="M1.50661 2.49512C1.44668 3.02512 1.77631 4.21112 3.24468 4.21112" stroke="#00291C" stroke-width="0.75" stroke-linecap="round"/>
<path d="M8.79688 4.19046C9.41717 4.28946 10.5559 3.74946 10.4972 2.50146" stroke="#00291C" stroke-width="0.75" stroke-linecap="round"/>
<path d="M10.4957 10.4994C10.5257 9.97143 10.0882 8.77743 8.79883 8.71143" stroke="#00291C" stroke-width="0.75" stroke-linecap="round"/>
<path d="M3.22514 8.73572C2.82439 8.61572 1.50586 9.16772 1.50586 10.4997" stroke="#00291C" stroke-width="0.75" stroke-linecap="round"/>
<path d="M4.66428 3.05951C4.67627 2.54951 4.92199 1.49951 6.00078 1.49951C6.95973 1.49951 7.29238 2.30951 7.33733 3.05951M3.12998 4.70951C3.18992 4.31951 3.64541 3.40751 4.68226 3.31751C5.73108 3.27791 7.16948 3.29351 7.43918 3.33551C7.79278 3.36698 8.64688 3.71951 8.87463 4.70951C8.95553 5.21949 8.91358 5.93949 8.92553 6.35949C8.90758 6.77949 8.95968 7.63124 8.87758 8.06949C8.81768 8.54949 8.49403 9.23349 8.05053 9.65349C7.39123 10.3615 5.58128 11.1055 4.017 9.72549C3.20789 8.94549 3.15395 8.18949 3.09402 7.88949C3.07795 7.72864 3.0787 6.93824 3.08203 6.17949C3.07005 5.52309 3.0855 4.89041 3.12998 4.70951Z" stroke="#00291C" stroke-width="0.75"/>
<path d="M1.50586 6.44922H2.97423" stroke="#00291C" stroke-width="0.75" stroke-linecap="round"/>
<path d="M10.497 6.44922H9.05859" stroke="#00291C" stroke-width="0.75" stroke-linecap="round"/>
<path d="M6.00195 8.24951V10.1395" stroke="#00291C" stroke-width="0.75" stroke-linecap="round"/>
</svg>
