<svg width="20" height="20" viewBox="0 0 20 20" fill="none" xmlns="http://www.w3.org/2000/svg">
<path d="M16.9421 11.1154C15.9522 12.1051 14.0897 12.0666 11.234 12.0666C9.39677 12.0666 7.90715 10.5748 7.90621 8.73751C7.90621 5.88374 7.86773 4.0202 8.8576 3.03052C9.84739 2.04084 10.2846 2.08091 14.6694 2.08091C15.0932 2.0791 15.3065 2.59155 15.0069 2.89118L12.7492 5.14904C12.1762 5.72214 12.1746 6.65127 12.7477 7.2243C13.3208 7.79734 14.25 7.7974 14.8232 7.22444L17.0815 4.96713C17.3812 4.66758 17.8937 4.88082 17.8919 5.3045C17.8919 9.68861 17.932 10.1257 16.9421 11.1154Z" stroke="#00291C" stroke-width="1.24826"/>
<path d="M11.234 12.0669L6.09817 17.2027C5.17898 18.1219 3.68867 18.1219 2.76948 17.2027C1.85028 16.2835 1.85028 14.7932 2.76948 13.874L7.90531 8.73816" stroke="#00291C" stroke-width="1.24826" stroke-linecap="round"/>
<path d="M4.58388 15.3951H4.57642" stroke="#00291C" stroke-width="1.66435" stroke-linecap="round" stroke-linejoin="round"/>
</svg>
