<svg width="88" height="99" viewBox="0 0 88 99" fill="none" xmlns="http://www.w3.org/2000/svg">
<path d="M40.672 7.22605C66.6874 7.07128 87.8808 23.8198 88.0002 44.6329C88.0859 58.9905 78.1251 71.531 63.3945 77.9807C62.3242 78.4506 61.8394 79.7059 62.313 80.7762L68.7124 95.2428C69.544 97.1254 67.4743 98.9727 65.6991 97.9296L40.0306 82.8597C39.7211 82.6804 39.3705 82.5826 39.0162 82.5718C13.9667 81.8413 -6.09302 65.4373 -6.21235 45.187C-6.33542 24.374 14.6566 7.3782 40.672 7.22605Z" fill="#83CAFF"/>
<path d="M40.2551 6.87875C66.2674 6.7267 87.4611 23.4726 87.5804 44.288C87.6661 58.6432 77.7046 71.1835 62.9768 77.6329C61.9035 78.1028 61.419 79.358 61.8923 80.4283L68.2947 94.895C69.1258 96.7777 67.0537 98.6251 65.2798 97.5819L39.6104 82.5123C39.3048 82.333 38.9508 82.235 38.5968 82.2242C13.5497 81.4934 -6.51107 65.09 -6.63032 44.8395C-6.7533 24.0267 14.2391 7.0308 40.2551 6.87875Z" fill="#83CAFF"/>
<path d="M39.8366 6.53332C65.8534 6.38138 87.0437 23.1299 87.1629 43.9426C87.2486 58.298 77.2865 70.8383 62.5575 77.2881C61.485 77.7581 61.0009 79.0132 61.4738 80.0861L67.8756 94.55C68.7098 96.4355 66.6392 98.2801 64.8628 97.2369L39.1923 82.1671C38.8869 81.988 38.5332 81.8901 38.1794 81.8793C13.1308 81.1482 -6.93107 64.7449 -7.05024 44.4942C-7.17314 23.6815 13.8198 6.68564 39.8366 6.53332Z" fill="#83CAFF"/>
<path d="M39.4159 6.18374C65.4333 6.03153 86.6238 22.7804 86.7429 43.5928C86.8285 57.9483 76.8659 70.4885 62.1434 76.9379C61.0642 77.4079 60.5841 78.6632 61.0567 79.7361L67.4541 94.2028C68.2915 96.0854 66.2185 97.9301 64.4434 96.8896L38.7721 81.8198C38.4669 81.6379 38.1134 81.54 37.7598 81.5292C12.7138 80.7983 -7.34912 64.3978 -7.46821 44.1473C-7.59103 23.3345 13.4023 6.33595 39.4159 6.18374Z" fill="#83CAFF"/>
<path d="M38.9992 5.84639C65.0173 5.69428 86.2045 22.4432 86.3272 43.2558C86.4128 57.6138 76.4496 70.1542 61.7261 76.6007C60.6513 77.0708 60.1678 78.326 60.6401 79.3993L67.0405 93.8658C67.8735 95.7484 65.8021 97.5958 64.0281 96.5526L38.3558 81.483C38.0509 81.3008 37.6976 81.203 37.3443 81.1948C12.2968 80.4614 -7.76718 64.0606 -7.88618 43.8099C-8.00891 22.9973 12.9848 6.00147 38.9992 5.84639Z" fill="#83CAFF"/>
<path d="M38.5822 5.50581C64.5971 5.35083 85.7844 22.0996 85.9071 42.9123C85.9926 57.2703 76.0288 69.8106 61.3044 76.2601C60.2303 76.7302 59.7472 77.9853 60.2192 79.0556L66.6189 93.5221C67.4551 95.4047 65.385 97.2521 63.6086 96.2088L37.9355 81.1394C37.6308 80.9599 37.2814 80.8621 36.9247 80.8514C11.876 80.1203 -8.18523 63.7168 -8.30415 43.4664C-8.42679 22.6537 12.5635 5.65781 38.5822 5.50581Z" fill="#83CAFF"/>
<path d="M38.1635 5.15679C64.1791 5.00489 85.3667 21.7533 85.4893 42.5662C85.5747 56.9214 75.6141 69.4616 60.8886 75.9111C59.8116 76.3813 59.3288 77.6362 59.8004 78.7069L66.2032 93.1732C67.0351 95.056 64.9664 96.9034 63.1875 95.8602L37.5172 80.7904C37.2127 80.6114 36.8636 80.5133 36.5034 80.5026C11.4608 79.7717 -8.60152 63.3679 -8.72408 43.1177C-8.84663 22.3048 12.1478 5.30906 38.1635 5.15679Z" fill="#83CAFF"/>
<path d="M37.7407 4.81209C63.7568 4.65993 84.9445 21.4086 85.067 42.2215C85.1523 56.5763 75.1912 69.1168 60.4648 75.5662C59.3886 76.0364 58.9061 77.2916 59.3774 78.3645L65.7794 92.8285C66.6145 94.7137 64.5435 96.5585 62.7658 95.5152L37.0949 80.4455C36.7906 80.2662 36.4417 80.1686 36.0817 80.1575C11.038 79.4267 -9.02524 63.0232 -9.144 42.7729C-9.26647 21.9601 11.7245 4.96425 37.7407 4.81209Z" fill="#83CAFF"/>
<path d="M37.3238 4.46281C63.3405 4.31075 84.5285 21.0594 84.6509 41.872C84.7362 56.2274 74.7783 68.7678 60.0509 75.2172C58.9754 75.6871 58.4895 76.9422 58.9642 78.0155L65.3618 92.4821C66.1963 94.3647 64.1268 96.2093 62.3503 95.1689L36.6785 80.0994C36.3744 79.9173 36.0258 79.8194 35.666 79.8086C10.6209 79.0777 -9.44329 62.6769 -9.56197 42.4265C-9.68436 21.6135 11.307 4.61487 37.3238 4.46281Z" fill="#83CAFF"/>
<path d="M36.9029 4.12614C62.92 3.97419 84.1081 20.7227 84.2304 41.5353C84.3156 55.8933 74.3572 68.4334 59.629 74.8803C58.5542 75.3532 58.0687 76.6055 58.543 77.6784L64.9436 92.145C65.7775 94.0277 63.7057 95.8751 61.9305 94.8319L36.258 79.7624C35.9541 79.5804 35.6057 79.4825 35.2462 79.4744C10.2 78.7409 -9.86134 62.3398 -9.97994 42.0897C-10.1022 21.2767 10.8894 4.28106 36.9029 4.12614Z" fill="#83CAFF"/>
<path d="M36.4878 3.78C62.5056 3.62519 83.6939 20.3736 83.8161 41.1867C83.9013 55.5444 73.9423 68.0848 59.2131 74.5346C58.1428 75.0042 57.6539 76.2594 58.128 77.3297L64.5278 91.7963C65.3611 93.6792 63.2908 95.5264 61.5167 94.4833L35.8434 79.4137C35.5397 79.2341 35.1916 79.1367 34.8323 79.1256C9.78491 78.3949 -10.2774 61.9913 -10.396 41.7407C-10.5182 20.928 10.4738 3.93222 36.4878 3.78Z" fill="#83CAFF"/>
<path d="M36.0667 3.4353C62.0848 3.28319 83.2731 20.0318 83.3952 40.8444C83.4804 55.1995 73.5209 67.7401 58.7946 74.1895C57.7213 74.6595 57.2328 75.9145 57.7102 76.9848L64.1092 91.4514C64.9419 93.3367 62.8731 95.1815 61.0929 94.1383L35.4227 79.0685C35.1192 78.8894 34.7713 78.7917 34.4123 78.7806C9.36383 78.05 -10.6957 61.6464 -10.8178 41.3959C-10.94 20.5832 10.0522 3.58742 36.0667 3.4353Z" fill="#83CAFF"/>
<path d="M35.6515 3.09125C61.6665 2.93924 82.855 19.6877 82.9771 40.5004C83.0621 54.8557 73.1022 67.396 58.3749 73.8458C57.3023 74.3155 56.8141 75.5707 57.2912 76.6437L63.6896 91.1076C64.5217 92.9931 62.4543 94.8377 60.6753 93.7945L35.0043 78.7274C34.6973 78.5454 34.3497 78.4478 33.9946 78.437C8.94864 77.7062 -11.1155 61.3024 -11.2338 41.0523C-11.3559 20.2392 9.63284 3.24326 35.6515 3.09125Z" fill="#83CAFF"/>
<path d="M35.2322 2.74171C61.2475 2.58944 82.436 19.3381 82.558 40.1507C82.643 54.5059 72.6825 67.046 57.9545 73.4957C56.8827 73.9658 56.3985 75.2209 56.8716 76.2938L63.2691 90.7602C64.1044 92.6433 62.0347 94.4877 60.257 93.4471L34.5891 78.3775C34.2786 78.1957 33.9313 78.0978 33.5764 78.0871C8.52946 77.356 -11.5355 60.9552 -11.6538 40.7051C-11.7757 19.8921 9.21689 2.89657 35.2322 2.74171Z" fill="#83CAFF"/>
<path d="M34.817 2.40441C60.8328 2.25225 82.0214 19.0008 82.1433 39.8134C82.2282 54.1716 72.2673 66.7119 57.542 73.1586C56.4673 73.6313 55.9835 74.8837 56.4562 75.957L62.8567 90.4234C63.6877 92.3059 61.6195 94.1533 59.843 93.1103L34.1744 78.0404C33.8641 77.8587 33.517 77.7634 33.1624 77.7527C8.11425 77.0192 -11.9479 60.6183 -12.0698 40.3678C-12.1917 19.5548 8.8012 2.55916 34.817 2.40441Z" fill="#83CAFF"/>
<path d="M34.3993 2.05863C60.4117 1.90398 81.6002 18.6522 81.722 39.4651C81.8069 53.8228 71.8456 66.3632 57.1195 72.8128C56.0455 73.2826 55.562 74.5379 56.0344 75.6082L62.4342 90.0748C63.2683 91.9574 61.1978 93.8047 59.4225 92.7617L33.7534 77.692C33.4434 77.5126 33.0964 77.4148 32.7421 77.4041C7.69302 76.6733 -12.3699 60.2698 -12.4917 40.0194C-12.6135 19.2066 8.37951 2.21069 34.3993 2.05863Z" fill="#83CAFF"/>
<path d="M33.9809 1.71385C59.9976 1.56189 81.1827 18.3105 81.3044 39.1235C81.3929 53.4788 71.4311 66.0191 56.704 72.4687C55.6307 72.9385 55.1439 74.1936 55.6197 75.264L62.0187 89.7306C62.8523 91.616 60.7795 93.4609 59.0055 92.4175L33.3354 77.3478C33.0256 77.1686 32.6789 77.0708 32.3249 77.0598C7.27447 76.3291 -12.7894 59.9254 -12.9038 39.6748C-13.0255 18.8622 7.96418 1.86617 33.9809 1.71385Z" fill="#83CAFF"/>
<path d="M33.5613 1.36602C59.5782 1.2138 80.767 17.9624 80.8886 38.7752C80.9734 53.1304 71.0111 65.6705 56.2833 72.1203C55.2107 72.5902 54.7243 73.8452 55.1997 74.9185L61.598 89.382C62.4309 91.2676 60.3633 93.1122 58.5831 92.0688L32.9163 77.002C32.6067 76.8203 32.2603 76.7222 31.9028 76.7112C6.85516 75.9807 -13.2058 59.577 -13.3237 39.3292C-13.4453 18.5138 7.54438 1.51786 33.5613 1.36602Z" fill="#83CAFF"/>
<path d="M33.144 1.02706C59.1576 0.87495 80.3501 17.6238 80.4716 38.4365C80.5564 52.7943 70.5936 65.3319 55.8649 71.7817C54.7932 72.2517 54.307 73.5065 54.7821 74.5797L61.1797 89.0462C62.0157 90.929 59.9458 92.7764 58.1669 91.7333L32.4995 76.6636C32.1901 76.4813 31.8439 76.3837 31.4866 76.3756C6.43796 75.6419 -13.6238 59.2412 -13.7417 38.9905C-13.8632 18.1777 7.1267 1.18175 33.144 1.02706Z" fill="#83CAFF"/>
<path d="M32.7263 0.681468C58.7401 0.526518 79.9324 17.2754 80.0539 38.0879C80.1385 52.4459 70.1754 64.9861 55.4497 71.4358C54.375 71.9058 53.8892 73.1583 54.364 74.2312L60.7644 88.6978C61.5961 90.5804 59.5277 92.428 57.75 91.3845L32.0822 76.3151C31.7767 76.1358 31.4234 76.0379 31.0701 76.0269C6.02055 75.2934 -14.0419 58.8927 -14.1596 38.6422C-14.2811 17.8297 6.7088 0.83384 32.7263 0.681468Z" fill="#83CAFF"/>
<path d="M32.307 0.337368C58.3211 0.185468 79.5135 16.9312 79.6348 37.7469C79.7194 52.1019 69.7559 64.6423 55.0294 71.0919C53.9554 71.562 53.4699 72.8173 53.9444 73.8875L60.3477 88.354C61.1789 90.2368 59.1082 92.0842 57.3317 91.0408L31.6633 75.9711C31.3581 75.792 31.005 75.6942 30.6482 75.6831C5.60137 74.9523 -14.4619 58.5487 -14.5796 38.2982C-14.7009 17.4854 6.28916 0.489635 32.307 0.337368Z" fill="#83CAFF"/>
<path d="M31.8872 0.000658828C57.9015 -0.151501 79.0937 16.5968 79.215 37.4097C79.2995 51.7649 69.3356 64.3053 54.6084 70.7548C53.5352 71.2249 53.05 72.4797 53.5278 73.5503L59.9266 88.0169C60.7573 89.902 58.688 91.7471 56.9128 90.7036L31.244 75.6339C30.9353 75.4545 30.5862 75.3568 30.2296 75.3461C5.182 74.6151 -14.8819 58.2115 -14.9995 37.9613C-15.1208 17.1485 5.86928 0.152819 31.8872 0.000658828Z" fill="#83CAFF"/>
<path d="M31.8872 0.000658828C57.9015 -0.151501 79.0937 16.5968 79.215 37.4097C79.2995 51.7649 69.3356 64.3053 54.6084 70.7548C53.5352 71.2249 53.05 72.4797 53.5278 73.5503L59.9266 88.0169C60.7573 89.902 58.688 91.7471 56.9128 90.7036L31.244 75.6339C30.9353 75.4545 30.5862 75.3568 30.2296 75.3461C5.182 74.6151 -14.8819 58.2115 -14.9995 37.9613C-15.1208 17.1485 5.86928 0.152819 31.8872 0.000658828Z" fill="#FFF96A"/>
</svg>
