<svg width="78" height="61" viewBox="0 0 78 61" fill="none" xmlns="http://www.w3.org/2000/svg">
<path d="M40.9391 5.2951C51.8472 5.32232 60.8926 13.3916 62.4637 23.8681C62.4637 23.872 62.4676 23.872 62.4715 23.872C71.2524 25.3408 77.9607 32.9746 77.9996 42.1456C78.0423 52.4486 69.413 60.8559 59.1076 60.829L0.324208 60.6746C-8.27009 60.6521 -15.3828 53.7723 -15.4411 45.1796C-15.4955 36.5118 -8.45286 29.4536 0.195885 29.4765C0.300883 29.4769 0.405881 29.4781 0.50699 29.4805C0.510879 29.4805 0.514776 29.4773 0.514776 29.4734C1.80586 21.0487 9.11684 14.5855 17.89 14.6088C19.4844 14.6127 21.0516 14.8305 22.5566 15.2505C22.5644 15.2544 22.5683 15.2505 22.5683 15.2466C26.531 9.11779 33.3831 5.27566 40.9391 5.2951Z" fill="#ED5B52"/>
<path d="M0.194381 29.2284C0.198268 29.2284 0.206034 29.2257 0.206034 29.2214C1.49649 20.7985 8.80389 14.3346 17.5766 14.3579C19.1703 14.3618 20.7406 14.5794 22.2448 14.9992C22.2487 14.9992 22.2526 14.9992 22.2565 14.9953C26.2172 8.86566 33.0699 5.02152 40.626 5.04095C51.5366 5.07205 60.5814 13.1412 62.1517 23.6165C62.1517 23.6165 62.1556 23.6204 62.1595 23.6204C70.94 25.0888 77.6488 32.7227 77.6877 41.8935C77.7304 52.1965 69.0976 60.6039 58.7973 60.5771L0.0116887 60.4228C-8.58226 60.4002 -15.6992 53.5204 -15.7536 44.928C-15.808 36.2598 -8.76107 29.2016 -0.1127 29.2245C-0.0116403 29.2249 0.0933214 29.2261 0.194381 29.2284Z" fill="#ED5B52"/>
<path d="M-0.118149 28.9777C-0.110379 28.9777 -0.110386 28.9746 -0.106501 28.9703C1.18332 20.5457 8.491 14.085 17.2672 14.1083C18.86 14.1122 20.4257 14.3298 21.9331 14.7493C21.9369 14.7493 21.9408 14.7493 21.9447 14.7454C25.9074 8.61491 32.7567 4.77264 40.313 4.79207C51.222 4.81926 60.2663 12.8923 61.8397 23.3623C61.8397 23.3662 61.8436 23.3701 61.8475 23.3701C70.6276 24.8379 77.337 32.4715 77.3758 41.6424C77.4186 51.9458 68.7861 60.3529 58.4831 60.3261L-0.300751 60.1719C-8.89436 60.149 -16.0078 53.269 -16.066 44.677C-16.1243 36.0092 -9.07696 28.9509 -0.425078 28.9735C-0.324069 28.9738 -0.219159 28.9754 -0.118149 28.9777Z" fill="#ED5B52"/>
<path d="M-0.426911 28.7224C-0.423028 28.7224 -0.419137 28.7196 -0.419137 28.7154C0.870045 20.2906 8.18188 13.8292 16.9576 13.8525C18.5497 13.8564 20.1146 14.0738 21.6212 14.4932C21.6251 14.4932 21.629 14.4932 21.6329 14.4893C25.5936 8.35796 32.4472 4.51761 40.0037 4.53702C50.9113 4.5642 59.9589 12.6371 61.5276 23.1098C61.5276 23.1137 61.5315 23.1137 61.5354 23.1176C70.315 24.5815 77.025 32.2164 77.0638 41.3874C77.1066 51.6908 68.4745 60.098 58.1727 60.0712L-0.609423 59.9167C-9.20268 59.8942 -16.3203 53.0141 -16.3786 44.4217C-16.433 35.7539 -9.38517 28.6956 -0.737557 28.7185C-0.632714 28.7185 -0.531754 28.7201 -0.426911 28.7224Z" fill="#ED5B52"/>
<path d="M-0.739513 28.4727C-0.735632 28.4727 -0.735624 28.47 -0.731743 28.4657C0.560685 20.0401 7.86502 13.5779 16.6403 13.6012C18.2355 13.6051 19.8035 13.8224 21.3094 14.2455C21.3133 14.2455 21.3171 14.2455 21.3171 14.2416C25.2837 8.10938 32.134 4.26702 39.6906 4.28643C50.5966 4.3136 59.6436 12.3864 61.2155 22.8578C61.2194 22.8617 61.2194 22.8656 61.2233 22.8656C70.0025 24.3326 76.713 31.9665 76.7518 41.1377C76.7945 51.441 68.1628 59.8484 57.8622 59.8212L-0.925801 59.6672C-9.51482 59.6443 -16.6329 52.7645 -16.6911 44.172C-16.7454 35.5042 -9.69724 28.4459 -1.05001 28.4688C-0.949095 28.4688 -0.844304 28.4703 -0.739513 28.4727Z" fill="#ED5B52"/>
<path d="M-1.05206 28.2207C-1.04818 28.2207 -1.0443 28.2175 -1.0443 28.2133C0.251374 19.7887 7.55602 13.3259 16.3309 13.3492C17.9253 13.353 19.4925 13.5703 20.9976 13.9931C21.0015 13.9931 21.0054 13.9931 21.0092 13.9892C24.97 7.85614 31.8246 4.01569 39.3775 4.03509C50.2898 4.06225 59.3324 12.135 60.9073 22.6051C60.9073 22.6089 60.9112 22.6128 60.9112 22.6128C69.6938 24.0792 76.4011 31.7143 76.4399 40.8852C76.4825 51.1889 67.8551 59.596 57.5479 59.5693L-1.23439 59.4149C-9.82693 59.3924 -16.9453 52.5121 -16.9996 43.92C-17.0578 35.2522 -10.0092 28.1939 -1.3585 28.2164C-1.25764 28.2168 -1.1568 28.2183 -1.05206 28.2207Z" fill="#ED5B52"/>
<path d="M-1.36467 27.9692C-1.36079 27.9692 -1.35691 27.9662 -1.35691 27.9623C-0.0657564 19.5376 7.24303 13.0741 16.0213 13.0974C17.611 13.1012 19.1775 13.3184 20.6857 13.741C20.6896 13.741 20.6935 13.741 20.6935 13.7371C24.6561 7.60705 31.5113 3.76461 39.0643 3.78399C49.9751 3.81113 59.0209 11.8837 60.5951 22.3564C60.5951 22.3603 60.5952 22.3603 60.599 22.3642C69.3812 23.8298 76.089 31.4631 76.1278 40.6342C76.1704 50.9378 67.5395 59.345 57.2374 59.3183L-1.55078 59.164C-10.1391 59.1411 -17.2579 52.2611 -17.3121 43.669C-17.3703 35.0012 -10.3213 27.9429 -1.67486 27.9654C-1.57017 27.9658 -1.46548 27.9673 -1.36467 27.9692Z" fill="#ED5B52"/>
<path d="M-1.67729 27.7147C-1.67341 27.7147 -1.66953 27.7117 -1.66953 27.7078C-0.375138 19.2834 6.93002 12.8192 15.704 12.8424C17.3006 12.8463 18.8663 13.0672 20.3739 13.4857C20.3777 13.4857 20.3816 13.4858 20.3816 13.4819C24.3462 7.35097 31.1979 3.5104 38.755 3.52977C49.6604 3.5569 58.7056 11.6255 60.2791 22.1008C60.2829 22.1047 60.283 22.1086 60.2868 22.1086C69.0647 23.5735 75.7769 31.2088 75.8156 40.3796C75.8583 50.6832 67.2277 59.0905 56.923 59.0634L-1.8633 58.9092C-10.4551 58.8863 -17.5704 52.0066 -17.6246 43.4141C-17.6828 34.7463 -10.6334 27.688 -1.98732 27.7108C-1.88268 27.7108 -1.77805 27.7124 -1.67729 27.7147Z" fill="#ED5B52"/>
<path d="M-1.99196 27.4649C-1.98808 27.4649 -1.9842 27.4619 -1.9842 27.458C-0.690459 19.0359 6.61879 12.571 15.3922 12.5942C16.9842 12.5981 18.553 12.8151 20.0598 13.2373C20.0637 13.2373 20.0675 13.2372 20.0675 13.2334C24.0301 7.10164 30.8862 3.25915 38.4395 3.27851C49.3511 3.30563 58.3957 11.378 59.9683 21.8519C59.9683 21.8557 59.9683 21.8557 59.9722 21.8596C68.7533 23.3238 75.4622 30.9588 75.501 40.1297C75.5436 50.4331 66.9135 58.8405 56.61 58.8134L-2.17402 58.6593C-10.7654 58.6368 -17.881 51.7567 -17.9391 43.1642C-17.9972 34.4965 -10.9513 27.4382 -2.30184 27.4611C-2.19725 27.4615 -2.09267 27.463 -1.99196 27.4649Z" fill="#ED5B52"/>
<path d="M-2.30658 27.212C-2.30271 27.212 -2.29497 27.2089 -2.29497 27.205C-1.00574 18.7805 6.30379 12.3188 15.0768 12.3421C16.6719 12.3459 18.2399 12.5627 19.7459 12.9847C19.7459 12.9847 19.7536 12.9848 19.7536 12.9809C23.7181 6.84832 30.5708 3.0077 38.1242 3.02706C49.0343 3.05416 58.0783 11.1264 59.654 21.599C59.654 21.6029 59.654 21.6029 59.6579 21.6067C68.4386 23.0741 75.1481 30.7061 75.1868 39.8771C75.2294 50.1805 66.5996 58.5876 56.2935 58.5605L-2.48855 58.4064C-11.0796 58.3839 -18.1993 51.5038 -18.2535 42.9116C-18.3116 34.2435 -11.2654 27.1853 -2.6163 27.2081C-2.51177 27.2085 -2.40724 27.2097 -2.30658 27.212Z" fill="#ED5B52"/>
<path d="M-2.61727 26.9626C-2.6134 26.963 -2.60952 26.9599 -2.60952 26.9557C-1.31706 18.533 5.98885 12.0706 14.7652 12.0938C16.3595 12.0977 17.9267 12.3144 19.432 12.7323C19.4359 12.7362 19.4398 12.7323 19.4437 12.7323C23.4062 6.59893 30.2593 2.75637 37.8129 2.77572C48.7214 2.80668 57.7687 10.8749 59.3398 21.3501C59.3398 21.3539 59.3436 21.3539 59.3475 21.3578C68.1277 22.8244 74.8377 30.4569 74.8726 39.6276C74.919 49.9309 66.2897 58.3385 55.9848 58.3115L-2.79915 58.157C-11.3937 58.1346 -18.5099 51.2548 -18.5641 42.6622C-18.6221 33.9942 -11.5755 26.9363 -2.92684 26.9588C-2.82236 26.9591 -2.72175 26.9607 -2.61727 26.9626Z" fill="#ED5B52"/>
<path d="M-2.92991 26.7121C-2.92218 26.7121 -2.91832 26.709 -2.91832 26.7047C-1.62649 18.2819 5.67968 11.819 14.4556 11.8422C16.0491 11.846 17.6155 12.0626 19.1239 12.4842C19.1278 12.4842 19.1278 12.4842 19.1317 12.4803C23.0923 6.34998 29.9498 2.50543 37.5035 2.52477C48.4143 2.55571 57.4571 10.6238 59.0313 21.0977C59.0313 21.1015 59.0313 21.1054 59.0352 21.1054C67.8149 22.5713 74.5255 30.2062 74.5641 39.377C74.6067 49.6806 65.9739 58.0879 55.6741 58.0605L-3.11171 57.9065C-11.7058 57.8841 -18.8224 51.0038 -18.8766 42.4116C-18.9346 33.7436 -11.8876 26.6854 -3.23933 26.7082C-3.1349 26.7086 -3.03048 26.7098 -2.92991 26.7121Z" fill="#ED5B52"/>
<path d="M-3.24257 26.4568C-3.23484 26.4568 -3.23484 26.453 -3.23098 26.4491C-1.93979 18.0255 5.36663 11.5618 14.1421 11.585C15.7348 11.5889 17.3043 11.8092 18.8081 12.2267C18.812 12.2306 18.8158 12.2267 18.8197 12.2229C22.7822 6.09554 29.6324 2.24903 37.1901 2.27222C48.0995 2.29928 57.1416 10.3711 58.715 20.8437C58.7189 20.8475 58.7189 20.8514 58.7228 20.8514C67.5021 22.3166 74.2131 29.9508 74.2518 39.1217C74.2943 49.4252 65.6619 57.8327 55.3595 57.8056L-3.42427 57.651C-12.018 57.6285 -19.135 50.7485 -19.1891 42.1563C-19.2471 33.4884 -12.1997 26.4298 -3.55183 26.453C-3.44746 26.453 -3.34308 26.453 -3.24257 26.4568Z" fill="#ED5B52"/>
<path d="M-3.55134 26.2063C-3.54748 26.2063 -3.54365 26.2025 -3.54365 26.1986C-2.2531 17.7753 5.05356 11.311 13.8324 11.3341C15.4243 11.338 16.9892 11.5582 18.4961 11.9755C18.5 11.9794 18.5077 11.9755 18.5077 11.9755C22.4682 5.84351 29.3228 1.99895 36.8767 2.01826C47.7884 2.04918 56.8339 10.117 58.4065 20.5921C58.4065 20.5959 58.4103 20.5998 58.4103 20.5998C67.193 22.0681 73.9008 29.7001 73.9394 38.8711C73.9819 49.1746 65.3538 57.5821 55.0487 57.5546L-3.73684 57.4004C-12.3302 57.378 -19.4436 50.498 -19.5016 41.9058C-19.5596 33.2375 -12.5118 26.1793 -3.86046 26.2025C-3.75999 26.2025 -3.65567 26.2025 -3.55134 26.2063Z" fill="#ED5B52"/>
<path d="M-3.86405 25.9488C-3.86019 25.9488 -3.85636 25.945 -3.85636 25.9411C-2.56645 17.5181 4.74432 11.057 13.5188 11.0801C15.1099 11.084 16.6779 11.3003 18.1841 11.7212C18.1879 11.7212 18.1918 11.7212 18.1956 11.7174C22.158 5.58451 29.0131 1.7418 36.5633 1.76111C47.4773 1.792 56.5221 9.86357 58.0939 20.3373C58.0939 20.3373 58.0939 20.3412 58.0978 20.3412C66.88 21.8088 73.5883 29.4431 73.6269 38.6142C73.6694 48.9172 65.0378 57.3252 54.734 57.2978L-4.04946 57.1437C-12.6424 57.1213 -19.76 50.2411 -19.8141 41.649C-19.872 32.9807 -12.8239 25.9218 -4.1769 25.9449C-4.07262 25.9449 -3.96833 25.9488 -3.86405 25.9488Z" fill="#ED5B52"/>
<path d="M-4.17478 25.6985C-4.17092 25.6985 -4.17095 25.6947 -4.16709 25.6908C-2.87782 17.2681 4.42934 10.8063 13.2072 10.8295C14.8014 10.8334 16.3647 11.0495 17.874 11.4703C17.8778 11.4703 17.8817 11.4703 17.8817 11.4664C21.846 5.3366 28.6977 1.49194 36.2557 1.51124C47.1643 1.54212 56.2085 9.61356 57.7795 20.086C57.7834 20.0898 57.7834 20.0937 57.7872 20.0937C66.5651 21.5605 73.2778 29.193 73.3164 38.3642C73.3588 48.6675 64.7277 57.0748 54.4251 57.0478L-4.36009 56.8934C-12.9526 56.871 -20.0706 49.9912 -20.1246 41.3986C-20.1825 32.7308 -13.1341 25.6715 -4.48747 25.6947C-4.38325 25.6947 -4.279 25.6985 -4.17478 25.6985Z" fill="#ED5B52"/>
<path d="M-4.49147 25.449C-4.48761 25.449 -4.48378 25.4451 -4.48378 25.4413C-3.1913 17.019 4.11605 10.5527 12.8895 10.5759C14.4829 10.5797 16.0493 10.7996 17.5578 11.2201C17.5617 11.2201 17.5655 11.2202 17.5655 11.2163C21.5278 5.08571 28.3838 1.243 35.938 1.26229C46.8488 1.2893 55.8923 9.36055 57.4665 19.8354C57.4665 19.8393 57.4665 19.8392 57.4703 19.8431C66.2515 21.3092 72.9608 28.9421 72.9994 38.113C73.0418 48.4161 64.4111 56.8234 54.106 56.7968L-4.67669 56.6425C-13.2688 56.6197 -20.3832 49.7399 -20.4411 41.1474C-20.4989 32.4797 -13.4501 25.422 -4.804 25.4451C-4.69983 25.4451 -4.59564 25.4452 -4.49147 25.449Z" fill="#ED5B52"/>
<path d="M-4.80221 25.198C-4.79835 25.198 -4.79452 25.1941 -4.79452 25.1902C-3.50269 16.7644 3.80487 10.3013 12.5778 10.3245C14.1743 10.3283 15.7399 10.5481 17.2477 10.9685C17.2477 10.9685 17.2554 10.9685 17.2554 10.9646C21.2196 4.83319 28.0721 0.988545 35.6265 1.01168C46.5358 1.03868 55.5786 9.10975 57.1558 19.5833C57.1558 19.5871 57.1558 19.591 57.1597 19.591C65.9403 21.0564 72.6502 28.6902 72.6887 37.8614C72.7312 48.1645 64.1009 56.5719 53.7971 56.5449L-4.98734 56.3906C-13.579 56.3682 -20.6976 49.4883 -20.7516 40.8955C-20.8094 32.2278 -13.7641 25.1709 -5.11458 25.1941C-5.01047 25.1941 -4.90633 25.1941 -4.80221 25.198Z" fill="#ED5B52"/>
<path d="M-5.11287 24.9399C-5.10901 24.9399 -5.10903 24.9399 -5.10903 24.9322C-3.81397 16.5105 3.49385 10.0468 12.2663 10.0699C13.862 10.0738 15.4269 10.2935 16.9339 10.7136C16.9378 10.7136 16.9416 10.7136 16.9455 10.7097C20.9078 4.57747 27.7608 0.734701 35.3153 0.753973C46.223 0.784808 55.2692 8.85581 56.8417 19.328C56.8417 19.3319 56.8456 19.3358 56.8495 19.3358C65.6296 20.8004 72.34 28.4351 72.3747 37.6061C72.421 47.9095 63.7911 56.317 53.4885 56.29L-5.2979 56.1354C-13.8931 56.1131 -21.0082 49.2331 -21.0621 40.6406C-21.12 31.9726 -14.0742 24.913 -5.42509 24.9361C-5.32102 24.9361 -5.22079 24.9399 -5.11287 24.9399Z" fill="#ED5B52"/>
<path d="M-5.42766 24.693C-5.42381 24.693 -5.41998 24.6891 -5.41998 24.6853C-4.12943 16.2601 3.17858 9.79576 11.9543 9.81887C13.5454 9.82273 15.1133 10.0423 16.6196 10.4622C16.6273 10.4622 16.6273 10.4622 16.6312 10.4584C20.5914 4.32919 27.4487 0.484514 34.9994 0.503776C45.9133 0.534596 54.9587 8.60536 56.5305 19.0762C56.5305 19.08 56.5305 19.0839 56.5343 19.0839C65.314 20.5517 72.0249 28.1852 72.0634 37.3562C72.1058 47.6595 63.4764 56.0669 53.1712 56.04L-5.6126 55.8855C-14.2035 55.8628 -21.3227 48.9828 -21.3766 40.3908C-21.4344 31.7229 -14.3884 24.666 -5.73973 24.6853C-5.63571 24.6891 -5.53167 24.6891 -5.42766 24.693Z" fill="#ED5B52"/>
<path d="M-5.73842 24.4413C-5.73457 24.4413 -5.7346 24.4374 -5.73075 24.4336C-4.44084 16.0087 2.86739 9.54757 11.6427 9.57067C13.2368 9.57452 14.8039 9.794 16.3094 10.2137C16.3133 10.2137 16.3171 10.2137 16.321 10.2098C20.2831 4.07986 27.1332 0.233223 34.6917 0.256326C45.6001 0.28328 54.6449 8.35393 56.2159 18.8273C56.2198 18.8311 56.2197 18.8349 56.2236 18.8349C65.0027 20.302 71.7141 27.9336 71.7526 37.1063C71.795 47.4094 63.1622 55.8169 52.8621 55.79L-5.92328 55.6356C-14.5176 55.6129 -21.6332 48.7328 -21.6871 40.1408C-21.7449 31.473 -14.6985 24.4143 -6.05034 24.4374C-5.94637 24.4374 -5.84239 24.4374 -5.73842 24.4413Z" fill="#ED5B52"/>
<path d="M34.3781 -0.000176258C45.2888 0.0306123 54.3329 8.10109 55.907 18.5731C55.907 18.5769 55.9109 18.5808 55.9109 18.5808C64.6933 20.0471 71.4014 27.6826 71.4399 36.8534C71.4822 47.1564 62.8537 55.564 52.5472 55.537L-6.23591 55.3827C-14.8298 55.36 -21.9458 48.4799 -21.9996 39.8876C-22.0574 31.2198 -15.0106 24.1612 -6.35903 24.1843C-6.25897 24.1843 -6.15506 24.1843 -6.05115 24.1881C-6.0473 24.1881 -6.04348 24.1843 -6.04348 24.1804C-4.75036 15.7559 2.55423 9.29415 11.3328 9.31724C12.9261 9.32109 14.4925 9.54046 15.9973 9.95996C16.0011 9.95996 16.005 9.95993 16.0088 9.95609C19.969 3.82531 26.8234 -0.0194191 34.3781 -0.000176258Z" fill="#ED5B52"/>
<path d="M34.3781 -0.000176258C45.2888 0.0306123 54.3329 8.10109 55.907 18.5731C55.907 18.5769 55.9109 18.5808 55.9109 18.5808C64.6933 20.0471 71.4014 27.6826 71.4399 36.8534C71.4822 47.1564 62.8537 55.564 52.5472 55.537L-6.23591 55.3827C-14.8298 55.36 -21.9458 48.4799 -21.9996 39.8876C-22.0574 31.2198 -15.0106 24.1612 -6.35903 24.1843C-6.25897 24.1843 -6.15506 24.1843 -6.05115 24.1881C-6.0473 24.1881 -6.04348 24.1843 -6.04348 24.1804C-4.75036 15.7559 2.55423 9.29415 11.3328 9.31724C12.9261 9.32109 14.4925 9.54046 15.9973 9.95996C16.0011 9.95996 16.005 9.95993 16.0088 9.95609C19.969 3.82531 26.8234 -0.0194191 34.3781 -0.000176258Z" fill="#FFAD62"/>
</svg>
