<svg width="14" height="14" viewBox="0 0 14 14" fill="none" xmlns="http://www.w3.org/2000/svg">
<path d="M9.33075 4.94007C9.32943 3.31749 9.3049 2.47704 8.83251 1.90157C8.74132 1.79043 8.6394 1.68853 8.5283 1.59732C7.92116 1.09912 7.01921 1.09912 5.21519 1.09912C3.4112 1.09912 2.50921 1.09912 1.90211 1.59732C1.79096 1.68852 1.68906 1.79043 1.59784 1.90157C1.09961 2.50863 1.09961 3.41056 1.09961 5.21442C1.09961 7.01831 1.09961 7.9202 1.59784 8.52729C1.68905 8.63839 1.79096 8.7403 1.90211 8.83149C2.47762 9.30383 3.31813 9.32836 4.94082 9.32968" stroke="#00291C" stroke-width="0.625" stroke-linecap="round" stroke-linejoin="round"/>
<path d="M7.71667 4.96387L9.34781 4.94043M7.70897 12.1011L9.34005 12.0776M12.0855 7.71252L12.0701 9.34036M4.95679 7.72L4.94141 9.34778M6.31912 4.96387C5.86108 5.04591 5.1259 5.13029 4.95679 6.07721M10.7231 12.0776C11.1824 12.0026 11.9188 11.9295 12.1025 10.9853M10.7231 4.96387C11.1812 5.04591 11.9164 5.13029 12.0855 6.07721M6.32611 12.0769C5.86807 11.9951 5.13282 11.9111 4.96319 10.9643" stroke="#00291C" stroke-width="0.625" stroke-linecap="round" stroke-linejoin="round"/>
</svg>
