<svg width="12" height="12" viewBox="0 0 12 12" fill="none" xmlns="http://www.w3.org/2000/svg">
<path d="M11 4.75C10.9818 3.62385 10.8946 2.97328 10.4782 2.50645C10.3939 2.41201 10.3011 2.32468 10.2007 2.24543C9.57305 1.75 8.63295 1.75 6.7528 1.75H5.25205C3.37185 1.75 2.43176 1.75 1.80412 2.24543C1.70373 2.32468 1.61089 2.41201 1.52665 2.50645C1 3.09688 1 3.98126 1 5.75C1 7.51875 1 8.4031 1.52665 8.99355C1.61089 9.088 1.70373 9.1753 1.80412 9.25455C2.43176 9.75 3.37185 9.75 5.25205 9.75H5.5" stroke="#00291C" stroke-width="0.75" stroke-linecap="round" stroke-linejoin="round"/>
<path d="M1 4.25H11" stroke="#00291C" stroke-width="0.75" stroke-linejoin="round"/>
<path d="M9.66665 6.25L10.0782 6.62895C10.1678 6.717 10.2127 6.76105 10.1969 6.79845C10.1811 6.83585 10.1177 6.83585 9.99105 6.83585H8.43885C7.6442 6.83585 7 7.469 7 8.25C7 8.42605 7.03275 8.59455 7.0925 8.75M8.33335 10.25L7.92175 9.87105C7.83215 9.783 7.78735 9.73895 7.8031 9.70155C7.8189 9.66415 7.88225 9.66415 8.00895 9.66415H9.56115C10.3558 9.66415 11 9.031 11 8.25C11 8.07395 10.9673 7.90545 10.9075 7.75" stroke="#00291C" stroke-width="0.75" stroke-linecap="round" stroke-linejoin="round"/>
</svg>
