<svg width="50" height="48" viewBox="0 0 50 48" fill="none" xmlns="http://www.w3.org/2000/svg">
<path d="M40.606 40.063L30.0872 33.66C29.4103 33.2474 28.5322 33.4647 28.1249 34.1439L21.7842 44.7026C21.3769 45.3818 20.4972 45.5982 19.8219 45.1865L11.1551 39.9105C10.4786 39.4992 10.2612 38.6152 10.6685 37.9361L17.009 27.3761C17.4162 26.697 17.1989 25.813 16.5224 25.4017L6.00451 18.9972C5.32799 18.5858 5.10917 17.7009 5.51766 17.0215L10.7401 8.32254C11.1486 7.6431 12.0271 7.42698 12.7036 7.83834L23.2215 14.2429C23.898 14.6542 24.7777 14.4378 25.185 13.7587L31.5255 3.1987C31.933 2.52079 32.8112 2.30344 33.488 2.71604L42.1533 7.99106C42.8301 8.40366 43.0487 9.28731 42.6402 9.96674L36.3007 20.5252C35.8922 21.2046 36.111 22.0895 36.7875 22.5009L47.3051 28.9041C47.9819 29.3167 48.1992 30.2007 47.792 30.8798L42.5682 39.5791C42.161 40.2582 41.2828 40.4756 40.606 40.063Z" fill="#FF8064"/>
<path d="M40.3174 39.8875L29.8106 33.536C29.136 33.1276 28.2563 33.344 27.8483 34.0197L21.4952 44.5256C21.0872 45.2014 20.2087 45.4174 19.5329 45.0094L10.8772 39.7755C10.2015 39.3675 9.98418 38.4893 10.3935 37.8132L16.745 27.3064C17.1543 26.6304 16.937 25.7521 16.2612 25.3441L5.75534 18.9911C5.07959 18.583 4.86355 17.7045 5.2716 17.0287L10.5052 8.37181C10.9135 7.69729 11.7917 7.48001 12.4677 7.88929L22.9746 14.2408C23.6503 14.6489 24.5288 14.4328 24.9369 13.7571L31.2899 3.25117C31.698 2.57542 32.5774 2.35786 33.2522 2.76742L41.9092 8.00098C42.5849 8.40904 42.801 9.28753 42.3917 9.96357L36.0402 20.4704C35.6318 21.1449 35.8482 22.0247 36.5239 22.4327L47.0298 28.7857C47.7056 29.1938 47.9228 30.072 47.5135 30.7481L42.2812 39.4047C41.8716 40.0795 40.9934 40.2968 40.3174 39.8875Z" fill="#FF8064"/>
<path d="M40.317 39.8883L29.8112 33.5352C29.1355 33.1272 28.2558 33.3435 27.8478 34.0192L21.4964 44.526C21.0868 45.2008 20.2086 45.4181 19.5326 45.0088L10.8773 39.7762C10.2013 39.3669 9.98527 38.4884 10.3933 37.8127L16.745 27.3071C17.1542 26.6311 16.9367 25.7516 16.2622 25.3433L5.75521 18.9906C5.07948 18.5825 4.86343 17.704 5.27148 17.0282L10.5052 8.37259C10.9132 7.69685 11.7927 7.4793 12.4687 7.88858L22.9741 14.2404C23.6501 14.6497 24.5283 14.4324 24.9376 13.7564L31.2892 3.25083C31.6973 2.57509 32.577 2.35875 33.2527 2.76681L41.9083 8.00066C42.584 8.40871 42.8001 9.28721 42.392 9.96295L36.0395 20.47C35.6314 21.1457 35.8475 22.0243 36.5232 22.4323L47.0301 28.785C47.7059 29.1931 47.9222 30.0728 47.5139 30.7474L42.2805 39.4042C41.8724 40.08 40.9927 40.2963 40.317 39.8883Z" fill="#FF8064"/>
<path d="M40.0844 39.9424L29.5786 33.5895C28.9029 33.1814 28.0244 33.3975 27.6151 34.0735L21.2637 44.5801C20.8557 45.2559 19.9759 45.4722 19.3002 45.0641L10.6446 39.8304C9.96862 39.4211 9.75258 38.5426 10.1606 37.8669L16.5136 27.3612C16.9216 26.6855 16.7056 25.807 16.0295 25.3977L5.52288 19.0463C4.84686 18.6371 4.63082 17.7586 5.04009 17.0826L10.2726 8.4273C10.6819 7.75128 11.5604 7.53524 12.2361 7.94329L22.7416 14.295C23.4176 14.7042 24.2973 14.4879 24.7054 13.8122L31.0568 3.30552C31.4661 2.6295 32.3445 2.41345 33.0203 2.8215L41.6758 8.05523C42.3516 8.46328 42.5679 9.34299 42.1599 10.0187L35.8082 20.5241C35.3989 21.2001 35.6162 22.0783 36.291 22.4879L46.7976 28.8393C47.4734 29.2473 47.6897 30.127 47.2816 30.8028L42.0479 39.4583C41.6398 40.1341 40.7601 40.3504 40.0844 39.9424Z" fill="#FF8064"/>
<path d="M40.0308 39.7097L29.524 33.3583C28.8479 32.9491 27.9697 33.1663 27.5614 33.8408L21.2086 44.3478C20.8005 45.0235 19.9208 45.2399 19.2463 44.8315L10.5894 39.5981C9.91485 39.1898 9.6973 38.3104 10.1066 37.6343L16.4584 27.1289C16.8665 26.4532 16.6504 25.5747 15.9744 25.1654L5.46883 18.8138C4.79308 18.4057 4.57553 17.5263 4.98482 16.8503L10.2174 8.19499C10.6267 7.51897 11.5052 7.30293 12.181 7.71097L22.6881 14.0635C23.3626 14.4719 24.2423 14.2555 24.6504 13.5798L31.0032 3.07285C31.4112 2.39711 32.2897 2.18106 32.9655 2.5891L41.6212 7.82281C42.2969 8.23085 42.5145 9.11028 42.1052 9.78631L35.7533 20.2917C35.3453 20.9675 35.5616 21.8472 36.2374 22.2552L46.7429 28.6069C47.4189 29.0161 47.635 29.8946 47.2269 30.5704L41.9931 39.2259C41.585 39.9017 40.7065 40.1177 40.0308 39.7097Z" fill="#FF8064"/>
<path d="M39.7959 39.7625L29.2903 33.4107C28.6143 33.0015 27.7348 33.219 27.3268 33.8948L20.9737 44.4006C20.5657 45.0764 19.6872 45.2924 19.0114 44.8844L10.3557 39.6506C9.67998 39.2425 9.46243 38.3631 9.87199 37.6883L16.2235 27.1815C16.6328 26.5054 16.4155 25.6272 15.7395 25.2179L5.23389 18.8662C4.55814 18.4581 4.3418 17.5784 4.74985 16.9026L9.9837 8.24694C10.3918 7.57119 11.2703 7.35515 11.946 7.76321L22.4531 14.1159C23.1289 14.524 24.0074 14.3079 24.4154 13.6322L30.7682 3.12508C31.1765 2.45056 32.056 2.23301 32.732 2.64228L41.3874 7.87487C42.0635 8.28415 42.2795 9.16265 41.8715 9.8384L35.5184 20.3443C35.1104 21.02 35.3267 21.8997 36.0024 22.3078L46.508 28.6595C47.1841 29.0688 47.4014 29.947 46.9921 30.6231L41.7595 39.2785C41.3502 39.9545 40.4717 40.1706 39.7959 39.7625Z" fill="#FF8064"/>
<path d="M39.5629 39.8173L29.0575 33.4655C28.3817 33.0574 27.5033 33.2735 27.094 33.9495L20.7424 44.4551C20.3331 45.1311 19.4546 45.3471 18.7789 44.9391L10.1233 39.7052C9.44755 39.2972 9.23151 38.4187 9.63955 37.7429L15.9909 27.2361C16.4002 26.5601 16.1841 25.6816 15.5084 25.2735L5.00143 18.9207C4.32569 18.5127 4.10936 17.633 4.51768 16.9584L9.75109 8.30153C10.1594 7.62701 11.0389 7.40945 11.7149 7.81874L22.2203 14.1706C22.8961 14.5786 23.7745 14.3626 24.1838 13.6866L30.5354 3.18098C30.9435 2.50524 31.8229 2.28769 32.4989 2.69697L41.1542 7.92961C41.8303 8.3389 42.0463 9.2174 41.6383 9.89315L35.2857 20.4002C34.8774 21.0748 35.0937 21.9545 35.7694 22.3625L46.2764 28.7153C46.9521 29.1234 47.1682 30.0019 46.7601 30.6776L41.5264 39.3333C41.1184 40.009 40.239 40.2266 39.5629 39.8173Z" fill="#FF8064"/>
<path d="M39.5639 39.8166L29.0571 33.4651C28.3813 33.057 27.5028 33.2731 27.0936 33.9491L20.7418 44.4547C20.3337 45.1305 19.4543 45.348 18.7783 44.9387L10.1229 39.7061C9.44684 39.2968 9.23078 38.4183 9.63883 37.7426L15.9915 27.2355C16.3999 26.5609 16.1835 25.6812 15.5078 25.2732L5.00071 18.9204C4.32619 18.5121 4.10892 17.6339 4.5182 16.9578L9.75078 8.30241C10.1601 7.62637 11.0383 7.40909 11.7143 7.81837L22.2199 14.1702C22.8959 14.5795 23.7754 14.3619 24.1834 13.6862L30.5352 3.18055C30.9445 2.50452 31.823 2.28848 32.4987 2.69653L41.1544 7.93037C41.8301 8.33843 42.0465 9.21816 41.6381 9.89269L35.2867 20.3995C34.8774 21.0755 35.0947 21.9538 35.7704 22.3618L46.2763 28.7149C46.952 29.1229 47.1683 30.0026 46.76 30.6772L41.5265 39.3341C41.1184 40.0098 40.2387 40.2262 39.5639 39.8166Z" fill="#FF8064"/>
<path d="M39.2749 39.6394L28.7678 33.2868C28.0921 32.8788 27.2136 33.0948 26.8055 33.7705L20.4527 44.2775C20.0447 44.9532 19.1662 45.1693 18.4904 44.7612L9.83352 39.5278C9.159 39.1195 8.94144 38.2401 9.35073 37.564L15.7026 27.0586C16.1106 26.3829 15.8943 25.5031 15.2185 25.0951L4.71298 18.7435C4.03695 18.3342 3.81967 17.456 4.22895 16.78L9.46282 8.1244C9.87088 7.44866 10.7494 7.23261 11.4251 7.64065L21.9319 13.992C22.6067 14.4016 23.4862 14.184 23.8942 13.5083L30.2473 3.00253C30.6554 2.32679 31.5339 2.11075 32.2096 2.5188L40.8665 7.75221C41.541 8.16054 41.7586 9.03997 41.349 9.71477L34.9975 20.2214C34.5894 20.8972 34.8055 21.7757 35.4815 22.1849L45.9871 28.5366C46.6628 28.9446 46.8791 29.8243 46.4711 30.5001L41.2372 39.1556C40.8292 39.8314 39.9507 40.0474 39.2749 39.6394Z" fill="#FF8064"/>
<path d="M39.0419 39.6922L28.5361 33.3394C27.8603 32.9313 26.9806 33.1477 26.5726 33.8234L20.221 44.33C19.8118 45.0061 18.9333 45.2221 18.2575 44.8141L9.60185 39.5804C8.92611 39.1723 8.70977 38.2926 9.11783 37.6169L15.4696 27.1114C15.8789 26.4354 15.6617 25.5572 14.9856 25.148L4.48008 18.7963C3.80405 18.387 3.58801 17.5086 3.99607 16.8328L9.22991 8.17725C9.63796 7.50151 10.5177 7.28517 11.1922 7.6935L21.6993 14.0461C22.375 14.4541 23.2535 14.2381 23.6628 13.5621L30.0143 3.0554C30.4224 2.37966 31.3021 2.16334 31.9778 2.57138L40.6335 7.80508C41.3092 8.21313 41.5256 9.09284 41.1175 9.76858L34.7645 20.2743C34.3564 20.95 34.5725 21.8285 35.2485 22.2378L45.7553 28.5892C46.4301 28.9987 46.6473 29.8769 46.238 30.5529L41.0054 39.2082C40.5961 39.8842 39.7176 40.1003 39.0419 39.6922Z" fill="#FF8064"/>
<path d="M39.0414 39.6923L28.536 33.3405C27.86 32.9312 26.9818 33.1485 26.5725 33.8245L20.2209 44.3301C19.8116 45.0061 18.9331 45.2221 18.2574 44.8141L9.60181 39.5803C8.92608 39.1722 8.70974 38.2925 9.11807 37.618L15.4707 27.1109C15.8787 26.4352 15.6627 25.5567 14.9866 25.1474L4.47997 18.7959C3.80423 18.3878 3.5879 17.5081 3.99595 16.8323L9.22965 8.17668C9.63769 7.50093 10.5174 7.2846 11.1931 7.69265L21.6989 14.0457C22.3746 14.4537 23.2531 14.2377 23.6624 13.5617L30.0137 3.0549C30.4233 2.3801 31.3015 2.16283 31.9775 2.57211L40.6328 7.80473C41.3088 8.21401 41.5248 9.09251 41.1168 9.76826L34.7639 20.2741C34.3559 20.9498 34.5722 21.8296 35.248 22.2376L45.7546 28.5891C46.4306 28.9984 46.6467 29.8769 46.2386 30.5527L41.0049 39.2083C40.5969 39.8841 39.7172 40.1004 39.0414 39.6923Z" fill="#FF8064"/>
<path d="M38.8081 39.7468L28.3013 33.3952C27.6253 32.986 26.7471 33.2032 26.339 33.879L19.986 44.3849C19.578 45.0606 18.6983 45.2769 18.0225 44.8689L9.36682 39.6351C8.69107 39.227 8.47503 38.3485 8.88309 37.6728L15.2358 27.1656C15.6438 26.4899 15.4278 25.6114 14.7521 25.2033L4.24496 18.8506C3.57044 18.4422 3.35288 17.5628 3.76245 16.888L8.99475 8.23133C9.40431 7.55653 10.2825 7.33925 10.9583 7.7473L21.4641 14.1003C22.1399 14.5084 23.0196 14.2921 23.4277 13.6163L29.7794 3.11072C30.1887 2.43468 31.0669 2.2174 31.743 2.62668L40.3984 7.8593C41.0744 8.26858 41.2917 9.1468 40.8824 9.82283L34.5309 20.3297C34.1213 21.0045 34.3389 21.8839 35.0146 22.292L45.5205 28.645C46.1963 29.0531 46.4123 29.9316 46.0042 30.6073L40.7704 39.263C40.3624 39.9388 39.4829 40.1563 38.8081 39.7468Z" fill="#FF8064"/>
<path d="M38.7531 39.5133L28.246 33.1605C27.5715 32.7522 26.6917 32.9685 26.2837 33.6443L19.9307 44.1502C19.5226 44.8259 18.6444 45.0432 17.9684 44.6339L9.31294 39.4013C8.6369 38.992 8.41962 38.1138 8.8289 37.4378L15.1804 26.9309C15.5888 26.2564 15.3724 25.3767 14.6967 24.9686L4.19078 18.6156C3.51503 18.2075 3.29899 17.329 3.70704 16.6533L8.94087 7.99756C9.34893 7.32181 10.2272 7.10455 10.9032 7.51383L21.41 13.8653C22.0858 14.2734 22.9643 14.0573 23.3723 13.3816L29.7254 2.8757C30.1334 2.19995 31.0131 1.98362 31.6877 2.39196L40.3446 7.6255C41.0191 8.03384 41.2364 8.91207 40.8271 9.5881L34.4756 20.0949C34.0676 20.7707 34.2836 21.6492 34.9593 22.0573L45.4652 28.4103C46.141 28.8183 46.3585 29.6978 45.949 30.3726L40.7167 39.0292C40.3071 39.704 39.4289 39.9213 38.7531 39.5133Z" fill="#FF8064"/>
<path d="M38.5206 39.5678L28.0147 33.2148C27.3389 32.8068 26.4592 33.0231 26.0512 33.6989L19.6997 44.2057C19.2901 44.8805 18.4119 45.0977 17.7359 44.6885L9.08047 39.4559C8.40444 39.0466 8.1884 38.1681 8.59645 37.4923L14.9482 26.9868C15.3575 26.3107 15.1399 25.4313 14.4654 25.023L3.95863 18.6715C3.2826 18.2622 3.06656 17.3837 3.47461 16.7079L8.70842 8.05225C9.11648 7.37651 9.9962 7.16018 10.6707 7.56852L21.1775 13.92C21.8535 14.3293 22.7318 14.112 23.141 13.436L29.4928 2.93042C29.9009 2.25467 30.7806 2.03833 31.4563 2.44638L40.112 7.6802C40.7878 8.08825 41.0041 8.96798 40.5961 9.64372L34.243 20.1496C33.835 20.8253 34.051 21.7038 34.7271 22.1131L45.2339 28.4646C45.9084 28.8729 46.126 29.7524 45.7167 30.4284L40.4841 39.0838C40.0748 39.7598 39.1963 39.9759 38.5206 39.5678Z" fill="#FF8064"/>
<path d="M38.2856 39.622L27.7799 33.2691C27.1042 32.8611 26.2257 33.0771 25.8164 33.7531L19.465 44.2598C19.057 44.9355 18.1773 45.1518 17.5015 44.7438L8.84598 39.5101C8.17024 39.102 7.95392 38.2223 8.36197 37.5466L14.7149 27.0409C15.1229 26.3651 14.9069 25.4867 14.2308 25.0774L3.72422 18.726C3.0482 18.3167 2.83215 17.4382 3.24019 16.7625L8.47393 8.10696C8.88198 7.43122 9.7617 7.2149 10.4374 7.62295L20.9428 13.9746C21.6188 14.3839 22.4983 14.1663 22.9066 13.4918L29.258 2.9852C29.6673 2.30918 30.5457 2.09313 31.2215 2.50118L39.877 7.73491C40.5528 8.14295 40.7691 9.02267 40.361 9.6984L34.0094 20.2038C33.6001 20.8798 33.8174 21.758 34.4922 22.1676L44.9988 28.519C45.6745 28.927 45.8909 29.8067 45.4828 30.4825L40.2491 39.138C39.841 39.8137 38.9613 40.0301 38.2856 39.622Z" fill="#FF8064"/>
<path d="M38.2866 39.6218L27.7798 33.2703C27.1038 32.861 26.2255 33.0783 25.8172 33.7528L19.4644 44.2599C19.0564 44.9356 18.1767 45.152 17.5021 44.7436L8.84521 39.5102C8.16946 39.1021 7.95314 38.2224 8.36119 37.5466L14.7142 27.0408C15.1223 26.3651 14.9062 25.4866 14.2302 25.0773L3.72461 18.7255C3.04886 18.3175 2.83131 17.4381 3.24059 16.762L8.4732 8.10666C8.88249 7.43063 9.76099 7.21459 10.4367 7.62264L20.9426 13.9756C21.6184 14.3836 22.4981 14.1673 22.9062 13.4916L29.2589 2.98451C29.6673 2.31 30.5455 2.09271 31.2212 2.50077L39.8769 7.73454C40.553 8.14382 40.7702 9.02203 40.3609 9.69806L34.0091 20.2036C33.5998 20.8796 33.8174 21.7591 34.4932 22.1671L44.9988 28.5189C45.6748 28.9281 45.8908 29.8066 45.4828 30.4824L40.2489 39.138C39.8409 39.8138 38.9624 40.0298 38.2866 39.6218Z" fill="#FF8064"/>
<path d="M37.999 39.4422L27.4922 33.0907C26.8174 32.6811 25.9379 32.8987 25.5299 33.5744L19.1769 44.0803C18.7688 44.7561 17.8903 44.9721 17.2146 44.5641L8.55885 39.3302C7.8831 38.9222 7.66583 38.0439 8.07511 37.3679L14.4266 26.8611C14.8347 26.1853 14.6186 25.3068 13.9429 24.8988L3.43699 18.5457C2.76124 18.1377 2.5449 17.2579 2.95324 16.5834L8.1868 7.92649C8.59485 7.25074 9.47335 7.0347 10.1491 7.44275L20.6562 13.7955C21.332 14.2035 22.2105 13.9875 22.6185 13.3118L28.9716 2.80585C29.3796 2.1301 30.2591 1.91255 30.9339 2.32212L39.5905 7.55443C40.2653 7.964 40.4826 8.84222 40.0733 9.51825L33.7218 20.0251C33.3135 20.6996 33.5298 21.5793 34.2056 21.9874L44.7114 28.3404C45.3872 28.7485 45.6045 29.6267 45.1952 30.3027L39.9626 38.9582C39.5533 39.6342 38.6751 39.8515 37.999 39.4422Z" fill="#FF8064"/>
<path d="M37.764 39.4965L27.2585 33.1447C26.5828 32.7366 25.7031 32.953 25.295 33.6287L18.9434 44.1343C18.5341 44.8103 17.6559 45.0276 16.9799 44.6183L8.32435 39.3844C7.64861 38.9764 7.43257 38.0979 7.84061 37.4221L14.192 26.9153C14.6015 26.2405 14.384 25.3611 13.7094 24.9527L3.20249 18.6C2.52676 18.1919 2.3107 17.3134 2.71875 16.6376L7.95244 7.98197C8.36048 7.30622 9.23991 7.08867 9.91594 7.49796L20.4214 13.8498C21.0971 14.2579 21.9756 14.0418 22.3849 13.3658L28.7365 2.8602C29.1446 2.18446 30.0243 1.96813 30.7 2.37619L39.3556 7.61006C40.0313 8.01812 40.2474 8.89661 39.8393 9.57236L33.4867 20.0794C33.0787 20.7552 33.2947 21.6337 33.9705 22.0418L44.4774 28.3945C45.1532 28.8026 45.3692 29.6811 44.9612 30.3568L39.7278 39.0137C39.3194 39.6883 38.44 39.9058 37.764 39.4965Z" fill="#FF8064"/>
<path d="M37.7643 39.4978L27.2585 33.1447C26.5828 32.7366 25.7043 32.9527 25.2951 33.6287L18.9434 44.1343C18.5354 44.81 17.6559 45.0276 16.9799 44.6183L8.32464 39.3857C7.64862 38.9764 7.43256 38.0979 7.84061 37.4221L14.1935 26.9163C14.6015 26.2405 14.3852 25.3608 13.7094 24.9527L3.20277 18.6012C2.52675 18.1919 2.31071 17.3134 2.71875 16.6376L7.95244 7.98197C8.36172 7.30593 9.23992 7.08867 9.91594 7.49795L20.4214 13.8498C21.0974 14.2591 21.9768 14.0415 22.3849 13.3658L28.7365 2.8602C29.1458 2.18417 30.0243 1.96813 30.7 2.37619L39.3556 7.61006C40.0313 8.01812 40.2474 8.89661 39.8393 9.57236L33.488 20.0792C33.0787 20.7552 33.296 21.6334 33.9708 22.043L44.4774 28.3945C45.1532 28.8026 45.3695 29.6823 44.9615 30.3581L39.7278 39.0138C39.3197 39.6895 38.44 39.9058 37.7643 39.4978Z" fill="#FF8064"/>
<path d="M37.5327 39.5515L27.0256 33.1989C26.3499 32.7908 25.4714 33.0069 25.0633 33.6826L18.7105 44.1896C18.3025 44.8653 17.4228 45.0817 16.7482 44.6733L8.09133 39.4399C7.41681 39.0316 7.19926 38.1522 7.60854 37.4761L13.9604 26.9707C14.3684 26.295 14.1521 25.4152 13.4764 25.0072L2.97079 18.6556C2.29476 18.2463 2.07748 17.3681 2.48676 16.6921L7.71941 8.03678C8.12869 7.36076 9.0072 7.14472 9.68294 7.55276L20.19 13.9053C20.8645 14.3137 21.744 14.0961 22.1523 13.4216L28.5051 2.91464C28.9132 2.2389 29.7917 2.02286 30.4674 2.43091L39.1231 7.6646C39.7989 8.07265 40.0164 8.95207 39.6071 9.6281L33.2553 20.1335C32.8472 20.8093 33.0633 21.6878 33.7393 22.097L44.2449 28.4487C44.9206 28.8567 45.1369 29.7364 44.7289 30.4122L39.495 39.0677C39.087 39.7435 38.2085 39.9595 37.5327 39.5515Z" fill="#FF8064"/>
<path d="M37.4776 39.3192L26.972 32.9675C26.296 32.5583 25.4165 32.7758 25.0082 33.4503L18.6554 43.9573C18.2473 44.633 17.3688 44.8491 16.6931 44.441L8.0374 39.2073C7.36166 38.7993 7.14409 37.9198 7.55366 37.245L13.9052 26.7384C14.3145 26.0624 14.0972 25.1842 13.4212 24.7749L2.91563 18.4233C2.23988 18.0152 2.02356 17.1355 2.43161 16.4598L7.66548 7.80418C8.07354 7.12845 8.95205 6.9124 9.62779 7.32045L20.1349 13.673C20.8106 14.0811 21.6891 13.865 22.0972 13.1893L28.45 2.68233C28.858 2.00659 29.7377 1.79027 30.4123 2.1986L39.0692 7.432C39.7449 7.84005 39.9613 8.71976 39.5532 9.3955L33.2001 19.9012C32.7921 20.577 33.0081 21.4554 33.6841 21.8647L44.1897 28.2163C44.8658 28.6256 45.083 29.5038 44.6737 30.1798L39.4411 38.8351C39.0318 39.5112 38.1533 39.7272 37.4776 39.3192Z" fill="#FF8064"/>
<path d="M37.2426 39.372L26.7372 33.0202C26.0612 32.6109 25.1829 32.8282 24.7737 33.5042L18.422 44.0098C18.0128 44.6858 17.1343 44.9018 16.4586 44.4938L7.80298 39.2599C7.12724 38.8519 6.9109 37.9721 7.31923 37.2976L13.6706 26.7908C14.0798 26.1148 13.8626 25.2366 13.1878 24.827L2.68111 18.4754C2.00537 18.0674 1.78905 17.1876 2.19709 16.5119L7.43079 7.85621C7.83883 7.18046 8.71854 6.96414 9.39428 7.3722L19.9 13.7253C20.5757 14.1333 21.4542 13.9173 21.8635 13.2412L28.2151 2.73567C28.6232 2.05992 29.5026 1.84237 30.1786 2.25166L38.8339 7.4843C39.5099 7.89358 39.726 8.77209 39.3179 9.44784L32.9651 19.9537C32.557 20.6294 32.7734 21.5092 33.4491 21.9172L43.9558 28.2688C44.6318 28.6781 44.8478 29.5566 44.4398 30.2323L39.2061 38.888C38.7981 39.5637 37.9183 39.7801 37.2426 39.372Z" fill="#FF8064"/>
<path d="M37.2426 39.372L26.7372 33.0202C26.0612 32.6109 25.1829 32.8282 24.7737 33.5042L18.422 44.0098C18.0128 44.6858 17.1343 44.9018 16.4586 44.4938L7.80298 39.2599C7.12724 38.8519 6.9109 37.9721 7.31923 37.2976L13.6706 26.7908C14.0798 26.1148 13.8626 25.2366 13.1878 24.827L2.68111 18.4754C2.00537 18.0674 1.78905 17.1876 2.19709 16.5119L7.43079 7.85621C7.83883 7.18046 8.71854 6.96414 9.39428 7.3722L19.9 13.7253C20.5757 14.1333 21.4542 13.9173 21.8635 13.2412L28.2151 2.73567C28.6232 2.05992 29.5026 1.84237 30.1786 2.25166L38.8339 7.4843C39.5099 7.89358 39.726 8.77209 39.3179 9.44784L32.9651 19.9537C32.557 20.6294 32.7734 21.5092 33.4491 21.9172L43.9558 28.2688C44.6318 28.6781 44.8478 29.5566 44.4398 30.2323L39.2061 38.888C38.7981 39.5637 37.9183 39.7801 37.2426 39.372Z" fill="#E6DEFF"/>
<path d="M37.4776 39.3182L26.972 32.9666C26.296 32.5573 25.4165 32.7748 25.0082 33.4494L18.6554 43.9563C18.2473 44.632 17.3688 44.8481 16.6931 44.44L8.0374 39.2063C7.36166 38.7983 7.14409 37.9189 7.55366 37.2441L13.9052 26.7374C14.3145 26.0614 14.0972 25.1832 13.4212 24.7739L2.91563 18.4223C2.23988 18.0142 2.02356 17.1345 2.43161 16.4588L7.66548 7.80321C8.07354 7.12747 8.95205 6.91143 9.62779 7.31947L20.1349 13.672C20.8106 14.0801 21.6891 13.864 22.0972 13.1883L28.45 2.68135C28.858 2.00561 29.7377 1.78929 30.4123 2.19762L39.0692 7.43103C39.7449 7.83907 39.9613 8.71879 39.5532 9.39452L33.2001 19.9002C32.7921 20.576 33.0081 21.4545 33.6841 21.8637L44.1897 28.2154C44.8658 28.6246 45.083 29.5028 44.6737 30.1789L39.4411 38.8342C39.0318 39.5102 38.1533 39.7262 37.4776 39.3182Z" fill="#FF8064"/>
<path d="M37.2426 39.373L26.7372 33.0212C26.0612 32.6119 25.1829 32.8291 24.7737 33.5052L18.422 44.0107C18.0128 44.6868 17.1343 44.9028 16.4586 44.4948L7.80298 39.2609C7.12724 38.8528 6.9109 37.9731 7.31923 37.2986L13.6706 26.7918C14.0798 26.1157 13.8626 25.2375 13.1878 24.828L2.68111 18.4764C2.00537 18.0683 1.78905 17.1886 2.19709 16.5129L7.43079 7.85719C7.83883 7.18144 8.71854 6.96512 9.39428 7.37318L19.9 13.7262C20.5757 14.1343 21.4542 13.9183 21.8635 13.2422L28.2151 2.73665C28.6232 2.0609 29.5026 1.84335 30.1786 2.25263L38.8339 7.48528C39.5099 7.89456 39.726 8.77307 39.3179 9.44881L32.9651 19.9547C32.557 20.6304 32.7734 21.5101 33.4491 21.9182L43.9558 28.2698C44.6318 28.679 44.8478 29.5575 44.4398 30.2333L39.2061 38.889C38.7981 39.5647 37.9183 39.781 37.2426 39.373Z" fill="#FF8064"/>
<path d="M37.2426 39.373L26.7372 33.0212C26.0612 32.6119 25.1829 32.8291 24.7737 33.5052L18.422 44.0107C18.0128 44.6868 17.1343 44.9028 16.4586 44.4948L7.80298 39.2609C7.12724 38.8528 6.9109 37.9731 7.31923 37.2986L13.6706 26.7918C14.0798 26.1157 13.8626 25.2375 13.1878 24.828L2.68111 18.4764C2.00537 18.0683 1.78905 17.1886 2.19709 16.5129L7.43079 7.85719C7.83883 7.18144 8.71854 6.96512 9.39428 7.37318L19.9 13.7262C20.5757 14.1343 21.4542 13.9183 21.8635 13.2422L28.2151 2.73665C28.6232 2.0609 29.5026 1.84335 30.1786 2.25263L38.8339 7.48528C39.5099 7.89456 39.726 8.77307 39.3179 9.44881L32.9651 19.9547C32.557 20.6304 32.7734 21.5101 33.4491 21.9182L43.9558 28.2698C44.6318 28.679 44.8478 29.5575 44.4398 30.2333L39.2061 38.889C38.7981 39.5647 37.9183 39.781 37.2426 39.373Z" fill="#E6DEFF"/>
</svg>
