<svg width="20" height="20" viewBox="0 0 20 20" fill="none" xmlns="http://www.w3.org/2000/svg">
<path d="M14.1465 8.99141C14.1465 8.70372 14.1465 8.55992 14.1898 8.43177C14.3156 8.05932 14.6473 7.91479 14.9796 7.76343C15.3531 7.59329 15.5399 7.50821 15.725 7.49324C15.9351 7.47625 16.1455 7.52152 16.3251 7.6223C16.5632 7.75591 16.7292 8.0098 16.8992 8.21625C17.6843 9.16974 18.0768 9.64658 18.2204 10.1723C18.3363 10.5966 18.3363 11.0403 18.2204 11.4646C18.0109 12.2314 17.3491 12.8743 16.8592 13.4693C16.6086 13.7736 16.4833 13.9258 16.3251 14.0146C16.1455 14.1154 15.9351 14.1606 15.725 14.1437C15.5399 14.1287 15.3531 14.0436 14.9796 13.8735C14.6473 13.7221 14.3156 13.5776 14.1898 13.2051C14.1465 13.077 14.1465 12.9332 14.1465 12.6455V8.99141Z" stroke="#00291C" stroke-width="1.24826"/>
<path d="M5.82494 8.99149C5.82494 8.62933 5.81477 8.30379 5.52196 8.04914C5.41545 7.95652 5.27425 7.8922 4.99186 7.76358C4.6183 7.59342 4.43151 7.50835 4.24644 7.49338C3.69117 7.44847 3.39243 7.82745 3.07221 8.21639C2.28715 9.16991 1.89463 9.64667 1.75099 10.1724C1.63509 10.5968 1.63509 11.0405 1.75099 11.4647C1.96048 12.2316 2.62233 12.8743 3.11222 13.4694C3.42103 13.8445 3.71602 14.1867 4.24644 14.1438C4.43151 14.1288 4.6183 14.0437 4.99186 13.8736C5.27425 13.745 5.41545 13.6806 5.52196 13.588C5.81477 13.3334 5.82494 13.0079 5.82494 12.6457V8.99149Z" stroke="#00291C" stroke-width="1.24826"/>
<path d="M4.16016 7.48964C4.16016 4.73205 6.7682 2.49658 9.98539 2.49658C13.2026 2.49658 15.8106 4.73205 15.8106 7.48964" stroke="#00291C" stroke-width="1.24826" stroke-linecap="square" stroke-linejoin="round"/>
<path d="M15.8114 14.147V14.8127C15.8114 16.2834 14.3211 17.4757 12.4827 17.4757H10.8184" stroke="#00291C" stroke-width="1.24826" stroke-linecap="round" stroke-linejoin="round"/>
</svg>
