<svg width="20" height="20" viewBox="0 0 20 20" fill="none" xmlns="http://www.w3.org/2000/svg">
<path d="M6.65771 14.1466H13.3151" stroke="#00291C" stroke-width="1.24826" stroke-linecap="round" stroke-linejoin="round"/>
<path d="M6.65771 10.8185H9.98642" stroke="#00291C" stroke-width="1.24826" stroke-linecap="round" stroke-linejoin="round"/>
<path d="M10.8182 2.08015V2.49624C10.8182 4.84999 10.8182 6.02686 11.5494 6.75808C12.2807 7.48929 13.4575 7.48929 15.8113 7.48929H16.2273M16.6434 8.86813V11.6502C16.6434 14.7885 16.6434 16.3577 15.6685 17.3326C14.6936 18.3076 13.1243 18.3076 9.98602 18.3076C6.84769 18.3076 5.27853 18.3076 4.30357 17.3326C3.32861 16.3577 3.32861 14.7885 3.32861 11.6502V7.86863C3.32861 5.16821 3.32861 3.81799 4.06598 2.90345C4.21495 2.71869 4.38324 2.5504 4.568 2.40143C5.48254 1.66406 6.83276 1.66406 9.53315 1.66406C10.1203 1.66406 10.4138 1.66406 10.6827 1.75894C10.7386 1.77867 10.7934 1.80137 10.8469 1.82696C11.1041 1.94996 11.3117 2.15754 11.7268 2.5727L15.6685 6.51434C16.1495 6.99539 16.39 7.23591 16.5168 7.54177C16.6434 7.84763 16.6434 8.18778 16.6434 8.86813Z" stroke="#00291C" stroke-width="1.24826" stroke-linecap="round" stroke-linejoin="round"/>
</svg>
