<svg width="12" height="12" viewBox="0 0 12 12" fill="none" xmlns="http://www.w3.org/2000/svg">
<path d="M4.99998 9C4.99998 9 3.75 8.0794 3.75 7.75C3.75 7.4206 4.99998 6.5 4.99998 6.5" stroke="#00291C" stroke-width="0.75" stroke-linecap="round" stroke-linejoin="round"/>
<path d="M7 9C7 9 8.25 8.0794 8.25 7.75C8.25 7.4206 7 6.5 7 6.5" stroke="#00291C" stroke-width="0.75" stroke-linecap="round" stroke-linejoin="round"/>
<path d="M6.5 1.25V1.5C6.5 2.91421 6.5 3.62132 6.93935 4.06066C7.3787 4.5 8.0858 4.5 9.5 4.5H9.75M10 5.32845V7C10 8.8856 10 9.82845 9.4142 10.4142C8.82845 11 7.8856 11 6 11C4.11438 11 3.17157 11 2.58578 10.4142C2 9.82845 2 8.8856 2 7V4.72792C2 3.10541 2 2.29416 2.44303 1.74467C2.53254 1.63366 2.63365 1.53254 2.74466 1.44304C3.29415 1 4.10541 1 5.7279 1C6.0807 1 6.25705 1 6.4186 1.05701C6.4522 1.06886 6.4851 1.0825 6.51725 1.09787C6.6718 1.17177 6.7965 1.2965 7.04595 1.54594L9.4142 3.91422C9.70325 4.20325 9.84775 4.34776 9.9239 4.53153C10 4.7153 10 4.91968 10 5.32845Z" stroke="#00291C" stroke-width="0.75" stroke-linecap="round" stroke-linejoin="round"/>
</svg>
