<svg width="14" height="14" viewBox="0 0 14 14" fill="none" xmlns="http://www.w3.org/2000/svg">
<path d="M1.16602 11.0833V4.4036C1.16602 3.56134 1.16602 3.14021 1.30795 2.80961C1.48492 2.39741 1.81343 2.06891 2.22562 1.89194C2.55623 1.75 2.97321 1.75 3.81961 1.75H4.10783C4.46079 1.75 4.79479 1.9098 5.01625 2.18464L6.07622 3.5M6.07622 3.5H9.33268C10.1494 3.5 10.5578 3.5 10.8698 3.65895C11.1442 3.79877 11.3672 4.02186 11.5071 4.29626C11.666 4.60822 11.666 5.01659 11.666 5.83333V6.41667M6.07622 3.5H4.08268" stroke="#00291C" stroke-linecap="round" stroke-linejoin="round"/>
<path d="M1.84153 9.05003L2.0156 8.61678C2.44368 7.55115 2.65773 7.01839 3.10408 6.71751C3.55043 6.41663 4.12676 6.41663 5.27943 6.41663H9.98129C11.5496 6.41663 12.3337 6.41663 12.6823 6.9292C13.0308 7.44183 12.7396 8.16674 12.1572 9.61656L11.9831 10.0498C11.555 11.1154 11.341 11.6482 10.8946 11.9491C10.4482 12.25 9.87191 12.25 8.71925 12.25H4.01742C2.44912 12.25 1.66497 12.25 1.31641 11.7374C0.967851 11.2248 1.25907 10.4998 1.84153 9.05003Z" stroke="#00291C" stroke-linejoin="round"/>
</svg>
