<svg width="11" height="11" viewBox="0 0 11 11" fill="none" xmlns="http://www.w3.org/2000/svg">
<path d="M4.58366 9.42685C3.01223 9.95728 1.70271 9.42685 0.916992 7.79175" stroke="#A6A6AF" stroke-linecap="round" stroke-linejoin="round"/>
<path d="M4.58366 10.0834V8.59745C4.58366 8.32323 4.66795 8.0849 4.80384 7.86962C4.89707 7.7219 4.83322 7.51235 4.66483 7.46606C3.27005 7.08261 2.29199 6.46611 2.29199 4.42119C2.29199 3.88955 2.46618 3.38971 2.77238 2.95468C2.84858 2.84641 2.88668 2.79228 2.89584 2.74325C2.90499 2.69422 2.88907 2.63024 2.85722 2.50227C2.72758 1.98142 2.73598 1.42833 2.93055 0.929686C2.93055 0.929686 3.3326 0.79869 4.24769 1.37036C4.45662 1.50088 4.56109 1.56614 4.6531 1.58074C4.74508 1.59534 4.8681 1.56476 5.11409 1.5036C5.4505 1.41997 5.79714 1.37508 6.18783 1.37508C6.57851 1.37508 6.92515 1.41997 7.26156 1.5036C7.50755 1.56476 7.63057 1.59534 7.72255 1.58074C7.81459 1.56614 7.91904 1.50088 8.12795 1.37036C9.04306 0.79869 9.44511 0.929686 9.44511 0.929686C9.63967 1.42833 9.64806 1.98142 9.51844 2.50227C9.48659 2.63024 9.47064 2.69422 9.4798 2.74325C9.48897 2.79228 9.52706 2.84642 9.60328 2.95468C9.90945 3.38971 10.0837 3.88955 10.0837 4.42119C10.0837 6.46611 9.10562 7.08261 7.71082 7.46606C7.54243 7.51235 7.47858 7.7219 7.57181 7.86962C7.7077 8.0849 7.79199 8.32323 7.79199 8.59745V10.0834" stroke="#A6A6AF" stroke-linecap="round" stroke-linejoin="round"/>
</svg>
