<svg width="203" height="200" viewBox="0 0 203 200" fill="none" xmlns="http://www.w3.org/2000/svg">
<path fill-rule="evenodd" clip-rule="evenodd" d="M80.1673 8.58978C91.7105 -2.86326 110.32 -2.86326 121.863 8.58978C128.016 14.693 136.531 17.7942 145.165 17.0764C158.681 15.9502 170.844 24.0998 175.366 36.2389L109.717 73.6952L104.399 76.7885C99.7798 79.4772 96.9066 84.3868 96.8293 89.7326L96.4466 116.148V123.969C96.4466 129.6 99.5319 134.799 104.514 137.484L164.682 169.912C159.458 172.902 155.213 177.447 152.595 182.999C145.662 197.712 128.174 204.081 113.414 197.271C105.546 193.639 96.4843 193.639 88.6162 197.271C73.8558 204.081 56.3679 197.712 49.4348 182.999C45.7397 175.158 38.7977 169.329 30.439 167.049C14.7565 162.773 5.45187 146.645 9.5911 130.913C11.797 122.529 10.2236 113.598 5.28432 106.476C-3.98063 93.1114 -0.749546 74.7739 12.5248 65.387C19.6006 60.3822 24.1315 52.5301 24.9236 43.8967C26.4108 27.7006 40.6666 15.7281 56.8656 17.0764C65.499 17.7942 74.0144 14.693 80.1673 8.58978Z" fill="#B6E343"/>
<path fill-rule="evenodd" clip-rule="evenodd" d="M115.339 86.1561L115.46 85.9181L115.579 85.7318C115.482 85.8666 115.401 86.0054 115.339 86.1561ZM179.369 150.315C180.431 150.89 180.962 151.178 181.243 151.652C181.474 152.039 181.573 152.589 181.492 153.032C181.393 153.574 181.035 153.985 180.318 154.806C179.197 156.09 177.962 157.283 176.623 158.365C175.928 158.927 175.581 159.208 175.076 159.379C174.666 159.518 174.114 159.57 173.686 159.509C173.158 159.433 172.701 159.187 171.789 158.696L110.775 125.833C110.079 125.456 109.645 124.727 109.645 123.934V116.113C109.645 114.483 111.382 113.444 112.813 114.218L179.369 150.315Z" fill="#B6E343"/>
<path fill-rule="evenodd" clip-rule="evenodd" d="M179.077 56.0997C179.976 53.5961 180.425 52.3442 180.139 51.6369C179.891 51.0242 179.357 50.5734 178.711 50.4325C177.965 50.27 176.807 50.9241 174.491 52.2323L116.257 85.1243C115.975 85.2869 115.751 85.4931 115.579 85.7311L115.46 85.9175L115.339 86.1554C115.204 86.4806 115.15 86.8336 115.178 87.1746L115.188 87.2738C115.271 87.9321 115.652 88.5547 116.326 88.9076L178.237 123.883C179.396 124.538 179.975 124.865 180.347 124.783C180.67 124.713 180.938 124.488 181.062 124.181C181.205 123.828 180.98 123.202 180.53 121.95L168.372 88.0812C168.229 87.6807 168.157 87.4804 168.128 87.2748C168.103 87.0925 168.103 86.9075 168.128 86.7252C168.157 86.5196 168.229 86.3193 168.372 85.9188L179.077 56.0997Z" fill="#B6E343"/>
</svg>
