<svg width="20" height="20" viewBox="0 0 20 20" fill="none" xmlns="http://www.w3.org/2000/svg">
<path d="M17.6318 14.9793C17.464 15.7189 17.1882 16.2807 16.7347 16.7342C15.5769 17.8919 13.7135 17.8919 9.98672 17.8919C6.25999 17.8919 4.39658 17.8919 3.23885 16.7342C2.08113 15.5764 2.08113 13.713 2.08113 9.98624C2.08113 6.25947 2.08113 4.39609 3.23885 3.23832C4.39658 2.08057 6.25999 2.08057 9.98672 2.08057C13.7135 2.08057 15.5769 2.08057 16.7347 3.23832C17.1882 3.69183 17.464 4.25359 17.6318 4.99319" stroke="#00291C" stroke-width="1.24826" stroke-linecap="round" stroke-linejoin="round"/>
<path d="M15.3961 7.48975L17.8926 9.98627L15.3961 12.4828M17.0604 9.98627H11.2352" stroke="#00291C" stroke-width="1.24826" stroke-linecap="round" stroke-linejoin="round"/>
<path d="M7.49023 2.07861V17.8899" stroke="#00291C" stroke-width="1.24826"/>
<path d="M2.08109 7.07178H7.49023M2.08109 12.897H7.49023" stroke="#00291C" stroke-width="1.24826"/>
</svg>
