<svg width="20" height="20" viewBox="0 0 20 20" fill="none" xmlns="http://www.w3.org/2000/svg">
<path d="M12.8982 1.66431V4.99301M7.073 4.99301V1.66431" stroke="#00291C" stroke-width="1.24826" stroke-linecap="round" stroke-linejoin="round"/>
<path d="M4.99663 6.33572C4.94065 5.61125 5.52515 4.99316 6.26627 4.99316H13.7057C14.4468 4.99316 15.0313 5.61125 14.9753 6.33572L14.8223 8.31519C14.7124 9.73815 14.231 11.1095 13.4245 12.2974L12.9246 13.0338C12.4524 13.7293 11.6567 14.1471 10.8047 14.1471H9.16728C8.3152 14.1471 7.51955 13.7293 7.0474 13.0338L6.54745 12.2974C5.74092 11.1095 5.25956 9.73815 5.14959 8.31519L4.99663 6.33572Z" stroke="#00291C" stroke-width="1.24826"/>
<path d="M9.98633 14.1472V18.3081" stroke="#00291C" stroke-width="1.24826" stroke-linecap="round" stroke-linejoin="round"/>
<path d="M9.15454 7.48962H10.8189" stroke="#00291C" stroke-width="1.24826" stroke-linecap="round" stroke-linejoin="round"/>
</svg>
