<svg width="109" height="22" viewBox="0 0 109 22" fill="none" xmlns="http://www.w3.org/2000/svg">
<path fill-rule="evenodd" clip-rule="evenodd" d="M8.82966 0.994402C10.0259 -0.19247 11.9543 -0.19247 13.1506 0.994402C13.7882 1.62688 14.6706 1.94826 15.5653 1.87387C16.966 1.75716 18.2264 2.60169 18.695 3.85966L11.8919 7.74124L11.3408 8.06179C10.8621 8.34043 10.5644 8.84921 10.5563 9.40319L10.5167 12.1406V12.9511C10.5167 13.5346 10.8364 14.0734 11.3527 14.3516L17.5879 17.7121C17.0465 18.022 16.6066 18.4929 16.3353 19.0683C15.6169 20.593 13.8046 21.253 12.275 20.5474C11.4596 20.1709 10.5206 20.1709 9.70522 20.5474C8.17561 21.253 6.36335 20.593 5.64487 19.0683C5.26196 18.2558 4.54256 17.6517 3.67634 17.4154C2.05118 16.9724 1.08695 15.301 1.51589 13.6707C1.74449 12.8019 1.58144 11.8764 1.06958 11.1383C0.109463 9.75333 0.444298 7.85302 1.81991 6.88027C2.55317 6.36163 3.0227 5.54791 3.10479 4.65324C3.25891 2.97485 4.73623 1.73414 6.41492 1.87387C7.3096 1.94826 8.19205 1.62688 8.82966 0.994402Z" fill="#B6E343"/>
<path fill-rule="evenodd" clip-rule="evenodd" d="M12.472 9.03239L12.4845 9.00773L12.4968 8.98841C12.4868 9.00239 12.4784 9.01677 12.472 9.03239ZM19.1074 15.6811C19.2174 15.7408 19.2724 15.7706 19.3016 15.8197C19.3254 15.8598 19.3357 15.9168 19.3274 15.9627C19.3171 16.0189 19.28 16.0614 19.2057 16.1465C19.0896 16.2797 18.9616 16.4032 18.8228 16.5154C18.7508 16.5736 18.7148 16.6027 18.6624 16.6205C18.62 16.6349 18.5627 16.6402 18.5184 16.6339C18.4637 16.6261 18.4164 16.6006 18.3218 16.5497L11.999 13.1441C11.9268 13.1051 11.8818 13.0294 11.8818 12.9473V12.1368C11.8818 11.9679 12.0618 11.8602 12.2102 11.9404L19.1074 15.6811Z" fill="#B6E343"/>
<path fill-rule="evenodd" clip-rule="evenodd" d="M19.0801 5.91725C19.1732 5.6578 19.2198 5.52807 19.1901 5.45477C19.1644 5.39127 19.1091 5.34456 19.0421 5.32996C18.9649 5.31312 18.8449 5.3809 18.6049 5.51647L12.57 8.92505C12.5409 8.9419 12.5176 8.96327 12.4998 8.98793L12.4874 9.00725L12.4749 9.03191C12.4609 9.06561 12.4554 9.10218 12.4583 9.13752L12.4593 9.1478C12.4679 9.21602 12.5074 9.28054 12.5772 9.31712L18.9931 12.9416C19.1131 13.0094 19.1731 13.0433 19.2117 13.0349C19.2452 13.0276 19.2729 13.0043 19.2857 12.9725C19.3005 12.9359 19.2773 12.871 19.2307 12.7412L17.9708 9.23147C17.9559 9.18997 17.9484 9.16921 17.9455 9.14791C17.9428 9.12901 17.9428 9.10985 17.9455 9.09095C17.9484 9.06965 17.9559 9.04889 17.9708 9.00739L19.0801 5.91725Z" fill="#B6E343"/>
<path d="M30.4877 17.4913C29.6206 17.4913 28.8934 17.3234 28.306 16.9878C27.7187 16.6521 27.2571 16.1976 26.9215 15.6242V6.98146C27.2851 6.38011 27.7606 5.91161 28.348 5.57596C28.9354 5.24032 29.6486 5.0725 30.4877 5.0725C31.5925 5.0725 32.5365 5.33822 33.3197 5.86965C34.1028 6.40108 34.7042 7.1353 35.1238 8.0723C35.5573 9.0093 35.7741 10.0862 35.7741 11.3029C35.7741 12.5056 35.5573 13.5754 35.1238 14.5124C34.7042 15.4494 34.1028 16.1836 33.3197 16.7151C32.5365 17.2325 31.5925 17.4913 30.4877 17.4913ZM24.2783 21.3511V5.40814H26.9215V21.3511H24.2783ZM30.0681 15.1208C30.7115 15.1208 31.2569 14.96 31.7044 14.6383C32.1519 14.3027 32.4876 13.8481 32.7113 13.2748C32.9491 12.6874 33.0679 12.0301 33.0679 11.3029C33.0679 10.5616 32.9491 9.89735 32.7113 9.30998C32.4876 8.72261 32.1519 8.26809 31.7044 7.94644C31.2569 7.61079 30.7115 7.44297 30.0681 7.44297C29.3549 7.44297 28.7675 7.61779 28.306 7.96741C27.8445 8.30305 27.4949 8.76456 27.2571 9.35194C27.0334 9.92532 26.9215 10.5756 26.9215 11.3029C26.9215 12.0161 27.0334 12.6664 27.2571 13.2538C27.4949 13.8272 27.8445 14.2817 28.306 14.6173C28.7675 14.953 29.3549 15.1208 30.0681 15.1208Z" fill="#1F1D1D"/>
<path d="M42.4459 17.4913C41.2432 17.4913 40.1873 17.2325 39.2783 16.7151C38.3833 16.1836 37.684 15.4494 37.1805 14.5124C36.6911 13.5754 36.4463 12.5056 36.4463 11.3029C36.4463 10.0862 36.6911 9.0093 37.1805 8.0723C37.684 7.1353 38.3833 6.40108 39.2783 5.86965C40.1873 5.33822 41.2502 5.0725 42.4669 5.0725C43.6696 5.0725 44.7185 5.33822 45.6135 5.86965C46.5086 6.40108 47.2009 7.1353 47.6903 8.0723C48.1938 9.0093 48.4455 10.0862 48.4455 11.3029C48.4455 12.5056 48.1938 13.5754 47.6903 14.5124C47.2009 15.4494 46.5086 16.1836 45.6135 16.7151C44.7185 17.2325 43.6626 17.4913 42.4459 17.4913ZM42.4669 15.1208C43.1801 15.1208 43.7815 14.96 44.271 14.6383C44.7605 14.3027 45.1311 13.8481 45.3828 13.2748C45.6345 12.6874 45.7604 12.0301 45.7604 11.3029C45.7604 10.5616 45.6345 9.89735 45.3828 9.30998C45.1311 8.72261 44.7605 8.26809 44.271 7.94644C43.7815 7.61079 43.1801 7.44297 42.4669 7.44297C41.7397 7.44297 41.1313 7.61079 40.6419 7.94644C40.1524 8.26809 39.7818 8.72261 39.53 9.30998C39.2783 9.89735 39.1524 10.5616 39.1524 11.3029C39.1524 12.0301 39.2783 12.6874 39.53 13.2748C39.7818 13.8481 40.1524 14.3027 40.6419 14.6383C41.1313 14.96 41.7397 15.1208 42.4669 15.1208Z" fill="#1F1D1D"/>
<path d="M50.2784 17.1556V0.627778H52.9216V14.911H55.5648V17.1556H50.2784ZM48.7261 7.65275V5.40814H55.2292V7.65275H48.7261Z" fill="#1F1D1D"/>
<path d="M63.0104 17.4913C62.1433 17.4913 61.4161 17.3234 60.8287 16.9878C60.2413 16.6521 59.7798 16.1976 59.4442 15.6242V11.3029V6.98146C59.8078 6.38011 60.2833 5.91161 60.8707 5.57596C61.458 5.24032 62.1713 5.0725 63.0104 5.0725C64.1152 5.0725 65.0592 5.33822 65.8424 5.86965C66.6255 6.40108 67.2269 7.1353 67.6464 8.0723C68.08 9.0093 68.2968 10.0862 68.2968 11.3029C68.2968 12.5056 68.08 13.5754 67.6464 14.5124C67.2269 15.4494 66.6255 16.1836 65.8424 16.7151C65.0592 17.2325 64.1152 17.4913 63.0104 17.4913ZM56.801 21.3511V5.40814H59.4442V21.3511H56.801ZM62.5908 15.1208C63.2342 15.1208 63.7796 14.96 64.2271 14.6383C64.6746 14.3027 65.0103 13.8481 65.234 13.2748C65.4718 12.6874 65.5906 12.0301 65.5906 11.3029C65.5906 10.5616 65.4718 9.89735 65.234 9.30998C65.0103 8.72261 64.6746 8.26809 64.2271 7.94644C63.7796 7.61079 63.2342 7.44297 62.5908 7.44297C61.8776 7.44297 61.2902 7.61779 60.8287 7.96741C60.3672 8.30305 60.0176 8.76456 59.7798 9.35194C59.5561 9.92532 59.4442 10.5756 59.4442 11.3029C59.4442 12.0161 59.5561 12.6664 59.7798 13.2538C60.0176 13.8272 60.3672 14.2817 60.8287 14.6173C61.2902 14.953 61.8776 15.1208 62.5908 15.1208Z" fill="#1F1D1D"/>
<path d="M70.1662 5.40814H72.7884V17.1556H70.1662V5.40814ZM69.3901 1.25457L72.264 0.625244L72.9143 3.49918L70.0404 4.14949L69.3901 1.25457Z" fill="#1F1D1D"/>
<path d="M76.7888 12.1629V10.0022H83.6904L82.7464 10.6106C82.8023 10.0792 82.7324 9.5757 82.5366 9.1002C82.3548 8.61073 82.0541 8.21215 81.6346 7.90448C81.215 7.59681 80.6696 7.44297 79.9983 7.44297C79.0893 7.44297 78.3271 7.72967 77.7118 8.30305C77.0964 8.87644 76.7888 9.70156 76.7888 10.7784H73.9987C74.0826 9.56171 74.3973 8.53381 74.9427 7.6947C75.5021 6.84161 76.2154 6.19131 77.0824 5.74378C77.9635 5.29626 78.9355 5.0725 79.9983 5.0725C80.7955 5.0725 81.5437 5.23333 82.2429 5.55499C82.9562 5.86266 83.5645 6.32417 84.068 6.93951C84.5854 7.54087 84.963 8.28208 85.2008 9.16314C85.4525 10.0442 85.5015 11.0441 85.3476 12.1629H76.7888ZM79.9983 17.4913C78.8935 17.4913 77.9146 17.2675 77.0615 16.82C76.2084 16.3724 75.5231 15.7501 75.0057 14.953C74.4882 14.1558 74.1666 13.2258 74.0407 12.1629H76.7888C76.9006 13.03 77.2153 13.7433 77.7328 14.3027C78.2502 14.8481 79.0054 15.1208 79.9983 15.1208C80.6976 15.1208 81.257 14.96 81.6765 14.6383C82.1101 14.3027 82.4178 13.8971 82.5996 13.4216H85.3686C85.2008 14.2327 84.8721 14.946 84.3827 15.5613C83.8932 16.1627 83.2778 16.6382 82.5366 16.9878C81.7954 17.3234 80.9493 17.4913 79.9983 17.4913Z" fill="#1F1D1D"/>
<path d="M105.776 5.7829H108.398V17.5304H105.776V5.7829ZM105 1.62933L107.874 1L108.524 3.87393L105.65 4.52424L105 1.62933Z" fill="#1F1D1D"/>
<path d="M90.8739 14L88 14.6293L88.6503 17.5242L91.5242 16.8739L90.8739 14Z" fill="#1F1D1D"/>
<path d="M98.2862 17.4188C99.1533 17.4188 99.8805 17.2509 100.468 16.9153C101.055 16.5796 101.517 16.1251 101.852 15.5517V11.2304V6.90896C101.489 6.30761 101.013 5.83911 100.426 5.50346C99.8386 5.16782 99.1253 5 98.2862 5C97.1814 5 96.2374 5.26572 95.4542 5.79715C94.6711 6.32858 94.0697 7.0628 93.6502 7.9998C93.2166 8.9368 92.9999 10.0137 92.9999 11.2304C92.9999 12.4331 93.2166 13.5029 93.6502 14.4399C94.0697 15.3769 94.6711 16.1111 95.4542 16.6426C96.2374 17.16 97.1814 17.4188 98.2862 17.4188ZM104.496 17.5V5.33564H101.852V17.5H104.496ZM98.7058 15.0483C98.0625 15.0483 97.517 14.8875 97.0695 14.5658C96.622 14.2302 96.2864 13.7756 96.0626 13.2023C95.8249 12.6149 95.706 11.9576 95.706 11.2304C95.706 10.4891 95.8249 9.82485 96.0626 9.23748C96.2864 8.65011 96.622 8.19559 97.0695 7.87394C97.517 7.53829 98.0625 7.37047 98.7058 7.37047C99.419 7.37047 100.006 7.54529 100.468 7.89491C100.929 8.23055 101.279 8.69206 101.517 9.27944C101.741 9.85282 101.852 10.5031 101.852 11.2304C101.852 11.9436 101.741 12.5939 101.517 13.1813C101.279 13.7547 100.929 14.2092 100.468 14.5448C100.006 14.8805 99.419 15.0483 98.7058 15.0483Z" fill="#1F1D1D"/>
</svg>
