<svg width="22" height="22" viewBox="0 0 22 22" fill="none" xmlns="http://www.w3.org/2000/svg">
<path fill-rule="evenodd" clip-rule="evenodd" d="M8.82966 0.994402C10.0259 -0.19247 11.9543 -0.19247 13.1506 0.994402C13.7882 1.62688 14.6706 1.94826 15.5653 1.87387C16.966 1.75716 18.2264 2.60169 18.695 3.85966L11.8919 7.74124L11.3408 8.06179C10.8621 8.34043 10.5644 8.84921 10.5563 9.40319L10.5167 12.1406V12.9511C10.5167 13.5346 10.8364 14.0734 11.3527 14.3516L17.5879 17.7121C17.0465 18.022 16.6066 18.4929 16.3353 19.0683C15.6169 20.593 13.8046 21.253 12.275 20.5474C11.4596 20.1709 10.5206 20.1709 9.70522 20.5474C8.17561 21.253 6.36335 20.593 5.64487 19.0683C5.26196 18.2558 4.54256 17.6517 3.67634 17.4154C2.05118 16.9724 1.08695 15.301 1.51589 13.6707C1.74449 12.8019 1.58144 11.8764 1.06958 11.1383C0.109463 9.75333 0.444298 7.85302 1.81991 6.88027C2.55317 6.36163 3.0227 5.54791 3.10479 4.65324C3.25891 2.97485 4.73623 1.73414 6.41492 1.87387C7.3096 1.94826 8.19205 1.62688 8.82966 0.994402Z" fill="#B6E343"/>
<path fill-rule="evenodd" clip-rule="evenodd" d="M12.472 9.03239L12.4845 9.00773L12.4968 8.98841C12.4868 9.00239 12.4784 9.01677 12.472 9.03239ZM19.1074 15.6811C19.2174 15.7408 19.2724 15.7706 19.3016 15.8197C19.3254 15.8598 19.3357 15.9168 19.3274 15.9627C19.3171 16.0189 19.28 16.0614 19.2057 16.1465C19.0896 16.2797 18.9616 16.4032 18.8228 16.5154C18.7508 16.5736 18.7148 16.6027 18.6624 16.6205C18.62 16.6349 18.5627 16.6402 18.5184 16.6339C18.4637 16.6261 18.4164 16.6006 18.3218 16.5497L11.999 13.1441C11.9268 13.1051 11.8818 13.0294 11.8818 12.9473V12.1368C11.8818 11.9679 12.0618 11.8602 12.2102 11.9404L19.1074 15.6811Z" fill="#B6E343"/>
<path fill-rule="evenodd" clip-rule="evenodd" d="M19.0801 5.91725C19.1732 5.6578 19.2198 5.52807 19.1901 5.45477C19.1644 5.39127 19.1091 5.34456 19.0421 5.32996C18.9649 5.31312 18.8449 5.3809 18.6049 5.51647L12.57 8.92505C12.5409 8.9419 12.5176 8.96327 12.4998 8.98793L12.4874 9.00725L12.4749 9.03191C12.4609 9.06561 12.4554 9.10218 12.4583 9.13752L12.4593 9.1478C12.4679 9.21602 12.5074 9.28054 12.5772 9.31712L18.9931 12.9416C19.1131 13.0094 19.1731 13.0433 19.2117 13.0349C19.2452 13.0276 19.2729 13.0043 19.2857 12.9725C19.3005 12.9359 19.2773 12.871 19.2307 12.7412L17.9708 9.23147C17.9559 9.18997 17.9484 9.16921 17.9455 9.14791C17.9428 9.12901 17.9428 9.10985 17.9455 9.09095C17.9484 9.06965 17.9559 9.04889 17.9708 9.00739L19.0801 5.91725Z" fill="#B6E343"/>
</svg>
