<svg width="60" height="60" viewBox="0 0 60 60" fill="none" xmlns="http://www.w3.org/2000/svg">
<g filter="url(#filter0_i_284_500)">
<rect width="60" height="60" rx="10" fill="#515983"/>
<path d="M13.5996 30.1973L15.9721 41.0011C16.0247 41.2697 16.1324 41.5053 16.2794 41.6727C16.4263 41.8402 16.6045 41.9306 16.7877 41.9306H43.6124C43.7956 41.9306 43.9738 41.8402 44.1207 41.6727C44.2676 41.5053 44.3754 41.2697 44.4279 41.0011L46.7996 30.1973" fill="#828282"/>
<path d="M13.5996 30.1973L15.9721 41.0011C16.0247 41.2697 16.1324 41.5053 16.2794 41.6727C16.4263 41.8402 16.6045 41.9306 16.7877 41.9306H43.6124C43.7956 41.9306 43.9738 41.8402 44.1207 41.6727C44.2676 41.5053 44.3754 41.2697 44.4279 41.0011L46.7996 30.1973" stroke="white" stroke-width="2" stroke-linecap="round" stroke-linejoin="round"/>
<path d="M13.6697 26.04C16.1434 21.7467 22.5164 19 29.986 19C37.4555 19 43.8226 21.7442 46.298 26.0349H46.2912C47.0674 26.0912 47.8103 26.3728 48.4288 26.8452C49.0473 27.3176 49.5144 27.9602 49.773 28.6943C50.0315 29.4284 50.0701 30.2219 49.8842 30.9777C49.6983 31.7334 49.2958 32.4184 48.7262 32.9487C48.1565 33.479 47.4445 33.8315 46.6775 33.963C45.9104 34.0945 45.1216 33.9992 44.4079 33.6889C43.6942 33.3786 43.0865 32.8668 42.6595 32.2161C42.2325 31.5655 42.0046 30.8044 42.0039 30.0261C42.0039 31.0873 41.5823 32.1051 40.8319 32.8555C40.0815 33.606 39.0637 34.0275 38.0025 34.0275C36.9412 34.0275 35.9234 33.606 35.173 32.8555C34.4226 32.1051 34.001 31.0873 34.001 30.0261C34.001 31.0873 33.5794 32.1051 32.829 32.8555C32.0786 33.606 31.0608 34.0275 29.9996 34.0275C28.9383 34.0275 27.9205 33.606 27.1701 32.8555C26.4197 32.1051 25.9981 31.0873 25.9981 30.0261C25.9981 31.0872 25.5766 32.1049 24.8263 32.8552C24.0759 33.6056 23.0582 34.0271 21.9971 34.0271C20.936 34.0271 19.9183 33.6056 19.168 32.8552C18.4176 32.1049 17.9961 31.0872 17.9961 30.0261C17.9954 30.8027 17.7687 31.5623 17.3434 32.2121C16.9181 32.8619 16.3128 33.3738 15.6014 33.6853C14.8899 33.9967 14.1032 34.0942 13.3373 33.9659C12.5714 33.8375 11.8594 33.4889 11.2884 32.9625C10.7173 32.4362 10.312 31.7549 10.1218 31.002C9.93156 30.249 9.96478 29.457 10.2173 28.7226C10.4699 27.9882 10.9309 27.3433 11.544 26.8666C12.1571 26.3899 12.8957 26.102 13.6697 26.0383V26.04Z" fill="url(#paint0_linear_284_500)" stroke="white" stroke-width="2" stroke-linecap="round" stroke-linejoin="round"/>
<path d="M30 22.5723V24.3884" stroke="white" stroke-width="2" stroke-linecap="round" stroke-linejoin="round"/>
<path d="M25.1267 22.5723L22.9609 24.3884" stroke="white" stroke-width="2" stroke-linecap="round" stroke-linejoin="round"/>
<path d="M34.873 22.5723L37.0388 24.3884" stroke="white" stroke-width="2" stroke-linecap="round" stroke-linejoin="round"/>
</g>
<defs>
<filter id="filter0_i_284_500" x="0" y="0" width="60" height="64" filterUnits="userSpaceOnUse" color-interpolation-filters="sRGB">
<feFlood flood-opacity="0" result="BackgroundImageFix"/>
<feBlend mode="normal" in="SourceGraphic" in2="BackgroundImageFix" result="shape"/>
<feColorMatrix in="SourceAlpha" type="matrix" values="0 0 0 0 0 0 0 0 0 0 0 0 0 0 0 0 0 0 127 0" result="hardAlpha"/>
<feOffset dy="4"/>
<feGaussianBlur stdDeviation="2"/>
<feComposite in2="hardAlpha" operator="arithmetic" k2="-1" k3="1"/>
<feColorMatrix type="matrix" values="0 0 0 0 0 0 0 0 0 0 0 0 0 0 0 0 0 0 0.25 0"/>
<feBlend mode="normal" in2="shape" result="effect1_innerShadow_284_500"/>
</filter>
<linearGradient id="paint0_linear_284_500" x1="30" y1="19" x2="30" y2="34.0275" gradientUnits="userSpaceOnUse">
<stop stop-color="#FFC062"/>
<stop offset="1" stop-color="#FF8A00"/>
</linearGradient>
</defs>
</svg>