<svg width="37" height="23" viewBox="0 0 37 23" fill="none" xmlns="http://www.w3.org/2000/svg">
<path d="M4.15039 10.7979L6.22634 20.2512C6.27233 20.4863 6.36661 20.6924 6.49516 20.8389C6.62371 20.9854 6.77968 21.0645 6.93993 21.0645H30.4116C30.5718 21.0645 30.7278 20.9854 30.8564 20.8389C30.9849 20.6924 31.0792 20.4863 31.1252 20.2512L33.2004 10.7979" fill="#828282"/>
<path d="M4.15039 10.7979L6.22634 20.2512C6.27233 20.4863 6.36661 20.6924 6.49516 20.8389C6.62371 20.9854 6.77968 21.0645 6.93993 21.0645H30.4116C30.5718 21.0645 30.7278 20.9854 30.8564 20.8389C30.9849 20.6924 31.0792 20.4863 31.1252 20.2512L33.2004 10.7979" stroke="white" stroke-width="2" stroke-linecap="round" stroke-linejoin="round"/>
<path d="M4.21098 7.15996C6.37545 3.4034 11.9519 1 18.4877 1C25.0236 1 30.5948 3.40117 32.7607 7.1555H32.7548C33.434 7.20476 34.084 7.45118 34.6252 7.86454C35.1664 8.2779 35.5751 8.84022 35.8013 9.48252C36.0276 10.1248 36.0614 10.8192 35.8987 11.4804C35.736 12.1417 35.3838 12.7411 34.8854 13.2051C34.387 13.6691 33.764 13.9776 33.0928 14.0926C32.4216 14.2077 31.7314 14.1243 31.1069 13.8528C30.4824 13.5813 29.9507 13.1334 29.5771 12.5641C29.2034 11.9948 29.004 11.3288 29.0034 10.6478C29.0034 11.5764 28.6346 12.467 27.9779 13.1236C27.3213 13.7802 26.4308 14.1491 25.5022 14.1491C24.5736 14.1491 23.683 13.7802 23.0264 13.1236C22.3698 12.467 22.0009 11.5764 22.0009 10.6478C22.0009 11.5764 21.632 12.467 20.9754 13.1236C20.3188 13.7802 19.4282 14.1491 18.4996 14.1491C17.571 14.1491 16.6805 13.7802 16.0239 13.1236C15.3672 12.467 14.9984 11.5764 14.9984 10.6478C14.9984 11.5763 14.6295 12.4668 13.973 13.1233C13.3164 13.7799 12.426 14.1487 11.4975 14.1487C10.569 14.1487 9.67851 13.7799 9.02196 13.1233C8.36542 12.4668 7.99658 11.5763 7.99658 10.6478C7.99602 11.3274 7.79757 11.992 7.42546 12.5606C7.05335 13.1292 6.52368 13.5771 5.90119 13.8496C5.27869 14.1221 4.5903 14.2074 3.92012 14.0951C3.24994 13.9828 2.62697 13.6778 2.12731 13.2172C1.62766 12.7566 1.27296 12.1606 1.10654 11.5017C0.940112 10.8429 0.969178 10.1498 1.19017 9.50725C1.41117 8.86466 1.81453 8.30034 2.35099 7.88324C2.88744 7.46613 3.53375 7.21429 4.21098 7.15848V7.15996Z" fill="url(#paint0_linear_184_5)" stroke="white" stroke-width="2" stroke-linecap="round" stroke-linejoin="round"/>
<path d="M18.5 4.12305V5.71216" stroke="white" stroke-width="2" stroke-linecap="round" stroke-linejoin="round"/>
<path d="M14.2368 4.12305L12.3418 5.71216" stroke="white" stroke-width="2" stroke-linecap="round" stroke-linejoin="round"/>
<path d="M22.7637 4.12305L24.6587 5.71216" stroke="white" stroke-width="2" stroke-linecap="round" stroke-linejoin="round"/>
<defs>
<linearGradient id="paint0_linear_184_5" x1="18.5" y1="1" x2="18.5" y2="14.1491" gradientUnits="userSpaceOnUse">
<stop stop-color="#FFC062"/>
<stop offset="1" stop-color="#FF8A00"/>
</linearGradient>
</defs>
</svg>
