<svg width="109" height="22" viewBox="0 0 109 22" fill="none" xmlns="http://www.w3.org/2000/svg">
<path fill-rule="evenodd" clip-rule="evenodd" d="M8.82917 0.994158C10.0254 -0.192714 11.9539 -0.192714 13.1501 0.994158C13.7877 1.62664 14.6701 1.94801 15.5648 1.87363C16.9655 1.75691 18.2259 2.60145 18.6945 3.85942L11.8914 7.741L11.3403 8.06155C10.8616 8.34019 10.5639 8.84896 10.5558 9.40295L10.5162 12.1404V12.9508C10.5162 13.5344 10.8359 14.0732 11.3522 14.3514L17.5874 17.7119C17.046 18.0217 16.6061 18.4927 16.3349 19.0681C15.6164 20.5927 13.8041 21.2528 12.2745 20.5471C11.4592 20.1707 10.5201 20.1707 9.70474 20.5471C8.17512 21.2528 6.36286 20.5927 5.64439 19.0681C5.26147 18.2556 4.54207 17.6515 3.67586 17.4152C2.05069 16.9721 1.08646 15.3007 1.5154 13.6704C1.744 12.8016 1.58095 11.8761 1.0691 11.138C0.108974 9.75309 0.443809 7.85278 1.81942 6.88002C2.55268 6.36138 3.02221 5.54767 3.1043 4.65299C3.25842 2.97461 4.73574 1.7339 6.41444 1.87363C7.30911 1.94801 8.19156 1.62664 8.82917 0.994158Z" fill="#B6E343"/>
<path fill-rule="evenodd" clip-rule="evenodd" d="M12.472 9.03214L12.4845 9.00749L12.4968 8.98817C12.4868 9.00214 12.4784 9.01653 12.472 9.03214ZM19.1074 15.6808C19.2174 15.7405 19.2724 15.7704 19.3016 15.8194C19.3254 15.8595 19.3357 15.9166 19.3274 15.9625C19.3171 16.0186 19.28 16.0612 19.2057 16.1463C19.0896 16.2794 18.9616 16.403 18.8228 16.5151C18.7508 16.5733 18.7148 16.6024 18.6624 16.6202C18.62 16.6346 18.5627 16.64 18.5184 16.6336C18.4637 16.6258 18.4164 16.6003 18.3218 16.5494L11.999 13.1439C11.9268 13.1048 11.8818 13.0292 11.8818 12.947V12.1366C11.8818 11.9677 12.0618 11.86 12.2102 11.9401L19.1074 15.6808Z" fill="#B6E343"/>
<path fill-rule="evenodd" clip-rule="evenodd" d="M19.0796 5.91701C19.1727 5.65755 19.2193 5.52783 19.1896 5.45453C19.164 5.39103 19.1086 5.34431 19.0416 5.32972C18.9644 5.31287 18.8444 5.38066 18.6044 5.51623L12.5696 8.92481C12.5404 8.94166 12.5172 8.96303 12.4993 8.98769L12.4869 9.007L12.4744 9.03166C12.4604 9.06536 12.4549 9.10194 12.4578 9.13728L12.4588 9.14755C12.4674 9.21578 12.5069 9.2803 12.5767 9.31687L18.9926 12.9414C19.1126 13.0092 19.1726 13.0431 19.2112 13.0347C19.2447 13.0274 19.2724 13.004 19.2852 12.9723C19.3001 12.9356 19.2768 12.8707 19.2302 12.741L17.9703 9.23123C17.9554 9.18972 17.9479 9.16897 17.945 9.14767C17.9424 9.12877 17.9424 9.1096 17.945 9.0907C17.9479 9.0694 17.9554 9.04865 17.9703 9.00714L19.0796 5.91701Z" fill="#B6E343"/>
<path d="M30.4877 17.491C29.6206 17.491 28.8934 17.3232 28.306 16.9875C27.7187 16.6519 27.2571 16.1974 26.9215 15.624V6.98122C27.2851 6.37986 27.7606 5.91136 28.348 5.57572C28.9354 5.24008 29.6486 5.07226 30.4877 5.07226C31.5925 5.07226 32.5365 5.33797 33.3197 5.86941C34.1028 6.40084 34.7042 7.13506 35.1238 8.07206C35.5573 9.00906 35.7741 10.0859 35.7741 11.3026C35.7741 12.5053 35.5573 13.5752 35.1238 14.5122C34.7042 15.4492 34.1028 16.1834 33.3197 16.7148C32.5365 17.2323 31.5925 17.491 30.4877 17.491ZM24.2783 21.3509V5.4079H26.9215V21.3509H24.2783ZM30.0681 15.1205C30.7115 15.1205 31.2569 14.9597 31.7044 14.6381C32.1519 14.3024 32.4876 13.8479 32.7113 13.2745C32.9491 12.6871 33.0679 12.0298 33.0679 11.3026C33.0679 10.5614 32.9491 9.89711 32.7113 9.30974C32.4876 8.72236 32.1519 8.26785 31.7044 7.94619C31.2569 7.61055 30.7115 7.44273 30.0681 7.44273C29.3549 7.44273 28.7675 7.61754 28.306 7.96717C27.8445 8.30281 27.4949 8.76432 27.2571 9.35169C27.0334 9.92508 26.9215 10.5754 26.9215 11.3026C26.9215 12.0159 27.0334 12.6662 27.2571 13.2535C27.4949 13.8269 27.8445 14.2814 28.306 14.6171C28.7675 14.9527 29.3549 15.1205 30.0681 15.1205Z" fill="#1F1D1D"/>
<path d="M42.4459 17.491C41.2432 17.491 40.1873 17.2323 39.2783 16.7148C38.3833 16.1834 37.684 15.4492 37.1805 14.5122C36.6911 13.5752 36.4463 12.5053 36.4463 11.3026C36.4463 10.0859 36.6911 9.00906 37.1805 8.07206C37.684 7.13506 38.3833 6.40084 39.2783 5.86941C40.1873 5.33797 41.2502 5.07226 42.4669 5.07226C43.6696 5.07226 44.7185 5.33797 45.6135 5.86941C46.5086 6.40084 47.2009 7.13506 47.6903 8.07206C48.1938 9.00906 48.4455 10.0859 48.4455 11.3026C48.4455 12.5053 48.1938 13.5752 47.6903 14.5122C47.2009 15.4492 46.5086 16.1834 45.6135 16.7148C44.7185 17.2323 43.6626 17.491 42.4459 17.491ZM42.4669 15.1205C43.1801 15.1205 43.7815 14.9597 44.271 14.6381C44.7605 14.3024 45.1311 13.8479 45.3828 13.2745C45.6345 12.6871 45.7604 12.0298 45.7604 11.3026C45.7604 10.5614 45.6345 9.89711 45.3828 9.30974C45.1311 8.72236 44.7605 8.26785 44.271 7.94619C43.7815 7.61055 43.1801 7.44273 42.4669 7.44273C41.7397 7.44273 41.1313 7.61055 40.6418 7.94619C40.1524 8.26785 39.7818 8.72236 39.53 9.30974C39.2783 9.89711 39.1524 10.5614 39.1524 11.3026C39.1524 12.0298 39.2783 12.6871 39.53 13.2745C39.7818 13.8479 40.1524 14.3024 40.6418 14.6381C41.1313 14.9597 41.7397 15.1205 42.4669 15.1205Z" fill="#1F1D1D"/>
<path d="M50.2784 17.1554V0.627534H52.9216V14.9108H55.5648V17.1554H50.2784ZM48.7261 7.6525V5.4079H55.2292V7.6525H48.7261Z" fill="#1F1D1D"/>
<path d="M63.0104 17.491C62.1433 17.491 61.4161 17.3232 60.8287 16.9875C60.2413 16.6519 59.7798 16.1974 59.4442 15.624V11.3026V6.98122C59.8078 6.37986 60.2833 5.91136 60.8707 5.57572C61.458 5.24008 62.1713 5.07226 63.0104 5.07226C64.1152 5.07226 65.0592 5.33797 65.8424 5.86941C66.6255 6.40084 67.2269 7.13506 67.6464 8.07206C68.08 9.00906 68.2968 10.0859 68.2968 11.3026C68.2968 12.5053 68.08 13.5752 67.6464 14.5122C67.2269 15.4492 66.6255 16.1834 65.8424 16.7148C65.0592 17.2323 64.1152 17.491 63.0104 17.491ZM56.801 21.3509V5.4079H59.4442V21.3509H56.801ZM62.5908 15.1205C63.2341 15.1205 63.7796 14.9597 64.2271 14.6381C64.6746 14.3024 65.0103 13.8479 65.234 13.2745C65.4718 12.6871 65.5906 12.0298 65.5906 11.3026C65.5906 10.5614 65.4718 9.89711 65.234 9.30974C65.0103 8.72236 64.6746 8.26785 64.2271 7.94619C63.7796 7.61055 63.2341 7.44273 62.5908 7.44273C61.8776 7.44273 61.2902 7.61754 60.8287 7.96717C60.3672 8.30281 60.0176 8.76432 59.7798 9.35169C59.5561 9.92508 59.4442 10.5754 59.4442 11.3026C59.4442 12.0159 59.5561 12.6662 59.7798 13.2535C60.0176 13.8269 60.3672 14.2814 60.8287 14.6171C61.2902 14.9527 61.8776 15.1205 62.5908 15.1205Z" fill="#1F1D1D"/>
<path d="M70.1662 5.4079H72.7884V17.1554H70.1662V5.4079ZM69.39 1.25433L72.264 0.625L72.9143 3.49893L70.0404 4.14924L69.39 1.25433Z" fill="#1F1D1D"/>
<path d="M76.7888 12.1627V10.002H83.6904L82.7464 10.6103C82.8023 10.0789 82.7324 9.57545 82.5366 9.09996C82.3548 8.61048 82.0541 8.21191 81.6346 7.90424C81.215 7.59656 80.6696 7.44273 79.9983 7.44273C79.0893 7.44273 78.3271 7.72942 77.7118 8.30281C77.0964 8.8762 76.7888 9.70132 76.7888 10.7782H73.9987C74.0826 9.56147 74.3973 8.53356 74.9427 7.69446C75.5021 6.84137 76.2154 6.19106 77.0824 5.74354C77.9635 5.29602 78.9355 5.07226 79.9983 5.07226C80.7955 5.07226 81.5437 5.23308 82.2429 5.55474C82.9562 5.86241 83.5645 6.32392 84.068 6.93927C84.5854 7.54062 84.963 8.28183 85.2008 9.16289C85.4525 10.044 85.5015 11.0439 85.3476 12.1627H76.7888ZM79.9983 17.491C78.8935 17.491 77.9146 17.2672 77.0615 16.8197C76.2084 16.3722 75.5231 15.7499 75.0057 14.9527C74.4882 14.1556 74.1665 13.2256 74.0407 12.1627H76.7888C76.9006 13.0298 77.2153 13.743 77.7327 14.3024C78.2502 14.8478 79.0054 15.1205 79.9983 15.1205C80.6976 15.1205 81.257 14.9597 81.6765 14.6381C82.1101 14.3024 82.4178 13.8968 82.5996 13.4214H85.3686C85.2008 14.2325 84.8721 14.9457 84.3827 15.5611C83.8932 16.1624 83.2778 16.6379 82.5366 16.9875C81.7954 17.3232 80.9493 17.491 79.9983 17.491Z" fill="#1F1D1D"/>
<path d="M105.776 5.7829H108.398V17.5304H105.776V5.7829ZM105 1.62933L107.874 1L108.524 3.87393L105.65 4.52424L105 1.62933Z" fill="#1F1D1D"/>
<path d="M90.8739 14L88 14.6293L88.6503 17.5242L91.5242 16.8739L90.8739 14Z" fill="#1F1D1D"/>
<path d="M98.2867 17.4188C99.1538 17.4188 99.881 17.2509 100.468 16.9153C101.056 16.5796 101.517 16.1251 101.853 15.5517V11.2304V6.90896C101.489 6.30761 101.014 5.83911 100.426 5.50346C99.8391 5.16782 99.1258 5 98.2867 5C97.1819 5 96.2379 5.26572 95.4547 5.79715C94.6716 6.32858 94.0702 7.0628 93.6507 7.9998C93.2171 8.9368 93.0004 10.0137 93.0004 11.2304C93.0004 12.4331 93.2171 13.5029 93.6507 14.4399C94.0702 15.3769 94.6716 16.1111 95.4547 16.6426C96.2379 17.16 97.1819 17.4188 98.2867 17.4188ZM104.496 17.5V5.33564H101.853V17.5H104.496ZM98.7063 15.0483C98.063 15.0483 97.5175 14.8875 97.07 14.5658C96.6225 14.2302 96.2868 13.7756 96.0631 13.2023C95.8253 12.6149 95.7065 11.9576 95.7065 11.2304C95.7065 10.4891 95.8253 9.82485 96.0631 9.23748C96.2868 8.65011 96.6225 8.19559 97.07 7.87394C97.5175 7.53829 98.063 7.37047 98.7063 7.37047C99.4195 7.37047 100.007 7.54529 100.468 7.89491C100.93 8.23055 101.28 8.69206 101.517 9.27944C101.741 9.85282 101.853 10.5031 101.853 11.2304C101.853 11.9436 101.741 12.5939 101.517 13.1813C101.28 13.7547 100.93 14.2092 100.468 14.5448C100.007 14.8805 99.4195 15.0483 98.7063 15.0483Z" fill="#1F1D1D"/>
</svg>
