<svg width="1196" height="735" viewBox="0 0 1196 735" fill="none" xmlns="http://www.w3.org/2000/svg">
<path d="M0 0V410.096" stroke="#E5EAE8" stroke-opacity="0.6" stroke-width="1.02014"/>
<path d="M10.2183 0V410.096" stroke="#E5EAE8" stroke-opacity="0.6" stroke-width="1.02014"/>
<path d="M20.4377 0V410.096" stroke="#E5EAE8" stroke-opacity="0.6" stroke-width="1.02014"/>
<path d="M30.6567 0V410.096" stroke="#E5EAE8" stroke-opacity="0.6" stroke-width="1.02014"/>
<path d="M40.875 0V410.096" stroke="#E5EAE8" stroke-opacity="0.6" stroke-width="1.02014"/>
<path d="M51.0947 0V410.096" stroke="#E5EAE8" stroke-opacity="0.6" stroke-width="1.02014"/>
<path d="M61.313 0V410.096" stroke="#E5EAE8" stroke-opacity="0.6" stroke-width="1.02014"/>
<path d="M71.5322 0V410.096" stroke="#E5EAE8" stroke-opacity="0.6" stroke-width="1.02014"/>
<path d="M81.7505 0V410.096" stroke="#E5EAE8" stroke-opacity="0.6" stroke-width="1.02014"/>
<path d="M91.969 0V410.096" stroke="#E5EAE8" stroke-opacity="0.6" stroke-width="1.02014"/>
<path d="M102.188 0V410.096" stroke="#E5EAE8" stroke-opacity="0.6" stroke-width="1.02014"/>
<path d="M112.406 0V410.096" stroke="#E5EAE8" stroke-opacity="0.6" stroke-width="1.02014"/>
<path d="M122.626 0V410.096" stroke="#E5EAE8" stroke-opacity="0.6" stroke-width="1.02014"/>
<path d="M132.844 0V410.096" stroke="#E5EAE8" stroke-opacity="0.6" stroke-width="1.02014"/>
<path d="M143.064 0V410.096" stroke="#E5EAE8" stroke-opacity="0.6" stroke-width="1.02014"/>
<path d="M153.282 0V410.096" stroke="#E5EAE8" stroke-opacity="0.6" stroke-width="1.02014"/>
<path d="M163.501 0V410.096" stroke="#E5EAE8" stroke-opacity="0.6" stroke-width="1.02014"/>
<path d="M173.719 0V410.096" stroke="#E5EAE8" stroke-opacity="0.6" stroke-width="1.02014"/>
<path d="M183.939 0V410.096" stroke="#E5EAE8" stroke-opacity="0.6" stroke-width="1.02014"/>
<path d="M194.158 0V410.096" stroke="#E5EAE8" stroke-opacity="0.6" stroke-width="1.02014"/>
<path d="M204.376 0V410.096" stroke="#E5EAE8" stroke-opacity="0.6" stroke-width="1.02014"/>
<path d="M214.596 0V410.096" stroke="#E5EAE8" stroke-opacity="0.6" stroke-width="1.02014"/>
<path d="M224.814 0V410.096" stroke="#E5EAE8" stroke-opacity="0.6" stroke-width="1.02014"/>
<path d="M235.033 0V410.096" stroke="#E5EAE8" stroke-opacity="0.6" stroke-width="1.02014"/>
<path d="M245.252 0V410.096" stroke="#E5EAE8" stroke-opacity="0.6" stroke-width="1.02014"/>
<path d="M255.471 0V410.096" stroke="#E5EAE8" stroke-opacity="0.6" stroke-width="1.02014"/>
<path d="M265.689 0V410.096" stroke="#E5EAE8" stroke-opacity="0.6" stroke-width="1.02014"/>
<path d="M275.908 0V410.096" stroke="#E5EAE8" stroke-opacity="0.6" stroke-width="1.02014"/>
<path d="M286.127 0V410.096" stroke="#E5EAE8" stroke-opacity="0.6" stroke-width="1.02014"/>
<path d="M296.345 0V410.096" stroke="#E5EAE8" stroke-opacity="0.6" stroke-width="1.02014"/>
<path d="M306.565 0V410.096" stroke="#E5EAE8" stroke-opacity="0.6" stroke-width="1.02014"/>
<path d="M316.783 0V410.096" stroke="#E5EAE8" stroke-opacity="0.6" stroke-width="1.02014"/>
<path d="M327.002 0V410.096" stroke="#E5EAE8" stroke-opacity="0.6" stroke-width="1.02014"/>
<path d="M337.221 0V410.096" stroke="#E5EAE8" stroke-opacity="0.6" stroke-width="1.02014"/>
<path d="M347.44 0V410.096" stroke="#E5EAE8" stroke-opacity="0.6" stroke-width="1.02014"/>
<path d="M357.659 0V410.096" stroke="#E5EAE8" stroke-opacity="0.6" stroke-width="1.02014"/>
<path d="M367.878 0V410.096" stroke="#E5EAE8" stroke-opacity="0.6" stroke-width="1.02014"/>
<path d="M378.097 0V410.096" stroke="#E5EAE8" stroke-opacity="0.6" stroke-width="1.02014"/>
<path d="M388.315 0V410.096" stroke="#E5EAE8" stroke-opacity="0.6" stroke-width="1.02014"/>
<path d="M398.535 0V410.096" stroke="#E5EAE8" stroke-opacity="0.6" stroke-width="1.02014"/>
<path d="M0 0H398.534" stroke="#E5EAE8" stroke-opacity="0.6" stroke-width="1.02014"/>
<path d="M0 10.5154H398.534" stroke="#E5EAE8" stroke-opacity="0.6" stroke-width="1.02014"/>
<path d="M0 21.0305H398.534" stroke="#E5EAE8" stroke-opacity="0.6" stroke-width="1.02014"/>
<path d="M0 31.5457H398.534" stroke="#E5EAE8" stroke-opacity="0.6" stroke-width="1.02014"/>
<path d="M0 42.061H398.534" stroke="#E5EAE8" stroke-opacity="0.6" stroke-width="1.02014"/>
<path d="M0 52.5762H398.534" stroke="#E5EAE8" stroke-opacity="0.6" stroke-width="1.02014"/>
<path d="M0 63.0918H398.534" stroke="#E5EAE8" stroke-opacity="0.6" stroke-width="1.02014"/>
<path d="M0 73.6069H398.534" stroke="#E5EAE8" stroke-opacity="0.6" stroke-width="1.02014"/>
<path d="M0 84.1223H398.534" stroke="#E5EAE8" stroke-opacity="0.6" stroke-width="1.02014"/>
<path d="M0 94.6375H398.534" stroke="#E5EAE8" stroke-opacity="0.6" stroke-width="1.02014"/>
<path d="M0 105.153H398.534" stroke="#E5EAE8" stroke-opacity="0.6" stroke-width="1.02014"/>
<path d="M0 115.668H398.534" stroke="#E5EAE8" stroke-opacity="0.6" stroke-width="1.02014"/>
<path d="M0 126.183H398.534" stroke="#E5EAE8" stroke-opacity="0.6" stroke-width="1.02014"/>
<path d="M0 136.698H398.534" stroke="#E5EAE8" stroke-opacity="0.6" stroke-width="1.02014"/>
<path d="M0 147.214H398.534" stroke="#E5EAE8" stroke-opacity="0.6" stroke-width="1.02014"/>
<path d="M0 157.729H398.534" stroke="#E5EAE8" stroke-opacity="0.6" stroke-width="1.02014"/>
<path d="M0 168.245H398.534" stroke="#E5EAE8" stroke-opacity="0.6" stroke-width="1.02014"/>
<path d="M0 178.76H398.534" stroke="#E5EAE8" stroke-opacity="0.6" stroke-width="1.02014"/>
<path d="M0 189.275H398.534" stroke="#E5EAE8" stroke-opacity="0.6" stroke-width="1.02014"/>
<path d="M0 199.79H398.534" stroke="#E5EAE8" stroke-opacity="0.6" stroke-width="1.02014"/>
<path d="M0 210.305H398.534" stroke="#E5EAE8" stroke-opacity="0.6" stroke-width="1.02014"/>
<path d="M0 220.821H398.534" stroke="#E5EAE8" stroke-opacity="0.6" stroke-width="1.02014"/>
<path d="M0 231.336H398.534" stroke="#E5EAE8" stroke-opacity="0.6" stroke-width="1.02014"/>
<path d="M0 241.852H398.534" stroke="#E5EAE8" stroke-opacity="0.6" stroke-width="1.02014"/>
<path d="M0 252.367H398.534" stroke="#E5EAE8" stroke-opacity="0.6" stroke-width="1.02014"/>
<path d="M0 262.882H398.534" stroke="#E5EAE8" stroke-opacity="0.6" stroke-width="1.02014"/>
<path d="M0 273.397H398.534" stroke="#E5EAE8" stroke-opacity="0.6" stroke-width="1.02014"/>
<path d="M0 283.912H398.534" stroke="#E5EAE8" stroke-opacity="0.6" stroke-width="1.02014"/>
<path d="M0 294.427H398.534" stroke="#E5EAE8" stroke-opacity="0.6" stroke-width="1.02014"/>
<path d="M0 304.943H398.534" stroke="#E5EAE8" stroke-opacity="0.6" stroke-width="1.02014"/>
<path d="M0 315.459H398.534" stroke="#E5EAE8" stroke-opacity="0.6" stroke-width="1.02014"/>
<path d="M0 325.974H398.534" stroke="#E5EAE8" stroke-opacity="0.6" stroke-width="1.02014"/>
<path d="M0 336.489H398.534" stroke="#E5EAE8" stroke-opacity="0.6" stroke-width="1.02014"/>
<path d="M0 347.004H398.534" stroke="#E5EAE8" stroke-opacity="0.6" stroke-width="1.02014"/>
<path d="M0 357.519H398.534" stroke="#E5EAE8" stroke-opacity="0.6" stroke-width="1.02014"/>
<path d="M0 368.035H398.534" stroke="#E5EAE8" stroke-opacity="0.6" stroke-width="1.02014"/>
<path d="M0 378.55H398.534" stroke="#E5EAE8" stroke-opacity="0.6" stroke-width="1.02014"/>
<path d="M0 389.065H398.534" stroke="#E5EAE8" stroke-opacity="0.6" stroke-width="1.02014"/>
<path d="M0 399.581H398.534" stroke="#E5EAE8" stroke-opacity="0.6" stroke-width="1.02014"/>
<path d="M0 410.096H398.534" stroke="#E5EAE8" stroke-opacity="0.6" stroke-width="1.02014"/>
<path d="M398.535 0V410.096" stroke="#E5EAE8" stroke-opacity="0.6" stroke-width="1.02014"/>
<path d="M408.753 0V410.096" stroke="#E5EAE8" stroke-opacity="0.6" stroke-width="1.02014"/>
<path d="M418.972 0V410.096" stroke="#E5EAE8" stroke-opacity="0.6" stroke-width="1.02014"/>
<path d="M429.191 0V410.096" stroke="#E5EAE8" stroke-opacity="0.6" stroke-width="1.02014"/>
<path d="M439.409 0V410.096" stroke="#E5EAE8" stroke-opacity="0.6" stroke-width="1.02014"/>
<path d="M449.628 0V410.096" stroke="#E5EAE8" stroke-opacity="0.6" stroke-width="1.02014"/>
<path d="M459.847 0V410.096" stroke="#E5EAE8" stroke-opacity="0.6" stroke-width="1.02014"/>
<path d="M470.066 0V410.096" stroke="#E5EAE8" stroke-opacity="0.6" stroke-width="1.02014"/>
<path d="M480.284 0V410.096" stroke="#E5EAE8" stroke-opacity="0.6" stroke-width="1.02014"/>
<path d="M490.504 0V410.096" stroke="#E5EAE8" stroke-opacity="0.6" stroke-width="1.02014"/>
<path d="M500.723 0V410.096" stroke="#E5EAE8" stroke-opacity="0.6" stroke-width="1.02014"/>
<path d="M510.941 0V410.096" stroke="#E5EAE8" stroke-opacity="0.6" stroke-width="1.02014"/>
<path d="M521.16 0V410.096" stroke="#E5EAE8" stroke-opacity="0.6" stroke-width="1.02014"/>
<path d="M531.379 0V410.096" stroke="#E5EAE8" stroke-opacity="0.6" stroke-width="1.02014"/>
<path d="M541.598 0V410.096" stroke="#E5EAE8" stroke-opacity="0.6" stroke-width="1.02014"/>
<path d="M551.816 0V410.096" stroke="#E5EAE8" stroke-opacity="0.6" stroke-width="1.02014"/>
<path d="M562.036 0V410.096" stroke="#E5EAE8" stroke-opacity="0.6" stroke-width="1.02014"/>
<path d="M572.254 0V410.096" stroke="#E5EAE8" stroke-opacity="0.6" stroke-width="1.02014"/>
<path d="M582.473 0V410.096" stroke="#E5EAE8" stroke-opacity="0.6" stroke-width="1.02014"/>
<path d="M592.693 0V410.096" stroke="#E5EAE8" stroke-opacity="0.6" stroke-width="1.02014"/>
<path d="M602.91 0V410.096" stroke="#E5EAE8" stroke-opacity="0.6" stroke-width="1.02014"/>
<path d="M613.129 0V410.096" stroke="#E5EAE8" stroke-opacity="0.6" stroke-width="1.02014"/>
<path d="M623.348 0V410.096" stroke="#E5EAE8" stroke-opacity="0.6" stroke-width="1.02014"/>
<path d="M633.567 0V410.096" stroke="#E5EAE8" stroke-opacity="0.6" stroke-width="1.02014"/>
<path d="M643.785 0V410.096" stroke="#E5EAE8" stroke-opacity="0.6" stroke-width="1.02014"/>
<path d="M654.005 0V410.096" stroke="#E5EAE8" stroke-opacity="0.6" stroke-width="1.02014"/>
<path d="M664.224 0V410.096" stroke="#E5EAE8" stroke-opacity="0.6" stroke-width="1.02014"/>
<path d="M674.442 0V410.096" stroke="#E5EAE8" stroke-opacity="0.6" stroke-width="1.02014"/>
<path d="M684.662 0V410.096" stroke="#E5EAE8" stroke-opacity="0.6" stroke-width="1.02014"/>
<path d="M694.88 0V410.096" stroke="#E5EAE8" stroke-opacity="0.6" stroke-width="1.02014"/>
<path d="M705.099 0V410.096" stroke="#E5EAE8" stroke-opacity="0.6" stroke-width="1.02014"/>
<path d="M715.317 0V410.096" stroke="#E5EAE8" stroke-opacity="0.6" stroke-width="1.02014"/>
<path d="M725.537 0V410.096" stroke="#E5EAE8" stroke-opacity="0.6" stroke-width="1.02014"/>
<path d="M735.755 0V410.096" stroke="#E5EAE8" stroke-opacity="0.6" stroke-width="1.02014"/>
<path d="M745.974 0V410.096" stroke="#E5EAE8" stroke-opacity="0.6" stroke-width="1.02014"/>
<path d="M756.194 0V410.096" stroke="#E5EAE8" stroke-opacity="0.6" stroke-width="1.02014"/>
<path d="M766.412 0V410.096" stroke="#E5EAE8" stroke-opacity="0.6" stroke-width="1.02014"/>
<path d="M776.631 0V410.096" stroke="#E5EAE8" stroke-opacity="0.6" stroke-width="1.02014"/>
<path d="M786.848 0V410.096" stroke="#E5EAE8" stroke-opacity="0.6" stroke-width="1.02014"/>
<path d="M797.069 0V410.096" stroke="#E5EAE8" stroke-opacity="0.6" stroke-width="1.02014"/>
<path d="M398.535 0H797.069" stroke="#E5EAE8" stroke-opacity="0.6" stroke-width="1.02014"/>
<path d="M398.535 10.5154H797.069" stroke="#E5EAE8" stroke-opacity="0.6" stroke-width="1.02014"/>
<path d="M398.535 21.0305H797.069" stroke="#E5EAE8" stroke-opacity="0.6" stroke-width="1.02014"/>
<path d="M398.535 31.5457H797.069" stroke="#E5EAE8" stroke-opacity="0.6" stroke-width="1.02014"/>
<path d="M398.535 42.061H797.069" stroke="#E5EAE8" stroke-opacity="0.6" stroke-width="1.02014"/>
<path d="M398.535 52.5762H797.069" stroke="#E5EAE8" stroke-opacity="0.6" stroke-width="1.02014"/>
<path d="M398.535 63.0918H797.069" stroke="#E5EAE8" stroke-opacity="0.6" stroke-width="1.02014"/>
<path d="M398.535 73.6069H797.069" stroke="#E5EAE8" stroke-opacity="0.6" stroke-width="1.02014"/>
<path d="M398.535 84.1223H797.069" stroke="#E5EAE8" stroke-opacity="0.6" stroke-width="1.02014"/>
<path d="M398.535 94.6375H797.069" stroke="#E5EAE8" stroke-opacity="0.6" stroke-width="1.02014"/>
<path d="M398.535 105.153H797.069" stroke="#E5EAE8" stroke-opacity="0.6" stroke-width="1.02014"/>
<path d="M398.535 115.668H797.069" stroke="#E5EAE8" stroke-opacity="0.6" stroke-width="1.02014"/>
<path d="M398.535 126.183H797.069" stroke="#E5EAE8" stroke-opacity="0.6" stroke-width="1.02014"/>
<path d="M398.535 136.698H797.069" stroke="#E5EAE8" stroke-opacity="0.6" stroke-width="1.02014"/>
<path d="M398.535 147.214H797.069" stroke="#E5EAE8" stroke-opacity="0.6" stroke-width="1.02014"/>
<path d="M398.535 157.729H797.069" stroke="#E5EAE8" stroke-opacity="0.6" stroke-width="1.02014"/>
<path d="M398.535 168.245H797.069" stroke="#E5EAE8" stroke-opacity="0.6" stroke-width="1.02014"/>
<path d="M398.535 178.76H797.069" stroke="#E5EAE8" stroke-opacity="0.6" stroke-width="1.02014"/>
<path d="M398.535 189.275H797.069" stroke="#E5EAE8" stroke-opacity="0.6" stroke-width="1.02014"/>
<path d="M398.535 199.79H797.069" stroke="#E5EAE8" stroke-opacity="0.6" stroke-width="1.02014"/>
<path d="M398.535 210.305H797.069" stroke="#E5EAE8" stroke-opacity="0.6" stroke-width="1.02014"/>
<path d="M398.535 220.821H797.069" stroke="#E5EAE8" stroke-opacity="0.6" stroke-width="1.02014"/>
<path d="M398.535 231.336H797.069" stroke="#E5EAE8" stroke-opacity="0.6" stroke-width="1.02014"/>
<path d="M398.535 241.852H797.069" stroke="#E5EAE8" stroke-opacity="0.6" stroke-width="1.02014"/>
<path d="M398.535 252.367H797.069" stroke="#E5EAE8" stroke-opacity="0.6" stroke-width="1.02014"/>
<path d="M398.535 262.882H797.069" stroke="#E5EAE8" stroke-opacity="0.6" stroke-width="1.02014"/>
<path d="M398.535 273.397H797.069" stroke="#E5EAE8" stroke-opacity="0.6" stroke-width="1.02014"/>
<path d="M398.535 283.912H797.069" stroke="#E5EAE8" stroke-opacity="0.6" stroke-width="1.02014"/>
<path d="M398.535 294.427H797.069" stroke="#E5EAE8" stroke-opacity="0.6" stroke-width="1.02014"/>
<path d="M398.535 304.943H797.069" stroke="#E5EAE8" stroke-opacity="0.6" stroke-width="1.02014"/>
<path d="M398.535 315.459H797.069" stroke="#E5EAE8" stroke-opacity="0.6" stroke-width="1.02014"/>
<path d="M398.535 325.974H797.069" stroke="#E5EAE8" stroke-opacity="0.6" stroke-width="1.02014"/>
<path d="M398.535 336.489H797.069" stroke="#E5EAE8" stroke-opacity="0.6" stroke-width="1.02014"/>
<path d="M398.535 347.004H797.069" stroke="#E5EAE8" stroke-opacity="0.6" stroke-width="1.02014"/>
<path d="M398.535 357.519H797.069" stroke="#E5EAE8" stroke-opacity="0.6" stroke-width="1.02014"/>
<path d="M398.535 368.035H797.069" stroke="#E5EAE8" stroke-opacity="0.6" stroke-width="1.02014"/>
<path d="M398.535 378.55H797.069" stroke="#E5EAE8" stroke-opacity="0.6" stroke-width="1.02014"/>
<path d="M398.535 389.065H797.069" stroke="#E5EAE8" stroke-opacity="0.6" stroke-width="1.02014"/>
<path d="M398.535 399.581H797.069" stroke="#E5EAE8" stroke-opacity="0.6" stroke-width="1.02014"/>
<path d="M398.535 410.096H797.069" stroke="#E5EAE8" stroke-opacity="0.6" stroke-width="1.02014"/>
<path d="M797.069 0V410.096" stroke="#E5EAE8" stroke-opacity="0.6" stroke-width="1.02014"/>
<path d="M807.286 0V410.096" stroke="#E5EAE8" stroke-opacity="0.6" stroke-width="1.02014"/>
<path d="M817.506 0V410.096" stroke="#E5EAE8" stroke-opacity="0.6" stroke-width="1.02014"/>
<path d="M827.725 0V410.096" stroke="#E5EAE8" stroke-opacity="0.6" stroke-width="1.02014"/>
<path d="M837.944 0V410.096" stroke="#E5EAE8" stroke-opacity="0.6" stroke-width="1.02014"/>
<path d="M848.162 0V410.096" stroke="#E5EAE8" stroke-opacity="0.6" stroke-width="1.02014"/>
<path d="M858.381 0V410.096" stroke="#E5EAE8" stroke-opacity="0.6" stroke-width="1.02014"/>
<path d="M868.6 0V410.096" stroke="#E5EAE8" stroke-opacity="0.6" stroke-width="1.02014"/>
<path d="M878.818 0V410.096" stroke="#E5EAE8" stroke-opacity="0.6" stroke-width="1.02014"/>
<path d="M889.039 0V410.096" stroke="#E5EAE8" stroke-opacity="0.6" stroke-width="1.02014"/>
<path d="M899.256 0V410.096" stroke="#E5EAE8" stroke-opacity="0.6" stroke-width="1.02014"/>
<path d="M909.476 0V410.096" stroke="#E5EAE8" stroke-opacity="0.6" stroke-width="1.02014"/>
<path d="M919.695 0V410.096" stroke="#E5EAE8" stroke-opacity="0.6" stroke-width="1.02014"/>
<path d="M929.912 0V410.096" stroke="#E5EAE8" stroke-opacity="0.6" stroke-width="1.02014"/>
<path d="M940.132 0V410.096" stroke="#E5EAE8" stroke-opacity="0.6" stroke-width="1.02014"/>
<path d="M950.351 0V410.096" stroke="#E5EAE8" stroke-opacity="0.6" stroke-width="1.02014"/>
<path d="M960.568 0V410.096" stroke="#E5EAE8" stroke-opacity="0.6" stroke-width="1.02014"/>
<path d="M970.79 0V410.096" stroke="#E5EAE8" stroke-opacity="0.6" stroke-width="1.02014"/>
<path d="M981.007 0V410.096" stroke="#E5EAE8" stroke-opacity="0.6" stroke-width="1.02014"/>
<path d="M991.226 0V410.096" stroke="#E5EAE8" stroke-opacity="0.6" stroke-width="1.02014"/>
<path d="M1001.45 0V410.096" stroke="#E5EAE8" stroke-opacity="0.6" stroke-width="1.02014"/>
<path d="M1011.66 0V410.096" stroke="#E5EAE8" stroke-opacity="0.6" stroke-width="1.02014"/>
<path d="M1021.88 0V410.096" stroke="#E5EAE8" stroke-opacity="0.6" stroke-width="1.02014"/>
<path d="M1032.1 0V410.096" stroke="#E5EAE8" stroke-opacity="0.6" stroke-width="1.02014"/>
<path d="M1042.32 0V410.096" stroke="#E5EAE8" stroke-opacity="0.6" stroke-width="1.02014"/>
<path d="M1052.54 0V410.096" stroke="#E5EAE8" stroke-opacity="0.6" stroke-width="1.02014"/>
<path d="M1062.76 0V410.096" stroke="#E5EAE8" stroke-opacity="0.6" stroke-width="1.02014"/>
<path d="M1072.97 0V410.096" stroke="#E5EAE8" stroke-opacity="0.6" stroke-width="1.02014"/>
<path d="M1083.2 0V410.096" stroke="#E5EAE8" stroke-opacity="0.6" stroke-width="1.02014"/>
<path d="M1093.41 0V410.096" stroke="#E5EAE8" stroke-opacity="0.6" stroke-width="1.02014"/>
<path d="M1103.63 0V410.096" stroke="#E5EAE8" stroke-opacity="0.6" stroke-width="1.02014"/>
<path d="M1113.85 0V410.096" stroke="#E5EAE8" stroke-opacity="0.6" stroke-width="1.02014"/>
<path d="M1124.07 0V410.096" stroke="#E5EAE8" stroke-opacity="0.6" stroke-width="1.02014"/>
<path d="M1134.29 0V410.096" stroke="#E5EAE8" stroke-opacity="0.6" stroke-width="1.02014"/>
<path d="M1144.51 0V410.096" stroke="#E5EAE8" stroke-opacity="0.6" stroke-width="1.02014"/>
<path d="M1154.73 0V410.096" stroke="#E5EAE8" stroke-opacity="0.6" stroke-width="1.02014"/>
<path d="M1164.95 0V410.096" stroke="#E5EAE8" stroke-opacity="0.6" stroke-width="1.02014"/>
<path d="M1175.17 0V410.096" stroke="#E5EAE8" stroke-opacity="0.6" stroke-width="1.02014"/>
<path d="M1185.38 0V410.096" stroke="#E5EAE8" stroke-opacity="0.6" stroke-width="1.02014"/>
<path d="M1195.6 0V410.096" stroke="#E5EAE8" stroke-opacity="0.6" stroke-width="1.02014"/>
<path d="M797.069 0H1195.6" stroke="#E5EAE8" stroke-opacity="0.6" stroke-width="1.02014"/>
<path d="M797.069 10.5154H1195.6" stroke="#E5EAE8" stroke-opacity="0.6" stroke-width="1.02014"/>
<path d="M797.069 21.0305H1195.6" stroke="#E5EAE8" stroke-opacity="0.6" stroke-width="1.02014"/>
<path d="M797.069 31.5457H1195.6" stroke="#E5EAE8" stroke-opacity="0.6" stroke-width="1.02014"/>
<path d="M797.069 42.061H1195.6" stroke="#E5EAE8" stroke-opacity="0.6" stroke-width="1.02014"/>
<path d="M797.069 52.5762H1195.6" stroke="#E5EAE8" stroke-opacity="0.6" stroke-width="1.02014"/>
<path d="M797.069 63.0918H1195.6" stroke="#E5EAE8" stroke-opacity="0.6" stroke-width="1.02014"/>
<path d="M797.069 73.6069H1195.6" stroke="#E5EAE8" stroke-opacity="0.6" stroke-width="1.02014"/>
<path d="M797.069 84.1223H1195.6" stroke="#E5EAE8" stroke-opacity="0.6" stroke-width="1.02014"/>
<path d="M797.069 94.6375H1195.6" stroke="#E5EAE8" stroke-opacity="0.6" stroke-width="1.02014"/>
<path d="M797.069 105.153H1195.6" stroke="#E5EAE8" stroke-opacity="0.6" stroke-width="1.02014"/>
<path d="M797.069 115.668H1195.6" stroke="#E5EAE8" stroke-opacity="0.6" stroke-width="1.02014"/>
<path d="M797.069 126.183H1195.6" stroke="#E5EAE8" stroke-opacity="0.6" stroke-width="1.02014"/>
<path d="M797.069 136.698H1195.6" stroke="#E5EAE8" stroke-opacity="0.6" stroke-width="1.02014"/>
<path d="M797.069 147.214H1195.6" stroke="#E5EAE8" stroke-opacity="0.6" stroke-width="1.02014"/>
<path d="M797.069 157.729H1195.6" stroke="#E5EAE8" stroke-opacity="0.6" stroke-width="1.02014"/>
<path d="M797.069 168.245H1195.6" stroke="#E5EAE8" stroke-opacity="0.6" stroke-width="1.02014"/>
<path d="M797.069 178.76H1195.6" stroke="#E5EAE8" stroke-opacity="0.6" stroke-width="1.02014"/>
<path d="M797.069 189.275H1195.6" stroke="#E5EAE8" stroke-opacity="0.6" stroke-width="1.02014"/>
<path d="M797.069 199.79H1195.6" stroke="#E5EAE8" stroke-opacity="0.6" stroke-width="1.02014"/>
<path d="M797.069 210.305H1195.6" stroke="#E5EAE8" stroke-opacity="0.6" stroke-width="1.02014"/>
<path d="M797.069 220.821H1195.6" stroke="#E5EAE8" stroke-opacity="0.6" stroke-width="1.02014"/>
<path d="M797.069 231.336H1195.6" stroke="#E5EAE8" stroke-opacity="0.6" stroke-width="1.02014"/>
<path d="M797.069 241.852H1195.6" stroke="#E5EAE8" stroke-opacity="0.6" stroke-width="1.02014"/>
<path d="M797.069 252.367H1195.6" stroke="#E5EAE8" stroke-opacity="0.6" stroke-width="1.02014"/>
<path d="M797.069 262.882H1195.6" stroke="#E5EAE8" stroke-opacity="0.6" stroke-width="1.02014"/>
<path d="M797.069 273.397H1195.6" stroke="#E5EAE8" stroke-opacity="0.6" stroke-width="1.02014"/>
<path d="M797.069 283.912H1195.6" stroke="#E5EAE8" stroke-opacity="0.6" stroke-width="1.02014"/>
<path d="M797.069 294.427H1195.6" stroke="#E5EAE8" stroke-opacity="0.6" stroke-width="1.02014"/>
<path d="M797.069 304.943H1195.6" stroke="#E5EAE8" stroke-opacity="0.6" stroke-width="1.02014"/>
<path d="M797.069 315.459H1195.6" stroke="#E5EAE8" stroke-opacity="0.6" stroke-width="1.02014"/>
<path d="M797.069 325.974H1195.6" stroke="#E5EAE8" stroke-opacity="0.6" stroke-width="1.02014"/>
<path d="M797.069 336.489H1195.6" stroke="#E5EAE8" stroke-opacity="0.6" stroke-width="1.02014"/>
<path d="M797.069 347.004H1195.6" stroke="#E5EAE8" stroke-opacity="0.6" stroke-width="1.02014"/>
<path d="M797.069 357.519H1195.6" stroke="#E5EAE8" stroke-opacity="0.6" stroke-width="1.02014"/>
<path d="M797.069 368.035H1195.6" stroke="#E5EAE8" stroke-opacity="0.6" stroke-width="1.02014"/>
<path d="M797.069 378.55H1195.6" stroke="#E5EAE8" stroke-opacity="0.6" stroke-width="1.02014"/>
<path d="M797.069 389.065H1195.6" stroke="#E5EAE8" stroke-opacity="0.6" stroke-width="1.02014"/>
<path d="M797.069 399.581H1195.6" stroke="#E5EAE8" stroke-opacity="0.6" stroke-width="1.02014"/>
<path d="M797.069 410.096H1195.6" stroke="#E5EAE8" stroke-opacity="0.6" stroke-width="1.02014"/>
<path d="M0 410.096V820.192" stroke="#E5EAE8" stroke-opacity="0.6" stroke-width="1.02014"/>
<path d="M10.2183 410.096V820.192" stroke="#E5EAE8" stroke-opacity="0.6" stroke-width="1.02014"/>
<path d="M20.4377 410.096V820.192" stroke="#E5EAE8" stroke-opacity="0.6" stroke-width="1.02014"/>
<path d="M30.6567 410.096V820.192" stroke="#E5EAE8" stroke-opacity="0.6" stroke-width="1.02014"/>
<path d="M40.875 410.096V820.192" stroke="#E5EAE8" stroke-opacity="0.6" stroke-width="1.02014"/>
<path d="M51.0947 410.096V820.192" stroke="#E5EAE8" stroke-opacity="0.6" stroke-width="1.02014"/>
<path d="M61.313 410.096V820.192" stroke="#E5EAE8" stroke-opacity="0.6" stroke-width="1.02014"/>
<path d="M71.5322 410.096V820.192" stroke="#E5EAE8" stroke-opacity="0.6" stroke-width="1.02014"/>
<path d="M81.7505 410.096V820.192" stroke="#E5EAE8" stroke-opacity="0.6" stroke-width="1.02014"/>
<path d="M91.969 410.096V820.192" stroke="#E5EAE8" stroke-opacity="0.6" stroke-width="1.02014"/>
<path d="M102.188 410.096V820.192" stroke="#E5EAE8" stroke-opacity="0.6" stroke-width="1.02014"/>
<path d="M112.406 410.096V820.192" stroke="#E5EAE8" stroke-opacity="0.6" stroke-width="1.02014"/>
<path d="M122.626 410.096V820.192" stroke="#E5EAE8" stroke-opacity="0.6" stroke-width="1.02014"/>
<path d="M132.844 410.096V820.192" stroke="#E5EAE8" stroke-opacity="0.6" stroke-width="1.02014"/>
<path d="M143.064 410.096V820.192" stroke="#E5EAE8" stroke-opacity="0.6" stroke-width="1.02014"/>
<path d="M153.282 410.096V820.192" stroke="#E5EAE8" stroke-opacity="0.6" stroke-width="1.02014"/>
<path d="M163.501 410.096V820.192" stroke="#E5EAE8" stroke-opacity="0.6" stroke-width="1.02014"/>
<path d="M173.719 410.096V820.192" stroke="#E5EAE8" stroke-opacity="0.6" stroke-width="1.02014"/>
<path d="M183.939 410.096V820.192" stroke="#E5EAE8" stroke-opacity="0.6" stroke-width="1.02014"/>
<path d="M194.158 410.096V820.192" stroke="#E5EAE8" stroke-opacity="0.6" stroke-width="1.02014"/>
<path d="M204.376 410.096V820.192" stroke="#E5EAE8" stroke-opacity="0.6" stroke-width="1.02014"/>
<path d="M214.596 410.096V820.192" stroke="#E5EAE8" stroke-opacity="0.6" stroke-width="1.02014"/>
<path d="M224.814 410.096V820.192" stroke="#E5EAE8" stroke-opacity="0.6" stroke-width="1.02014"/>
<path d="M235.033 410.096V820.192" stroke="#E5EAE8" stroke-opacity="0.6" stroke-width="1.02014"/>
<path d="M245.252 410.096V820.192" stroke="#E5EAE8" stroke-opacity="0.6" stroke-width="1.02014"/>
<path d="M255.471 410.096V820.192" stroke="#E5EAE8" stroke-opacity="0.6" stroke-width="1.02014"/>
<path d="M265.689 410.096V820.192" stroke="#E5EAE8" stroke-opacity="0.6" stroke-width="1.02014"/>
<path d="M275.908 410.096V820.192" stroke="#E5EAE8" stroke-opacity="0.6" stroke-width="1.02014"/>
<path d="M286.127 410.096V820.192" stroke="#E5EAE8" stroke-opacity="0.6" stroke-width="1.02014"/>
<path d="M296.345 410.096V820.192" stroke="#E5EAE8" stroke-opacity="0.6" stroke-width="1.02014"/>
<path d="M306.565 410.096V820.192" stroke="#E5EAE8" stroke-opacity="0.6" stroke-width="1.02014"/>
<path d="M316.783 410.096V820.192" stroke="#E5EAE8" stroke-opacity="0.6" stroke-width="1.02014"/>
<path d="M327.002 410.096V820.192" stroke="#E5EAE8" stroke-opacity="0.6" stroke-width="1.02014"/>
<path d="M337.221 410.096V820.192" stroke="#E5EAE8" stroke-opacity="0.6" stroke-width="1.02014"/>
<path d="M347.44 410.096V820.192" stroke="#E5EAE8" stroke-opacity="0.6" stroke-width="1.02014"/>
<path d="M357.659 410.096V820.192" stroke="#E5EAE8" stroke-opacity="0.6" stroke-width="1.02014"/>
<path d="M367.878 410.096V820.192" stroke="#E5EAE8" stroke-opacity="0.6" stroke-width="1.02014"/>
<path d="M378.097 410.096V820.192" stroke="#E5EAE8" stroke-opacity="0.6" stroke-width="1.02014"/>
<path d="M388.315 410.096V820.192" stroke="#E5EAE8" stroke-opacity="0.6" stroke-width="1.02014"/>
<path d="M398.535 410.096V820.192" stroke="#E5EAE8" stroke-opacity="0.6" stroke-width="1.02014"/>
<path d="M0 410.096H398.534" stroke="#E5EAE8" stroke-opacity="0.6" stroke-width="1.02014"/>
<path d="M0 420.611H398.534" stroke="#E5EAE8" stroke-opacity="0.6" stroke-width="1.02014"/>
<path d="M0 431.126H398.534" stroke="#E5EAE8" stroke-opacity="0.6" stroke-width="1.02014"/>
<path d="M0 441.642H398.534" stroke="#E5EAE8" stroke-opacity="0.6" stroke-width="1.02014"/>
<path d="M0 452.157H398.534" stroke="#E5EAE8" stroke-opacity="0.6" stroke-width="1.02014"/>
<path d="M0 462.672H398.534" stroke="#E5EAE8" stroke-opacity="0.6" stroke-width="1.02014"/>
<path d="M0 473.188H398.534" stroke="#E5EAE8" stroke-opacity="0.6" stroke-width="1.02014"/>
<path d="M0 483.703H398.534" stroke="#E5EAE8" stroke-opacity="0.6" stroke-width="1.02014"/>
<path d="M0 494.218H398.534" stroke="#E5EAE8" stroke-opacity="0.6" stroke-width="1.02014"/>
<path d="M0 504.733H398.534" stroke="#E5EAE8" stroke-opacity="0.6" stroke-width="1.02014"/>
<path d="M0 515.249H398.534" stroke="#E5EAE8" stroke-opacity="0.6" stroke-width="1.02014"/>
<path d="M0 525.764H398.534" stroke="#E5EAE8" stroke-opacity="0.6" stroke-width="1.02014"/>
<path d="M0 536.279H398.534" stroke="#E5EAE8" stroke-opacity="0.6" stroke-width="1.02014"/>
<path d="M0 546.794H398.534" stroke="#E5EAE8" stroke-opacity="0.6" stroke-width="1.02014"/>
<path d="M0 557.31H398.534" stroke="#E5EAE8" stroke-opacity="0.6" stroke-width="1.02014"/>
<path d="M0 567.825H398.534" stroke="#E5EAE8" stroke-opacity="0.6" stroke-width="1.02014"/>
<path d="M0 578.34H398.534" stroke="#E5EAE8" stroke-opacity="0.6" stroke-width="1.02014"/>
<path d="M0 588.855H398.534" stroke="#E5EAE8" stroke-opacity="0.6" stroke-width="1.02014"/>
<path d="M0 599.37H398.534" stroke="#E5EAE8" stroke-opacity="0.6" stroke-width="1.02014"/>
<path d="M0 609.885H398.534" stroke="#E5EAE8" stroke-opacity="0.6" stroke-width="1.02014"/>
<path d="M0 620.401H398.534" stroke="#E5EAE8" stroke-opacity="0.6" stroke-width="1.02014"/>
<path d="M0 630.917H398.534" stroke="#E5EAE8" stroke-opacity="0.6" stroke-width="1.02014"/>
<path d="M0 641.432H398.534" stroke="#E5EAE8" stroke-opacity="0.6" stroke-width="1.02014"/>
<path d="M0 651.948H398.534" stroke="#E5EAE8" stroke-opacity="0.6" stroke-width="1.02014"/>
<path d="M0 662.463H398.534" stroke="#E5EAE8" stroke-opacity="0.6" stroke-width="1.02014"/>
<path d="M0 672.978H398.534" stroke="#E5EAE8" stroke-opacity="0.6" stroke-width="1.02014"/>
<path d="M0 683.493H398.534" stroke="#E5EAE8" stroke-opacity="0.6" stroke-width="1.02014"/>
<path d="M0 694.009H398.534" stroke="#E5EAE8" stroke-opacity="0.6" stroke-width="1.02014"/>
<path d="M0 704.524H398.534" stroke="#E5EAE8" stroke-opacity="0.6" stroke-width="1.02014"/>
<path d="M0 715.039H398.534" stroke="#E5EAE8" stroke-opacity="0.6" stroke-width="1.02014"/>
<path d="M0 725.554H398.534" stroke="#E5EAE8" stroke-opacity="0.6" stroke-width="1.02014"/>
<path d="M398.535 410.096V820.192" stroke="#E5EAE8" stroke-opacity="0.6" stroke-width="1.02014"/>
<path d="M408.753 410.096V820.192" stroke="#E5EAE8" stroke-opacity="0.6" stroke-width="1.02014"/>
<path d="M418.972 410.096V820.192" stroke="#E5EAE8" stroke-opacity="0.6" stroke-width="1.02014"/>
<path d="M429.191 410.096V820.192" stroke="#E5EAE8" stroke-opacity="0.6" stroke-width="1.02014"/>
<path d="M439.409 410.096V820.192" stroke="#E5EAE8" stroke-opacity="0.6" stroke-width="1.02014"/>
<path d="M449.628 410.096V820.192" stroke="#E5EAE8" stroke-opacity="0.6" stroke-width="1.02014"/>
<path d="M459.847 410.096V820.192" stroke="#E5EAE8" stroke-opacity="0.6" stroke-width="1.02014"/>
<path d="M470.066 410.096V820.192" stroke="#E5EAE8" stroke-opacity="0.6" stroke-width="1.02014"/>
<path d="M480.284 410.096V820.192" stroke="#E5EAE8" stroke-opacity="0.6" stroke-width="1.02014"/>
<path d="M490.504 410.096V820.192" stroke="#E5EAE8" stroke-opacity="0.6" stroke-width="1.02014"/>
<path d="M500.723 410.096V820.192" stroke="#E5EAE8" stroke-opacity="0.6" stroke-width="1.02014"/>
<path d="M510.941 410.096V820.192" stroke="#E5EAE8" stroke-opacity="0.6" stroke-width="1.02014"/>
<path d="M521.16 410.096V820.192" stroke="#E5EAE8" stroke-opacity="0.6" stroke-width="1.02014"/>
<path d="M531.379 410.096V820.192" stroke="#E5EAE8" stroke-opacity="0.6" stroke-width="1.02014"/>
<path d="M541.598 410.096V820.192" stroke="#E5EAE8" stroke-opacity="0.6" stroke-width="1.02014"/>
<path d="M551.816 410.096V820.192" stroke="#E5EAE8" stroke-opacity="0.6" stroke-width="1.02014"/>
<path d="M562.036 410.096V820.192" stroke="#E5EAE8" stroke-opacity="0.6" stroke-width="1.02014"/>
<path d="M572.254 410.096V820.192" stroke="#E5EAE8" stroke-opacity="0.6" stroke-width="1.02014"/>
<path d="M582.473 410.096V820.192" stroke="#E5EAE8" stroke-opacity="0.6" stroke-width="1.02014"/>
<path d="M592.693 410.096V820.192" stroke="#E5EAE8" stroke-opacity="0.6" stroke-width="1.02014"/>
<path d="M602.91 410.096V820.192" stroke="#E5EAE8" stroke-opacity="0.6" stroke-width="1.02014"/>
<path d="M613.129 410.096V820.192" stroke="#E5EAE8" stroke-opacity="0.6" stroke-width="1.02014"/>
<path d="M623.348 410.096V820.192" stroke="#E5EAE8" stroke-opacity="0.6" stroke-width="1.02014"/>
<path d="M633.567 410.096V820.192" stroke="#E5EAE8" stroke-opacity="0.6" stroke-width="1.02014"/>
<path d="M643.785 410.096V820.192" stroke="#E5EAE8" stroke-opacity="0.6" stroke-width="1.02014"/>
<path d="M654.005 410.096V820.192" stroke="#E5EAE8" stroke-opacity="0.6" stroke-width="1.02014"/>
<path d="M664.224 410.096V820.192" stroke="#E5EAE8" stroke-opacity="0.6" stroke-width="1.02014"/>
<path d="M674.442 410.096V820.192" stroke="#E5EAE8" stroke-opacity="0.6" stroke-width="1.02014"/>
<path d="M684.662 410.096V820.192" stroke="#E5EAE8" stroke-opacity="0.6" stroke-width="1.02014"/>
<path d="M694.88 410.096V820.192" stroke="#E5EAE8" stroke-opacity="0.6" stroke-width="1.02014"/>
<path d="M705.099 410.096V820.192" stroke="#E5EAE8" stroke-opacity="0.6" stroke-width="1.02014"/>
<path d="M715.317 410.096V820.192" stroke="#E5EAE8" stroke-opacity="0.6" stroke-width="1.02014"/>
<path d="M725.537 410.096V820.192" stroke="#E5EAE8" stroke-opacity="0.6" stroke-width="1.02014"/>
<path d="M735.755 410.096V820.192" stroke="#E5EAE8" stroke-opacity="0.6" stroke-width="1.02014"/>
<path d="M745.974 410.096V820.192" stroke="#E5EAE8" stroke-opacity="0.6" stroke-width="1.02014"/>
<path d="M756.194 410.096V820.192" stroke="#E5EAE8" stroke-opacity="0.6" stroke-width="1.02014"/>
<path d="M766.412 410.096V820.192" stroke="#E5EAE8" stroke-opacity="0.6" stroke-width="1.02014"/>
<path d="M776.631 410.096V820.192" stroke="#E5EAE8" stroke-opacity="0.6" stroke-width="1.02014"/>
<path d="M786.848 410.096V820.192" stroke="#E5EAE8" stroke-opacity="0.6" stroke-width="1.02014"/>
<path d="M797.069 410.096V820.192" stroke="#E5EAE8" stroke-opacity="0.6" stroke-width="1.02014"/>
<path d="M398.535 410.096H797.069" stroke="#E5EAE8" stroke-opacity="0.6" stroke-width="1.02014"/>
<path d="M398.535 420.611H797.069" stroke="#E5EAE8" stroke-opacity="0.6" stroke-width="1.02014"/>
<path d="M398.535 431.126H797.069" stroke="#E5EAE8" stroke-opacity="0.6" stroke-width="1.02014"/>
<path d="M398.535 441.642H797.069" stroke="#E5EAE8" stroke-opacity="0.6" stroke-width="1.02014"/>
<path d="M398.535 452.157H797.069" stroke="#E5EAE8" stroke-opacity="0.6" stroke-width="1.02014"/>
<path d="M398.535 462.672H797.069" stroke="#E5EAE8" stroke-opacity="0.6" stroke-width="1.02014"/>
<path d="M398.535 473.188H797.069" stroke="#E5EAE8" stroke-opacity="0.6" stroke-width="1.02014"/>
<path d="M398.535 483.703H797.069" stroke="#E5EAE8" stroke-opacity="0.6" stroke-width="1.02014"/>
<path d="M398.535 494.218H797.069" stroke="#E5EAE8" stroke-opacity="0.6" stroke-width="1.02014"/>
<path d="M398.535 504.733H797.069" stroke="#E5EAE8" stroke-opacity="0.6" stroke-width="1.02014"/>
<path d="M398.535 515.249H797.069" stroke="#E5EAE8" stroke-opacity="0.6" stroke-width="1.02014"/>
<path d="M398.535 525.764H797.069" stroke="#E5EAE8" stroke-opacity="0.6" stroke-width="1.02014"/>
<path d="M398.535 536.279H797.069" stroke="#E5EAE8" stroke-opacity="0.6" stroke-width="1.02014"/>
<path d="M398.535 546.794H797.069" stroke="#E5EAE8" stroke-opacity="0.6" stroke-width="1.02014"/>
<path d="M398.535 557.31H797.069" stroke="#E5EAE8" stroke-opacity="0.6" stroke-width="1.02014"/>
<path d="M398.535 567.825H797.069" stroke="#E5EAE8" stroke-opacity="0.6" stroke-width="1.02014"/>
<path d="M398.535 578.34H797.069" stroke="#E5EAE8" stroke-opacity="0.6" stroke-width="1.02014"/>
<path d="M398.535 588.855H797.069" stroke="#E5EAE8" stroke-opacity="0.6" stroke-width="1.02014"/>
<path d="M398.535 599.37H797.069" stroke="#E5EAE8" stroke-opacity="0.6" stroke-width="1.02014"/>
<path d="M398.535 609.885H797.069" stroke="#E5EAE8" stroke-opacity="0.6" stroke-width="1.02014"/>
<path d="M398.535 620.401H797.069" stroke="#E5EAE8" stroke-opacity="0.6" stroke-width="1.02014"/>
<path d="M398.535 630.917H797.069" stroke="#E5EAE8" stroke-opacity="0.6" stroke-width="1.02014"/>
<path d="M398.535 641.432H797.069" stroke="#E5EAE8" stroke-opacity="0.6" stroke-width="1.02014"/>
<path d="M398.535 651.948H797.069" stroke="#E5EAE8" stroke-opacity="0.6" stroke-width="1.02014"/>
<path d="M398.535 662.463H797.069" stroke="#E5EAE8" stroke-opacity="0.6" stroke-width="1.02014"/>
<path d="M398.535 672.978H797.069" stroke="#E5EAE8" stroke-opacity="0.6" stroke-width="1.02014"/>
<path d="M398.535 683.493H797.069" stroke="#E5EAE8" stroke-opacity="0.6" stroke-width="1.02014"/>
<path d="M398.535 694.009H797.069" stroke="#E5EAE8" stroke-opacity="0.6" stroke-width="1.02014"/>
<path d="M398.535 704.524H797.069" stroke="#E5EAE8" stroke-opacity="0.6" stroke-width="1.02014"/>
<path d="M398.535 715.039H797.069" stroke="#E5EAE8" stroke-opacity="0.6" stroke-width="1.02014"/>
<path d="M398.535 725.554H797.069" stroke="#E5EAE8" stroke-opacity="0.6" stroke-width="1.02014"/>
<path d="M797.069 410.096V820.192" stroke="#E5EAE8" stroke-opacity="0.6" stroke-width="1.02014"/>
<path d="M807.286 410.096V820.192" stroke="#E5EAE8" stroke-opacity="0.6" stroke-width="1.02014"/>
<path d="M817.506 410.096V820.192" stroke="#E5EAE8" stroke-opacity="0.6" stroke-width="1.02014"/>
<path d="M827.725 410.096V820.192" stroke="#E5EAE8" stroke-opacity="0.6" stroke-width="1.02014"/>
<path d="M837.944 410.096V820.192" stroke="#E5EAE8" stroke-opacity="0.6" stroke-width="1.02014"/>
<path d="M848.162 410.096V820.192" stroke="#E5EAE8" stroke-opacity="0.6" stroke-width="1.02014"/>
<path d="M858.381 410.096V820.192" stroke="#E5EAE8" stroke-opacity="0.6" stroke-width="1.02014"/>
<path d="M868.6 410.096V820.192" stroke="#E5EAE8" stroke-opacity="0.6" stroke-width="1.02014"/>
<path d="M878.818 410.096V820.192" stroke="#E5EAE8" stroke-opacity="0.6" stroke-width="1.02014"/>
<path d="M889.039 410.096V820.192" stroke="#E5EAE8" stroke-opacity="0.6" stroke-width="1.02014"/>
<path d="M899.256 410.096V820.192" stroke="#E5EAE8" stroke-opacity="0.6" stroke-width="1.02014"/>
<path d="M909.476 410.096V820.192" stroke="#E5EAE8" stroke-opacity="0.6" stroke-width="1.02014"/>
<path d="M919.695 410.096V820.192" stroke="#E5EAE8" stroke-opacity="0.6" stroke-width="1.02014"/>
<path d="M929.912 410.096V820.192" stroke="#E5EAE8" stroke-opacity="0.6" stroke-width="1.02014"/>
<path d="M940.132 410.096V820.192" stroke="#E5EAE8" stroke-opacity="0.6" stroke-width="1.02014"/>
<path d="M950.351 410.096V820.192" stroke="#E5EAE8" stroke-opacity="0.6" stroke-width="1.02014"/>
<path d="M960.568 410.096V820.192" stroke="#E5EAE8" stroke-opacity="0.6" stroke-width="1.02014"/>
<path d="M970.79 410.096V820.192" stroke="#E5EAE8" stroke-opacity="0.6" stroke-width="1.02014"/>
<path d="M981.007 410.096V820.192" stroke="#E5EAE8" stroke-opacity="0.6" stroke-width="1.02014"/>
<path d="M991.226 410.096V820.192" stroke="#E5EAE8" stroke-opacity="0.6" stroke-width="1.02014"/>
<path d="M1001.45 410.096V820.192" stroke="#E5EAE8" stroke-opacity="0.6" stroke-width="1.02014"/>
<path d="M1011.66 410.096V820.192" stroke="#E5EAE8" stroke-opacity="0.6" stroke-width="1.02014"/>
<path d="M1021.88 410.096V820.192" stroke="#E5EAE8" stroke-opacity="0.6" stroke-width="1.02014"/>
<path d="M1032.1 410.096V820.192" stroke="#E5EAE8" stroke-opacity="0.6" stroke-width="1.02014"/>
<path d="M1042.32 410.096V820.192" stroke="#E5EAE8" stroke-opacity="0.6" stroke-width="1.02014"/>
<path d="M1052.54 410.096V820.192" stroke="#E5EAE8" stroke-opacity="0.6" stroke-width="1.02014"/>
<path d="M1062.76 410.096V820.192" stroke="#E5EAE8" stroke-opacity="0.6" stroke-width="1.02014"/>
<path d="M1072.97 410.096V820.192" stroke="#E5EAE8" stroke-opacity="0.6" stroke-width="1.02014"/>
<path d="M1083.2 410.096V820.192" stroke="#E5EAE8" stroke-opacity="0.6" stroke-width="1.02014"/>
<path d="M1093.41 410.096V820.192" stroke="#E5EAE8" stroke-opacity="0.6" stroke-width="1.02014"/>
<path d="M1103.63 410.096V820.192" stroke="#E5EAE8" stroke-opacity="0.6" stroke-width="1.02014"/>
<path d="M1113.85 410.096V820.192" stroke="#E5EAE8" stroke-opacity="0.6" stroke-width="1.02014"/>
<path d="M1124.07 410.096V820.192" stroke="#E5EAE8" stroke-opacity="0.6" stroke-width="1.02014"/>
<path d="M1134.29 410.096V820.192" stroke="#E5EAE8" stroke-opacity="0.6" stroke-width="1.02014"/>
<path d="M1144.51 410.096V820.192" stroke="#E5EAE8" stroke-opacity="0.6" stroke-width="1.02014"/>
<path d="M1154.73 410.096V820.192" stroke="#E5EAE8" stroke-opacity="0.6" stroke-width="1.02014"/>
<path d="M1164.95 410.096V820.192" stroke="#E5EAE8" stroke-opacity="0.6" stroke-width="1.02014"/>
<path d="M1175.17 410.096V820.192" stroke="#E5EAE8" stroke-opacity="0.6" stroke-width="1.02014"/>
<path d="M1185.38 410.096V820.192" stroke="#E5EAE8" stroke-opacity="0.6" stroke-width="1.02014"/>
<path d="M1195.6 410.096V820.192" stroke="#E5EAE8" stroke-opacity="0.6" stroke-width="1.02014"/>
<path d="M797.069 410.096H1195.6" stroke="#E5EAE8" stroke-opacity="0.6" stroke-width="1.02014"/>
<path d="M797.069 420.611H1195.6" stroke="#E5EAE8" stroke-opacity="0.6" stroke-width="1.02014"/>
<path d="M797.069 431.126H1195.6" stroke="#E5EAE8" stroke-opacity="0.6" stroke-width="1.02014"/>
<path d="M797.069 441.642H1195.6" stroke="#E5EAE8" stroke-opacity="0.6" stroke-width="1.02014"/>
<path d="M797.069 452.157H1195.6" stroke="#E5EAE8" stroke-opacity="0.6" stroke-width="1.02014"/>
<path d="M797.069 462.672H1195.6" stroke="#E5EAE8" stroke-opacity="0.6" stroke-width="1.02014"/>
<path d="M797.069 473.188H1195.6" stroke="#E5EAE8" stroke-opacity="0.6" stroke-width="1.02014"/>
<path d="M797.069 483.703H1195.6" stroke="#E5EAE8" stroke-opacity="0.6" stroke-width="1.02014"/>
<path d="M797.069 494.218H1195.6" stroke="#E5EAE8" stroke-opacity="0.6" stroke-width="1.02014"/>
<path d="M797.069 504.733H1195.6" stroke="#E5EAE8" stroke-opacity="0.6" stroke-width="1.02014"/>
<path d="M797.069 515.249H1195.6" stroke="#E5EAE8" stroke-opacity="0.6" stroke-width="1.02014"/>
<path d="M797.069 525.764H1195.6" stroke="#E5EAE8" stroke-opacity="0.6" stroke-width="1.02014"/>
<path d="M797.069 536.279H1195.6" stroke="#E5EAE8" stroke-opacity="0.6" stroke-width="1.02014"/>
<path d="M797.069 546.794H1195.6" stroke="#E5EAE8" stroke-opacity="0.6" stroke-width="1.02014"/>
<path d="M797.069 557.31H1195.6" stroke="#E5EAE8" stroke-opacity="0.6" stroke-width="1.02014"/>
<path d="M797.069 567.825H1195.6" stroke="#E5EAE8" stroke-opacity="0.6" stroke-width="1.02014"/>
<path d="M797.069 578.34H1195.6" stroke="#E5EAE8" stroke-opacity="0.6" stroke-width="1.02014"/>
<path d="M797.069 588.855H1195.6" stroke="#E5EAE8" stroke-opacity="0.6" stroke-width="1.02014"/>
<path d="M797.069 599.37H1195.6" stroke="#E5EAE8" stroke-opacity="0.6" stroke-width="1.02014"/>
<path d="M797.069 609.885H1195.6" stroke="#E5EAE8" stroke-opacity="0.6" stroke-width="1.02014"/>
<path d="M797.069 620.401H1195.6" stroke="#E5EAE8" stroke-opacity="0.6" stroke-width="1.02014"/>
<path d="M797.069 630.917H1195.6" stroke="#E5EAE8" stroke-opacity="0.6" stroke-width="1.02014"/>
<path d="M797.069 641.432H1195.6" stroke="#E5EAE8" stroke-opacity="0.6" stroke-width="1.02014"/>
<path d="M797.069 651.948H1195.6" stroke="#E5EAE8" stroke-opacity="0.6" stroke-width="1.02014"/>
<path d="M797.069 662.463H1195.6" stroke="#E5EAE8" stroke-opacity="0.6" stroke-width="1.02014"/>
<path d="M797.069 672.978H1195.6" stroke="#E5EAE8" stroke-opacity="0.6" stroke-width="1.02014"/>
<path d="M797.069 683.493H1195.6" stroke="#E5EAE8" stroke-opacity="0.6" stroke-width="1.02014"/>
<path d="M797.069 694.009H1195.6" stroke="#E5EAE8" stroke-opacity="0.6" stroke-width="1.02014"/>
<path d="M797.069 704.524H1195.6" stroke="#E5EAE8" stroke-opacity="0.6" stroke-width="1.02014"/>
<path d="M797.069 715.039H1195.6" stroke="#E5EAE8" stroke-opacity="0.6" stroke-width="1.02014"/>
<path d="M797.069 725.554H1195.6" stroke="#E5EAE8" stroke-opacity="0.6" stroke-width="1.02014"/>
</svg>
