<svg width="12" height="12" viewBox="0 0 12 12" fill="none" xmlns="http://www.w3.org/2000/svg">
<path d="M6 10.25C9.5664 10.25 11 8.2353 11 5.75C11 3.26472 10.0664 1.25 6 1.25C2.06641 1.25 1 3.26472 1 5.75C1 6.7856 1.18517 7.73955 1.6858 8.5C2.3164 9.5 1.99626 10.4166 1.5 10.75C2.30774 10.75 2.85105 10.4929 3.19619 10.2383C3.44126 10.0575 3.75344 9.9682 4.0492 10.0407C4.60345 10.1766 5.24955 10.25 6 10.25Z" stroke="#00291C" stroke-width="0.75" stroke-linecap="round" stroke-linejoin="round"/>
<path d="M5 4.5C5 3.94771 5.4477 3.5 6 3.5C6.5523 3.5 7 3.94771 7 4.5C7 4.78888 6.8775 5.04915 6.6816 5.2317C6.3786 5.5141 6 5.8358 6 6.25M6.0625 7.875H6M6.125 7.875C6.125 7.94405 6.06905 8 6 8C5.93095 8 5.875 7.94405 5.875 7.875C5.875 7.80595 5.93095 7.75 6 7.75C6.06905 7.75 6.125 7.80595 6.125 7.875Z" stroke="#00291C" stroke-width="0.75" stroke-linecap="round" stroke-linejoin="round"/>
</svg>
