<svg width="546" height="111" viewBox="0 0 546 111" fill="none" xmlns="http://www.w3.org/2000/svg">
<path d="M144.185 88.342C139.69 88.342 135.921 87.4701 132.877 85.7257C129.832 83.9814 127.44 81.6194 125.7 78.6396V33.7252C127.585 30.6 130.049 28.1653 133.094 26.4211C136.138 24.6769 139.836 23.8047 144.185 23.8047C149.911 23.8047 154.804 25.1856 158.864 27.9473C162.923 30.709 166.04 34.5246 168.215 39.394C170.462 44.2633 171.585 49.8595 171.585 56.1826C171.585 62.4329 170.462 67.9927 168.215 72.8617C166.04 77.7311 162.923 81.5467 158.864 84.3083C154.804 86.9978 149.911 88.342 144.185 88.342ZM112 108.401V25.549H125.7V108.401H112ZM142.01 76.0234C145.344 76.0234 148.172 75.1876 150.491 73.516C152.811 71.7717 154.55 69.4096 155.711 66.4299C156.943 63.3775 157.559 59.9615 157.559 56.1826C157.559 52.3304 156.943 48.8783 155.711 45.8259C154.55 42.7735 152.811 40.4114 150.491 38.7399C148.172 36.9956 145.344 36.1235 142.01 36.1235C138.313 36.1235 135.269 37.0319 132.877 38.8489C130.485 40.5931 128.672 42.9915 127.44 46.044C126.28 49.0237 125.7 52.4031 125.7 56.1826C125.7 59.8888 126.28 63.2687 127.44 66.3211C128.672 69.3008 130.485 71.6629 132.877 73.4067C135.269 75.151 138.313 76.0234 142.01 76.0234Z" fill="#1F1D1D"/>
<path d="M205.985 88.3553C199.791 88.3553 194.353 87.0108 189.672 84.3208C185.064 81.5586 181.462 77.7423 178.87 72.8718C176.349 68.0019 175.089 62.4408 175.089 56.1893C175.089 49.8649 176.349 44.2676 178.87 39.3972C181.462 34.5268 185.064 30.7104 189.672 27.9481C194.353 25.1858 199.827 23.8047 206.093 23.8047C212.287 23.8047 217.688 25.1858 222.297 27.9481C226.906 30.7104 230.471 34.5268 232.992 39.3972C235.585 44.2676 236.881 49.8649 236.881 56.1893C236.881 62.4408 235.585 68.0019 232.992 72.8718C230.471 77.7423 226.906 81.5586 222.297 84.3208C217.688 87.0108 212.25 88.3553 205.985 88.3553ZM206.093 76.0342C209.766 76.0342 212.862 75.1982 215.383 73.5262C217.904 71.7816 219.812 69.419 221.109 66.4387C222.405 63.3856 223.053 59.969 223.053 56.1893C223.053 52.3363 222.405 48.8835 221.109 45.8304C219.812 42.7774 217.904 40.4149 215.383 38.7429C212.862 36.9984 209.766 36.126 206.093 36.126C202.348 36.126 199.215 36.9984 196.694 38.7429C194.174 40.4149 192.265 42.7774 190.969 45.8304C189.672 48.8835 189.024 52.3363 189.024 56.1893C189.024 59.969 189.672 63.3856 190.969 66.4387C192.265 69.419 194.174 71.7816 196.694 73.5262C199.215 75.1982 202.348 76.0342 206.093 76.0342Z" fill="#1F1D1D"/>
<path d="M312.348 88.342C307.867 88.342 304.109 87.4701 301.074 85.7257C298.039 83.9814 295.654 81.6194 293.92 78.6396V33.7252C295.799 30.6 298.256 28.1653 301.291 26.4211C304.326 24.6769 308.011 23.8047 312.348 23.8047C318.056 23.8047 322.934 25.1856 326.981 27.9473C331.028 30.709 334.135 34.5246 336.303 39.394C338.543 44.2633 339.663 49.8595 339.663 56.1826C339.663 62.4329 338.543 67.9927 336.303 72.8617C334.135 77.7311 331.028 81.5467 326.981 84.3083C322.934 86.9978 318.056 88.342 312.348 88.342ZM280.262 108.401V25.549H293.92V108.401H280.262ZM310.179 76.0234C313.504 76.0234 316.322 75.1876 318.634 73.516C320.947 71.7717 322.681 69.4096 323.837 66.4299C325.066 63.3775 325.68 59.9615 325.68 56.1826C325.68 52.3304 325.066 48.8783 323.837 45.8259C322.681 42.7735 320.947 40.4114 318.634 38.7399C316.322 36.9956 313.504 36.1235 310.179 36.1235C306.494 36.1235 303.459 37.0319 301.074 38.8489C298.689 40.5931 296.883 42.9915 295.654 46.044C294.498 49.0237 293.92 52.4031 293.92 56.1826C293.92 59.8888 294.498 63.2687 295.654 66.3211C296.883 69.3008 298.689 71.6629 301.074 73.4067C303.459 75.151 306.494 76.0234 310.179 76.0234Z" fill="#1F1D1D"/>
<path d="M489.091 88.3419C493.572 88.3419 497.33 87.4701 500.365 85.7257C503.4 83.9814 505.785 81.6194 507.519 78.6396V33.7252C505.64 30.6 503.183 28.1653 500.148 26.4211C497.113 24.6769 493.428 23.8047 489.091 23.8047C483.383 23.8047 478.505 25.1856 474.458 27.9473C470.411 30.709 467.304 34.5246 465.136 39.394C462.896 44.2633 461.776 49.8595 461.776 56.1826C461.776 62.4329 462.896 67.9927 465.136 72.8617C467.304 77.7311 470.411 81.5467 474.458 84.3083C478.505 86.9978 483.383 88.3419 489.091 88.3419ZM521.177 88.3419V25.549H507.519V88.3419H521.177ZM491.26 76.0234C487.935 76.0234 485.117 75.1876 482.805 73.516C480.492 71.7717 478.758 69.4096 477.602 66.4299C476.373 63.3775 475.759 59.9615 475.759 56.1826C475.759 52.3304 476.373 48.8783 477.602 45.8259C478.758 42.7735 480.492 40.4114 482.805 38.7399C485.117 36.9956 487.935 36.1235 491.26 36.1235C494.945 36.1235 497.98 37.0319 500.365 38.8489C502.75 40.5931 504.556 42.9915 505.785 46.044C506.941 49.0237 507.519 52.4031 507.519 56.1826C507.519 59.8888 506.941 63.2687 505.785 66.3211C504.556 69.3008 502.75 71.6629 500.365 73.4067C497.98 75.151 494.945 76.0234 491.26 76.0234Z" fill="#1F1D1D"/>
<path d="M349.483 25.7432H362.756V86.5157H349.483V25.7432ZM345.554 4.25567L360.101 1L363.393 15.8676L348.846 19.2319L345.554 4.25567Z" fill="#1F1D1D"/>
<path d="M531.63 25.7432H544.902V86.5157H531.63V25.7432ZM527.701 4.25567L542.248 1L545.539 15.8676L530.992 19.2319L527.701 4.25567Z" fill="#1F1D1D"/>
<path d="M383.673 60.6595V49.4287H419.298L414.425 52.5911C414.714 49.8285 414.353 47.2116 413.342 44.7401C412.404 42.1959 410.852 40.1241 408.686 38.5249C406.52 36.9257 403.705 36.126 400.24 36.126C395.548 36.126 391.613 37.6163 388.437 40.5966C385.261 43.577 383.673 47.8658 383.673 53.4632H369.271C369.704 47.1389 371.328 41.796 374.144 37.4345C377.031 33.0003 380.713 29.6201 385.189 27.294C389.737 24.9678 394.754 23.8047 400.24 23.8047C404.355 23.8047 408.217 24.6407 411.826 26.3126C415.508 27.9118 418.648 30.3107 421.248 33.5091C423.918 36.6349 425.867 40.4876 427.095 45.0672C428.394 49.6468 428.647 54.8443 427.853 60.6595H383.673ZM400.24 88.3553C394.537 88.3553 389.484 87.1923 385.08 84.8664C380.677 82.54 377.139 79.3054 374.468 75.1616C371.797 71.0183 370.137 66.1844 369.487 60.6595H383.673C384.25 65.1664 385.875 68.8739 388.545 71.7816C391.216 74.6165 395.115 76.0342 400.24 76.0342C403.85 76.0342 406.737 75.1982 408.903 73.5262C411.141 71.7816 412.729 69.6733 413.667 67.202H427.961C427.095 71.418 425.398 75.1255 422.872 78.324C420.345 81.4498 417.169 83.9211 413.342 85.7385C409.517 87.4832 405.149 88.3553 400.24 88.3553Z" fill="#1F1D1D"/>
<path d="M273.755 86.368V74.8666H260.148V37.3657H272.054V25.7023H260.148V1.07959H246.784V25.7023H238.765V37.3657H246.784V86.368H273.755Z" fill="#1F1D1D"/>
<path d="M452.68 70.0425L438.133 73.2982L441.424 88.2743L455.972 84.9101L452.68 70.0425Z" fill="#1F1D1D"/>
<path fill-rule="evenodd" clip-rule="evenodd" d="M44.166 4.7323C50.5254 -1.57743 60.7774 -1.57743 67.1373 4.73231C70.5266 8.09471 75.2182 9.80323 79.9743 9.40778C87.4206 8.78733 94.1215 13.2771 96.6127 19.9648L60.4458 40.6003L57.5154 42.3045C54.9707 43.7858 53.3879 46.4906 53.3455 49.4357L53.1345 63.9885L53.1345 68.2973C53.1345 71.3995 54.8346 74.2638 57.5793 75.743L90.7272 93.6083C87.8492 95.2556 85.51 97.7595 84.0682 100.818C80.2487 108.924 70.6142 112.433 62.4825 108.681C58.1479 106.68 53.1554 106.68 48.8207 108.681C40.6888 112.433 31.0543 108.924 27.2347 100.818C25.1991 96.4985 21.3746 93.2871 16.7695 92.031C8.12967 89.6753 3.00356 80.79 5.28394 72.1229C6.49927 67.504 5.63245 62.5837 2.91123 58.66C-2.19302 51.2972 -0.412939 41.1946 6.90018 36.0232C10.7984 33.2659 13.2946 28.94 13.731 24.1837C14.5503 15.2609 22.4041 8.66496 31.3285 9.40777C36.0849 9.80323 40.7762 8.09471 44.166 4.7323Z" fill="#B6E343"/>
<path fill-rule="evenodd" clip-rule="evenodd" d="M63.5398 47.4662L63.6065 47.3351L63.6721 47.2324C63.6186 47.3067 63.5735 47.3832 63.5398 47.4662ZM98.8154 82.8128C99.4005 83.1295 99.693 83.2882 99.8478 83.5493C99.9746 83.7626 100.029 84.0656 99.985 84.3096C99.9305 84.6082 99.7332 84.8347 99.3382 85.287C98.7207 85.9943 98.0403 86.6516 97.3026 87.2477C96.9197 87.5573 96.7285 87.7121 96.4498 87.8063C96.2244 87.8829 95.9198 87.9116 95.6845 87.8779C95.3931 87.8361 95.1419 87.7005 94.6394 87.43L61.0249 69.3251C60.6414 69.1174 60.4023 68.7158 60.4023 68.2789L60.4023 63.9701C60.4023 63.0721 61.3593 62.4997 62.1482 62.9261L98.8154 82.8128Z" fill="#B6E343"/>
<path fill-rule="evenodd" clip-rule="evenodd" d="M98.6575 30.9076C99.1528 29.5283 99.4007 28.8386 99.2432 28.449C99.1065 28.1114 98.8118 27.8631 98.4564 27.7854C98.0455 27.6959 97.4075 28.0563 96.1316 28.777L64.0486 46.8979C63.8938 46.9875 63.7704 47.1011 63.675 47.2322L63.6095 47.3349L63.5428 47.466C63.4685 47.6451 63.4393 47.8396 63.4547 48.0275L63.4602 48.0821C63.5059 48.4448 63.7158 48.7878 64.0871 48.9822L98.1953 68.251C98.8333 68.6118 99.1523 68.792 99.3578 68.7468C99.5357 68.7082 99.6828 68.5843 99.7511 68.4151C99.8299 68.2207 99.7059 67.8758 99.4586 67.186L92.7605 48.5269C92.6811 48.3063 92.6415 48.1959 92.626 48.0827C92.6123 47.9822 92.6123 47.8803 92.626 47.7799C92.6415 47.6666 92.6811 47.5563 92.7605 47.3356L98.6575 30.9076Z" fill="#B6E343"/>
</svg>
