<svg width="20" height="20" viewBox="0 0 20 20" fill="none" xmlns="http://www.w3.org/2000/svg">
<path d="M8.32171 17.1158C5.46854 18.0788 3.0909 17.1158 1.66431 14.147" stroke="#00291C" stroke-width="1.24826" stroke-linecap="round" stroke-linejoin="round"/>
<path d="M8.32177 18.3078V15.6098C8.32177 15.1119 8.47481 14.6792 8.72155 14.2883C8.89081 14.0201 8.77489 13.6396 8.46915 13.5556C5.9367 12.8594 4.16089 11.74 4.16089 8.02717C4.16089 7.06189 4.47716 6.15436 5.0331 5.36449C5.17146 5.16792 5.24063 5.06964 5.25726 4.98061C5.27389 4.89159 5.24498 4.77541 5.18714 4.54307C4.95177 3.59738 4.96703 2.59317 5.32029 1.6878C5.32029 1.6878 6.05028 1.44995 7.71177 2.4879C8.09111 2.72489 8.28078 2.84338 8.44784 2.86989C8.61486 2.89639 8.83822 2.84087 9.28485 2.72983C9.89566 2.57799 10.525 2.49648 11.2344 2.49648C11.9437 2.49648 12.5731 2.57799 13.1839 2.72983C13.6306 2.84087 13.8539 2.89639 14.0209 2.86989C14.188 2.84338 14.3777 2.72489 14.757 2.4879C16.4185 1.44995 17.1485 1.6878 17.1485 1.6878C17.5017 2.59317 17.517 3.59738 17.2816 4.54307C17.2238 4.77541 17.1948 4.89159 17.2115 4.98061C17.2281 5.06963 17.2973 5.16792 17.4357 5.36449C17.9916 6.15436 18.3079 7.06189 18.3079 8.02717C18.3079 11.74 16.5321 12.8594 13.9996 13.5556C13.6939 13.6396 13.578 14.0201 13.7472 14.2883C13.994 14.6792 14.147 15.1119 14.147 15.6098V18.3078" stroke="#00291C" stroke-width="1.24826" stroke-linecap="round" stroke-linejoin="round"/>
</svg>
