<svg width="16" height="16" viewBox="0 0 16 16" fill="none" xmlns="http://www.w3.org/2000/svg">
<path d="M2.33398 12.657V13.6668H3.3438C4.1613 13.6668 4.57005 13.6668 4.93759 13.5146C5.30514 13.3624 5.59416 13.0733 6.17222 12.4952L12.7482 5.91928C13.3366 5.33091 13.6307 5.03672 13.6633 4.67566C13.6687 4.61598 13.6687 4.55592 13.6633 4.49624C13.6307 4.13518 13.3366 3.84099 12.7482 3.25262C12.1598 2.66424 11.8656 2.37005 11.5046 2.33753C11.4449 2.33215 11.3849 2.33215 11.3251 2.33753C10.9641 2.37005 10.6699 2.66424 10.0815 3.25262L3.50556 9.82857C2.9275 10.4066 2.63847 10.6957 2.48622 11.0632C2.33398 11.4308 2.33398 11.8395 2.33398 12.657Z" stroke="#00291C" stroke-linecap="round" stroke-linejoin="round"/>
<path d="M9 4.3335L11.6667 7.00016" stroke="#00291C" stroke-linecap="round" stroke-linejoin="round"/>
</svg>
