<svg width="18" height="18" viewBox="0 0 18 18" fill="none" xmlns="http://www.w3.org/2000/svg">
<path d="M9.09502 9.62144C9.03902 9.61344 8.96702 9.61344 8.90302 9.62144C7.49502 9.57345 6.375 8.42176 6.375 7.00612C6.375 5.5585 7.54302 4.38281 8.99902 4.38281C10.447 4.38281 11.623 5.5585 11.623 7.00612C11.615 8.42176 10.503 9.57345 9.09502 9.62144Z" stroke="#5B5B5B" stroke-width="0.7" stroke-linecap="round" stroke-linejoin="round"/>
<path d="M14.3914 14.9042C12.9674 16.2078 11.0794 16.9996 8.99941 16.9996C6.91942 16.9996 5.03142 16.2078 3.60742 14.9042C3.68742 14.1524 4.16742 13.4166 5.02342 12.8407C7.21542 11.3851 10.7994 11.3851 12.9754 12.8407C13.8314 13.4166 14.3114 14.1524 14.3914 14.9042Z" stroke="#5B5B5B" stroke-width="0.7" stroke-linecap="round" stroke-linejoin="round"/>
<path d="M9 16.9958C13.4182 16.9958 17 13.4149 17 8.99788C17 4.58077 13.4182 1 9 1C4.58172 1 1 4.58077 1 8.99788C1 13.4149 4.58172 16.9958 9 16.9958Z" stroke="#5B5B5B" stroke-width="0.7" stroke-linecap="round" stroke-linejoin="round"/>
</svg>
