<svg width="16" height="16" viewBox="0 0 16 16" fill="none" xmlns="http://www.w3.org/2000/svg">
<path d="M2 13.9998L5.33333 10.6665" stroke="#00291C" stroke-linecap="round" stroke-linejoin="round"/>
<path d="M8.83965 12.5809C6.34409 12.0143 3.98628 9.65653 3.41967 7.161C3.32998 6.76593 3.28513 6.56844 3.41506 6.24798C3.54498 5.92753 3.7037 5.82837 4.02112 5.63006C4.73868 5.18177 5.51568 5.03925 6.32204 5.11057C7.45352 5.21065 8.01925 5.26069 8.30145 5.11365C8.58372 4.96661 8.77545 4.62278 9.15905 3.93513L9.64492 3.06403C9.96498 2.49019 10.1251 2.20327 10.5015 2.06801C10.878 1.93275 11.1045 2.01466 11.5577 2.17847C12.6173 2.56157 13.4391 3.38337 13.8222 4.44299C13.986 4.89611 14.0679 5.12267 13.9327 5.49913C13.7974 5.8756 13.5105 6.03564 12.9366 6.35572L12.0455 6.8528C11.3591 7.2356 11.0159 7.42707 10.8689 7.712C10.7219 7.997 10.7753 8.5504 10.8821 9.65727C10.9606 10.4712 10.8253 11.2533 10.371 11.9798C10.1725 12.2972 10.0732 12.4559 9.75285 12.5857C9.43245 12.7155 9.23485 12.6707 8.83965 12.5809Z" fill="#00291C" stroke="#00291C" stroke-linecap="round" stroke-linejoin="round"/>
</svg>
