<svg width="825" height="212" viewBox="0 0 825 212" fill="none" xmlns="http://www.w3.org/2000/svg">
<path fill-rule="evenodd" clip-rule="evenodd" d="M85.1829 9.58978C96.7261 -1.86326 115.335 -1.86326 126.879 9.58978C133.031 15.693 141.547 18.7942 150.18 18.0764C163.696 16.9502 175.859 25.0998 180.381 37.2389L114.733 74.6952L109.414 77.7885C104.795 80.4772 101.922 85.3868 101.845 90.7326L101.462 117.148V124.969C101.462 130.6 104.548 135.799 109.53 138.484L169.698 170.912C164.474 173.902 160.228 178.447 157.611 183.999C150.678 198.712 133.19 205.081 118.43 198.271C110.562 194.639 101.5 194.639 93.6319 198.271C78.8714 205.081 61.3835 198.712 54.4504 183.999C50.7554 176.158 43.8134 170.329 35.4546 168.049C19.7721 163.773 10.4675 147.645 14.6067 131.913C16.8127 123.529 15.2393 114.598 10.2999 107.476C1.035 94.1114 4.26608 75.7739 17.5404 66.387C24.6162 61.3822 29.1471 53.5301 29.9392 44.8967C31.4264 28.7006 45.6822 16.7281 61.8812 18.0764C70.5146 18.7942 79.03 15.693 85.1829 9.58978Z" fill="#B6E343"/>
<path fill-rule="evenodd" clip-rule="evenodd" d="M120.355 87.1561L120.476 86.9181L120.595 86.7318C120.498 86.8666 120.416 87.0054 120.355 87.1561ZM184.385 151.315C185.447 151.89 185.978 152.178 186.259 152.652C186.489 153.039 186.588 153.589 186.508 154.032C186.409 154.574 186.051 154.985 185.334 155.806C184.213 157.09 182.978 158.283 181.639 159.365C180.944 159.927 180.597 160.208 180.091 160.379C179.682 160.518 179.129 160.57 178.702 160.509C178.173 160.433 177.717 160.187 176.805 159.696L115.79 126.833C115.094 126.456 114.66 125.727 114.66 124.934V117.113C114.66 115.483 116.397 114.444 117.829 115.218L184.385 151.315Z" fill="#B6E343"/>
<path fill-rule="evenodd" clip-rule="evenodd" d="M184.092 57.0997C184.991 54.5961 185.441 53.3442 185.155 52.6369C184.907 52.0242 184.372 51.5734 183.727 51.4325C182.981 51.27 181.823 51.9241 179.507 53.2323L121.272 86.1243C120.991 86.2869 120.767 86.4931 120.594 86.7311L120.475 86.9175L120.354 87.1554C120.219 87.4806 120.166 87.8336 120.194 88.1746L120.204 88.2738C120.287 88.9321 120.668 89.5547 121.342 89.9076L183.253 124.883C184.411 125.538 184.99 125.865 185.363 125.783C185.686 125.713 185.953 125.488 186.077 125.181C186.22 124.828 185.995 124.202 185.546 122.95L173.388 89.0812C173.244 88.6807 173.172 88.4804 173.144 88.2748C173.119 88.0925 173.119 87.9075 173.144 87.7252C173.172 87.5196 173.244 87.3193 173.388 86.9188L184.092 57.0997Z" fill="#B6E343"/>
<path d="M294.204 168.784C285.837 168.784 278.82 167.165 273.152 163.926C267.484 160.687 263.03 156.301 259.791 150.768V67.3673C263.3 61.5643 267.888 57.0434 273.556 53.8045C279.224 50.5657 286.107 48.9462 294.204 48.9462C304.865 48.9462 313.975 51.5103 321.532 56.6385C329.089 61.7667 334.892 68.8518 338.941 77.8936C343.125 86.9354 345.216 97.3268 345.216 109.068C345.216 120.674 343.125 130.998 338.941 140.039C334.892 149.081 329.089 156.166 321.532 161.294C313.975 166.288 304.865 168.784 294.204 168.784ZM234.285 206.031V52.1851H259.791V206.031H234.285ZM290.156 145.91C296.363 145.91 301.627 144.358 305.945 141.254C310.264 138.015 313.502 133.629 315.662 128.096C317.956 122.428 319.103 116.085 319.103 109.068C319.103 101.915 317.956 95.5049 315.662 89.8369C313.502 84.1689 310.264 79.7829 305.945 76.679C301.627 73.4402 296.363 71.8207 290.156 71.8207C283.273 71.8207 277.605 73.5076 273.152 76.8815C268.698 80.1203 265.324 84.5738 263.03 90.2418C260.871 95.7748 259.791 102.05 259.791 109.068C259.791 115.95 260.871 122.226 263.03 127.894C265.324 133.427 268.698 137.813 273.152 141.051C277.605 144.29 283.273 145.91 290.156 145.91Z" fill="#EFE6DF"/>
<path d="M409.598 168.784C397.992 168.784 387.803 166.288 379.031 161.294C370.395 156.166 363.647 149.081 358.789 140.039C354.065 130.998 351.704 120.674 351.704 109.068C351.704 97.3268 354.065 86.9354 358.789 77.8936C363.647 68.8518 370.395 61.7667 379.031 56.6385C387.803 51.5103 398.06 48.9462 409.801 48.9462C421.407 48.9462 431.528 51.5103 440.165 56.6385C448.802 61.7667 455.482 68.8518 460.206 77.8936C465.064 86.9354 467.493 97.3268 467.493 109.068C467.493 120.674 465.064 130.998 460.206 140.039C455.482 149.081 448.802 156.166 440.165 161.294C431.528 166.288 421.339 168.784 409.598 168.784ZM409.801 145.91C416.683 145.91 422.486 144.358 427.21 141.254C431.933 138.015 435.509 133.629 437.938 128.096C440.368 122.428 441.582 116.085 441.582 109.068C441.582 101.915 440.368 95.5049 437.938 89.8369C435.509 84.1689 431.933 79.7829 427.21 76.679C422.486 73.4402 416.683 71.8207 409.801 71.8207C402.783 71.8207 396.913 73.4402 392.189 76.679C387.466 79.7829 383.89 84.1689 381.461 89.8369C379.031 95.5049 377.817 101.915 377.817 109.068C377.817 116.085 379.031 122.428 381.461 128.096C383.89 133.629 387.466 138.015 392.189 141.254C396.913 144.358 402.783 145.91 409.801 145.91Z" fill="#EFE6DF"/>
<path d="M485.18 165.545V6.0557H510.686V143.885H536.192V165.545H485.18ZM470.201 73.845V52.1851H532.954V73.845H470.201Z" fill="#EFE6DF"/>
<path d="M608.041 168.784C599.673 168.784 592.656 167.165 586.988 163.926C581.32 160.687 576.866 156.301 573.628 150.768V67.3673C577.136 61.5643 581.725 57.0434 587.393 53.8045C593.061 50.5657 599.943 48.9462 608.041 48.9462C618.702 48.9462 627.811 51.5103 635.369 56.6385C642.926 61.7667 648.729 68.8518 652.777 77.8936C656.961 86.9354 659.053 97.3268 659.053 109.068C659.053 120.674 656.961 130.998 652.777 140.039C648.729 149.081 642.926 156.166 635.369 161.294C627.811 166.288 618.702 168.784 608.041 168.784ZM548.122 206.031V52.1851H573.628V206.031H548.122ZM603.992 145.91C610.2 145.91 615.463 144.358 619.781 141.254C624.1 138.015 627.339 133.629 629.498 128.096C631.792 122.428 632.939 116.085 632.939 109.068C632.939 101.915 631.792 95.5049 629.498 89.8369C627.339 84.1689 624.1 79.7829 619.781 76.679C615.463 73.4402 610.2 71.8207 603.992 71.8207C597.109 71.8207 591.441 73.5076 586.988 76.8815C582.534 80.1203 579.161 84.5738 576.866 90.2418C574.707 95.7748 573.628 102.05 573.628 109.068C573.628 115.95 574.707 122.226 576.866 127.894C579.161 133.427 582.534 137.813 586.988 141.051C591.441 144.29 597.109 145.91 603.992 145.91Z" fill="#EFE6DF"/>
<path d="M677.093 52.1851H702.396V165.545H677.093V52.1851ZM669.603 12.1041L697.336 6.03125L703.611 33.764L675.878 40.0394L669.603 12.1041Z" fill="#EFE6DF"/>
<path d="M740.999 117.367V96.5171H807.598L798.488 102.388C799.028 97.2593 798.354 92.401 796.464 87.8126C794.71 83.0893 791.808 79.2431 787.76 76.2742C783.711 73.3052 778.448 71.8207 771.97 71.8207C763.198 71.8207 755.843 74.5873 749.905 80.1203C743.968 85.6534 740.999 93.6156 740.999 104.007H714.076C714.885 92.2661 717.922 82.347 723.185 74.2499C728.583 66.0178 735.466 59.7425 743.833 55.424C752.335 51.1055 761.714 48.9462 771.97 48.9462C779.663 48.9462 786.882 50.4982 793.63 53.6021C800.513 56.5711 806.383 61.0245 811.242 66.9624C816.235 72.7654 819.878 79.9179 822.173 88.4199C824.602 96.9219 825.074 106.571 823.59 117.367H740.999ZM771.97 168.784C761.309 168.784 751.862 166.625 743.63 162.307C735.398 157.988 728.785 151.983 723.792 144.29C718.799 136.598 715.695 127.624 714.48 117.367H740.999C742.078 125.734 745.115 132.617 750.108 138.015C755.101 143.278 762.389 145.91 771.97 145.91C778.718 145.91 784.116 144.358 788.165 141.254C792.348 138.015 795.317 134.101 797.071 129.513H823.792C822.173 137.34 819.001 144.223 814.278 150.161C809.555 155.964 803.617 160.552 796.464 163.926C789.312 167.165 781.147 168.784 771.97 168.784Z" fill="#EFE6DF"/>
</svg>
