<svg width="220" height="60" viewBox="0 0 220 60" fill="none" xmlns="http://www.w3.org/2000/svg">
<g clip-path="url(#clip0_284_478)">
<path d="M79.7084 20.6811H85.4684L85.5484 23.9211C86.1617 22.7211 87.0151 21.8011 88.1084 21.1611C89.2284 20.5211 90.4951 20.2011 91.9084 20.2011C93.8551 20.2011 95.5084 20.6944 96.8684 21.6811C98.2284 22.6411 99.2417 23.9744 99.9084 25.6811C100.602 27.3611 100.948 29.2678 100.948 31.4011C100.948 33.5344 100.602 35.4544 99.9084 37.1611C99.2151 38.8411 98.1884 40.1744 96.8284 41.1611C95.4684 42.1211 93.8151 42.6011 91.8684 42.6011C90.5351 42.6011 89.3217 42.2944 88.2284 41.6811C87.1351 41.0678 86.2951 40.2278 85.7084 39.1611V48.1211H79.7084V20.6811ZM90.2284 38.0011C91.6417 38.0011 92.7484 37.4144 93.5484 36.2411C94.3751 35.0411 94.7884 33.4278 94.7884 31.4011C94.7884 29.3744 94.3751 27.7744 93.5484 26.6011C92.7484 25.4011 91.6417 24.8011 90.2284 24.8011C88.8151 24.8011 87.7084 25.3744 86.9084 26.5211C86.1084 27.6411 85.7084 29.2678 85.7084 31.4011C85.7084 33.5344 86.0951 35.1744 86.8684 36.3211C87.6684 37.4411 88.7884 38.0011 90.2284 38.0011ZM113.826 42.6011C111.666 42.6011 109.759 42.1478 108.106 41.2411C106.452 40.3078 105.172 39.0011 104.266 37.3211C103.386 35.6144 102.946 33.6411 102.946 31.4011C102.946 29.1611 103.399 27.2011 104.306 25.5211C105.212 23.8144 106.479 22.5078 108.106 21.6011C109.759 20.6678 111.666 20.2011 113.826 20.2011C115.986 20.2011 117.879 20.6678 119.506 21.6011C121.159 22.5078 122.439 23.8144 123.346 25.5211C124.252 27.2011 124.706 29.1611 124.706 31.4011C124.706 33.6411 124.252 35.6144 123.346 37.3211C122.466 39.0011 121.199 40.3078 119.546 41.2411C117.892 42.1478 115.986 42.6011 113.826 42.6011ZM113.826 38.0011C115.319 38.0011 116.466 37.4278 117.266 36.2811C118.092 35.1078 118.506 33.4811 118.506 31.4011C118.506 29.3211 118.092 27.7078 117.266 26.5611C116.466 25.3878 115.319 24.8011 113.826 24.8011C112.332 24.8011 111.172 25.3878 110.346 26.5611C109.519 27.7078 109.106 29.3211 109.106 31.4011C109.106 33.4811 109.519 35.1078 110.346 36.2811C111.172 37.4278 112.332 38.0011 113.826 38.0011ZM135.934 42.1211C133.72 42.1211 132.094 41.6144 131.054 40.6011C130.014 39.5611 129.494 37.9211 129.494 35.6811V25.1611H126.054V20.6811H129.494V15.6411H135.494V20.6811H141.134V25.1611H135.494V34.9611C135.494 35.9744 135.707 36.6811 136.134 37.0811C136.56 37.4544 137.227 37.6411 138.134 37.6411H141.134V42.1211H135.934ZM144.34 20.6811H150.1L150.18 23.9211C150.793 22.7211 151.646 21.8011 152.74 21.1611C153.86 20.5211 155.126 20.2011 156.54 20.2011C158.486 20.2011 160.14 20.6944 161.5 21.6811C162.86 22.6411 163.873 23.9744 164.54 25.6811C165.233 27.3611 165.58 29.2678 165.58 31.4011C165.58 33.5344 165.233 35.4544 164.54 37.1611C163.846 38.8411 162.82 40.1744 161.46 41.1611C160.1 42.1211 158.446 42.6011 156.5 42.6011C155.166 42.6011 153.953 42.2944 152.86 41.6811C151.766 41.0678 150.926 40.2278 150.34 39.1611V48.1211H144.34V20.6811ZM154.86 38.0011C156.273 38.0011 157.38 37.4144 158.18 36.2411C159.006 35.0411 159.42 33.4278 159.42 31.4011C159.42 29.3744 159.006 27.7744 158.18 26.6011C157.38 25.4011 156.273 24.8011 154.86 24.8011C153.446 24.8011 152.34 25.3744 151.54 26.5211C150.74 27.6411 150.34 29.2678 150.34 31.4011C150.34 33.5344 150.726 35.1744 151.5 36.3211C152.3 37.4411 153.42 38.0011 154.86 38.0011ZM168.462 20.6811H174.462V42.1211H168.462V20.6811ZM168.342 13.2411H174.542V18.0411H168.342V13.2411ZM188.475 42.6011C186.315 42.6011 184.422 42.1478 182.795 41.2411C181.169 40.3078 179.902 39.0011 178.995 37.3211C178.115 35.6144 177.675 33.6411 177.675 31.4011C177.675 29.1611 178.115 27.2011 178.995 25.5211C179.875 23.8144 181.129 22.5078 182.755 21.6011C184.382 20.6678 186.275 20.2011 188.435 20.2011C190.542 20.2011 192.382 20.6678 193.955 21.6011C195.555 22.5344 196.782 23.8811 197.635 25.6411C198.489 27.3744 198.915 29.4278 198.915 31.8011V33.0011H183.875C183.929 34.6544 184.369 35.9078 185.195 36.7611C186.022 37.6144 187.155 38.0411 188.595 38.0411C190.675 38.0411 192.009 37.1744 192.595 35.4411L198.635 35.8011C198.049 37.9344 196.849 39.6011 195.035 40.8011C193.249 42.0011 191.062 42.6011 188.475 42.6011ZM192.795 29.3211C192.715 27.8011 192.289 26.6411 191.515 25.8411C190.742 25.0411 189.715 24.6411 188.435 24.6411C187.182 24.6411 186.142 25.0544 185.315 25.8811C184.515 26.7078 184.035 27.8544 183.875 29.3211H192.795Z" fill="#444444"/>
<g filter="url(#filter0_i_284_478)">
<rect width="60" height="60" rx="10" fill="#515983"/>
<path d="M13.5996 30.1973L15.9721 41.0011C16.0247 41.2697 16.1324 41.5053 16.2794 41.6727C16.4263 41.8402 16.6045 41.9306 16.7877 41.9306H43.6124C43.7956 41.9306 43.9738 41.8402 44.1207 41.6727C44.2676 41.5053 44.3754 41.2697 44.4279 41.0011L46.7996 30.1973" fill="#828282"/>
<path d="M13.5996 30.1973L15.9721 41.0011C16.0247 41.2697 16.1324 41.5053 16.2794 41.6727C16.4263 41.8402 16.6045 41.9306 16.7877 41.9306H43.6124C43.7956 41.9306 43.9738 41.8402 44.1207 41.6727C44.2676 41.5053 44.3754 41.2697 44.4279 41.0011L46.7996 30.1973" stroke="white" stroke-width="2" stroke-linecap="round" stroke-linejoin="round"/>
<path d="M13.6697 26.04C16.1434 21.7467 22.5164 19 29.986 19C37.4555 19 43.8226 21.7442 46.298 26.0349H46.2912C47.0674 26.0912 47.8103 26.3728 48.4288 26.8452C49.0473 27.3176 49.5144 27.9602 49.773 28.6943C50.0315 29.4284 50.0701 30.2219 49.8842 30.9777C49.6983 31.7334 49.2958 32.4184 48.7262 32.9487C48.1565 33.479 47.4445 33.8315 46.6775 33.963C45.9104 34.0945 45.1216 33.9992 44.4079 33.6889C43.6942 33.3786 43.0865 32.8668 42.6595 32.2161C42.2325 31.5655 42.0046 30.8044 42.0039 30.0261C42.0039 31.0873 41.5823 32.1051 40.8319 32.8555C40.0815 33.606 39.0637 34.0275 38.0025 34.0275C36.9412 34.0275 35.9234 33.606 35.173 32.8555C34.4226 32.1051 34.001 31.0873 34.001 30.0261C34.001 31.0873 33.5794 32.1051 32.829 32.8555C32.0786 33.606 31.0608 34.0275 29.9996 34.0275C28.9383 34.0275 27.9205 33.606 27.1701 32.8555C26.4197 32.1051 25.9981 31.0873 25.9981 30.0261C25.9981 31.0872 25.5766 32.1049 24.8263 32.8552C24.0759 33.6056 23.0582 34.0271 21.9971 34.0271C20.936 34.0271 19.9183 33.6056 19.168 32.8552C18.4176 32.1049 17.9961 31.0872 17.9961 30.0261C17.9954 30.8027 17.7687 31.5623 17.3434 32.2121C16.9181 32.8619 16.3128 33.3738 15.6014 33.6853C14.8899 33.9967 14.1032 34.0942 13.3373 33.9659C12.5714 33.8375 11.8594 33.4889 11.2884 32.9625C10.7173 32.4362 10.312 31.7549 10.1218 31.002C9.93156 30.249 9.96478 29.457 10.2173 28.7226C10.4699 27.9882 10.9309 27.3433 11.544 26.8666C12.1571 26.3899 12.8957 26.102 13.6697 26.0383V26.04Z" fill="url(#paint0_linear_284_478)" stroke="white" stroke-width="2" stroke-linecap="round" stroke-linejoin="round"/>
<path d="M30 22.5723V24.3884" stroke="white" stroke-width="2" stroke-linecap="round" stroke-linejoin="round"/>
<path d="M25.1267 22.5723L22.9609 24.3884" stroke="white" stroke-width="2" stroke-linecap="round" stroke-linejoin="round"/>
<path d="M34.873 22.5723L37.0388 24.3884" stroke="white" stroke-width="2" stroke-linecap="round" stroke-linejoin="round"/>
</g>
</g>
<defs>
<filter id="filter0_i_284_478" x="0" y="0" width="60" height="64" filterUnits="userSpaceOnUse" color-interpolation-filters="sRGB">
<feFlood flood-opacity="0" result="BackgroundImageFix"/>
<feBlend mode="normal" in="SourceGraphic" in2="BackgroundImageFix" result="shape"/>
<feColorMatrix in="SourceAlpha" type="matrix" values="0 0 0 0 0 0 0 0 0 0 0 0 0 0 0 0 0 0 127 0" result="hardAlpha"/>
<feOffset dy="4"/>
<feGaussianBlur stdDeviation="2"/>
<feComposite in2="hardAlpha" operator="arithmetic" k2="-1" k3="1"/>
<feColorMatrix type="matrix" values="0 0 0 0 0 0 0 0 0 0 0 0 0 0 0 0 0 0 0.25 0"/>
<feBlend mode="normal" in2="shape" result="effect1_innerShadow_284_478"/>
</filter>
<linearGradient id="paint0_linear_284_478" x1="30" y1="19" x2="30" y2="34.0275" gradientUnits="userSpaceOnUse">
<stop stop-color="#FFC062"/>
<stop offset="1" stop-color="#FF8A00"/>
</linearGradient>
<clipPath id="clip0_284_478">
<rect width="219.12" height="60" fill="white"/>
</clipPath>
</defs>
</svg>
