<svg width="20" height="20" viewBox="0 0 20 20" fill="none" xmlns="http://www.w3.org/2000/svg">
<path d="M7.49003 5.82516H13.9394C15.6925 5.82516 16.5691 5.82516 17.1988 6.2459C17.4714 6.42805 17.7054 6.6621 17.8876 6.9347C18.3083 7.56438 18.3083 8.44094 18.3083 10.1941C18.3083 13.116 18.3083 14.5769 17.607 15.6264C17.3035 16.0807 16.9134 16.4709 16.4591 16.7744C15.4096 17.4756 13.9487 17.4756 11.0268 17.4756H9.98655C6.06363 17.4756 4.10218 17.4756 2.88349 16.2569C1.66479 15.0383 1.66479 13.0767 1.66479 9.15387V6.61096C1.66479 5.09934 1.66479 4.34352 1.98129 3.7764C2.20689 3.37213 2.54047 3.03856 2.94473 2.81295C3.51186 2.49646 4.26767 2.49646 5.7793 2.49646C6.74774 2.49646 7.23197 2.49646 7.65585 2.65541C8.62362 3.01833 9.02273 3.89749 9.45945 4.7709L9.98655 5.82516" stroke="#00291C" stroke-width="1.24826" stroke-linecap="round"/>
<path d="M12.8992 9.98608L13.6647 10.6459C13.9865 10.9233 14.1474 11.062 14.1474 11.2343C14.1474 11.4067 13.9865 11.5454 13.6647 11.8228L12.8992 12.4826" stroke="#00291C" stroke-width="1.24826" stroke-linecap="round" stroke-linejoin="round"/>
<path d="M7.07322 9.98608L6.30769 10.6459C5.98587 10.9233 5.82495 11.062 5.82495 11.2343C5.82495 11.4067 5.98586 11.5454 6.30769 11.8228L7.07322 12.4826" stroke="#00291C" stroke-width="1.24826" stroke-linecap="round" stroke-linejoin="round"/>
<path d="M10.8189 9.15393L9.15454 13.3148" stroke="#00291C" stroke-width="1.24826" stroke-linecap="round" stroke-linejoin="round"/>
</svg>
