<svg width="15" height="15" viewBox="0 0 15 15" fill="none" xmlns="http://www.w3.org/2000/svg">
<path d="M2.031 1.48546L13.3192 6.88416C13.6528 7.04373 13.7939 7.44355 13.6344 7.77719C13.5684 7.91516 13.4572 8.02639 13.3192 8.09238L2.031 13.4911C1.69736 13.6506 1.29754 13.5095 1.13797 13.1759C1.06863 13.0309 1.05374 12.8658 1.09603 12.7108L2.22507 8.57082C2.25336 8.4671 2.34091 8.39035 2.44744 8.37587L7.9174 7.63286C7.96454 7.62613 8.0036 7.59515 8.02165 7.55286L8.03104 7.51922C8.04001 7.45646 8.00391 7.39765 7.9473 7.37554L7.9174 7.3677L2.45384 6.62471C2.34733 6.61022 2.25979 6.53347 2.23151 6.42976L1.09603 2.26576C0.99872 1.90896 1.20908 1.54083 1.56588 1.44352C1.72093 1.40123 1.88601 1.41612 2.031 1.48546Z" fill="#3E99DB"/>
</svg>
