<svg width="20" height="20" viewBox="0 0 20 20" fill="none" xmlns="http://www.w3.org/2000/svg">
<path d="M2.70604 1.97996L17.757 9.17823C18.2018 9.39098 18.39 9.92408 18.1772 10.3689C18.0892 10.5529 17.9409 10.7012 17.757 10.7892L2.70604 17.9875C2.26119 18.2002 1.72809 18.0121 1.51534 17.5672C1.42289 17.3739 1.40304 17.1538 1.45942 16.9471L2.96481 11.4271C3.00253 11.2888 3.11927 11.1865 3.2613 11.1672L10.5546 10.1765C10.6174 10.1675 10.6695 10.1262 10.6936 10.0698L10.7061 10.025C10.7181 9.94129 10.6699 9.86288 10.5944 9.8334L10.5546 9.82294L3.26983 8.83229C3.12782 8.81298 3.0111 8.71064 2.9734 8.57236L1.45942 3.02036C1.32967 2.54463 1.61015 2.05379 2.08589 1.92404C2.29262 1.86766 2.51273 1.88751 2.70604 1.97996Z" fill="#FF7A00"/>
</svg>
