<svg width="20" height="20" viewBox="0 0 20 20" fill="none" xmlns="http://www.w3.org/2000/svg">
<path d="M13.5711 3.64841C13.0793 3.64841 12.8333 3.64841 12.6093 3.56528C12.5781 3.55373 12.5475 3.54103 12.5173 3.52719C12.3001 3.42756 12.1263 3.25367 11.7784 2.90588C10.9779 2.10541 10.5777 1.70518 10.0853 1.66827C10.0191 1.66331 9.95253 1.66331 9.88638 1.66827C9.39389 1.70518 8.99362 2.10541 8.19319 2.90587C7.84541 3.25367 7.67152 3.42756 7.45432 3.52719C7.42415 3.54103 7.39348 3.55373 7.36236 3.56528C7.13832 3.64841 6.8924 3.64841 6.40057 3.64841H6.30984C5.055 3.64841 4.42758 3.64841 4.03775 4.03824C3.64792 4.42807 3.64792 5.05548 3.64792 6.31033V6.40105C3.64792 6.89289 3.64792 7.13881 3.56479 7.36285C3.55324 7.39397 3.54054 7.42464 3.52671 7.45481C3.42707 7.672 3.25318 7.8459 2.90539 8.19368C2.10492 8.99411 1.70469 9.39438 1.66778 9.88686C1.66282 9.95302 1.66282 10.0196 1.66778 10.0858C1.70469 10.5782 2.10492 10.9784 2.90539 11.7789C3.25318 12.1267 3.42707 12.3006 3.52671 12.5178C3.54054 12.548 3.55324 12.5786 3.56479 12.6097C3.64792 12.8338 3.64792 13.0798 3.64792 13.5716V13.6623C3.64792 14.9171 3.64792 15.5446 4.03775 15.9344C4.42758 16.3242 5.055 16.3242 6.30984 16.3242H6.40057C6.8924 16.3242 7.13832 16.3242 7.36236 16.4074C7.39348 16.4189 7.42415 16.4316 7.45432 16.4454C7.67152 16.5451 7.84541 16.7189 8.19319 17.0667C8.99362 17.8672 9.39389 18.2675 9.88638 18.3043C9.95253 18.3093 10.019 18.3093 10.0853 18.3043C10.5777 18.2675 10.9779 17.8672 11.7784 17.0667C12.1263 16.7189 12.3001 16.5451 12.5173 16.4454C12.5475 16.4316 12.5781 16.4189 12.6093 16.4074C12.8333 16.3242 13.0793 16.3242 13.5711 16.3242H13.6618C14.9166 16.3242 15.5441 16.3242 15.9339 15.9344C16.3238 15.5446 16.3238 14.9171 16.3238 13.6623V13.5716C16.3238 13.0798 16.3238 12.8338 16.4069 12.6097C16.4184 12.5786 16.4311 12.548 16.4449 12.5178C16.5446 12.3006 16.7185 12.1267 17.0662 11.7789C17.8667 10.9784 18.267 10.5782 18.3038 10.0858C18.3088 10.0195 18.3088 9.95302 18.3038 9.88686C18.267 9.39438 17.8667 8.99411 17.0662 8.19368C16.7185 7.8459 16.5446 7.672 16.4449 7.45481C16.4311 7.42464 16.4184 7.39397 16.4069 7.36285C16.3238 7.13881 16.3238 6.89289 16.3238 6.40105V6.31033C16.3238 5.05548 16.3238 4.42807 15.9339 4.03824C15.5441 3.64841 14.9166 3.64841 13.6618 3.64841H13.5711Z" stroke="#00291C" stroke-width="1.24826"/>
<path d="M12.8994 9.98635C12.8994 11.5949 11.5954 12.899 9.98683 12.899C8.37824 12.899 7.07422 11.5949 7.07422 9.98635C7.07422 8.37775 8.37824 7.07373 9.98683 7.07373C11.5954 7.07373 12.8994 8.37775 12.8994 9.98635Z" stroke="#00291C" stroke-width="1.24826"/>
</svg>
