<svg width="73" height="95" viewBox="0 0 73 95" fill="none" xmlns="http://www.w3.org/2000/svg">
<path d="M82.9102 69.2705C83.9187 71.0167 85.7211 74.2959 86.9708 76.5929C87.7733 78.0636 87.4225 79.8944 86.1376 80.967L79.3363 86.6335C78.0514 87.7057 76.1877 87.7201 74.8854 86.6668C72.8506 85.0211 69.9477 82.6601 68.4129 81.3507C67.7288 80.7675 66.7948 80.5776 65.9353 80.8451L60.2697 82.6101C59.4146 82.8776 58.7481 83.5648 58.52 84.4339C57.9982 86.3831 56.9545 89.9741 56.2134 92.4833C55.7442 94.09 54.2007 95.1372 52.5299 94.9854L43.7158 94.1843C42.045 94.0325 40.7207 92.7245 40.5453 91.0585C40.2691 88.4577 39.8876 84.7369 39.7297 82.7255C39.6552 81.8292 39.1289 81.0337 38.3308 80.6158L33.0774 77.858C32.2837 77.4401 31.3277 77.4585 30.5516 77.9088C28.8063 78.9196 25.5262 80.7188 23.2284 81.9708C21.7594 82.7719 19.9264 82.4216 18.852 81.135L13.1864 74.3349C12.1164 73.0483 12.0989 71.1842 13.1558 69.8823C14.8002 67.8489 17.1594 64.9477 18.4705 63.4124C19.0537 62.7283 19.2423 61.793 18.9748 60.9348L17.212 55.2701C16.9445 54.4115 16.256 53.7498 15.3878 53.5182C13.4364 52.9982 9.84936 51.9519 7.33667 51.2125C5.73171 50.7394 4.68366 49.1971 4.83714 47.5286L5.63961 38.7136C5.78871 37.0455 7.09549 35.7172 8.76184 35.5414C11.3666 35.2669 15.0852 34.8853 17.0936 34.7253C17.9926 34.6542 18.7863 34.1271 19.2073 33.3312L21.9655 28.0774C22.3821 27.2815 22.3645 26.3273 21.9129 25.5494C20.8999 23.8028 19.102 20.524 17.8522 18.2271C17.0497 16.7563 17.4006 14.9251 18.6854 13.8529L25.4867 8.18597C26.7716 7.1138 28.6353 7.09934 29.9377 8.15353C31.9724 9.79839 34.871 12.1594 36.4102 13.4688C37.0942 14.0524 38.0283 14.2419 38.8878 13.9748L44.549 12.2098C45.4084 11.9423 46.0706 11.2547 46.303 10.386C46.8248 8.43636 47.8729 4.84537 48.6096 2.33619C49.0832 0.729473 50.6268 -0.317241 52.2931 -0.165954L61.1073 0.635619C62.7736 0.787345 64.1067 2.09502 64.2821 3.76093C64.554 6.3622 64.9355 10.083 65.0978 12.0944C65.1679 12.9908 65.6941 13.7862 66.4878 14.2041L71.7412 16.9619C72.5393 17.3794 73.4953 17.3614 74.2714 16.9111C76.0167 15.8999 79.2968 14.1007 81.5946 12.8491C83.068 12.0475 84.8966 12.3979 85.9666 13.6849L91.6366 20.4845C92.7066 21.7716 92.7197 23.6353 91.6673 24.9377C90.0229 26.971 87.6593 29.8723 86.3525 31.4075C85.7693 32.0916 85.5807 33.0269 85.8482 33.8851L87.611 39.5498C87.8785 40.4084 88.567 41.0701 89.4353 41.3017C91.3867 41.8218 94.9781 42.8681 97.4864 43.6074C99.0913 44.0805 100.139 45.6228 99.9859 47.2909L99.1878 56.1059C99.0343 57.774 97.7276 59.1023 96.0612 59.2781C93.4608 59.5526 89.7379 59.9346 87.7251 60.0942C86.8305 60.1657 86.0368 60.6928 85.6202 61.4887L82.8619 66.7421C82.441 67.5384 82.4585 68.4926 82.9102 69.2705ZM65.5757 36.439C59.5198 29.168 48.7105 28.1857 41.4399 34.2451C34.1694 40.3036 33.1871 51.1099 39.2473 58.3809C45.3076 65.6515 56.1126 66.6337 63.3831 60.5748C70.6537 54.5158 71.636 43.71 65.5757 36.439Z" fill="#515983"/>
<path d="M82.6788 69.042C83.6914 70.7881 85.4888 74.0675 86.7425 76.3641C87.5404 77.8349 87.194 79.666 85.9052 80.7382L79.1061 86.4046C77.8172 87.4773 75.9542 87.4913 74.6522 86.4379C72.6182 84.7927 69.7205 82.4317 68.1818 81.1222C67.498 80.5388 66.5642 80.349 65.705 80.6164L60.0412 82.3812C59.182 82.6491 58.5201 83.3365 58.2878 84.2049C57.7661 86.1547 56.7228 89.7455 55.9819 92.2547C55.5085 93.8618 53.9654 94.9086 52.2996 94.7569L43.484 93.9556C41.8138 93.8039 40.4855 92.4958 40.3101 90.83C40.0383 88.2287 39.657 84.5082 39.4948 82.4965C39.4246 81.6005 38.8986 80.8048 38.1007 80.3866L32.849 77.6293C32.0512 77.2115 31.0955 77.2299 30.3196 77.6801C28.5749 78.691 25.2959 80.4901 22.9988 81.7421C21.5259 82.5434 19.6979 82.1932 18.6238 80.9066L12.9557 74.1065C11.8861 72.8195 11.8685 70.9559 12.925 69.6535C14.5689 67.6199 16.9317 64.7188 18.2381 63.1836C18.8211 62.4998 19.0096 61.5643 18.7466 60.7059L16.98 55.0413C16.7125 54.1829 16.0243 53.521 15.1563 53.2895C13.2056 52.7696 9.61529 51.7228 7.1078 50.9837C5.49898 50.5107 4.45128 48.9681 4.60471 47.3001L5.40693 38.4853C5.55597 36.8168 6.86671 35.4886 8.52814 35.3128C11.1321 35.0384 14.8539 34.6565 16.866 34.497C17.7603 34.4255 18.5537 33.8986 18.9745 33.1025L21.7319 27.8486C22.1484 27.053 22.1308 26.0986 21.6793 25.3205C20.6711 23.5741 18.8737 20.295 17.62 17.9984C16.8178 16.5277 17.1685 14.6966 18.4529 13.6243L25.2564 7.95793C26.5408 6.88567 28.4039 6.8712 29.7103 7.9246C31.74 9.56981 34.642 11.9309 36.1807 13.2403C36.8645 13.8234 37.7983 14.0136 38.6531 13.7462L44.3212 11.9813C45.1761 11.7139 45.8424 11.0261 46.0704 10.1577C46.592 8.20781 47.6397 4.61708 48.3762 2.10784C48.8496 0.501206 50.3927 -0.546068 52.0585 -0.394391L60.8786 0.406965C62.5444 0.558642 63.8726 1.86631 64.048 3.53212C64.3242 6.13386 64.7055 9.85432 64.8633 11.866C64.9379 12.762 65.4639 13.5577 66.2618 13.9755L71.5134 16.7333C72.3069 17.151 73.2626 17.1326 74.0385 16.6824C75.7876 15.6711 79.0666 13.872 81.3637 12.6205C82.8322 11.8191 84.6646 12.1694 85.7386 13.456L91.4024 20.256C92.4764 21.5426 92.4896 23.407 91.4375 24.709C89.7936 26.7426 87.4308 29.6433 86.12 31.1785C85.537 31.8628 85.3485 32.7978 85.6159 33.6566L87.3782 39.3213C87.6499 40.1796 88.3338 40.8415 89.2062 41.073C91.1525 41.5929 94.7428 42.6393 97.2547 43.3784C98.8591 43.8518 99.9068 45.394 99.7534 47.062L98.9555 55.8773C98.8021 57.5457 97.4958 58.874 95.83 59.0498C93.226 59.3242 89.5043 59.7056 87.4965 59.8656C86.5979 59.937 85.8044 60.464 85.3836 61.26L82.6306 66.5139C82.2098 67.3096 82.2273 68.2639 82.6788 69.042ZM65.3455 36.2106C59.2872 28.9397 48.4814 27.9574 41.2088 34.0161C33.9362 40.0753 32.9586 50.8816 39.0126 58.152C45.0752 65.4228 55.8811 66.4052 63.1493 60.346C70.4219 54.2869 71.4038 43.4814 65.3455 36.2106Z" fill="#515983"/>
<path d="M82.449 68.8124C83.4613 70.5587 85.2625 73.838 86.5114 76.1348C87.3134 77.6055 86.9628 79.4365 85.6744 80.5088L78.8774 86.1756C77.589 87.248 75.7265 87.2624 74.425 86.2085C72.3916 84.5633 69.4905 82.2026 67.9523 80.8927C67.2686 80.3094 66.3352 80.1197 65.4762 80.387L59.8099 82.1522C58.9553 82.4195 58.2892 83.1071 58.0613 83.9757C57.5398 85.9254 56.4925 89.5162 55.7562 92.0256C55.2786 93.6321 53.7403 94.6791 52.0707 94.5274L43.2535 93.7263C41.5882 93.5743 40.2603 92.2666 40.0806 90.6009C39.8089 87.9995 39.4277 84.2789 39.2656 82.2674C39.1954 81.3712 38.6695 80.5754 37.8719 80.1578L32.6176 77.4C31.8244 76.9824 30.869 77.0003 30.0889 77.4508C28.3448 78.4618 25.0668 80.2612 22.7705 81.5124C21.298 82.3143 19.4662 81.9637 18.3969 80.6771L12.7261 73.877C11.6569 72.5904 11.6393 70.7266 12.6955 69.4242C14.3388 67.3903 16.7009 64.4901 18.0113 62.9541C18.5941 62.2704 18.7869 61.3348 18.5152 60.4768L16.7535 54.8117C16.4818 53.9537 15.7982 53.2915 14.9261 53.0601C12.9803 52.5404 9.38684 51.4939 6.88015 50.7546C5.27184 50.2813 4.22445 48.7391 4.37345 47.0708L5.17977 38.2557C5.32877 36.5878 6.63912 35.2591 8.30441 35.0834C10.9031 34.809 14.6281 34.4273 16.6352 34.2674C17.5336 34.1964 18.3268 33.6692 18.7475 32.8734L21.5039 27.6194C21.9203 26.8236 21.9028 25.8691 21.4514 25.0912C20.4435 23.3449 18.6423 20.0656 17.389 17.7688C16.5914 16.2981 16.9419 14.4676 18.226 13.3948L25.0274 7.72843C26.3158 6.65608 28.1782 6.64163 29.4798 7.69514C31.5132 9.3407 34.4143 11.7015 35.9481 13.0109C36.6318 13.5942 37.5696 13.7839 38.4285 13.5166L44.0905 11.7518C44.9494 11.4841 45.6111 10.7969 45.8434 9.92792C46.3649 7.97866 47.4079 4.38736 48.1485 1.87848C48.6218 0.271476 50.1644 -0.775488 51.8341 -0.623859L60.6469 0.17767C62.3166 0.329299 63.6444 1.63744 63.8197 3.30316C64.0958 5.90407 64.4771 9.62511 64.6348 11.6366C64.7093 12.5328 65.2352 13.3282 66.0328 13.7462L71.2828 16.5036C72.0804 16.9217 73.0358 16.9037 73.8114 16.4528C75.56 15.4422 78.8379 13.6428 81.1343 12.3912C82.6068 11.5897 84.4386 11.9399 85.5078 13.2269L91.1742 20.0266C92.2479 21.3132 92.261 23.1775 91.2093 24.4795C89.5615 26.5133 87.2038 29.4139 85.8935 30.9495C85.3107 31.6336 85.1222 32.5688 85.3851 33.4268L87.1556 39.0919C87.4186 39.9499 88.1066 40.6121 88.9743 40.8435C90.9244 41.3637 94.5135 42.4102 97.029 43.1495C98.6329 43.6223 99.6803 45.1649 99.5269 46.8333L98.7293 55.6483C98.576 57.3162 97.2657 58.6445 95.6004 58.8202C93.0017 59.0946 89.281 59.4767 87.2695 59.6362C86.3712 59.7077 85.5736 60.2349 85.1573 61.0307L82.4008 66.2842C81.9845 67.0805 82.002 68.0345 82.449 68.8124ZM65.1169 35.9813C59.0605 28.7101 48.2537 27.7281 40.9834 33.7866C33.7131 39.8461 32.7271 50.652 38.7879 57.9227C44.8486 65.1934 55.6511 66.176 62.9257 60.1165C70.196 54.058 71.1733 43.252 65.1169 35.9813Z" fill="#515983"/>
<path d="M82.2223 68.5819C83.2299 70.3282 85.0304 73.6073 86.2834 75.9042C87.0851 77.3753 86.7346 79.2061 85.4467 80.2781L78.6475 85.9448C77.3595 87.0172 75.4932 87.0317 74.1964 85.9781C72.1593 84.3326 69.2592 81.9717 67.7259 80.6623C67.0381 80.0792 66.1049 79.8891 65.2463 80.1563L59.5818 81.9214C58.7231 82.189 58.0616 82.8764 57.8294 83.7451C57.3081 85.6946 56.261 89.2857 55.525 91.795C55.0519 93.4015 53.5054 94.4486 51.8407 94.297L43.0263 93.4957C41.3572 93.3441 40.0298 92.036 39.8545 90.3704C39.5785 87.769 39.1974 84.0483 39.0353 82.037C38.9652 81.1402 38.4395 80.3451 37.6422 79.9272L32.3894 77.1694C31.5921 76.7514 30.6371 76.7698 29.8617 77.2202C28.1137 78.2313 24.8368 80.0305 22.5412 81.2822C21.0648 82.0834 19.2379 81.733 18.1646 80.4467L12.5001 73.6467C11.4224 72.3596 11.4093 70.4955 12.4651 69.1935C14.1123 67.1599 16.4692 64.2593 17.7791 62.7238C18.3618 62.0399 18.5546 61.1046 18.2873 60.2464L16.5218 54.5814C16.2545 53.7232 15.5668 53.0612 14.6993 52.8295C12.7455 52.3095 9.1575 51.2633 6.64724 50.5243C5.03945 50.0507 3.99239 48.5086 4.14572 46.8404L4.94746 38.0251C5.09641 36.3573 6.40629 35.029 8.07104 34.8529C10.6733 34.5786 14.3927 34.1966 16.4079 34.0372C17.3016 33.9657 18.0945 33.4387 18.5151 32.6427L21.2707 27.3887C21.6913 26.5927 21.6738 25.639 21.2225 24.8609C20.2105 23.1142 18.41 19.8356 17.1614 17.5382C16.3597 16.0676 16.7058 14.2368 17.9938 13.1643L24.793 7.4976C26.081 6.42559 27.9472 6.41113 29.2483 7.46474C31.2811 9.11021 34.1856 11.4711 35.7189 12.7801C36.4024 13.3636 37.3399 13.5538 38.1941 13.2861L43.8631 11.521C44.7173 11.2538 45.3789 10.566 45.6154 9.6977C46.1324 7.74776 47.1794 4.15714 47.9198 1.64776C48.3929 0.040838 49.935 -1.00573 51.5997 -0.854154L60.4185 -0.0528843C62.0876 0.0986951 63.415 1.40683 63.5903 3.07245C63.8663 5.67383 64.243 9.39453 64.4051 11.4058C64.4752 12.3021 65.001 13.0977 65.7983 13.5157L71.0554 16.2734C71.8483 16.691 72.8033 16.673 73.5831 16.2226C75.3267 15.2115 78.608 13.4123 80.9036 12.1607C82.3756 11.3594 84.2068 11.7094 85.2801 12.9961L90.9447 19.7961C92.018 21.0828 92.0311 22.9469 90.9797 24.2493C89.3325 26.2825 86.9712 29.1835 85.6613 30.719C85.0786 31.4029 84.8902 32.3382 85.1575 33.1965L86.923 38.8614C87.1858 39.7196 87.878 40.3816 88.7455 40.6133C90.695 41.1329 94.2873 42.1795 96.7932 42.9186C98.401 43.3917 99.448 44.9342 99.2947 46.6025L98.4973 55.4173C98.344 57.086 97.0341 58.4138 95.3694 58.5895C92.7671 58.8642 89.0477 59.2458 87.0369 59.4061C86.1388 59.4771 85.3459 60.0041 84.9253 60.8001L82.1697 66.0537C81.7535 66.8497 81.771 67.8039 82.2223 68.5819ZM64.887 35.7505C58.8282 28.48 48.0205 27.4973 40.7482 33.5566C33.4803 39.6154 32.4946 50.4213 38.5534 57.6923C44.6166 64.9629 55.4199 65.9451 62.6922 59.8863C69.9601 53.827 70.9458 43.0215 64.887 35.7505Z" fill="#515983"/>
<path d="M81.9924 68.3517C83.0041 70.0978 84.7997 73.3772 86.0523 75.6738C86.8537 77.1449 86.5034 78.9755 85.2158 80.0481L78.4188 85.7147C77.1312 86.7868 75.2699 86.8013 73.9648 85.7476C71.9327 84.1026 69.0291 81.7412 67.4962 80.4321C66.813 79.8488 65.8758 79.6587 65.0175 79.9263L59.3548 81.6913C58.492 81.9588 57.8307 82.6464 57.6029 83.5149C57.0818 85.4647 56.0351 89.0554 55.2949 91.5644C54.8219 93.1713 53.2804 94.2184 51.6118 94.0664L42.7958 93.2654C41.1272 93.1135 39.8002 91.8057 39.625 90.1402C39.3491 87.5388 38.9681 83.8179 38.8061 81.8064C38.736 80.9104 38.2105 80.1146 37.4134 79.6968L32.1623 76.939C31.3653 76.5212 30.4105 76.5396 29.631 76.9898C27.8836 78.0011 24.6077 79.8002 22.3084 81.0518C20.8413 81.8533 19.0063 81.5029 17.9377 80.2162L12.2706 73.4162C11.1976 72.1295 11.1801 70.2655 12.2355 68.9631C13.8822 66.9297 16.2428 64.0287 17.5523 62.4937C18.1348 61.8096 18.3275 60.8741 18.0559 60.0157L16.2954 54.3513C16.0238 53.4929 15.3362 52.8307 14.4691 52.599C12.5202 52.0792 8.92901 51.0329 6.41955 50.2936C4.81227 49.8202 3.76555 48.2782 3.91446 46.61L4.7203 37.7949C4.86921 36.1268 6.17867 34.7985 7.84289 34.6224C10.4443 34.3483 14.1669 33.9664 16.1771 33.8065C17.0749 33.7351 17.872 33.2083 18.288 32.4121L21.0471 27.1584C21.4632 26.3627 21.4413 25.4084 20.9946 24.6301C19.9829 22.884 18.1829 19.6051 16.9304 17.308C16.1333 15.8374 16.4793 14.0063 17.7669 12.9342L24.5683 7.26754C25.8559 6.19544 27.7171 6.181 29.0222 7.23427C31.0543 8.87965 33.9535 11.2406 35.4908 12.5501C36.174 13.1334 37.1112 13.3235 37.9696 13.0555L43.6323 11.291C44.4907 11.0234 45.152 10.3358 45.3841 9.46737C45.9053 7.51718 46.952 3.92684 47.6921 1.41738C48.1651 -0.189027 49.7067 -1.23616 51.3753 -1.08463L60.1912 -0.28319C61.8554 -0.131658 63.1824 1.17608 63.362 2.84205C63.6335 5.44348 64.0189 9.16431 64.1766 11.1754C64.251 12.0719 64.7766 12.8672 65.5737 13.2854L70.8247 16.0428C71.6217 16.4606 72.5765 16.4426 73.3561 15.992C75.0991 14.9812 78.3794 13.1821 80.6742 11.9304C82.1457 11.1285 83.9764 11.4793 85.0494 12.7656L90.7164 19.5656C91.7894 20.8523 91.8026 22.7167 90.7515 24.0187C89.1048 26.0521 86.7442 28.9531 85.4348 30.4886C84.8479 31.1722 84.6596 32.1077 84.9267 32.9661L86.6917 38.631C86.9588 39.4894 87.6464 40.1511 88.5179 40.3828C90.4668 40.9026 94.058 41.9493 96.5675 42.6882C98.1704 43.1616 99.2215 44.7041 99.0682 46.3722L98.2667 55.1873C98.1178 56.8555 96.8084 58.1833 95.1398 58.3594C92.5427 58.634 88.8201 59.0159 86.8099 59.1753C85.9121 59.2467 85.1151 59.7735 84.699 60.5697L81.9399 65.8234C81.5239 66.6196 81.5414 67.5735 81.9924 68.3517ZM64.6583 35.5202C58.5971 28.2494 47.7928 27.267 40.5228 33.3261C33.2485 39.3851 32.2674 50.1912 38.3287 57.4616C44.3899 64.7325 55.1942 65.7152 62.4642 59.6562C69.7342 53.5967 70.7152 42.7911 64.6583 35.5202Z" fill="#515983"/>
<path d="M81.7633 68.1232C82.7746 69.8692 84.574 73.1484 85.8218 75.4456C86.6273 76.9162 86.2771 78.7471 84.9899 79.8193L78.1907 85.4858C76.9036 86.558 75.0385 86.5725 73.7338 85.5191C71.7024 83.8738 68.7997 81.5127 67.263 80.2037C66.5844 79.6201 65.6475 79.4301 64.7894 79.6976L59.1241 81.4628C58.266 81.7299 57.6049 82.4177 57.3729 83.2863C56.8519 85.2359 55.8055 88.8268 55.0656 91.3359C54.5928 92.9426 53.0517 93.9899 51.3836 93.8379L42.5662 93.0368C40.8981 92.8848 39.5715 91.5771 39.3964 89.9112C39.1206 87.3098 38.7397 83.5893 38.5821 81.5775C38.5077 80.6818 37.9823 79.8858 37.1855 79.4682L31.9318 76.7104C31.1349 76.2927 30.1805 76.3107 29.4056 76.7616C27.6587 77.7721 24.3795 79.5715 22.081 80.8232C20.61 81.6248 18.78 81.2746 17.7074 79.9874L12.0377 73.1878C10.9651 71.9011 10.9563 70.0369 12.0071 68.7348C13.6532 66.7012 16.013 63.8003 17.322 62.2649C17.9043 61.581 18.097 60.6454 17.8299 59.7873L16.0656 54.1225C15.7985 53.2644 15.1068 52.6024 14.2399 52.3708C12.2916 51.8507 8.6972 50.8043 6.18855 50.0653C4.58179 49.592 3.53545 48.0496 3.68868 46.3811L4.48986 37.5663C4.6431 35.8982 5.94779 34.5699 7.61584 34.3943C10.2164 34.1198 13.9378 33.7376 15.9473 33.5783C16.8449 33.5069 17.6417 32.9798 18.0576 32.1839L20.8158 26.9301C21.2317 26.1342 21.2142 25.1798 20.7633 24.4018C19.7519 22.6558 17.9525 19.3766 16.7004 17.0794C15.8992 15.6088 16.2494 13.7779 17.5366 12.7053L24.3358 7.03869C25.6229 5.96649 27.4924 5.95204 28.7883 7.00585C30.8241 8.65114 33.7268 11.0118 35.2591 12.3213C35.9465 12.9049 36.879 13.0945 37.7371 12.8274L43.4024 11.0622C44.2605 10.7951 44.9216 10.1073 45.158 9.23868C45.6746 7.28911 46.721 3.69776 47.4609 1.18867C47.9337 -0.418091 49.4792 -1.46488 51.1428 -1.31296L59.9603 -0.511776C61.6284 -0.359856 62.955 0.947909 63.1301 2.61377C63.4059 5.2148 63.7868 8.93572 63.9488 10.947C64.0188 11.8432 64.5442 12.6391 65.341 13.0568L70.5947 15.8142C71.3916 16.2318 72.346 16.2139 73.1253 15.7634C74.8721 14.7525 78.1513 12.9531 80.4455 11.7018C81.9165 10.9002 83.7465 11.2504 84.8192 12.5376L90.4844 19.3372C91.5614 20.6239 91.5746 22.4881 90.5194 23.7902C88.8733 25.8238 86.5135 28.7247 85.2044 30.2601C84.6221 30.944 84.4339 31.8796 84.6966 32.7377L86.4653 38.4025C86.7324 39.2606 87.4198 39.9226 88.2866 40.1542C90.2392 40.6743 93.8293 41.7207 96.3379 42.4597C97.9447 42.933 98.9911 44.4754 98.8378 46.1434L98.0366 54.9587C97.8878 56.6268 96.5787 57.9551 94.9151 58.1306C92.3101 58.4051 88.5887 58.7874 86.5792 58.9467C85.6816 59.0181 84.8892 59.5452 84.4689 60.3411L81.7107 65.5948C81.2948 66.3908 81.3123 67.3452 81.7633 68.1232ZM64.4304 35.2919C58.3711 28.0207 47.5659 27.0387 40.2939 33.0975C33.0219 39.1564 32.0412 49.9624 38.1005 57.2331C44.1598 64.5043 54.9649 65.4863 62.2326 59.4274C69.5046 53.3686 70.4896 42.5626 64.4304 35.2919Z" fill="#515983"/>
<path d="M81.5318 67.8957C82.5428 69.642 84.3416 72.921 85.5933 75.2178C86.3943 76.6888 86.0441 78.5196 84.7574 79.5919L77.956 85.2584C76.6693 86.3307 74.8092 86.3451 73.505 85.2916C71.4698 83.6464 68.5725 81.2852 67.0362 79.9757C66.3491 79.3928 65.4169 79.2028 64.5547 79.4702L58.8912 81.2354C58.0334 81.5028 57.3725 82.1903 57.1405 83.0587C56.6197 85.0085 55.5737 88.5995 54.8341 91.1087C54.3614 92.7154 52.8208 93.7623 51.1489 93.6104L42.3343 92.8095C40.6667 92.6576 39.3406 91.3499 39.1656 89.6841C38.8898 87.0826 38.5091 83.362 38.3471 81.3505C38.2771 80.4545 37.7475 79.6589 36.9554 79.2409L31.6989 76.4832C30.9024 76.0652 29.9483 76.0836 29.1692 76.5339C27.4229 77.5449 24.1448 79.3442 21.8514 80.5959C20.3809 81.3973 18.547 81.0471 17.4747 79.7604L11.8069 72.9604C10.739 71.6736 10.7215 69.8096 11.7763 68.5071C13.4219 66.4737 15.781 63.5728 17.0896 62.0375C17.6761 61.3539 17.8643 60.4181 17.5973 59.5599L15.8291 53.8951C15.5665 53.0369 14.8794 52.3751 14.0084 52.1431C12.0608 51.6232 8.46753 50.5767 5.95532 49.838C4.34908 49.3644 3.30307 47.822 3.45625 46.1541L4.25718 37.3386C4.41036 35.6706 5.71463 34.3428 7.38214 34.1668C9.98626 33.8924 13.7064 33.5103 15.7153 33.3506C16.6125 33.2797 17.4091 32.7523 17.8249 31.9562L20.5866 26.7028C21.0024 25.9067 20.9849 24.9526 20.5341 24.1744C19.523 22.4281 17.7242 19.1491 16.4725 16.8522C15.6716 15.3817 16.0217 13.5505 17.3084 12.4782L24.1054 6.81172C25.3965 5.73944 27.2566 5.72501 28.5609 6.77847C30.5916 8.42366 33.4934 10.7844 35.0296 12.0939C35.7124 12.6773 36.649 12.8673 37.5068 12.5999L43.1746 10.8348C44.0324 10.5673 44.6933 9.87976 44.9253 9.01143C45.4417 7.06162 46.4877 3.471 47.2318 0.961851C47.7045 -0.645264 49.245 -1.69215 50.9125 -1.54072L59.7272 -0.738941C61.3947 -0.587508 62.7252 0.72026 62.9003 2.38602C63.176 4.98752 63.5568 8.70814 63.7187 10.7197C63.7888 11.616 64.3139 12.4117 65.1105 12.8292L70.3669 15.587C71.1591 16.0045 72.1176 15.9865 72.8922 15.5362C74.6385 14.5252 77.921 12.7259 80.2144 11.4746C81.685 10.6728 83.5188 11.023 84.5911 12.3101L90.2545 19.1097C91.3268 20.3965 91.3443 22.2605 90.2895 23.563C88.6439 25.5964 86.2805 28.4973 84.9718 30.0326C84.3898 30.7167 84.1972 31.652 84.4685 32.5103L86.2323 38.175C86.4993 39.0337 87.1864 39.6954 88.0574 39.927C90.005 40.4469 93.5983 41.4934 96.1061 42.2326C97.7124 42.7057 98.7584 44.248 98.6096 45.916L97.8043 54.7311C97.6555 56.3995 96.3468 57.7278 94.6793 57.9037C92.0796 58.1781 88.3594 58.5598 86.3461 58.7195C85.4533 58.7909 84.6567 59.3178 84.2366 60.1139L81.4793 65.3673C81.0635 66.1634 81.081 67.1179 81.5318 67.8957ZM64.1958 35.0645C58.1384 27.7935 47.3324 26.8109 40.0584 32.87C32.7887 38.9291 31.8084 49.7351 37.8701 57.0061C43.9274 64.2766 54.7334 65.2587 62.0031 59.2001C69.2727 53.141 70.2575 42.335 64.1958 35.0645Z" fill="#515983"/>
<path d="M81.3022 67.6628C82.3173 69.4094 84.1112 72.6882 85.3625 74.9852C86.1676 76.4558 85.8132 78.2868 84.5312 79.3592L77.7276 85.0257C76.4457 86.098 74.5774 86.1125 73.278 85.0589C71.2435 83.4138 68.3427 81.0524 66.8069 79.7434C66.12 79.1601 65.1881 78.9703 64.3305 79.2376L58.6645 81.0021C57.807 81.2699 57.1419 81.9577 56.9144 82.8258C56.3937 84.7758 55.3481 88.3666 54.6043 90.8758C54.1361 92.4829 52.5917 93.5295 50.9247 93.3781L42.1085 92.5765C40.4415 92.4247 39.1114 91.1169 38.9364 89.4512C38.6607 86.8497 38.2801 83.129 38.1226 81.1176C38.0482 80.2216 37.5188 79.4257 36.7269 79.0083L31.4721 76.2506C30.6758 75.8323 29.722 75.8507 28.9432 76.3009C27.1975 77.312 23.9204 79.1111 21.619 80.3629C20.1489 81.1645 18.3201 80.8144 17.2481 79.5272L11.5821 72.7276C10.5102 71.4408 10.4971 69.577 11.5471 68.2744C13.1922 66.2408 15.5549 63.34 16.8631 61.8047C17.445 61.1208 17.6375 60.1854 17.3662 59.327L15.603 53.6623C15.3361 52.8039 14.6492 52.1419 13.7785 51.9105C11.8315 51.3907 8.23939 50.3441 5.73235 49.6051C4.12225 49.1317 3.07655 47.5894 3.22968 45.9211L4.03035 37.1062C4.18349 35.4379 5.49171 34.1096 7.15432 33.9337C9.75761 33.6594 13.4766 33.2779 15.4892 33.1177C16.3862 33.0464 17.1825 32.5196 17.5981 31.7233L20.3546 26.4699C20.7746 25.6741 20.7571 24.7194 20.3064 23.9415C19.2957 22.1953 17.4931 18.916 16.2418 16.6194C15.4411 15.1485 15.7911 13.3178 17.0775 12.2454L23.8767 6.57902C25.1674 5.50664 27.0312 5.49221 28.3307 6.54578C30.3652 8.19089 33.266 10.5518 34.8017 11.8613C35.4843 12.4445 36.4206 12.6344 37.2781 12.3671L42.9441 10.6021C43.8017 10.3348 44.4623 9.64697 44.6986 8.77848C45.2149 6.82885 46.265 3.23806 47 0.728831C47.4769 -0.877773 49.017 -1.92523 50.684 -1.77341L59.5002 -0.971846C61.1716 -0.820462 62.4973 0.487297 62.6723 2.1534C62.9479 4.75451 63.3286 8.47527 63.4904 10.4866C63.5605 11.3831 64.0855 12.1785 64.8818 12.5963L70.1365 15.3541C70.9328 15.7719 71.8866 15.7535 72.6654 15.3033C74.4112 14.2922 77.6926 12.4931 79.9853 11.2413C81.4597 10.4398 83.2886 10.7902 84.3605 12.077L90.0265 18.8771C91.0985 20.1638 91.116 22.0282 90.0616 23.3298C88.4165 25.3634 86.0582 28.2642 84.7456 29.7995C84.1637 30.4838 83.9712 31.4193 84.238 32.2772L86.0057 37.9424C86.2726 38.8004 86.9595 39.4623 87.8258 39.6942C89.7772 40.214 93.3693 41.2606 95.8807 41.9996C97.4864 42.473 98.5321 44.0153 98.379 45.6831L97.5783 54.4984C97.4252 56.1667 96.1213 57.4946 94.4543 57.6705C91.851 57.9453 88.132 58.3272 86.1194 58.4869C85.2269 58.5578 84.4305 59.085 84.0105 59.8809L81.2541 65.1347C80.8341 65.9306 80.8516 66.8848 81.3022 67.6628ZM63.9717 34.8315C57.912 27.5607 47.105 26.5784 39.8333 32.6373C32.5616 38.6962 31.5815 49.5023 37.6413 56.7731C43.701 64.0435 54.5036 65.0262 61.7754 58.9673C69.0471 52.9085 70.0315 42.1024 63.9717 34.8315Z" fill="#515983"/>
<path d="M81.0727 67.4342C82.083 69.1807 83.8851 72.4598 85.136 74.7569C85.9364 76.2279 85.5865 78.0583 84.3006 79.1308L77.4993 84.7976C76.2133 85.8696 74.35 85.8841 73.0466 84.8308C71.0128 83.1854 68.1129 80.8244 66.5777 79.5148C65.8954 78.9314 64.9594 78.7415 64.0977 79.0092L58.4336 80.7741C57.5763 81.0413 56.9158 81.7289 56.684 82.5975C56.1635 84.5474 55.1138 88.1383 54.379 90.6476C53.9022 92.2541 52.3626 93.3013 50.6918 93.1495L41.8785 92.3482C40.2121 92.1964 38.8824 90.8886 38.7074 89.2226C38.4319 86.6215 38.0514 82.9006 37.8895 80.8891C37.8195 79.9933 37.2903 79.1977 36.4986 78.7796L31.2413 76.0219C30.4452 75.6042 29.4917 75.6221 28.7132 76.0731C26.968 77.0839 23.6876 78.8833 21.3913 80.1346C19.9217 80.9359 18.089 80.586 17.0174 79.2992L11.3533 72.4992C10.2817 71.2124 10.2642 69.3482 11.3183 68.0461C12.9629 66.0127 15.3248 63.112 16.6325 61.5763C17.2143 60.8922 17.4067 59.9571 17.1399 59.099L15.3729 53.4339C15.1061 52.5758 14.4194 51.914 13.5534 51.6822C11.5983 51.1621 8.00729 50.1159 5.50107 49.3767C3.89149 48.9035 2.84613 47.3613 2.99921 45.6926L3.79966 36.878C3.95275 35.2098 5.26053 33.8814 6.92697 33.7056C9.52505 33.4314 13.2472 33.0491 15.2592 32.8895C16.1558 32.8186 16.9518 32.2911 17.3673 31.4955L20.1273 26.2416C20.5428 25.4456 20.5253 24.4912 20.0748 23.7135C19.0644 21.9671 17.2668 18.688 16.0159 16.3908C15.2111 14.9203 15.5653 13.0894 16.8469 12.017L23.6526 6.3506C24.9341 5.27813 26.8018 5.26371 28.1052 6.31737C30.1347 7.96282 33.0389 10.3234 34.5741 11.6329C35.2565 12.2164 36.1925 12.4062 37.0497 12.139L42.7139 10.3737C43.5712 10.1064 44.236 9.41887 44.4678 8.55022C44.9883 6.60035 46.0337 3.00941 46.7729 0.500561C47.2452 -1.1064 48.7892 -2.15306 50.4556 -2.00172L59.2734 -1.20042C60.9398 -1.04865 62.2651 0.259575 62.44 1.92514C62.7199 4.52672 63.1005 8.24711 63.2579 10.2587C63.3323 11.1549 63.8572 11.9505 64.6532 12.3682L69.9062 15.1259C70.7022 15.5436 71.6557 15.5257 72.4343 15.0752C74.1795 14.0639 77.4599 12.2649 79.7605 11.0131C81.2301 10.2119 83.0584 10.5622 84.1344 11.849L89.7985 18.6486C90.8701 19.9354 90.8876 21.7995 89.8335 23.1016C88.189 25.1355 85.8271 28.0362 84.5149 29.5714C83.9332 30.2555 83.7407 31.1911 84.0119 32.0492L85.7746 37.7143C86.0414 38.572 86.7281 39.2342 87.5985 39.4656C89.5492 39.9856 93.1402 41.0323 95.6464 41.7715C97.256 42.2443 98.3013 43.7869 98.1482 45.4551L97.3478 54.2702C97.1947 55.938 95.8869 57.2668 94.2249 57.4421C91.6224 57.7168 87.9003 58.0987 85.8927 58.2583C84.996 58.3296 84.2 58.8566 83.7801 59.6527L81.0246 64.9061C80.6047 65.7022 80.6222 66.6566 81.0727 67.4342ZM63.7391 34.6031C57.6813 27.3325 46.8734 26.3501 39.6041 32.4092C32.3347 38.4679 31.3506 49.274 37.4084 56.5446C43.4662 63.8157 54.274 64.7977 61.5434 58.739C68.8171 52.6799 69.7969 41.8738 63.7391 34.6031Z" fill="#515983"/>
<path d="M80.8408 67.2051C81.8552 68.9514 83.6523 72.2304 84.9028 74.5272C85.7073 75.9981 85.3575 77.8293 84.072 78.9014L77.2685 84.5681C75.983 85.6403 74.1203 85.6547 72.8173 84.6014C70.7841 82.956 67.8808 80.5949 66.3461 79.2853C65.6639 78.702 64.7282 78.5123 63.8712 78.7799L58.2045 80.5446C57.3475 80.8122 56.6829 81.5 56.4511 82.3683C55.9352 84.318 54.8858 87.9087 54.1469 90.4181C53.6746 92.0245 52.1311 93.0717 50.4652 92.92L41.646 92.1185C39.98 91.9672 38.6508 90.6594 38.4759 88.9935C38.2004 86.3923 37.82 82.6714 37.6583 80.66C37.5883 79.7637 37.0592 78.9683 36.2635 78.5503L31.0121 75.7926C30.2163 75.3746 29.2631 75.3929 28.4848 75.8433C26.7358 76.8547 23.4609 78.6535 21.1609 79.9054C19.6918 80.7068 17.8597 80.3561 16.7885 79.0698L11.1218 72.2697C10.0505 70.9829 10.033 69.1189 11.0867 67.8168C12.7308 65.7831 15.0963 62.8824 16.4037 61.3473C16.9852 60.663 17.1776 59.7277 16.9109 58.8694L15.1444 53.2044C14.8777 52.3461 14.1912 51.6841 13.3211 51.4528C11.371 50.9325 7.78116 49.8862 5.27136 49.1472C3.66667 48.6737 2.61728 47.1315 2.76595 45.4634L3.5705 36.6481C3.72353 34.98 5.0309 33.6521 6.69681 33.4763C9.29406 33.2017 13.0194 32.82 15.0264 32.6599C15.9271 32.5887 16.7229 32.0618 17.1383 31.2656L19.8973 26.012C20.3127 25.2158 20.2952 24.2617 19.8448 23.4839C18.8348 21.7375 17.0377 18.4586 15.7828 16.1617C14.9826 14.6908 15.3324 12.8596 16.6179 11.7875L23.4171 6.12081C24.707 5.04868 26.5697 5.03425 27.8727 6.08802C29.9059 7.73294 32.8048 10.0941 34.3439 11.4036C35.026 11.9869 35.9617 12.1767 36.8187 11.9091L42.4855 10.1443C43.3425 9.87674 44.0027 9.18939 44.2345 8.32058C44.7592 6.3709 45.7998 2.78024 46.5431 0.270875C47.0153 -1.33601 48.5588 -2.38276 50.2247 -2.23104L59.0396 -1.42961C60.7099 -1.27832 62.0392 0.0299555 62.2141 1.69543C62.4852 4.29705 62.8699 8.01758 63.0273 10.0289C63.1017 10.9253 63.6264 11.7211 64.4222 12.1386L69.6778 14.8963C70.4736 15.3144 71.4269 15.296 72.2052 14.8456C73.9498 13.8343 77.2291 12.0354 79.529 10.7836C80.9982 9.98212 82.8303 10.3324 83.9015 11.6192L89.5682 18.4192C90.6395 19.7061 90.657 21.57 89.5988 22.8722C87.9548 24.9058 85.5937 27.8069 84.2863 29.3421C83.7047 30.026 83.5123 30.9612 83.7791 31.8195L85.5455 37.4845C85.8123 38.3428 86.4988 39.0048 87.3689 39.2366C89.319 39.756 92.9088 40.8028 95.4186 41.5417C97.0276 42.0153 98.0727 43.5574 97.9196 45.2255L97.1195 54.0404C96.9664 55.709 95.6591 57.0373 93.9932 57.2131C91.3915 57.4873 87.6705 57.869 85.6592 58.029C84.7629 58.1003 83.9671 58.6272 83.5517 59.4234L80.7927 64.6769C80.3773 65.4727 80.3948 66.4272 80.8408 67.2051ZM63.5127 34.3735C57.4524 27.103 46.6437 26.1205 39.3766 32.1794C32.1052 38.2388 31.1214 49.0445 37.1817 56.3154C43.2375 63.586 54.0463 64.5685 61.3177 58.5095C68.5848 52.4502 69.5685 41.6445 63.5127 34.3735Z" fill="#515983"/>
<path d="M80.6159 66.9732C81.6256 68.7199 83.4264 71.9986 84.6765 74.296C85.4765 75.7665 85.1268 77.5975 83.8417 78.6697L77.0403 84.3364C75.7552 85.4086 73.8888 85.423 72.5906 84.3696C70.5537 82.7243 67.6513 80.3631 66.1171 79.0539C65.4352 78.4704 64.4998 78.2807 63.6387 78.5482L57.9782 80.3132C57.1171 80.5803 56.4571 81.2679 56.221 82.1364C55.7009 84.0863 54.6562 87.6771 53.9175 90.1866C53.4454 91.7934 51.9024 92.8402 50.2327 92.6886L41.4207 91.8869C39.7509 91.7352 38.4221 90.4274 38.2472 88.7616C37.9719 86.1604 37.5916 82.4398 37.4299 80.4282C37.36 79.5321 36.831 78.7362 36.0355 78.3187L30.7859 75.561C29.986 75.1432 29.0331 75.1611 28.255 75.6117C26.5066 76.6228 23.2283 78.4219 20.9335 79.6733C19.4605 80.475 17.6334 80.1248 16.5581 78.838L10.8932 72.038C9.82232 70.7511 9.80484 68.8873 10.8583 67.5847C12.5062 65.5513 14.8621 62.6507 16.1734 61.1152C16.7548 60.4315 16.9471 59.4961 16.6805 58.6376L14.9146 52.9728C14.648 52.1147 13.9573 51.4525 13.0919 51.2208C11.1424 50.7011 7.5494 49.6547 5.04041 48.9155C3.43624 48.4422 2.38718 46.8996 2.54016 45.2316L3.34006 36.4165C3.49305 34.7485 4.79999 33.4202 6.46536 33.2445C9.06613 32.97 12.7903 32.5884 14.801 32.4284C15.697 32.3571 16.4926 31.83 16.9078 31.034L19.6659 25.7805C20.0856 24.9845 20.0681 24.0303 19.6135 23.2522C18.6038 21.506 16.8073 18.2268 15.5571 15.9298C14.7529 14.459 15.1026 12.628 16.3876 11.5557L23.189 5.88956C24.4741 4.81734 26.3405 4.80292 27.6431 5.85635C29.6756 7.50161 32.578 9.86241 34.1123 11.172C34.7985 11.7551 35.7339 11.9452 36.5906 11.6777L42.2555 9.91267C43.1122 9.64516 43.7723 8.95761 44.0083 8.08908C44.5285 6.13959 45.5731 2.54833 46.3118 0.0393436C46.7839 -1.56745 48.3269 -2.61433 49.9967 -2.46266L58.813 -1.66144C60.4784 -1.50976 61.8072 -0.201945 61.982 1.46386C62.2574 4.06507 62.6377 7.78615 62.7994 9.79727C62.8694 10.6938 63.3983 11.4893 64.1938 11.9072L69.4478 14.6644C70.2434 15.0827 71.1962 15.0644 71.9743 14.6137C73.7227 13.6031 77.001 11.8036 79.3002 10.5522C80.7688 9.75094 82.6003 10.1011 83.6712 11.3875L89.3405 18.1875C90.4114 19.4743 90.4245 21.3386 89.3711 22.6407C87.7276 24.6741 85.3672 27.5752 84.0559 29.1103C83.4745 29.7944 83.2822 30.7298 83.5532 31.5878L85.3147 37.2527C85.5858 38.1112 86.272 38.773 87.1418 39.0046C89.087 39.5248 92.6799 40.5712 95.1889 41.3099C96.7975 41.7833 97.8422 43.3259 97.6892 44.9939L96.8893 53.8089C96.7363 55.4769 95.4293 56.8053 93.764 56.981C91.1632 57.2555 87.4434 57.6375 85.4284 57.7971C84.5367 57.8683 83.7411 58.3955 83.3215 59.1914L80.5634 64.4455C80.1438 65.2414 80.1613 66.1956 80.6159 66.9732ZM63.2803 34.1418C57.222 26.8715 46.4167 25.8889 39.1433 31.948C31.8743 38.0072 30.8908 48.8128 36.9491 56.0836C43.0074 63.3544 53.8169 64.3366 61.086 58.2779C68.355 52.2187 69.3385 41.4131 63.2803 34.1418Z" fill="#515983"/>
<path d="M80.3859 66.7441C81.3953 68.4902 83.1956 71.7692 84.4497 74.0663C85.2493 75.5372 84.8998 77.368 83.6107 78.4404L76.8115 84.1069C75.5225 85.1792 73.661 85.1937 72.3589 84.1401C70.327 82.4945 67.4255 80.134 65.8874 78.8245C65.2057 78.2411 64.2706 78.051 63.4098 78.3184L57.7467 80.0838C56.8859 80.3512 56.2261 81.0385 55.9945 81.9072C55.4745 83.857 54.4301 87.448 53.6917 89.957C53.2154 91.5637 51.6729 92.6107 50.0037 92.4591L41.1901 91.6577C39.5253 91.5061 38.1969 90.1982 38.0177 88.5321C37.7424 85.9313 37.3623 82.2105 37.2006 80.1987C37.1307 79.3025 36.602 78.5072 35.8067 78.089L30.5543 75.3318C29.7591 74.9136 28.8021 74.932 28.0243 75.3825C26.2808 76.3932 22.9992 78.1926 20.7052 79.4441C19.2326 80.2455 17.4017 79.8955 16.3311 78.6086L10.6637 71.8085C9.59309 70.5221 9.57562 68.658 10.6287 67.3559C12.2761 65.3222 14.6357 62.4212 15.9466 60.8857C16.5321 60.2018 16.72 59.2663 16.4534 58.4085L14.6881 52.7433C14.4172 51.8851 13.7312 51.2231 12.8616 50.9915C10.9128 50.4715 7.32526 49.4254 4.81271 48.686C3.20905 48.2128 2.16034 46.6708 2.30891 45.0024L3.1129 36.1871C3.26147 34.5192 4.57236 33.1908 6.2372 33.0152C8.83715 32.7407 12.5601 32.3588 14.5701 32.1989C15.4703 32.1277 16.2656 31.6007 16.6807 30.8046L19.438 25.5509C19.8574 24.7552 19.8399 23.8009 19.3899 23.0226C18.3761 21.2765 16.5802 17.9975 15.3261 15.7004C14.5264 14.23 14.876 12.3987 16.1607 11.3264L22.9599 5.65978C24.2489 4.58747 26.1104 4.57305 27.4126 5.62701C29.4488 7.27219 32.3503 9.63312 33.884 10.9423C34.5701 11.5256 35.5052 11.7157 36.3616 11.4483L42.0291 9.68294C42.8855 9.41595 43.5497 8.72815 43.7769 7.85946C44.2969 5.90972 45.3456 2.31875 46.0841 -0.190307C46.5604 -1.79703 48.0985 -2.84399 49.7677 -2.69236L58.5813 -1.89097C60.2505 -1.73935 61.5789 -0.43106 61.7581 1.23465C62.029 3.83591 62.4135 7.55667 62.5708 9.56802C62.6451 10.4642 63.1695 11.2599 63.9648 11.6777L69.2214 14.4354C70.0167 14.8531 70.9693 14.8348 71.7471 14.3842C73.495 13.3735 76.7722 11.5741 79.0706 10.3227C80.5388 9.52127 82.3741 9.87126 83.4447 11.1581L89.1121 17.9582C90.1827 19.2451 90.1958 21.1092 89.1427 22.4113C87.4997 24.445 85.1357 27.3455 83.8292 28.881C83.2437 29.5649 83.0558 30.5004 83.3223 31.3586L85.0877 37.0234C85.3542 37.8816 86.0402 38.5436 86.9098 38.7752C88.8587 39.2952 92.4505 40.3413 94.9587 41.0807C96.5668 41.5539 97.6155 43.0964 97.4625 44.7647L96.6629 53.5796C96.51 55.2475 95.2034 56.5763 93.5342 56.7516C90.9342 57.0264 87.2157 57.4079 85.2013 57.5678C84.3055 57.639 83.5102 58.166 83.0907 58.9622L80.3335 64.2158C79.9184 65.012 79.9358 65.9663 80.3859 66.7441ZM63.0515 33.9127C56.9951 26.6416 46.189 25.6597 38.9179 31.7187C31.6424 37.7772 30.6636 48.5834 36.7243 55.854C42.7806 63.1251 53.5868 64.1075 60.8579 58.0485C68.129 51.9895 69.1122 41.1834 63.0515 33.9127Z" fill="#515983"/>
<path d="M80.1547 66.516C81.1681 68.262 82.9678 71.5412 84.2171 73.838C85.0165 75.3088 84.6671 77.14 83.3828 78.212L76.5815 83.8784C75.2928 84.9513 73.4276 84.9652 72.1259 83.9116C70.0946 82.2665 67.1941 79.9055 65.6609 78.5964C64.9751 78.0128 64.0403 77.8228 63.1797 78.0905L57.5185 79.8553C56.658 80.1226 55.9983 80.8102 55.7625 81.679C55.2426 83.6286 54.1986 87.2197 53.4604 89.7284C52.9843 91.3355 51.4422 92.3825 49.7736 92.2305L40.9629 91.4294C39.2898 91.2778 37.9619 89.9699 37.7872 88.3043C37.512 85.7026 37.1319 81.9818 36.9703 79.9706C36.9004 79.0743 36.3718 78.2788 35.5768 77.8607L30.3218 75.1031C29.5268 74.6855 28.5745 74.7038 27.797 75.1542C26.0497 76.165 22.7692 77.9643 20.4758 79.2158C19.0037 80.0173 17.1734 79.667 16.0989 78.3806L10.4332 71.5805C9.35866 70.2936 9.34557 68.4293 10.3983 67.1271C12.0451 65.0937 14.404 62.1928 15.7145 60.6578C16.2998 59.9737 16.4876 59.0384 16.2212 58.1801L14.4564 52.5154C14.1899 51.657 13.4998 50.9948 12.6349 50.7633C10.6823 50.2434 7.09155 49.1968 4.57981 48.4582C2.97667 47.9846 1.92828 46.4422 2.08117 44.7744L2.88055 35.9589C3.03344 34.2906 4.33957 32.9627 6.00823 32.7867C8.60733 32.5123 12.3291 32.1305 14.3428 31.9707C15.2339 31.8995 16.0333 31.3722 16.4483 30.5763L19.2091 25.3226C19.624 24.5268 19.6066 23.5723 19.1566 22.7943C18.1432 21.0483 16.3479 17.7691 15.0942 15.4723C14.2948 14.0015 14.6442 12.1703 15.9285 11.0984L22.7298 5.43188C24.0185 4.35904 25.8837 4.34507 27.1854 5.39869C29.2167 7.04377 32.1172 9.40481 33.6504 10.714C34.3362 11.2976 35.271 11.4871 36.1316 11.2198L41.7928 9.45503C42.6534 9.18725 43.313 8.50015 43.5488 7.63131C44.0687 5.68177 45.1127 2.09062 45.8509 -0.418063C46.327 -2.02514 47.8691 -3.07222 49.5377 -2.9202L58.3528 -2.11903C60.0215 -1.96745 61.3494 -0.659611 61.5241 1.00643C61.7993 3.60772 62.1794 7.32859 62.341 9.33972C62.4109 10.2361 62.9395 11.0315 63.7345 11.4496L68.9851 14.2072C69.7845 14.6248 70.7368 14.6065 71.5143 14.1561C73.2616 13.1453 76.5422 11.346 78.8355 10.0945C80.312 9.29297 82.1378 9.6433 83.2124 10.9302L88.878 17.7298C89.9526 19.0167 89.9657 20.8806 88.913 22.1832C87.2662 24.2166 84.9073 27.1176 83.5969 28.6526C83.0159 29.3366 82.8237 30.2719 83.0901 31.1302L84.8549 36.795C85.1214 37.6533 85.8116 38.3155 86.6765 38.5471C88.6291 39.0669 92.2197 40.1135 94.7315 40.8526C96.3346 41.3257 97.383 42.8681 97.2301 44.5363L96.4307 53.3514C96.2779 55.0197 94.9718 56.3476 93.3075 56.5237C90.704 56.798 86.9822 57.1798 84.9685 57.3397C84.0774 57.4109 83.278 57.9381 82.863 58.734L80.1066 63.9877C79.6873 64.7836 79.7047 65.738 80.1547 66.516ZM62.8215 33.6843C56.7628 26.4134 45.9557 25.431 38.687 31.4902C31.4139 37.5493 30.431 48.3551 36.4898 55.626C42.5485 62.8969 53.3556 63.8793 60.6243 57.8202C67.8974 51.761 68.8803 40.9548 62.8215 33.6843Z" fill="#515983"/>
<path d="M79.9294 66.2856C80.9382 68.0324 82.7373 71.3114 83.9906 73.6084C84.7941 75.0787 84.4404 76.9097 83.1565 77.9822L76.3573 83.6491C75.0691 84.7211 73.2045 84.7355 71.9032 83.6818C69.8682 82.0368 66.9686 79.6757 65.4315 78.3661C64.7503 77.7826 63.8114 77.5931 62.9555 77.8604L57.2917 79.6255C56.4314 79.8927 55.7677 80.5805 55.5406 81.449C55.0209 83.3988 53.9729 86.9893 53.2349 89.4989C52.7589 91.1055 51.2174 92.1526 49.5493 92.0011L40.7326 91.1993C39.0689 91.0478 37.737 89.7399 37.5623 88.074C37.2872 85.4727 36.9029 81.7521 36.7457 79.7407C36.6758 78.8447 36.1474 78.0486 35.3527 77.6311L30.0994 74.8734C29.3002 74.4555 28.3483 74.4739 27.571 74.9241C25.8242 75.935 22.5447 77.7342 20.2478 78.9857C18.7761 79.7875 16.9464 79.4372 15.8722 78.1503L10.2084 71.3503C9.13416 70.0638 9.12103 68.1996 10.1734 66.8974C11.8197 64.8638 14.1822 61.9629 15.4879 60.4275C16.0731 59.7437 16.2652 58.8083 15.9945 57.9498L14.2303 52.2851C13.9639 51.4266 13.2739 50.7646 12.4049 50.5331C10.4573 50.0135 6.86777 48.9672 4.35684 48.2279C2.74984 47.7545 1.70176 46.2121 1.8546 44.544L2.65377 35.7291C2.80661 34.0605 4.11228 32.7325 5.78041 32.557C8.38305 32.2819 12.1036 31.9002 14.1123 31.7404C15.0119 31.6692 15.8067 31.1421 16.2259 30.3465L18.9814 25.0928C19.4006 24.2967 19.3788 23.3421 18.9334 22.5644C17.9202 20.8181 16.1211 17.539 14.8678 15.242C14.0687 13.7713 14.418 11.9403 15.7062 10.8678L22.5054 5.20136C23.7936 4.1293 25.6539 4.11486 26.9596 5.16814C28.9902 6.81357 31.8941 9.17474 33.4269 10.4839C34.1125 11.0673 35.047 11.2573 35.9073 10.9896L41.571 9.22495C42.4313 8.95727 43.0907 8.26995 43.3222 7.40094C43.8418 5.45159 44.8899 1.86026 45.6279 -0.648931C46.1038 -2.25549 47.641 -3.30223 49.3135 -3.1507L58.1258 -2.34936C59.7939 -2.19739 61.1214 -0.889506 61.3005 0.776008C61.5712 3.37734 61.9555 7.09787 62.117 9.10924C62.1869 10.0058 62.7153 10.8014 63.5101 11.2193L68.7634 13.9769C69.5582 14.3944 70.5145 14.3765 71.2918 13.9259C73.0385 12.9149 76.3181 11.1158 78.615 9.86427C80.0823 9.06295 81.9163 9.41317 82.9862 10.6996L88.6544 17.4997C89.7242 18.7866 89.7417 20.6508 88.6893 21.953C87.043 23.9862 84.6805 26.8871 83.3705 28.4225C82.7853 29.1068 82.5976 30.0421 82.8639 30.9002L84.6281 36.5649C84.8989 37.4234 85.5845 38.0854 86.4535 38.3169C88.4011 38.837 91.995 39.8833 94.5016 40.6221C96.1086 41.0955 97.1566 42.6379 97.0081 44.306L96.2046 53.1213C96.0562 54.7895 94.7417 56.1174 93.078 56.2934C90.4797 56.5681 86.7591 56.9497 84.746 57.1096C83.8508 57.1807 83.0517 57.7078 82.6369 58.5039L79.877 63.7577C79.4578 64.5537 79.4796 65.5079 79.9294 66.2856ZM62.593 33.4544C56.5362 26.1836 45.7283 25.2011 38.4575 31.2601C31.1867 37.319 30.2085 48.1252 36.2653 55.396C42.3221 62.6668 53.1301 63.6489 60.4009 57.5899C67.6717 51.5314 68.6542 40.7252 62.593 33.4544Z" fill="#515983"/>
<path d="M79.6997 66.0589C80.7082 67.8047 82.5067 71.0844 83.7596 73.3811C84.5628 74.8518 84.2092 76.6826 82.9258 77.7552L76.1201 83.4215C74.8367 84.4937 72.9726 84.5081 71.6674 83.4547C69.6374 81.8094 66.7344 79.4486 65.1978 78.139C64.5168 77.5557 63.5782 77.3658 62.7226 77.633L57.0563 79.3984C56.2007 79.6655 55.5371 80.3531 55.3057 81.2218C54.7862 83.1714 53.7385 86.7624 53.0008 89.2717C52.5293 90.8781 50.984 91.9254 49.3164 91.7735L40.5026 90.9724C38.835 90.8205 37.5035 89.5126 37.3289 87.8468C37.0539 85.2459 36.6741 81.5248 36.5126 79.5136C36.4427 78.6174 35.9145 77.8216 35.12 77.4038L29.864 74.6462C29.0695 74.2284 28.1179 74.2463 27.3365 74.6968C25.5903 75.7078 22.3119 77.5073 20.0157 78.7588C18.5445 79.5603 16.7154 79.2098 15.6415 77.9229L9.97518 71.1233C8.90128 69.8368 8.8882 67.9723 9.94026 66.6701C11.586 64.6367 13.9477 61.7359 15.2573 60.2006C15.8423 59.5165 16.03 58.581 15.7637 57.7232L14.0001 52.0582C13.7295 51.1999 13.044 50.5381 12.1753 50.3063C10.224 49.7864 6.63563 48.74 4.12551 48.0005C2.51903 47.5273 1.47134 45.985 1.62413 44.317L2.42299 35.5018C2.57578 33.8338 3.88539 32.5054 5.54862 32.3295C8.15041 32.0553 11.8698 31.6734 13.8822 31.5136C14.7771 31.4424 15.576 30.9155 15.9907 30.1193L18.7497 24.8655C19.1688 24.0697 19.1513 23.1154 18.6973 22.3375C17.6889 20.5913 15.8903 17.312 14.6374 15.0149C13.8342 13.5446 14.1834 11.7133 15.4712 10.6412L22.2726 4.97444C23.5604 3.90229 25.4244 3.88789 26.7253 4.94127C28.7596 6.5866 31.6582 8.9474 33.1948 10.257C33.8802 10.8402 34.8145 11.0301 35.6744 10.763L41.3364 8.9976C42.1963 8.73043 42.8599 8.04288 43.0913 7.17416C43.6108 5.22456 44.6584 1.63359 45.3962 -0.875657C45.8677 -2.48213 47.4131 -3.52942 49.0806 -3.37751L57.8945 -2.57643C59.562 -2.42451 60.8935 -1.11664 61.0681 0.549202C61.3387 3.15056 61.7229 6.87121 61.8844 8.88279C61.9543 9.77901 62.4825 10.5744 63.277 10.9922L68.5286 13.7498C69.3275 14.1676 70.2791 14.1497 71.0606 13.6992C72.8067 12.6881 76.0852 10.8891 78.3814 9.63758C79.8525 8.83565 81.6816 9.1862 82.7555 10.4731L88.4219 17.2727C89.4914 18.5596 89.5089 20.4237 88.4524 21.7259C86.811 23.7593 84.4493 26.6601 83.1397 28.1954C82.5547 28.8795 82.367 29.815 82.6333 30.6733L84.3969 36.3383C84.6632 37.1961 85.3529 37.8583 86.2217 38.0901C88.173 38.6096 91.7614 39.656 94.2715 40.3955C95.878 40.8687 96.9257 42.411 96.7729 44.079L95.974 52.8941C95.8212 54.5622 94.5116 55.8906 92.8484 56.0665C90.2466 56.3411 86.5273 56.7226 84.5148 56.8828C83.6199 56.9535 82.821 57.4809 82.4063 58.2767L79.6474 63.5305C79.2283 64.3263 79.2457 65.281 79.6997 66.0589ZM62.3646 33.2275C56.3054 25.9564 45.4966 24.9742 38.2282 31.033C30.9554 37.0922 29.9732 47.8979 36.0324 55.169C42.0916 62.4396 52.9004 63.4218 60.1688 57.363C67.4416 51.3038 68.4238 40.4981 62.3646 33.2275Z" fill="#515983"/>
<path d="M79.4638 65.8266C80.4762 67.5727 82.2742 70.8518 83.5266 73.1485C84.3296 74.6192 83.9805 76.4503 82.6931 77.5226L75.894 83.1892C74.6066 84.2615 72.7432 84.2759 71.4383 83.2224C69.4047 81.5772 66.507 79.2158 64.9709 77.9066C64.2857 77.3236 63.3518 77.1333 62.4921 77.4008L56.8277 79.1656C55.9679 79.4336 55.3046 80.1209 55.0777 80.9893C54.554 82.9392 53.5066 86.5299 52.7691 89.0392C52.2978 90.646 50.7529 91.6929 49.0859 91.5411L40.2706 90.7398C38.6036 90.5884 37.2726 89.2805 37.098 87.6148C36.8231 85.0134 36.4434 81.2926 36.2819 79.2813C36.2121 78.3849 35.684 77.5894 34.8898 77.1713L29.6356 74.4141C28.8369 73.996 27.8856 74.0144 27.1044 74.4647C25.3588 75.4759 22.0815 77.2747 19.786 78.5263C18.311 79.328 16.4824 78.9775 15.4089 77.691L9.74438 70.891C8.67084 69.6041 8.65775 67.7398 9.70948 66.438C11.3547 64.4044 13.7156 61.5036 15.0248 59.9684C15.6096 59.2841 15.7973 58.3489 15.5311 57.4905L13.7637 51.8256C13.4975 50.9676 12.8123 50.3056 11.9439 50.0739C9.99315 49.5541 6.40157 48.5076 3.89227 47.7683C2.28632 47.2949 1.23896 45.7526 1.3917 44.0847L2.19031 35.2698C2.34305 33.6015 3.65226 32.2731 5.31931 32.0972C7.92025 31.8227 11.6384 31.4413 13.6502 31.2811C14.5492 31.21 15.3434 30.6828 15.758 29.8868L18.5204 24.633C18.935 23.8374 18.9175 22.8831 18.468 22.105C17.4556 20.3589 15.6576 17.0798 14.4052 14.783C13.6022 13.3119 13.9557 11.4812 15.2387 10.409L22.0422 4.74231C23.3252 3.66963 25.193 3.65568 26.4935 4.70915C28.5271 6.35438 31.4292 8.7153 32.9653 10.0245C33.6504 10.608 34.5843 10.7983 35.4397 10.5303L41.1085 8.7655C41.9638 8.49842 42.6272 7.81064 42.8585 6.94221C43.3778 4.99237 44.4252 1.40123 45.1627 -1.10763C45.6384 -2.71446 47.1788 -3.76138 48.8459 -3.60995L57.6612 -2.80828C59.3326 -2.65684 60.6593 -1.34898 60.8382 0.316762C61.1088 2.91815 61.4884 6.63889 61.6542 8.65026C61.7241 9.54619 62.2521 10.3422 63.0464 10.7603L68.3006 13.5175C69.0949 13.9355 70.0462 13.9172 70.8274 13.4668C72.573 12.4557 75.8503 10.6568 78.1502 9.40525C79.6208 8.60358 81.4537 8.95402 82.5229 10.2405L88.1918 17.0405C89.261 18.3275 89.2784 20.1913 88.2223 21.4935C86.5771 23.5272 84.2161 26.4279 82.9069 27.9632C82.3222 28.647 82.1345 29.5827 82.4007 30.4411L84.1682 36.1055C84.4344 36.9639 85.1195 37.626 85.9923 37.8577C87.9386 38.3774 91.5302 39.4239 94.0395 40.1628C95.6455 40.6363 96.6928 42.1785 96.5401 43.8469L95.7415 52.6617C95.5888 54.3301 94.2795 55.6585 92.6168 55.8339C90.0159 56.1088 86.2934 56.4903 84.2816 56.65C83.387 56.7215 82.5884 57.2487 82.1738 58.0447L79.4157 63.2981C78.9968 64.0941 79.0143 65.0485 79.4638 65.8266ZM62.1299 32.9949C56.0727 25.724 45.2674 24.7417 37.997 30.8007C30.7265 36.8596 29.7446 47.6658 35.8019 54.9367C41.8591 62.2071 52.6644 63.1899 59.9348 57.1305C67.2053 51.0715 68.1915 40.2658 62.1299 32.9949Z" fill="#515983"/>
<path d="M79.2341 65.5982C80.2462 67.3446 82.048 70.6235 83.3 72.9208C84.1028 74.3915 83.7494 76.2225 82.4668 77.2944L75.6611 82.9614C74.3785 84.0337 72.5113 84.0481 71.2112 82.9941C69.1782 81.349 66.2771 78.9879 64.7415 77.6787C64.0565 77.0954 63.123 76.9057 62.2635 77.1731L56.5965 78.9378C55.7414 79.2052 55.0783 79.8927 54.8471 80.7618C54.3279 82.711 53.2809 86.3023 52.5392 88.8112C52.0681 90.418 50.5237 91.465 48.8572 91.3136L40.0404 90.5118C38.3738 90.3604 37.0476 89.0525 36.8688 87.3868C36.5939 84.7854 36.2144 81.0645 36.0529 79.0529C35.9831 78.1569 35.4553 77.3611 34.6569 76.9436L29.4043 74.1856C28.6103 73.7681 27.6549 73.786 26.8784 74.2366C25.1333 75.2479 21.8526 77.0466 19.5535 78.2982C18.0833 79.1001 16.251 78.7497 15.1822 77.4628L9.51519 70.6632C8.44199 69.3762 8.42887 67.5121 9.48026 66.2099C11.125 64.1764 13.4895 61.2757 14.7983 59.7401C15.3829 59.056 15.5705 58.1207 15.3043 57.2626L13.5375 51.5977C13.2714 50.7396 12.5821 50.0774 11.7139 49.8457C9.76383 49.3261 6.17341 48.2795 3.6649 47.5405C2.05946 47.0671 1.01244 45.525 1.16514 43.8567L1.96348 35.0416C2.11618 33.3733 3.42497 32.0449 5.09149 31.8695C7.6916 31.5947 11.4129 31.213 13.4241 31.0533C14.3184 30.9822 15.1168 30.4552 15.5312 29.659L18.2884 24.4051C18.7072 23.6094 18.6898 22.6548 18.2404 21.877C17.2283 20.1311 15.4309 16.8517 14.1788 14.5548C13.3761 13.0842 13.7251 11.2532 15.0121 10.1808L21.8134 4.51422C23.1003 3.44189 24.9632 3.42751 26.2676 4.48108C28.3006 6.12665 31.2017 8.48727 32.7374 9.79692C33.4179 10.3802 34.3559 10.57 35.2153 10.3025L40.878 8.53741C41.7374 8.26998 42.4006 7.58244 42.6274 6.71385C43.1509 4.7642 44.1979 1.17335 44.9352 -1.33602C45.4107 -2.94234 46.9507 -3.98939 48.6216 -3.83801L57.4341 -3.03659C59.1006 -2.88477 60.4312 -1.57683 60.6057 0.0888138C60.8806 2.69024 61.2645 6.41065 61.4215 8.42225C61.4957 9.31833 62.0192 10.1141 62.8176 10.532L68.0701 13.2896C68.8641 13.7076 69.8195 13.6892 70.6004 13.2386C72.3455 12.2278 75.6262 10.4286 77.9209 9.177C79.3911 8.37559 81.2234 8.72589 82.2966 10.0129L87.9593 16.8124C89.0325 18.099 89.0499 19.9635 87.9942 21.2654C86.3495 23.2988 83.9893 26.1999 82.6805 27.7355C82.0959 28.4192 81.9084 29.3545 82.1745 30.2126L83.9414 35.8775C84.2075 36.736 84.8924 37.3979 85.7605 37.6295C87.715 38.1495 91.3054 39.1961 93.8139 39.9347C95.4194 40.4085 96.4664 41.9507 96.3137 43.6189L95.5153 52.434C95.3627 54.1019 94.0539 55.4303 92.3873 55.6061C89.7872 55.8805 86.0659 56.2622 84.0548 56.4219C83.1561 56.4934 82.3621 57.0204 81.9432 57.8166L79.1861 63.0701C78.7717 63.8663 78.7891 64.8204 79.2341 65.5982ZM61.9058 32.7669C55.8461 25.4962 45.0399 24.5137 37.7674 30.5725C30.4993 36.6318 29.5134 47.4375 35.5731 54.7083C41.6327 61.9794 52.4389 62.9619 59.7114 56.9026C66.9795 50.8439 67.9611 40.0377 61.9058 32.7669Z" fill="#515983"/>
<path d="M79.0087 65.3702C80.0205 67.116 81.8173 70.3956 83.069 72.6922C83.8714 74.1633 83.5226 75.9936 82.2317 77.0665L75.4326 82.733C74.146 83.805 72.2838 83.8194 70.9798 82.7661C68.9475 81.1207 66.0473 78.7595 64.5121 77.4503C63.8274 76.8668 62.8941 76.677 62.035 76.9444L56.3698 78.7094C55.5106 78.9767 54.8477 79.6645 54.6166 80.5332C54.0976 82.4827 53.0509 86.0737 52.3139 88.5831C51.8385 90.1898 50.2947 91.2364 48.6287 91.0851L39.8147 90.2835C38.1444 90.1318 36.8142 88.8238 36.6397 87.1583C36.365 84.5568 35.9856 80.8363 35.8242 78.8249C35.7544 77.9283 35.2267 77.1328 34.4286 76.715L29.1778 73.9574C28.3797 73.5396 27.4246 73.5579 26.6483 74.008C24.9038 75.0189 21.6242 76.8184 19.3258 78.07C17.8561 78.8716 16.0244 78.5214 14.9516 77.2344L9.28634 70.4344C8.21349 69.1479 8.20042 67.2835 9.25146 65.9817C10.8956 63.948 13.2551 61.0474 14.5678 59.5118C15.1522 58.8276 15.3397 57.8925 15.0737 57.0342L13.3074 51.3695C13.0413 50.5112 12.3523 49.8492 11.4844 49.6176C9.53495 49.0973 5.9413 48.051 3.43362 47.3123C1.8287 46.8386 0.78202 45.2965 0.934662 43.6279L1.73275 34.8131C1.88539 33.1449 3.19376 31.8169 4.85973 31.6412C7.46337 31.3664 11.1835 30.9844 13.194 30.8252C14.088 30.7537 14.8861 30.2264 15.3004 29.4305L18.0611 24.177C18.4797 23.3811 18.4579 22.4269 18.0087 21.6488C16.9969 19.9026 15.2001 16.6234 13.9485 14.3264C13.146 12.8558 13.4993 11.025 14.7814 9.95254L21.5849 4.28561C22.8715 3.21363 24.7337 3.19924 26.0377 4.2529C28.07 5.89794 30.9702 8.25911 32.5053 9.56834C33.1901 10.1519 34.1277 10.3416 34.9825 10.0742L40.6477 8.30923C41.5069 8.04189 42.1697 7.35416 42.4009 6.48541C42.9198 4.53596 43.9666 0.94494 44.708 -1.56405C45.179 -3.17115 46.7228 -4.21784 48.3888 -4.06607L57.2071 -3.26492C58.8731 -3.11315 60.2033 -1.80522 60.3777 -0.139682C60.6525 2.46177 61.0319 6.18273 61.1933 8.19411C61.263 9.09034 61.7907 9.88583 62.5888 10.3036L67.8397 13.0612C68.6378 13.479 69.5886 13.4607 70.3692 13.0106C72.1137 11.9993 75.3933 10.2003 77.6916 8.94859C79.1614 8.147 80.9931 8.49721 82.0659 9.7842L87.7311 16.5842C88.804 17.8712 88.817 19.7347 87.766 21.0374C86.1175 23.0706 83.7581 25.9716 82.4497 27.5068C81.8653 28.1911 81.6778 29.1261 81.9438 29.9844L83.7101 35.6496C83.9761 36.5078 84.6652 37.1699 85.5331 37.4015C87.4825 37.9209 91.0718 38.9675 93.5838 39.7068C95.1888 40.18 96.2354 41.7225 96.0828 43.3903L95.2847 52.2055C95.1321 53.8737 93.8237 55.2021 92.1577 55.3778C89.5541 55.6522 85.834 56.0338 83.8235 56.1938C82.9295 56.2649 82.1313 56.7922 81.7127 57.5881L78.9564 62.8416C78.5377 63.6375 78.5552 64.5922 79.0087 65.3702ZM61.673 32.5387C55.6153 25.2677 44.8082 24.2856 37.5381 30.3446C30.268 36.4032 29.2824 47.2093 35.3445 54.4803C41.4022 61.7509 52.2092 62.7334 59.4793 56.6744C66.7494 50.6154 67.7351 39.8093 61.673 32.5387Z" fill="#515983"/>
<path d="M78.7787 65.1396C79.7901 66.8862 81.5907 70.1651 82.842 72.4619C83.6398 73.9329 83.291 75.7636 82.0049 76.8361L75.2036 82.5025C73.9175 83.575 72.0559 83.5894 70.7523 82.5356C68.7206 80.8907 65.817 78.5294 64.2823 77.2202C63.5978 76.6368 62.6649 76.4472 61.806 76.7144L56.1382 78.4793C55.2794 78.747 54.621 79.4345 54.39 80.303C53.8712 82.2527 52.8248 85.8434 52.0836 88.3525C51.6084 89.9595 50.0694 91.0063 48.3996 90.8546L39.5841 90.0532C37.9143 89.902 36.5889 88.594 36.4102 86.9281C36.1355 84.3266 35.7562 80.606 35.5949 78.5944C35.5251 77.6984 34.9976 76.9028 34.1997 76.4847L28.9462 73.7271C28.1527 73.3094 27.1979 73.3277 26.4175 73.7781C24.6736 74.7891 21.395 76.588 19.0974 77.8397C17.6282 78.6415 15.797 78.2909 14.7245 77.0044L9.05676 70.2044C7.98425 68.9174 7.97118 67.0536 9.02189 65.7513C10.6699 63.7179 13.0285 60.8169 14.3408 59.2818C14.9251 58.5977 15.1126 57.6621 14.8466 56.8041L13.0809 51.139C12.8106 50.2805 12.1261 49.6187 11.2585 49.3872C9.30963 48.8675 5.71719 47.8207 3.20595 47.0817C1.60154 46.6083 0.555171 45.0662 0.703404 43.3982L1.50562 34.5831C1.65822 32.9146 2.96612 31.5866 4.63157 31.4105C7.23 31.1362 10.9533 30.7543 12.9632 30.5948C13.8613 30.5232 14.6591 29.9962 15.0733 29.2005L17.8331 23.9465C18.2516 23.1508 18.2342 22.1965 17.7807 21.4182C16.7693 19.6721 14.973 16.3931 13.7174 14.0964C12.9196 12.6254 13.2684 10.7943 14.5545 9.72222L21.3558 4.05578C22.6419 2.98327 24.5035 2.9689 25.8071 4.02223C27.8431 5.66762 30.7424 8.02887 32.2771 9.33812C32.9616 9.92146 33.8989 10.1115 34.7578 9.84386L40.4212 8.07901C41.28 7.81176 41.9427 7.12378 42.1694 6.2553C42.6926 4.3056 43.739 0.714878 44.4758 -1.79419C44.951 -3.40121 46.4943 -4.44846 48.1641 -4.2963L56.9753 -3.49493C58.6451 -3.34365 59.9705 -2.03572 60.1492 -0.369843C60.4239 2.23165 60.8076 5.95227 60.9645 7.96389C61.0343 8.85982 61.5618 9.65551 62.3597 10.0736L67.6132 12.8307C68.4067 13.2488 69.3659 13.2305 70.1419 12.7802C71.8858 11.7691 75.1687 9.96986 77.462 8.71816C78.9312 7.91683 80.7667 8.26734 81.8392 9.55391L87.5026 16.3539C88.5752 17.6405 88.5926 19.5047 87.5375 20.807C85.8939 22.8404 83.5308 25.7414 82.2229 27.2765C81.6387 27.9605 81.4512 28.8957 81.7172 29.7542L83.4785 35.4189C83.7488 36.2773 84.4333 36.9391 85.3053 37.1711C87.2541 37.6908 90.8422 38.7375 93.3535 39.4765C94.9579 39.95 96.0086 41.4921 95.856 43.1601L95.0538 51.9752C94.9055 53.6433 93.5976 54.9717 91.9278 55.1474C89.3294 55.422 85.6061 55.8035 83.5962 55.9635C82.6981 56.0346 81.9047 56.5617 81.4861 57.3578L78.7263 62.6118C78.3078 63.4074 78.3296 64.3618 78.7787 65.1396ZM61.4441 32.3081C55.3884 25.0373 44.5804 24.0551 37.3126 30.1143C30.0405 36.1731 29.0552 46.9793 35.1153 54.2497C41.1754 61.5205 51.9834 62.5032 59.2511 56.444C66.5233 50.3852 67.5042 39.5794 61.4441 32.3081Z" fill="#515983"/>
<path d="M78.5473 64.9089C79.5585 66.6553 81.3585 69.9345 82.6093 72.2314C83.4113 73.7019 83.0626 75.5329 81.7725 76.6055L74.9734 82.2722C73.6877 83.3444 71.8223 83.3588 70.5235 82.3049C68.4881 80.6596 65.5855 78.2987 64.0513 76.9894C63.367 76.4059 62.4344 76.2163 61.5758 76.4839L55.9099 78.2486C55.0513 78.5162 54.3888 79.2035 54.1578 80.0725C53.6348 82.022 52.5888 85.6129 51.8522 88.122C51.3772 89.729 49.8343 90.7754 48.1694 90.6242L39.3524 89.8227C37.6831 89.671 36.3538 88.3631 36.1795 86.6973C35.9049 84.0958 35.5258 80.3755 35.3645 78.3636C35.2948 77.4675 34.7674 76.6721 33.9698 76.2542L28.718 73.4966C27.9204 73.0791 26.9659 73.097 26.1901 73.5476C24.4424 74.5583 21.1649 76.3575 18.868 77.6092C17.3949 78.4107 15.5644 78.0603 14.4922 76.7737L8.82631 69.9737C7.74979 68.6872 7.74108 66.8231 8.79145 65.5208C10.4389 63.4872 12.7968 60.5862 14.1087 59.0508C14.6927 58.3669 14.8801 57.4316 14.6142 56.5735L12.8491 50.9085C12.5832 50.0503 11.8946 49.3883 11.0273 49.1568C9.07473 48.6369 5.48344 47.5904 2.97301 46.8512C1.36913 46.3779 0.323125 44.8355 0.475668 43.1675L1.27324 34.3523C1.42579 32.6843 2.73331 31.3559 4.39821 31.1803C7.00016 30.9057 10.7222 30.5239 12.7358 30.3639C13.6292 30.2929 14.4225 29.766 14.8409 28.9697L17.5997 23.7161C18.0181 22.9202 18.0007 21.9658 17.5474 21.1878C16.5363 19.4414 14.7406 16.1622 13.4854 13.8657C12.6878 12.3948 13.0365 10.5638 14.3222 9.49167L21.1213 3.8249C22.4114 2.75274 24.2768 2.73837 25.5799 3.79179C27.6109 5.43707 30.5136 7.798 32.0477 9.10769C32.7276 9.69084 33.669 9.88085 34.5233 9.61324L40.1892 7.8481C41.0478 7.58093 41.7103 6.89319 41.9413 6.02456C42.4599 4.07506 43.5059 0.48421 44.2469 -2.02491C44.7176 -3.63184 46.2604 -4.67873 47.9297 -4.52706L56.7467 -3.726C58.4159 -3.57389 59.7409 -2.26595 59.9152 -0.600179C60.1942 2.0009 60.5733 5.72166 60.7346 7.73306C60.8043 8.62914 61.3317 9.42497 62.1249 9.84251L67.3811 12.6001C68.1787 13.018 69.1332 13.0001 69.909 12.5495C71.6567 11.5388 74.9342 9.7392 77.2311 8.48747C78.7042 7.6864 80.5347 8.03641 81.6025 9.32344L87.2728 16.1234C88.345 17.41 88.358 19.274 87.3076 20.5763C85.6602 22.6095 83.2979 25.5105 81.9904 27.0459C81.4064 27.7302 81.219 28.6655 81.4848 29.5236L83.25 35.1886C83.5158 36.0468 84.2045 36.7084 85.0718 36.9403C87.0244 37.4602 90.6156 38.5067 93.1217 39.2459C94.7299 39.7192 95.776 41.2612 95.6234 42.9296L94.8215 51.7448C94.6689 53.4128 93.3614 54.7412 91.6965 54.9169C89.0946 55.1914 85.3769 55.5732 83.3633 55.7327C82.4698 55.8042 81.6722 56.3312 81.2538 57.127L78.4993 62.381C78.0809 63.1769 78.0984 64.1313 78.5473 64.9089ZM61.214 32.0776C55.1559 24.807 44.3471 23.8246 37.0773 29.8836C29.8075 35.9427 28.8226 46.7484 34.8851 54.019C40.9432 61.2901 51.7476 62.2725 59.0174 56.2135C66.2915 50.1545 67.2722 39.3483 61.214 32.0776Z" fill="#515983"/>
<path d="M78.318 64.6797C79.3288 66.426 81.1282 69.705 82.383 72.0016C83.1847 73.4725 82.8318 75.3038 81.5465 76.376L74.7452 82.0423C73.4599 83.1145 71.5951 83.1289 70.2924 82.0754C68.262 80.4302 65.3603 78.0691 63.8223 76.7599C63.1382 76.1765 62.2059 75.9865 61.3432 76.254L55.6834 78.019C54.8208 78.2866 54.1628 78.9741 53.9319 79.8429C53.4091 81.7922 52.3634 85.3832 51.6227 87.8924C51.1522 89.4993 49.6098 90.5463 47.9411 90.3946L39.1269 89.5929C37.4582 89.4417 36.1293 88.1338 35.9506 86.4677C35.6805 83.8665 35.2971 80.1457 35.1359 78.1345C35.0662 77.2378 34.539 76.4427 33.7417 76.0244L28.4871 73.2673C27.6942 72.8495 26.7356 72.8673 25.9601 73.3178C24.2129 74.3287 20.9365 76.1281 18.6403 77.3799C17.1677 78.1811 15.3378 77.8308 14.266 76.5442L8.59749 69.7438C7.52567 68.4572 7.51261 66.5933 8.56264 65.291C10.2096 63.2576 12.5711 60.3567 13.8782 58.8213C14.4664 58.1372 14.6537 57.2022 14.3879 56.3439L12.6234 50.679C12.3532 49.8206 11.6648 49.1588 10.7978 48.927C8.85019 48.4072 5.25567 47.3607 2.75041 46.6217C1.14268 46.1481 0.0926465 44.6058 0.245141 42.9379L1.04684 34.1224C1.19934 32.4546 2.50642 31.1265 4.17515 30.9505C6.77191 30.676 10.4928 30.2939 12.5057 30.1345C13.4033 30.0634 14.2006 29.5362 14.6145 28.7402L17.3725 23.4866C17.7907 22.6905 17.7733 21.7364 17.3245 20.9582C16.3137 19.2119 14.5143 15.9329 13.2595 13.6359C12.4578 12.1654 12.8107 10.3342 14.096 9.26191L20.8973 3.59561C22.1826 2.52292 24.0474 2.50856 25.3501 3.56208C27.3805 5.20772 30.2822 7.56833 31.8202 8.87761C32.5043 9.46101 33.4367 9.65099 34.2994 9.38347L39.9634 7.61842C40.8218 7.35134 41.484 6.66382 41.7106 5.79504C42.2334 3.84529 43.2791 0.254706 44.0198 -2.25492C44.4947 -3.86134 46.0327 -4.90832 47.7014 -4.75669L56.5156 -3.95546C58.1843 -3.80384 59.5132 -2.49585 59.6919 -0.830174C59.962 1.77138 60.3454 5.49223 60.5066 7.50341C60.5763 8.39964 61.1035 9.19522 61.9009 9.61306L67.1554 12.3706C67.9483 12.7884 68.9069 12.7706 69.6824 12.32C71.4296 11.3088 74.7104 9.50982 77.0022 8.25805C78.4748 7.4568 80.3048 7.80666 81.3766 9.09371L87.045 15.8936C88.1168 17.1803 88.1342 19.0446 87.0799 20.3469C85.4329 22.3803 83.0714 25.2812 81.76 26.8162C81.1762 27.5002 80.9888 28.4357 81.2546 29.294L83.0192 34.9589C83.2893 35.8173 83.9777 36.4791 84.8447 36.7109C86.7923 37.2307 90.3868 38.2768 92.8921 39.0162C94.4998 39.4893 95.5498 41.0321 95.3974 42.7L94.5957 51.5151C94.4432 53.1834 93.1361 54.5114 91.4717 54.6869C88.8706 54.9619 85.1497 55.3436 83.1368 55.5035C82.2392 55.5745 81.4463 56.1017 81.028 56.8972L78.2701 62.1513C77.8518 62.9474 77.8692 63.9015 78.318 64.6797ZM60.9859 31.8481C54.9253 24.5776 44.12 23.5951 36.8482 29.6539C29.5807 35.7127 28.5961 46.5189 34.6566 53.7898C40.7129 61.0603 51.5182 62.0428 58.7943 55.984C66.0662 49.9248 67.0465 39.119 60.9859 31.8481Z" fill="#515983"/>
<path d="M78.0918 64.4513C79.1023 66.1974 80.9011 69.4763 82.1512 71.7734C82.9526 73.2443 82.5998 75.0754 81.3149 76.1473L74.5159 81.8139C73.231 82.8866 71.3624 82.901 70.0601 81.847C68.0304 80.2019 65.1296 77.8407 63.5921 76.5315C62.9083 75.9482 61.9718 75.7583 61.1181 76.0258L55.4516 77.7907C54.5935 78.0581 53.9315 78.7458 53.6963 79.6143C53.178 81.5639 52.1326 85.1546 51.3922 87.6638C50.9218 89.271 49.3755 90.3177 47.7117 90.1661L38.8917 89.3647C37.2279 89.2131 35.8994 87.9051 35.7252 86.2396C35.4464 83.638 35.0675 79.9175 34.9064 77.9061C34.8367 77.0097 34.3096 76.2139 33.5126 75.7962L28.2554 73.0387C27.4627 72.6206 26.5088 72.6389 25.7292 73.0892C23.9826 74.1006 20.7072 75.8995 18.4075 77.1512C16.9353 77.9527 15.1059 77.6025 14.0345 76.3158L8.3679 69.5159C7.29208 68.2289 7.28338 66.3651 8.33307 65.0628C9.97947 63.0292 12.3402 60.1284 13.6512 58.5931C14.2348 57.9092 14.4221 56.9736 14.1521 56.1152L12.3924 50.4508C12.1224 49.5923 11.4342 48.9302 10.5675 48.6985C8.61617 48.1789 5.02719 47.1322 2.51839 46.3931C0.911183 45.9197 -0.134153 44.3774 0.0139367 42.7096L0.815335 33.8944C0.96778 32.2262 2.27444 30.8977 3.94262 30.7222C6.5429 30.4474 10.2626 30.0658 12.2749 29.906C13.1721 29.835 13.9648 29.3075 14.3829 28.5118L17.14 23.2581C17.5581 22.4623 17.5407 21.508 17.0921 20.7297C16.0816 18.9835 14.2828 15.7047 13.0284 13.4075C12.2269 11.9367 12.5797 10.1056 13.8646 9.03367L20.6637 3.36709C21.9529 2.29475 23.8171 2.28039 25.1194 3.334C27.1534 4.9791 30.0542 7.34025 31.5874 8.64953C32.2712 9.23274 33.2077 9.42262 34.0657 9.15519L39.728 7.39033C40.5904 7.1229 41.2524 6.43515 41.4833 5.56665C42.0016 3.6171 43.0513 0.0263909 43.7874 -2.48285C44.2621 -4.08962 45.804 -5.13671 47.4722 -4.98513L56.2878 -4.18373C57.956 -4.03216 59.2845 -2.72418 59.4587 -1.05861C59.7331 1.54296 60.1164 5.26349 60.2732 7.27489C60.3472 8.17127 60.8743 8.96705 61.667 9.38475L66.9241 12.1422C67.7212 12.5604 68.675 12.5421 69.4503 12.0917C71.1969 11.0804 74.4767 9.28151 76.7721 8.02972C78.2442 7.22829 80.0736 7.57847 81.145 8.8651L86.8116 15.665C87.8875 16.9521 87.9005 18.8163 86.8465 20.1182C85.2001 22.1518 82.8437 25.0526 81.5327 26.5879C80.949 27.2717 80.7574 28.2073 81.0231 29.0658L82.7915 34.7302C83.0572 35.5887 83.7453 36.2507 84.6121 36.4824C86.5634 37.0025 90.1567 38.0487 92.6655 38.7879C94.2727 39.2613 95.3181 40.8036 95.1656 42.4714L94.3642 51.287C94.2117 52.9548 92.9051 54.2832 91.2413 54.4588C88.6366 54.7336 84.917 55.1151 82.9047 55.275C82.0118 55.346 81.2147 55.8734 80.7966 56.6692L78.0395 61.9229C77.6214 62.7191 77.6388 63.6729 78.0918 64.4513ZM60.7566 31.6195C54.698 24.3492 43.8919 23.3665 36.6181 29.4256C29.3486 35.4846 28.3643 46.2908 34.4272 53.5615C40.4858 60.8318 51.292 61.8144 58.5614 55.7554C65.8309 49.6964 66.8152 38.8906 60.7566 31.6195Z" fill="#515983"/>
<path d="M60.7566 31.6195C54.698 24.3492 43.8919 23.3665 36.6181 29.4256C29.3486 35.4846 28.3643 46.2908 34.4272 53.5615C40.4858 60.8318 51.292 61.8144 58.5614 55.7554C65.8309 49.6964 66.8152 38.8906 60.7566 31.6195ZM78.0918 64.4513C79.1023 66.1974 80.9011 69.4763 82.1512 71.7734C82.9526 73.2443 82.5998 75.0754 81.3149 76.1473L74.5159 81.8139C73.231 82.8866 71.3624 82.901 70.0601 81.847C68.0304 80.2019 65.1296 77.8407 63.5921 76.5315C62.9083 75.9482 61.9718 75.7583 61.1181 76.0258L55.4516 77.7907C54.5935 78.0581 53.9315 78.7458 53.6963 79.6143C53.178 81.5639 52.1326 85.1546 51.3922 87.6638C50.9218 89.271 49.3755 90.3177 47.7117 90.1661L38.8917 89.3647C37.2279 89.2131 35.8994 87.9051 35.7252 86.2396C35.4464 83.638 35.0675 79.9175 34.9064 77.9061C34.8367 77.0097 34.3096 76.2139 33.5126 75.7962L28.2554 73.0387C27.4627 72.6206 26.5088 72.6389 25.7292 73.0892C23.9826 74.1006 20.7072 75.8995 18.4075 77.1512C16.9353 77.9527 15.1059 77.6025 14.0345 76.3158L8.3679 69.5159C7.29208 68.2289 7.28338 66.3651 8.33307 65.0628C9.97947 63.0292 12.3402 60.1284 13.6512 58.5931C14.2348 57.9092 14.4221 56.9736 14.1521 56.1152L12.3924 50.4508C12.1224 49.5923 11.4342 48.9302 10.5675 48.6985C8.61617 48.1789 5.02719 47.1322 2.51839 46.3931C0.911183 45.9197 -0.134153 44.3774 0.0139367 42.7096L0.815335 33.8944C0.96778 32.2262 2.27444 30.8977 3.94262 30.7222C6.5429 30.4474 10.2626 30.0658 12.2749 29.906C13.1721 29.835 13.9648 29.3075 14.3829 28.5118L17.14 23.2581C17.5581 22.4623 17.5407 21.508 17.0921 20.7297C16.0816 18.9835 14.2828 15.7047 13.0284 13.4075C12.2269 11.9367 12.5797 10.1056 13.8646 9.03367L20.6637 3.36709C21.9529 2.29475 23.8171 2.28039 25.1194 3.334C27.1534 4.9791 30.0542 7.34025 31.5874 8.64953C32.2712 9.23274 33.2077 9.42262 34.0657 9.15519L39.728 7.39033C40.5904 7.1229 41.2524 6.43515 41.4833 5.56665C42.0016 3.6171 43.0513 0.0263909 43.7874 -2.48285C44.2621 -4.08962 45.804 -5.13671 47.4722 -4.98513L56.2878 -4.18373C57.956 -4.03216 59.2845 -2.72418 59.4587 -1.05861C59.7331 1.54296 60.1164 5.26349 60.2732 7.27489C60.3472 8.17127 60.8743 8.96705 61.667 9.38475L66.9241 12.1422C67.7212 12.5604 68.675 12.5421 69.4503 12.0917C71.1969 11.0804 74.4767 9.28151 76.7721 8.02972C78.2442 7.22829 80.0736 7.57847 81.145 8.8651L86.8116 15.665C87.8875 16.9521 87.9005 18.8163 86.8465 20.1182C85.2001 22.1518 82.8437 25.0526 81.5327 26.5879C80.949 27.2717 80.7574 28.2073 81.0231 29.0658L82.7915 34.7302C83.0572 35.5887 83.7453 36.2507 84.6121 36.4824C86.5634 37.0025 90.1567 38.0487 92.6655 38.7879C94.2727 39.2613 95.3181 40.8036 95.1656 42.4714L94.3642 51.287C94.2117 52.9548 92.9051 54.2832 91.2413 54.4588C88.6366 54.7336 84.917 55.1151 82.9047 55.275C82.0118 55.346 81.2147 55.8734 80.7966 56.6692L78.0395 61.9229C77.6214 62.7191 77.6388 63.6729 78.0918 64.4513Z" fill="#F17300"/>
</svg>
