<svg width="16" height="16" viewBox="0 0 16 16" fill="none" xmlns="http://www.w3.org/2000/svg">
<path d="M5.33398 4.66666C5.33398 4.66666 6.79785 2.8559 7.60358 2.15926C7.73312 2.04726 7.87858 1.99434 8.02312 2.00048C8.15278 2.00598 8.28165 2.05896 8.39785 2.15941C9.20338 2.85618 10.6673 4.66666 10.6673 4.66666M8.02312 2.66666V10" stroke="#00291C" stroke-linecap="round" stroke-linejoin="round"/>
<path d="M5.33268 7.3335C4.39926 7.3335 3.93255 7.3335 3.57603 7.51516C3.26243 7.67496 3.00746 7.9299 2.84767 8.2435C2.66602 8.60003 2.66602 9.06676 2.66602 10.0002V10.6668C2.66602 12.2382 2.66602 13.0238 3.15417 13.512C3.64233 14.0002 4.428 14.0002 5.99935 14.0002H9.99935C11.5707 14.0002 12.3563 14.0002 12.8445 13.512C13.3327 13.0238 13.3327 12.2382 13.3327 10.6668V10.0002C13.3327 9.06676 13.3327 8.60003 13.151 8.2435C12.9912 7.9299 12.7363 7.67496 12.4227 7.51516C12.0661 7.3335 11.5994 7.3335 10.666 7.3335" stroke="#00291C" stroke-linecap="round" stroke-linejoin="round"/>
</svg>
