<svg width="16" height="16" viewBox="0 0 16 16" fill="none" xmlns="http://www.w3.org/2000/svg">
<path d="M5.00065 5.3335C4.63974 5.4189 4.33353 5.42842 3.99577 5.63944C3.38221 6.02275 3.23471 6.47799 3.39279 7.1743C3.96084 9.6761 6.32465 12.0399 8.82652 12.608C9.52292 12.7661 9.97805 12.6188 10.3617 12.0053C10.5614 11.686 10.5817 11.3389 10.6673 11.0002" stroke="#00291C" stroke-linecap="round" stroke-linejoin="round"/>
<path d="M8 5.19943C8.1184 5.18529 8.21213 5.16023 8.28633 5.12157C8.93313 4.78457 9.28607 3.68907 9.6332 3.06673C9.95407 2.49143 10.1145 2.20378 10.4919 2.06818C10.8694 1.93259 11.0965 2.0147 11.5508 2.17893C12.6131 2.563 13.437 3.38688 13.8211 4.4492C13.9853 4.90347 14.0674 5.13061 13.9318 5.50803C13.7962 5.88545 13.5085 6.04589 12.9333 6.36679C12.3072 6.716 11.1969 7.07387 10.8603 7.72653C10.823 7.79887 10.7985 7.88847 10.7846 8" stroke="#00291C" stroke-linecap="round" stroke-linejoin="round"/>
<path d="M2 13.9998L5.33333 10.6665" stroke="#00291C" stroke-linecap="round" stroke-linejoin="round"/>
<path d="M2 2L14 14" stroke="#00291C" stroke-linecap="round" stroke-linejoin="round"/>
</svg>
