<svg width="19" height="19" viewBox="0 0 19 19" fill="none" xmlns="http://www.w3.org/2000/svg">
<path d="M12.6667 7.91663L13.6377 8.75358C14.046 9.10539 14.2501 9.28138 14.2501 9.49996C14.2501 9.71854 14.046 9.89453 13.6377 10.2463L12.6667 11.0833" stroke="#141B34" stroke-width="1.25" stroke-linecap="round" stroke-linejoin="round"/>
<path d="M6.33333 7.91663L5.36232 8.75358C4.95411 9.10539 4.75 9.28138 4.75 9.49996C4.75 9.71854 4.95411 9.89453 5.36232 10.2463L6.33333 11.0833" stroke="#141B34" stroke-width="1.25" stroke-linecap="round" stroke-linejoin="round"/>
<path d="M10.2916 7.125L8.70825 11.875" stroke="#141B34" stroke-width="1.25" stroke-linecap="round" stroke-linejoin="round"/>
<path d="M1.97925 9.49996C1.97925 5.95461 1.97925 4.18193 3.08065 3.08052C4.18205 1.97913 5.95473 1.97913 9.50008 1.97913C13.0454 1.97913 14.8181 1.97913 15.9195 3.08052C17.0209 4.18193 17.0209 5.95461 17.0209 9.49996C17.0209 13.0453 17.0209 14.818 15.9195 15.9194C14.8181 17.0208 13.0454 17.0208 9.50008 17.0208C5.95473 17.0208 4.18205 17.0208 3.08065 15.9194C1.97925 14.818 1.97925 13.0453 1.97925 9.49996Z" stroke="#141B34" stroke-width="1.25"/>
</svg>
