<svg width="12" height="12" viewBox="0 0 12 12" fill="none" xmlns="http://www.w3.org/2000/svg">
<path d="M10.1792 6.67835C9.58445 7.273 8.4654 7.2499 6.7496 7.2499C5.6457 7.2499 4.75069 6.35355 4.75012 5.24965C4.75012 3.53501 4.727 2.41533 5.32175 1.82069C5.91645 1.22606 6.17915 1.25014 8.8137 1.25014C9.0683 1.24905 9.19645 1.55695 9.01645 1.73697L7.65995 3.09357C7.31565 3.43791 7.3147 3.99617 7.65905 4.34046C8.0034 4.68476 8.5617 4.6848 8.9061 4.34055L10.2629 2.98428C10.443 2.8043 10.751 2.93242 10.7499 3.18698C10.7499 5.8211 10.774 6.08375 10.1792 6.67835Z" stroke="#00291C" stroke-width="0.75"/>
<path d="M6.75 7.25L3.66421 10.3358C3.11193 10.8881 2.2165 10.8881 1.66421 10.3358C1.11193 9.7835 1.11193 8.88805 1.66421 8.3358L4.75 5.25" stroke="#00291C" stroke-width="0.75" stroke-linecap="round"/>
<path d="M2.75448 9.25H2.75" stroke="#00291C" stroke-linecap="round" stroke-linejoin="round"/>
</svg>
