<svg xmlns="http://www.w3.org/2000/svg"  viewBox="0 0 64 64" width="64px" height="64px" fill-rule="evenodd" clip-rule="evenodd" baseProfile="basic"><path fill="#85cbf8" fill-rule="evenodd" d="M24.79,54.971	c-0.243-0.308-0.644-0.444-1.024-0.349c-5.497,1.364-11.467-0.987-14.437-6.108c-2.071-3.564-2.241-7.711-0.827-11.269	c0.144-0.364,0.063-0.78-0.209-1.061c-3.932-4.08-4.88-10.424-1.931-15.557c2.052-3.575,5.559-5.795,9.347-6.351	c0.388-0.057,0.707-0.336,0.815-0.712c1.567-5.444,6.588-9.436,12.508-9.452c4.121-0.008,7.797,1.917,10.173,4.92	c0.243,0.308,0.644,0.444,1.024,0.349c5.497-1.364,11.467,0.987,14.439,6.107c2.069,3.565,2.24,7.712,0.825,11.271	c-0.144,0.364-0.063,0.78,0.209,1.061c3.932,4.08,4.88,10.424,1.932,15.556c-2.053,3.576-5.56,5.796-9.348,6.352	c-0.388,0.057-0.707,0.336-0.815,0.712c-1.567,5.444-6.588,9.436-12.507,9.451C30.842,59.899,27.166,57.974,24.79,54.971z" clip-rule="evenodd"/><path fill="#9fddff" d="M29.649,58.762l28.12-28.116	c2.091,3.856,2.196,8.672-0.135,12.729c-2.053,3.576-5.56,5.796-9.348,6.352c-0.388,0.057-0.707,0.336-0.815,0.712	c-1.567,5.444-6.588,9.436-12.507,9.451C33.07,59.895,31.271,59.491,29.649,58.762z"/><path fill="#9fddff" d="M24.79,54.971c-0.243-0.308-0.644-0.444-1.024-0.349	c-0.861,0.215-1.732,0.336-2.603,0.372l35.085-35.086c0.375,2.325,0.1,4.696-0.756,6.849c-0.144,0.364-0.063,0.78,0.209,1.061	c0.125,0.131,0.248,0.264,0.367,0.399L27.067,57.219C26.219,56.566,25.454,55.811,24.79,54.971z"/><path fill="#9fddff" d="M15.969,54.147l38.684-38.683	c0.005,0.008,0.009,0.016,0.015,0.023c0.165,0.287,0.32,0.577,0.461,0.871L16.998,54.49C16.65,54.39,16.307,54.275,15.969,54.147z"/><path fill="#8d6c9f" fill-rule="evenodd" d="M46.941,49.89	c-0.065-0.548,0.327-1.045,0.875-1.111c3.624-0.432,7-2.504,8.951-5.903c3.291-5.731,1.32-13.095-4.408-16.419l-11.352-6.585	l-15.508,8.948c-0.477,0.276-1.089,0.112-1.365-0.367c-0.276-0.477-0.112-1.089,0.367-1.365l16.009-9.237	c0.309-0.179,0.692-0.179,1.001,0.001c3.951,2.292,7.9,4.584,11.852,6.876c6.68,3.876,8.979,12.459,5.139,19.144	c-2.281,3.972-6.228,6.391-10.449,6.892C47.503,50.83,47.006,50.438,46.941,49.89z" clip-rule="evenodd"/><path fill="#6fbef0" d="M16.474,13.697c0.019-0.043,0.036-0.087,0.049-0.133	c1.567-5.444,6.588-9.436,12.508-9.452c3.277-0.005,6.273,1.211,8.557,3.22c-1.175,2.023-3.653,3.001-5.949,2.211	c-0.809-0.279-1.683-0.432-2.597-0.431c-2.567,0.007-4.875,1.231-6.361,3.164C21.195,14.206,18.573,14.753,16.474,13.697z"/><path fill="#8d6c9f" fill-rule="evenodd" d="M23.995,36.039	l0.003-12.04c0-0.552,0.448-1,1-0.999c0.552,0,1,0.448,0.999,1l-0.003,12.04c0,0.552-0.448,1-1,0.999	C24.442,37.039,23.994,36.591,23.995,36.039z M54.963,28.006c-0.508-0.217-0.743-0.807-0.525-1.313	c1.439-3.353,1.331-7.313-0.636-10.704c-3.317-5.715-10.68-7.691-16.423-4.391l-11.381,6.539v1.865c0,0.552-0.448,1-1,0.999	c-0.552,0-1-0.448-0.999-1l0.001-2.445c0-0.357,0.191-0.688,0.501-0.867c3.96-2.275,7.92-4.549,11.881-6.825	c6.697-3.847,15.279-1.545,19.148,5.121c2.3,3.961,2.421,8.588,0.745,12.496C56.059,27.989,55.47,28.223,54.963,28.006z" clip-rule="evenodd"/><path fill="#8d6c9f" fill-rule="evenodd" d="M31.494,40.951	l-10.425-6.023c-0.477-0.276-0.641-0.888-0.365-1.367c0.276-0.477,0.888-0.641,1.367-0.365l10.425,6.023	c0.477,0.276,0.641,0.888,0.365,1.367C32.585,41.063,31.973,41.227,31.494,40.951z M17.606,32.929l-2.116-1.224	c-0.309-0.18-0.5-0.511-0.499-0.868c0.009-4.615,0.019-9.085,0.029-13.701c0.016-7.724,6.3-14.004,14.009-14.023	c4.58-0.011,8.648,2.197,11.193,5.603c0.331,0.443,0.24,1.069-0.201,1.4c-0.443,0.331-1.069,0.24-1.4-0.201	c-2.185-2.923-5.669-4.811-9.588-4.803c-6.608,0.016-11.999,5.405-12.015,12.028c-0.004,2.26-0.009,4.556-0.015,6.852l-0.015,6.271	l1.617,0.935c0.477,0.277,0.641,0.889,0.365,1.367C18.695,33.041,18.083,33.205,17.606,32.929z" clip-rule="evenodd"/><path fill="#8d6c9f" fill-rule="evenodd" d="M22.487,46.147	c-3.951-2.292-7.9-4.584-11.852-6.876c-6.68-3.876-8.979-12.459-5.139-19.144c2.281-3.972,6.228-6.391,10.449-6.892	c0.548-0.065,1.045,0.327,1.111,0.875c0.065,0.548-0.327,1.045-0.875,1.111c-3.624,0.432-7,2.504-8.951,5.903	c-3.291,5.731-1.32,13.095,4.408,16.419l11.351,6.587l15.511-8.949c0.477-0.276,1.089-0.112,1.365,0.367	c0.276,0.477,0.112,1.089-0.367,1.365l-16.011,9.237C23.179,46.327,22.797,46.327,22.487,46.147z" clip-rule="evenodd"/><path fill="#8d6c9f" fill-rule="evenodd" d="M8.466,49.015	c-2.3-3.961-2.421-8.588-0.745-12.496c0.217-0.508,0.807-0.743,1.313-0.525c0.508,0.217,0.743,0.807,0.525,1.313	c-1.439,3.353-1.331,7.313,0.636,10.704c2.175,3.748,6.092,5.892,10.157,5.987c2.125,0.051,4.289-0.46,6.265-1.596l11.38-6.537	v-1.867c0-0.551,0.448-1,1-1c0.551,0,1,0.449,1,1v2.445c0,0.359-0.192,0.689-0.503,0.868c-3.96,2.275-7.92,4.549-11.881,6.825	c-2.301,1.323-4.828,1.919-7.308,1.86C15.577,55.886,11.006,53.393,8.466,49.015z M37.999,39.999l0.004-12.039	c0-0.552,0.448-1,1-0.999c0.552,0,1,0.448,0.999,1l-0.004,12.039c0,0.552-0.448,1-1,0.999	C38.446,40.999,37.998,40.551,37.999,39.999z" clip-rule="evenodd"/><path fill="#8d6c9f" fill-rule="evenodd" d="M23.774,55.285	c-0.331-0.443-0.24-1.069,0.201-1.4c0.443-0.331,1.069-0.24,1.4,0.201c2.185,2.923,5.669,4.811,9.588,4.803	c6.608-0.016,11.999-5.405,12.015-12.028c0.004-2.26,0.008-4.555,0.013-6.851l0.015-6.271l-1.617-0.935	c-0.477-0.276-0.641-0.888-0.365-1.367c0.276-0.477,0.888-0.641,1.367-0.365l2.117,1.223c0.309,0.179,0.5,0.511,0.499,0.868	c-0.009,4.615-0.019,9.085-0.029,13.701c-0.016,7.724-6.3,14.004-14.009,14.023C30.387,60.898,26.319,58.69,23.774,55.285z M41.926,30.805l-10.425-6.024c-0.477-0.276-0.641-0.888-0.365-1.367c0.276-0.477,0.888-0.641,1.367-0.365l10.425,6.024	c0.477,0.276,0.641,0.888,0.365,1.367C43.017,30.917,42.405,31.081,41.926,30.805z" clip-rule="evenodd"/><path fill="#fff" d="M21.498,36.999l0.879,1.613l1.623,0.887l-1.623,0.879	l-0.879,1.621l-0.887-1.621l-1.612-0.879l1.612-0.887L21.498,36.999z"/><path fill="#fff" d="M10.499,20.999l1.24,2.26l2.26,1.24l-2.26,1.24l-1.24,2.26	l-1.24-2.26l-2.26-1.24l2.26-1.24L10.499,20.999z"/><path fill="#fff" d="M30.998,16.999l0.704,1.297l1.297,0.704l-1.297,0.703	l-0.704,1.296l-0.713-1.296l-1.285-0.703l1.285-0.704L30.998,16.999z"/></svg>