<?xml version="1.0" encoding="UTF-8"?>
<!DOCTYPE svg PUBLIC "-//W3C//DTD SVG 1.1//EN" "http://www.w3.org/Graphics/SVG/1.1/DTD/svg11.dtd">
<svg xmlns="http://www.w3.org/2000/svg" version="1.1" width="28px" height="28px" style="shape-rendering:geometricPrecision; text-rendering:geometricPrecision; image-rendering:optimizeQuality; fill-rule:evenodd; clip-rule:evenodd" xmlns:xlink="http://www.w3.org/1999/xlink">
<g><path style="opacity:0.703" fill="#218aff" d="M 21.5,12.5 C 17.1667,12.5 12.8333,12.5 8.5,12.5C 8.5,11.8333 8.16667,11.5 7.5,11.5C 7.5,11.1667 7.5,10.8333 7.5,10.5C 7.5,9.83333 7.16667,9.5 6.5,9.5C 3.98238,7.64343 3.98238,5.8101 6.5,4C 12.6564,2.76986 18.1564,3.93653 23,7.5C 23.64,9.54325 23.14,11.2099 21.5,12.5 Z"/></g>
<g><path style="opacity:0.832" fill="#fdfeff" d="M 6.5,9.5 C 7.16667,9.5 7.5,9.83333 7.5,10.5C 7.5,10.8333 7.5,11.1667 7.5,11.5C 8.16667,11.5 8.5,11.8333 8.5,12.5C 12.8333,12.5 17.1667,12.5 21.5,12.5C 25.6759,11.8307 27.0093,13.3307 25.5,17C 23.8659,17.4935 22.1992,17.6602 20.5,17.5C 19.9569,17.44 19.6236,17.1067 19.5,16.5C 20.325,15.6143 21.325,15.281 22.5,15.5C 23.8333,15.1667 23.8333,14.8333 22.5,14.5C 21.1667,14.5 19.8333,14.5 18.5,14.5C 18.1667,14.5 17.8333,14.5 17.5,14.5C 13.5,14.5 9.5,14.5 5.5,14.5C 1.32407,15.1693 -0.00925846,13.6693 1.5,10C 3.13414,9.50649 4.80081,9.33982 6.5,9.5 Z"/></g>
<g><path style="opacity:0.723" fill="#3594ff" d="M 5.5,14.5 C 9.5,14.5 13.5,14.5 17.5,14.5C 17.8333,15.8333 18.1667,15.8333 18.5,14.5C 19.8333,14.5 21.1667,14.5 22.5,14.5C 22.5,14.8333 22.5,15.1667 22.5,15.5C 21.325,15.281 20.325,15.6143 19.5,16.5C 19.6236,17.1067 19.9569,17.44 20.5,17.5C 23.0176,19.3566 23.0176,21.1899 20.5,23C 14.3436,24.2301 8.84356,23.0635 4,19.5C 3.36001,17.4567 3.86001,15.7901 5.5,14.5 Z"/></g>
</svg>
