<svg width="1971" height="558" viewBox="0 0 1971 558" fill="none" xmlns="http://www.w3.org/2000/svg">
<path d="M762.869 379.706C749.351 379.706 738.015 377.084 728.857 371.837C719.7 366.591 712.504 359.486 707.272 350.524V215.431C712.941 206.032 720.353 198.709 729.51 193.462C738.667 188.216 749.787 185.593 762.869 185.593C780.092 185.593 794.81 189.746 807.019 198.053C819.228 206.359 828.604 217.836 835.145 232.482C841.905 247.128 845.283 263.96 845.283 282.978C845.283 301.778 841.905 318.5 835.145 333.145C828.604 347.791 819.228 359.268 807.019 367.574C794.81 375.663 780.092 379.706 762.869 379.706ZM666.064 440.039V190.839H707.272V440.039H666.064ZM756.329 342.655C766.357 342.655 774.861 340.141 781.837 335.113C788.815 329.866 794.046 322.762 797.536 313.8C801.242 304.619 803.095 294.344 803.095 282.978C803.095 271.392 801.242 261.009 797.536 251.828C794.046 242.647 788.815 235.542 781.837 230.514C774.861 225.268 766.357 222.645 756.329 222.645C745.209 222.645 736.052 225.377 728.857 230.842C721.662 236.089 716.211 243.302 712.504 252.483C709.016 261.446 707.272 271.61 707.272 282.978C707.272 294.126 709.016 304.291 712.504 313.472C716.211 322.435 721.662 329.539 728.857 334.784C736.052 340.031 745.209 342.655 756.329 342.655Z" fill="white"/>
<path d="M948.752 379.746C930.122 379.746 913.768 375.702 899.688 367.611C885.826 359.303 874.994 347.825 867.197 333.175C859.614 318.528 855.824 301.801 855.824 282.998C855.824 263.976 859.614 247.14 867.197 232.491C874.994 217.843 885.826 206.364 899.688 198.055C913.768 189.747 930.232 185.593 949.077 185.593C967.706 185.593 983.952 189.747 997.816 198.055C1011.68 206.364 1022.4 217.843 1029.98 232.491C1037.78 247.14 1041.68 263.976 1041.68 282.998C1041.68 301.801 1037.78 318.528 1029.98 333.175C1022.4 347.825 1011.68 359.303 997.816 367.611C983.952 375.702 967.597 379.746 948.752 379.746ZM949.077 342.687C960.124 342.687 969.438 340.173 977.021 335.144C984.602 329.896 990.342 322.79 994.241 313.826C998.141 304.643 1000.09 294.367 1000.09 282.998C1000.09 271.409 998.141 261.024 994.241 251.841C990.342 242.658 984.602 235.552 977.021 230.524C969.438 225.276 960.124 222.653 949.077 222.653C937.813 222.653 928.39 225.276 920.808 230.524C913.227 235.552 907.487 242.658 903.588 251.841C899.688 261.024 897.739 271.409 897.739 282.998C897.739 294.367 899.688 304.643 903.588 313.826C907.487 322.79 913.227 329.896 920.808 335.144C928.39 340.173 937.813 342.687 949.077 342.687Z" fill="white"/>
<path d="M1268.68 379.703C1255.21 379.703 1243.9 377.081 1234.78 371.834C1225.65 366.588 1218.47 359.483 1213.26 350.521V215.428C1218.91 206.029 1226.3 198.706 1235.43 193.459C1244.56 188.213 1255.64 185.59 1268.68 185.59C1285.85 185.59 1300.52 189.743 1312.7 198.05C1324.87 206.356 1334.22 217.833 1340.74 232.479C1347.47 247.125 1350.84 263.957 1350.84 282.975C1350.84 301.775 1347.47 318.497 1340.74 333.142C1334.22 347.788 1324.87 359.265 1312.7 367.571C1300.52 375.66 1285.85 379.703 1268.68 379.703ZM1172.18 440.036V190.836H1213.26V440.036H1172.18ZM1262.16 342.652C1272.16 342.652 1280.64 340.138 1287.59 335.11C1294.55 329.864 1299.76 322.759 1303.24 313.797C1306.94 304.616 1308.78 294.341 1308.78 282.975C1308.78 271.389 1306.94 261.006 1303.24 251.825C1299.76 242.644 1294.55 235.539 1287.59 230.511C1280.64 225.265 1272.16 222.642 1262.16 222.642C1251.08 222.642 1241.95 225.374 1234.78 230.839C1227.6 236.086 1222.17 243.299 1218.47 252.48C1215 261.443 1213.26 271.607 1213.26 282.975C1213.26 294.123 1215 304.289 1218.47 313.47C1222.17 322.432 1227.6 329.536 1234.78 334.781C1241.95 340.028 1251.08 342.652 1262.16 342.652Z" fill="white"/>
<path d="M1800.25 379.704C1813.73 379.704 1825.03 377.082 1834.16 371.835C1843.29 366.589 1850.46 359.484 1855.68 350.522V215.429C1850.03 206.03 1842.64 198.707 1833.51 193.46C1824.38 188.214 1813.3 185.591 1800.25 185.591C1783.08 185.591 1768.41 189.744 1756.24 198.051C1744.07 206.357 1734.72 217.834 1728.2 232.48C1721.46 247.126 1718.09 263.958 1718.09 282.976C1718.09 301.776 1721.46 318.498 1728.2 333.143C1734.72 347.789 1744.07 359.266 1756.24 367.572C1768.41 375.661 1783.08 379.704 1800.25 379.704ZM1896.76 379.704V190.837H1855.68V379.704H1896.76ZM1806.78 342.653C1796.78 342.653 1788.3 340.139 1781.35 335.111C1774.39 329.865 1769.17 322.76 1765.7 313.798C1762 304.617 1760.15 294.342 1760.15 282.976C1760.15 271.39 1762 261.007 1765.7 251.826C1769.17 242.645 1774.39 235.54 1781.35 230.512C1788.3 225.266 1796.78 222.643 1806.78 222.643C1817.86 222.643 1826.99 225.375 1834.16 230.84C1841.34 236.087 1846.77 243.3 1850.46 252.481C1853.94 261.444 1855.68 271.608 1855.68 282.976C1855.68 294.124 1853.94 304.289 1850.46 313.471C1846.77 322.433 1841.34 329.537 1834.16 334.782C1826.99 340.029 1817.86 342.653 1806.78 342.653Z" fill="white"/>
<path d="M1380.33 191.422H1420.26V374.212H1380.33V191.422ZM1368.52 126.792L1412.27 117L1422.17 161.718L1378.42 171.837L1368.52 126.792Z" fill="white"/>
<path d="M1928.22 191.422H1968.14V374.212H1928.22V191.422ZM1916.41 126.792L1960.16 117L1970.06 161.718L1926.31 171.837L1916.41 126.792Z" fill="white"/>
<path d="M1483.19 296.441V262.661H1590.34L1575.68 272.173C1576.55 263.864 1575.47 255.992 1572.43 248.559C1569.6 240.906 1564.93 234.675 1558.42 229.865C1551.91 225.055 1543.44 222.65 1533.02 222.65C1518.9 222.65 1507.07 227.132 1497.52 236.096C1487.96 245.06 1483.19 257.96 1483.19 274.796H1439.87C1441.17 255.774 1446.06 239.704 1454.52 226.585C1463.21 213.248 1474.28 203.081 1487.75 196.085C1501.43 189.088 1516.52 185.59 1533.02 185.59C1545.39 185.59 1557.01 188.104 1567.87 193.133C1578.94 197.943 1588.38 205.158 1596.2 214.779C1604.24 224.18 1610.1 235.768 1613.79 249.543C1617.7 263.317 1618.46 278.95 1616.07 296.441H1483.19ZM1533.02 379.743C1515.86 379.743 1500.66 376.245 1487.42 369.25C1474.17 362.252 1463.53 352.523 1455.5 340.06C1447.47 327.598 1442.47 313.058 1440.52 296.441H1483.19C1484.92 309.996 1489.81 321.148 1497.84 329.893C1505.88 338.42 1517.6 342.684 1533.02 342.684C1543.87 342.684 1552.56 340.17 1559.07 335.141C1565.8 329.893 1570.58 323.552 1573.4 316.119H1616.39C1613.79 328.8 1608.69 339.951 1601.09 349.571C1593.49 358.973 1583.93 366.406 1572.43 371.873C1560.92 377.12 1547.78 379.743 1533.02 379.743Z" fill="white"/>
<path d="M1152.58 373.772V339.179H1111.65V226.384H1147.46V191.304H1111.65V117.244H1071.45V191.304H1047.34V226.384H1071.45V373.772H1152.58Z" fill="white"/>
<path d="M1690.76 324.667L1647 334.459L1656.9 379.504L1700.66 369.385L1690.76 324.667Z" fill="white"/>
<path fill-rule="evenodd" clip-rule="evenodd" d="M223.5 23.9477C255.682 -7.98253 307.562 -7.98253 339.746 23.9477C356.897 40.963 380.639 49.6089 404.707 47.6077C442.389 44.468 476.298 67.1884 488.905 101.031L305.884 205.457L291.055 214.08C278.177 221.576 270.168 235.264 269.953 250.168L268.885 323.812L268.885 345.616C268.885 361.315 277.489 375.809 291.378 383.295L459.122 473.702C444.558 482.037 432.72 494.709 425.424 510.187C406.095 551.206 357.34 568.962 316.191 549.976C294.255 539.851 268.991 539.851 247.055 549.976C205.904 568.962 157.149 551.206 137.82 510.187C127.519 488.327 108.165 472.076 84.8615 465.72C41.1399 453.799 15.1994 408.835 26.7392 364.975C32.8893 341.601 28.5028 316.702 14.7322 296.847C-11.0977 259.587 -2.08966 208.464 34.9181 182.294C54.6449 168.341 67.2767 146.45 69.485 122.381C73.6312 77.2271 113.375 43.8487 158.537 47.6077C182.606 49.6089 206.346 40.963 223.5 23.9477Z" fill="#93DB50"/>
<path fill-rule="evenodd" clip-rule="evenodd" d="M321.559 240.2L321.896 239.536L322.228 239.017C321.958 239.392 321.729 239.779 321.559 240.2ZM500.07 419.07C503.03 420.673 504.511 421.476 505.294 422.797C505.935 423.876 506.211 425.409 505.988 426.644C505.712 428.155 504.714 429.301 502.715 431.59C499.59 435.17 496.147 438.496 492.414 441.512C490.476 443.079 489.509 443.863 488.098 444.339C486.958 444.727 485.416 444.872 484.226 444.702C482.751 444.49 481.48 443.804 478.937 442.435L308.832 350.816C306.892 349.765 305.682 347.732 305.682 345.521L305.682 323.717C305.682 319.173 310.524 316.276 314.517 318.434L500.07 419.07Z" fill="#93DB50"/>
<path fill-rule="evenodd" clip-rule="evenodd" d="M499.257 156.401C501.763 149.421 503.018 145.931 502.22 143.959C501.529 142.251 500.037 140.994 498.239 140.601C496.159 140.148 492.931 141.972 486.474 145.619L324.119 237.319C323.336 237.773 322.711 238.348 322.229 239.011L321.897 239.531L321.56 240.194C321.184 241.101 321.036 242.085 321.114 243.035L321.142 243.312C321.373 245.147 322.435 246.883 324.315 247.867L496.918 345.376C500.146 347.202 501.76 348.113 502.8 347.885C503.701 347.69 504.445 347.062 504.791 346.206C505.189 345.222 504.562 343.477 503.31 339.987L469.415 245.563C469.013 244.446 468.813 243.888 468.734 243.315C468.665 242.807 468.665 242.291 468.734 241.783C468.813 241.209 469.013 240.651 469.415 239.534L499.257 156.401Z" fill="#93DB50"/>
</svg>
