<svg width="885" height="327" viewBox="0 0 885 327" fill="none" xmlns="http://www.w3.org/2000/svg">
<path d="M174.556 180.705C172.078 180.705 170 180.224 168.322 179.262C166.643 178.301 165.325 176.998 164.365 175.356V150.593C165.405 148.87 166.763 147.528 168.442 146.566C170.12 145.605 172.159 145.124 174.556 145.124C177.713 145.124 180.411 145.885 182.649 147.408C184.887 148.931 186.606 151.034 187.805 153.719C189.043 156.403 189.663 159.489 189.663 162.975C189.663 166.42 189.043 169.486 187.805 172.17C186.606 174.855 184.887 176.958 182.649 178.481C180.411 179.964 177.713 180.705 174.556 180.705ZM156.812 191.764V146.086H164.365V191.764H156.812ZM173.357 173.913C175.195 173.913 176.755 173.452 178.033 172.531C179.312 171.569 180.271 170.267 180.911 168.624C181.59 166.941 181.93 165.058 181.93 162.975C181.93 160.851 181.59 158.948 180.911 157.265C180.271 155.582 179.312 154.28 178.033 153.358C176.755 152.396 175.195 151.916 173.357 151.916C171.319 151.916 169.641 152.416 168.322 153.418C167.003 154.38 166.004 155.702 165.325 157.385C164.685 159.028 164.365 160.891 164.365 162.975C164.365 165.018 164.685 166.881 165.325 168.564C166.004 170.207 167.003 171.509 168.322 172.471C169.641 173.432 171.319 173.913 173.357 173.913Z" fill="white"/>
<path d="M208.627 180.712C205.213 180.712 202.215 179.971 199.634 178.488C197.093 176.965 195.108 174.861 193.679 172.176C192.289 169.491 191.594 166.425 191.594 162.978C191.594 159.492 192.289 156.406 193.679 153.72C195.108 151.035 197.093 148.931 199.634 147.408C202.215 145.886 205.233 145.124 208.687 145.124C212.102 145.124 215.08 145.886 217.621 147.408C220.162 148.931 222.128 151.035 223.517 153.72C224.946 156.406 225.661 159.492 225.661 162.978C225.661 166.425 224.946 169.491 223.517 172.176C222.128 174.861 220.162 176.965 217.621 178.488C215.08 179.971 212.082 180.712 208.627 180.712ZM208.687 173.919C210.712 173.919 212.419 173.458 213.809 172.536C215.199 171.575 216.251 170.272 216.966 168.629C217.681 166.946 218.038 165.062 218.038 162.978C218.038 160.854 217.681 158.95 216.966 157.267C216.251 155.584 215.199 154.282 213.809 153.36C212.419 152.398 210.712 151.917 208.687 151.917C206.623 151.917 204.896 152.398 203.506 153.36C202.116 154.282 201.064 155.584 200.349 157.267C199.634 158.95 199.277 160.854 199.277 162.978C199.277 165.062 199.634 166.946 200.349 168.629C201.064 170.272 202.116 171.575 203.506 172.536C204.896 173.458 206.623 173.919 208.687 173.919Z" fill="white"/>
<path d="M267.267 180.705C264.797 180.705 262.726 180.224 261.052 179.262C259.379 178.301 258.064 176.998 257.108 175.356V150.593C258.144 148.87 259.499 147.528 261.172 146.566C262.845 145.605 264.877 145.124 267.267 145.124C270.415 145.124 273.104 145.885 275.335 147.408C277.567 148.93 279.279 151.034 280.475 153.719C281.71 156.403 282.327 159.489 282.327 162.975C282.327 166.42 281.71 169.486 280.475 172.17C279.279 174.855 277.567 176.958 275.335 178.481C273.104 179.964 270.415 180.705 267.267 180.705ZM249.578 191.764V146.086H257.108V191.764H249.578ZM266.072 173.913C267.905 173.913 269.459 173.452 270.733 172.531C272.009 171.569 272.965 170.267 273.602 168.624C274.28 166.941 274.618 165.058 274.618 162.975C274.618 160.851 274.28 158.948 273.602 157.265C272.965 155.582 272.009 154.28 270.733 153.358C269.459 152.396 267.905 151.916 266.072 151.916C264.04 151.916 262.367 152.416 261.052 153.418C259.737 154.38 258.742 155.702 258.064 157.385C257.427 159.028 257.108 160.891 257.108 162.975C257.108 165.018 257.427 166.881 258.064 168.564C258.742 170.207 259.737 171.509 261.052 172.471C262.367 173.432 264.04 173.913 266.072 173.913Z" fill="white"/>
<path d="M364.71 180.705C367.18 180.705 369.252 180.224 370.925 179.262C372.598 178.301 373.913 176.998 374.869 175.356V150.593C373.833 148.87 372.479 147.528 370.806 146.566C369.132 145.605 367.101 145.124 364.71 145.124C361.563 145.124 358.873 145.885 356.642 147.408C354.411 148.931 352.698 151.034 351.503 153.719C350.268 156.403 349.65 159.489 349.65 162.975C349.65 166.42 350.268 169.486 351.503 172.17C352.698 174.855 354.411 176.958 356.642 178.481C358.873 179.964 361.563 180.705 364.71 180.705ZM382.399 180.705V146.086H374.869V180.705H382.399ZM365.905 173.913C364.072 173.913 362.519 173.452 361.244 172.531C359.969 171.569 359.013 170.267 358.376 168.624C357.698 166.941 357.359 165.058 357.359 162.975C357.359 160.851 357.698 158.948 358.376 157.265C359.013 155.582 359.969 154.28 361.244 153.358C362.519 152.396 364.072 151.916 365.905 151.916C367.937 151.916 369.61 152.416 370.925 153.418C372.24 154.38 373.236 155.702 373.913 157.385C374.551 159.028 374.869 160.891 374.869 162.975C374.869 165.018 374.551 166.881 373.913 168.564C373.236 170.207 372.24 171.509 370.925 172.471C369.61 173.432 367.937 173.913 365.905 173.913Z" fill="white"/>
<path d="M287.741 146.193H295.059V179.698H287.741V146.193ZM285.575 134.346L293.595 132.551L295.41 140.748L287.39 142.603L285.575 134.346Z" fill="white"/>
<path d="M388.162 146.193H395.479V179.698H388.162V146.193ZM385.996 134.346L394.016 132.551L395.83 140.748L387.81 142.603L385.996 134.346Z" fill="white"/>
<path d="M306.591 165.443V159.251H326.231L323.545 160.995C323.704 159.471 323.505 158.029 322.948 156.666C322.431 155.263 321.575 154.121 320.381 153.24C319.187 152.358 317.635 151.917 315.724 151.917C313.137 151.917 310.968 152.739 309.217 154.382C307.466 156.025 306.591 158.389 306.591 161.475H298.651C298.889 157.989 299.785 155.043 301.337 152.638C302.929 150.194 304.959 148.33 307.426 147.048C309.934 145.765 312.7 145.124 315.724 145.124C317.993 145.124 320.122 145.585 322.112 146.507C324.142 147.388 325.873 148.711 327.306 150.474C328.779 152.198 329.853 154.322 330.53 156.846C331.246 159.371 331.385 162.237 330.948 165.443H306.591ZM315.724 180.712C312.58 180.712 309.794 180.071 307.366 178.789C304.939 177.506 302.988 175.723 301.516 173.438C300.043 171.154 299.128 168.489 298.77 165.443H306.591C306.909 167.928 307.804 169.972 309.277 171.575C310.749 173.138 312.899 173.919 315.724 173.919C317.714 173.919 319.306 173.458 320.5 172.536C321.734 171.575 322.61 170.412 323.127 169.05H331.007C330.53 171.374 329.594 173.418 328.201 175.182C326.809 176.905 325.058 178.267 322.948 179.269C320.838 180.231 318.431 180.712 315.724 180.712Z" fill="white"/>
<path d="M245.991 179.616V173.275H238.489V152.6H245.053V146.17H238.489V132.595H231.121V146.17H226.7V152.6H231.121V179.616H245.991Z" fill="white"/>
<path d="M344.636 170.616L336.616 172.411L338.43 180.667L346.45 178.813L344.636 170.616Z" fill="white"/>
<path fill-rule="evenodd" clip-rule="evenodd" d="M113.35 134.609C116.856 131.13 122.508 131.13 126.014 134.609C127.883 136.463 130.469 137.405 133.091 137.187C137.197 136.845 140.891 139.32 142.264 143.007L122.325 154.384L120.709 155.323C119.306 156.14 118.434 157.631 118.41 159.255L118.294 167.278V169.654C118.294 171.364 119.231 172.943 120.745 173.759L139.02 183.608C137.433 184.516 136.143 185.897 135.348 187.583C133.243 192.052 127.931 193.986 123.448 191.918C121.058 190.815 118.306 190.815 115.916 191.918C111.433 193.986 106.121 192.052 104.015 187.583C102.893 185.201 100.784 183.431 98.2453 182.738C93.482 181.44 90.6559 176.541 91.9131 171.763C92.5832 169.216 92.1053 166.504 90.605 164.34C87.7909 160.281 88.7723 154.711 92.8042 151.86C94.9534 150.34 96.3296 147.955 96.5702 145.333C97.0219 140.414 101.352 136.777 106.272 137.187C108.894 137.405 111.481 136.463 113.35 134.609Z" fill="#B6E343"/>
<path fill-rule="evenodd" clip-rule="evenodd" d="M124.031 158.169L124.067 158.097L124.104 158.04C124.074 158.081 124.049 158.123 124.031 158.169ZM143.479 177.656C143.801 177.831 143.963 177.918 144.048 178.062C144.118 178.18 144.148 178.347 144.124 178.481C144.094 178.646 143.985 178.771 143.767 179.02C143.426 179.41 143.051 179.773 142.645 180.101C142.434 180.272 142.328 180.357 142.174 180.409C142.05 180.451 141.882 180.467 141.753 180.449C141.592 180.426 141.453 180.351 141.176 180.202L122.644 170.22C122.433 170.106 122.301 169.884 122.301 169.643V167.268C122.301 166.773 122.828 166.457 123.263 166.692L143.479 177.656Z" fill="#B6E343"/>
<path fill-rule="evenodd" clip-rule="evenodd" d="M143.392 149.04C143.665 148.28 143.801 147.899 143.715 147.685C143.639 147.498 143.477 147.361 143.281 147.319C143.054 147.269 142.703 147.468 141.999 147.865L124.311 157.856C124.226 157.905 124.158 157.968 124.105 158.04L124.069 158.097L124.032 158.169C123.991 158.268 123.975 158.375 123.984 158.479L123.987 158.509C124.012 158.709 124.128 158.898 124.332 159.005L143.137 169.628C143.489 169.827 143.665 169.926 143.778 169.901C143.876 169.88 143.957 169.812 143.995 169.719C144.038 169.611 143.97 169.421 143.833 169.041L140.141 158.754C140.097 158.632 140.075 158.571 140.066 158.509C140.059 158.454 140.059 158.397 140.066 158.342C140.075 158.28 140.097 158.219 140.141 158.097L143.392 149.04Z" fill="#B6E343"/>
<path d="M503.475 136L509.198 119.377H511.882L517.605 136H515.729L513.876 130.633H507.203L505.351 136H503.475ZM507.797 128.899H513.283L510.552 120.944L507.797 128.899ZM524.536 141.129C521.734 141.129 519.383 139.443 519.383 137.449L521.235 137.211C521.235 138.399 522.731 139.396 524.536 139.396C526.792 139.396 528.193 137.9 528.193 135.549V133.886C527.552 135.43 526.151 136.38 524.299 136.38C521.235 136.38 519.027 133.744 519.027 130.063C519.027 126.358 521.212 123.746 524.299 123.746C526.151 123.746 527.552 124.696 528.193 126.24V124.126H529.974V135.549C529.974 138.897 527.813 141.129 524.536 141.129ZM520.879 130.063C520.879 132.794 522.351 134.646 524.536 134.646C526.721 134.646 528.193 132.794 528.193 130.063C528.193 127.332 526.721 125.48 524.536 125.48C522.351 125.48 520.879 127.332 520.879 130.063ZM538.222 136.38C534.873 136.38 532.594 133.839 532.594 130.063C532.594 126.335 534.802 123.746 537.984 123.746C541.19 123.746 543.304 126.264 543.304 130.111V130.538H534.446C534.446 132.96 535.989 134.646 538.174 134.646C539.789 134.646 541.048 133.744 541.38 132.343L543.232 132.58C542.757 134.884 540.763 136.38 538.222 136.38ZM534.446 128.923H541.451C541.451 126.81 540.098 125.48 537.96 125.48C535.823 125.48 534.446 126.81 534.446 128.923ZM553.595 128.425C553.595 126.548 552.693 125.48 551.149 125.48C549.059 125.48 547.587 127.451 547.587 130.229V136H545.806V124.126H547.587V126.24C548.252 124.744 549.819 123.746 551.743 123.746C554.07 123.746 555.376 125.195 555.376 127.712V136H553.595V128.425ZM563.165 136C560.932 136 559.84 134.908 559.84 132.675V125.86H557.275V124.126H559.84V120.327H561.621V124.126H565.183V125.86H561.621V132.842C561.621 133.791 562.096 134.266 563.046 134.266H565.183V136H563.165ZM572.113 136.38C569.168 136.38 566.96 134.48 566.96 131.963L568.693 131.725C568.693 133.435 570.166 134.646 572.208 134.646C573.942 134.646 575.153 133.768 575.153 132.509C575.153 129.161 567.577 132.153 567.577 127.261C567.577 125.29 569.548 123.746 572.089 123.746C574.583 123.746 576.506 125.219 576.506 127.166L574.773 127.403C574.773 126.264 573.633 125.48 572.018 125.48C570.474 125.48 569.429 126.192 569.429 127.261C569.429 130.253 577.005 127.213 577.005 132.509C577.005 134.694 574.868 136.38 572.113 136.38ZM587.046 122.464C587.046 120.232 588.138 119.139 590.37 119.139H592.389V120.873H590.252C589.302 120.873 588.827 121.348 588.827 122.298V124.126H592.389V125.86H588.827V136H587.046V125.86H584.481V124.126H587.046V122.464ZM598.935 136.38C595.61 136.38 593.331 133.815 593.331 130.111C593.331 126.382 595.634 123.746 598.935 123.746C602.212 123.746 604.516 126.358 604.516 130.111C604.516 133.839 602.236 136.38 598.935 136.38ZM595.183 130.111C595.183 132.842 596.679 134.646 598.935 134.646C601.191 134.646 602.687 132.842 602.687 130.111C602.687 127.332 601.167 125.48 598.935 125.48C596.703 125.48 595.183 127.332 595.183 130.111ZM607.123 136V124.126H608.904V127.261C609.284 125.266 610.21 124.126 611.54 124.126H613.725V125.86H611.777C609.877 125.86 608.904 127.475 608.904 130.586V136H607.123ZM509.673 196.38C506.348 196.38 504.069 193.815 504.069 190.111C504.069 186.382 506.372 183.746 509.673 183.746C512.95 183.746 515.254 186.358 515.254 190.111C515.254 193.839 512.974 196.38 509.673 196.38ZM505.921 190.111C505.921 192.842 507.417 194.646 509.673 194.646C511.929 194.646 513.425 192.842 513.425 190.111C513.425 187.332 511.905 185.48 509.673 185.48C507.441 185.48 505.921 187.332 505.921 190.111ZM525.65 188.425C525.65 186.548 524.748 185.48 523.204 185.48C521.114 185.48 519.642 187.451 519.642 190.229V196H517.861V184.126H519.642V186.24C520.307 184.744 521.874 183.746 523.798 183.746C526.125 183.746 527.431 185.195 527.431 187.712V196H525.65V188.425ZM536.808 196V179.139H538.589V196H536.808ZM545.398 196.38C543.118 196.38 541.432 194.789 541.432 192.628C541.432 190.348 543.403 188.852 546.633 188.71C548.699 188.615 549.577 187.997 549.316 186.857C549.103 185.931 548.295 185.48 546.894 185.48C544.852 185.48 543.474 186.477 543.474 187.973L541.741 187.736C541.741 185.361 543.759 183.746 546.775 183.746C549.672 183.746 551.192 185.242 551.192 188.14V196H549.411V193.388C548.841 195.193 547.345 196.38 545.398 196.38ZM543.284 192.604C543.284 193.839 544.234 194.646 545.683 194.646C547.844 194.646 549.411 192.794 549.411 190.229V189.398C548.96 189.944 548.058 190.253 546.752 190.301C544.543 190.372 543.284 191.203 543.284 192.604ZM554.294 196V184.126H556.075V187.261C556.455 185.266 557.381 184.126 558.711 184.126H560.896V185.86H558.948C557.048 185.86 556.075 187.475 556.075 190.586V196H554.294ZM567.347 201.129C564.545 201.129 562.194 199.443 562.194 197.449L564.046 197.211C564.046 198.399 565.542 199.396 567.347 199.396C569.603 199.396 571.004 197.9 571.004 195.549V193.886C570.363 195.43 568.962 196.38 567.109 196.38C564.046 196.38 561.837 193.744 561.837 190.063C561.837 186.358 564.022 183.746 567.109 183.746C568.962 183.746 570.363 184.696 571.004 186.24V184.126H572.785V195.549C572.785 198.897 570.624 201.129 567.347 201.129ZM563.69 190.063C563.69 192.794 565.162 194.646 567.347 194.646C569.532 194.646 571.004 192.794 571.004 190.063C571.004 187.332 569.532 185.48 567.347 185.48C565.162 185.48 563.69 187.332 563.69 190.063ZM581.032 196.38C577.684 196.38 575.404 193.839 575.404 190.063C575.404 186.335 577.613 183.746 580.795 183.746C584.001 183.746 586.114 186.264 586.114 190.111V190.538H577.256C577.256 192.96 578.8 194.646 580.985 194.646C582.6 194.646 583.858 193.744 584.191 192.343L586.043 192.58C585.568 194.884 583.573 196.38 581.032 196.38ZM577.256 188.923H584.262C584.262 186.81 582.908 185.48 580.771 185.48C578.634 185.48 577.256 186.81 577.256 188.923ZM599.677 196.38C596.376 196.38 594.073 193.791 594.073 190.111C594.073 186.382 596.4 183.746 599.677 183.746C602.479 183.746 604.664 185.741 604.902 188.472L603.049 188.71C602.907 186.762 601.553 185.48 599.677 185.48C597.421 185.48 595.925 187.332 595.925 190.111C595.925 192.889 597.374 194.646 599.677 194.646C601.577 194.646 602.907 193.435 603.049 191.559L604.902 191.797C604.664 194.48 602.503 196.38 599.677 196.38ZM612.641 196.38C609.316 196.38 607.037 193.815 607.037 190.111C607.037 186.382 609.34 183.746 612.641 183.746C615.918 183.746 618.222 186.358 618.222 190.111C618.222 193.839 615.942 196.38 612.641 196.38ZM608.889 190.111C608.889 192.842 610.385 194.646 612.641 194.646C614.897 194.646 616.393 192.842 616.393 190.111C616.393 187.332 614.873 185.48 612.641 185.48C610.409 185.48 608.889 187.332 608.889 190.111ZM625.62 196.38C622.557 196.38 620.348 193.744 620.348 190.063C620.348 186.358 622.533 183.746 625.62 183.746C627.472 183.746 628.873 184.696 629.515 186.24V179.377H631.296V196H629.515V193.886C628.873 195.43 627.472 196.38 625.62 196.38ZM622.2 190.063C622.2 192.794 623.673 194.646 625.858 194.646C628.042 194.646 629.515 192.794 629.515 190.063C629.515 187.332 628.042 185.48 625.858 185.48C623.673 185.48 622.2 187.332 622.2 190.063ZM639.659 196.38C636.311 196.38 634.031 193.839 634.031 190.063C634.031 186.335 636.239 183.746 639.421 183.746C642.627 183.746 644.741 186.264 644.741 190.111V190.538H635.883C635.883 192.96 637.427 194.646 639.611 194.646C641.226 194.646 642.485 193.744 642.817 192.343L644.67 192.58C644.195 194.884 642.2 196.38 639.659 196.38ZM635.883 188.923H642.889C642.889 186.81 641.535 185.48 639.398 185.48C637.26 185.48 635.883 186.81 635.883 188.923ZM653.035 196.38C651.182 196.38 649.781 195.43 649.14 193.886V196H647.359V179.377H649.14V186.24C649.781 184.696 651.182 183.746 653.035 183.746C656.122 183.746 658.307 186.382 658.307 190.063C658.307 193.744 656.122 196.38 653.035 196.38ZM649.14 190.063C649.14 192.794 650.612 194.646 652.797 194.646C654.982 194.646 656.454 192.794 656.454 190.063C656.454 187.332 654.982 185.48 652.797 185.48C650.612 185.48 649.14 187.332 649.14 190.063ZM664.53 196.38C662.25 196.38 660.564 194.789 660.564 192.628C660.564 190.348 662.535 188.852 665.765 188.71C667.831 188.615 668.709 187.997 668.448 186.857C668.234 185.931 667.427 185.48 666.026 185.48C663.984 185.48 662.606 186.477 662.606 187.973L660.873 187.736C660.873 185.361 662.891 183.746 665.907 183.746C668.804 183.746 670.324 185.242 670.324 188.14V196H668.543V193.388C667.973 195.193 666.477 196.38 664.53 196.38ZM662.416 192.604C662.416 193.839 663.366 194.646 664.815 194.646C666.976 194.646 668.543 192.794 668.543 190.229V189.398C668.092 189.944 667.19 190.253 665.883 190.301C663.675 190.372 662.416 191.203 662.416 192.604ZM677.98 196.38C675.035 196.38 672.826 194.48 672.826 191.963L674.56 191.725C674.56 193.435 676.032 194.646 678.075 194.646C679.808 194.646 681.019 193.768 681.019 192.509C681.019 189.161 673.444 192.153 673.444 187.261C673.444 185.29 675.415 183.746 677.956 183.746C680.449 183.746 682.373 185.219 682.373 187.166L680.639 187.403C680.639 186.264 679.5 185.48 677.885 185.48C676.341 185.48 675.296 186.192 675.296 187.261C675.296 190.253 682.872 187.213 682.872 192.509C682.872 194.694 680.734 196.38 677.98 196.38ZM690.517 196.38C687.168 196.38 684.889 193.839 684.889 190.063C684.889 186.335 687.097 183.746 690.279 183.746C693.485 183.746 695.599 186.264 695.599 190.111V190.538H686.741C686.741 192.96 688.284 194.646 690.469 194.646C692.084 194.646 693.343 193.744 693.675 192.343L695.527 192.58C695.053 194.884 693.058 196.38 690.517 196.38ZM686.741 188.923H693.746C693.746 186.81 692.393 185.48 690.256 185.48C688.118 185.48 686.741 186.81 686.741 188.923ZM702.655 196.38C699.71 196.38 697.502 194.48 697.502 191.963L699.235 191.725C699.235 193.435 700.708 194.646 702.75 194.646C704.483 194.646 705.695 193.768 705.695 192.509C705.695 189.161 698.119 192.153 698.119 187.261C698.119 185.29 700.09 183.746 702.631 183.746C705.125 183.746 707.048 185.219 707.048 187.166L705.315 187.403C705.315 186.264 704.175 185.48 702.56 185.48C701.016 185.48 699.971 186.192 699.971 187.261C699.971 190.253 707.547 187.213 707.547 192.509C707.547 194.694 705.41 196.38 702.655 196.38Z" fill="white"/>
<path d="M509.103 166.38C506.158 166.38 503.95 164.48 503.95 161.963L505.683 161.725C505.683 163.435 507.156 164.646 509.198 164.646C510.932 164.646 512.143 163.768 512.143 162.509C512.143 159.161 504.567 162.153 504.567 157.261C504.567 155.29 506.538 153.746 509.079 153.746C511.573 153.746 513.496 155.219 513.496 157.166L511.763 157.403C511.763 156.264 510.623 155.48 509.008 155.48C507.465 155.48 506.42 156.192 506.42 157.261C506.42 160.253 513.995 157.213 513.995 162.509C513.995 164.694 511.858 166.38 509.103 166.38ZM522.4 166.38C520.548 166.38 519.147 165.43 518.505 163.886V170.75H516.724V154.126H518.505V156.24C519.147 154.696 520.548 153.746 522.4 153.746C525.487 153.746 527.672 156.382 527.672 160.063C527.672 163.744 525.487 166.38 522.4 166.38ZM518.505 160.063C518.505 162.794 519.978 164.646 522.163 164.646C524.347 164.646 525.82 162.794 525.82 160.063C525.82 157.332 524.347 155.48 522.163 155.48C519.978 155.48 518.505 157.332 518.505 160.063ZM535.439 166.38C532.09 166.38 529.811 163.839 529.811 160.063C529.811 156.335 532.019 153.746 535.201 153.746C538.407 153.746 540.521 156.264 540.521 160.111V160.538H531.663C531.663 162.96 533.207 164.646 535.391 164.646C537.006 164.646 538.265 163.744 538.597 162.343L540.45 162.58C539.975 164.884 537.98 166.38 535.439 166.38ZM531.663 158.923H538.668C538.668 156.81 537.315 155.48 535.178 155.48C533.04 155.48 531.663 156.81 531.663 158.923ZM548.147 166.38C544.846 166.38 542.542 163.791 542.542 160.111C542.542 156.382 544.87 153.746 548.147 153.746C550.949 153.746 553.134 155.741 553.371 158.472L551.519 158.71C551.377 156.762 550.023 155.48 548.147 155.48C545.891 155.48 544.395 157.332 544.395 160.111C544.395 162.889 545.843 164.646 548.147 164.646C550.047 164.646 551.377 163.435 551.519 161.559L553.371 161.797C553.134 164.48 550.973 166.38 548.147 166.38ZM566.715 166.38C563.652 166.38 561.443 163.744 561.443 160.063C561.443 156.358 563.628 153.746 566.715 153.746C568.567 153.746 569.968 154.696 570.61 156.24V149.377H572.391V166H570.61V163.886C569.968 165.43 568.567 166.38 566.715 166.38ZM563.295 160.063C563.295 162.794 564.768 164.646 566.953 164.646C569.137 164.646 570.61 162.794 570.61 160.063C570.61 157.332 569.137 155.48 566.953 155.48C564.768 155.48 563.295 157.332 563.295 160.063ZM575.954 166V154.126H577.735V157.261C578.115 155.266 579.041 154.126 580.371 154.126H582.556V155.86H580.609C578.709 155.86 577.735 157.475 577.735 160.586V166H575.954ZM584.819 166V154.126H586.6V166H584.819ZM584.581 152.226V149.994H586.813V152.226H584.581ZM592.949 166L588.722 154.126H590.574L594.089 163.981L597.794 154.126H599.646L595.181 166H592.949ZM606.357 166.38C603.008 166.38 600.729 163.839 600.729 160.063C600.729 156.335 602.937 153.746 606.119 153.746C609.325 153.746 611.439 156.264 611.439 160.111V160.538H602.581C602.581 162.96 604.124 164.646 606.309 164.646C607.924 164.646 609.183 163.744 609.515 162.343L611.367 162.58C610.893 164.884 608.898 166.38 606.357 166.38ZM602.581 158.923H609.586C609.586 156.81 608.233 155.48 606.096 155.48C603.958 155.48 602.581 156.81 602.581 158.923ZM621.73 158.425C621.73 156.548 620.828 155.48 619.284 155.48C617.194 155.48 615.722 157.451 615.722 160.229V166H613.941V154.126H615.722V156.24C616.387 154.744 617.954 153.746 619.878 153.746C622.205 153.746 623.511 155.195 623.511 157.712V166H621.73V158.425ZM637.447 166.38C634.384 166.38 632.175 163.744 632.175 160.063C632.175 156.358 634.36 153.746 637.447 153.746C639.3 153.746 640.701 154.696 641.342 156.24V149.377H643.123V166H641.342V163.886C640.701 165.43 639.3 166.38 637.447 166.38ZM634.028 160.063C634.028 162.794 635.5 164.646 637.685 164.646C639.87 164.646 641.342 162.794 641.342 160.063C641.342 157.332 639.87 155.48 637.685 155.48C635.5 155.48 634.028 157.332 634.028 160.063ZM651.486 166.38C648.138 166.38 645.858 163.839 645.858 160.063C645.858 156.335 648.067 153.746 651.249 153.746C654.455 153.746 656.568 156.264 656.568 160.111V160.538H647.71C647.71 162.96 649.254 164.646 651.439 164.646C653.054 164.646 654.312 163.744 654.645 162.343L656.497 162.58C656.022 164.884 654.027 166.38 651.486 166.38ZM647.71 158.923H654.716C654.716 156.81 653.362 155.48 651.225 155.48C649.088 155.48 647.71 156.81 647.71 158.923ZM661.757 166L657.53 154.126H659.382L662.897 163.981L666.601 154.126H668.454L663.989 166H661.757ZM675.164 166.38C671.816 166.38 669.536 163.839 669.536 160.063C669.536 156.335 671.745 153.746 674.927 153.746C678.133 153.746 680.246 156.264 680.246 160.111V160.538H671.388C671.388 162.96 672.932 164.646 675.117 164.646C676.732 164.646 677.99 163.744 678.323 162.343L680.175 162.58C679.7 164.884 677.705 166.38 675.164 166.38ZM671.388 158.923H678.394C678.394 156.81 677.04 155.48 674.903 155.48C672.766 155.48 671.388 156.81 671.388 158.923ZM682.864 166V149.139H684.646V166H682.864ZM692.974 166.38C689.65 166.38 687.37 163.815 687.37 160.111C687.37 156.382 689.673 153.746 692.974 153.746C696.252 153.746 698.555 156.358 698.555 160.111C698.555 163.839 696.275 166.38 692.974 166.38ZM689.222 160.111C689.222 162.842 690.718 164.646 692.974 164.646C695.23 164.646 696.727 162.842 696.727 160.111C696.727 157.332 695.207 155.48 692.974 155.48C690.742 155.48 689.222 157.332 689.222 160.111ZM706.838 166.38C704.985 166.38 703.584 165.43 702.943 163.886V170.75H701.162V154.126H702.943V156.24C703.584 154.696 704.985 153.746 706.838 153.746C709.925 153.746 712.11 156.382 712.11 160.063C712.11 163.744 709.925 166.38 706.838 166.38ZM702.943 160.063C702.943 162.794 704.416 164.646 706.6 164.646C708.785 164.646 710.257 162.794 710.257 160.063C710.257 157.332 708.785 155.48 706.6 155.48C704.416 155.48 702.943 157.332 702.943 160.063ZM729.832 158.425C729.832 156.572 728.906 155.48 727.386 155.48C725.391 155.48 724.062 157.38 724.062 160.229V166H722.281V158.425C722.281 156.572 721.354 155.48 719.835 155.48C717.84 155.48 716.51 157.38 716.51 160.229V166H714.729V154.126H716.51V156.169C717.151 154.696 718.6 153.746 720.428 153.746C722.233 153.746 723.468 154.696 723.895 156.311C724.513 154.767 726.056 153.746 727.98 153.746C730.283 153.746 731.613 155.219 731.613 157.712V166H729.832V158.425ZM739.983 166.38C736.635 166.38 734.355 163.839 734.355 160.063C734.355 156.335 736.563 153.746 739.746 153.746C742.951 153.746 745.065 156.264 745.065 160.111V160.538H736.207C736.207 162.96 737.751 164.646 739.936 164.646C741.55 164.646 742.809 163.744 743.141 162.343L744.994 162.58C744.519 164.884 742.524 166.38 739.983 166.38ZM736.207 158.923H743.213C743.213 156.81 741.859 155.48 739.722 155.48C737.585 155.48 736.207 156.81 736.207 158.923ZM755.356 158.425C755.356 156.548 754.454 155.48 752.91 155.48C750.821 155.48 749.348 157.451 749.348 160.229V166H747.567V154.126H749.348V156.24C750.013 154.744 751.581 153.746 753.504 153.746C755.831 153.746 757.137 155.195 757.137 157.712V166H755.356V158.425ZM764.926 166C762.694 166 761.601 164.908 761.601 162.675V155.86H759.037V154.126H761.601V150.327H763.382V154.126H766.944V155.86H763.382V162.842C763.382 163.791 763.857 164.266 764.807 164.266H766.944V166H764.926Z" fill="#B6E343"/>
</svg>
