<svg width="885" height="327" viewBox="0 0 885 327" fill="none" xmlns="http://www.w3.org/2000/svg">
<path d="M174.556 180.705C172.078 180.705 170 180.224 168.322 179.262C166.643 178.301 165.325 176.998 164.365 175.356V150.593C165.405 148.87 166.763 147.528 168.442 146.566C170.12 145.605 172.159 145.124 174.556 145.124C177.713 145.124 180.411 145.885 182.649 147.408C184.887 148.931 186.606 151.034 187.805 153.719C189.043 156.403 189.663 159.489 189.663 162.975C189.663 166.42 189.043 169.486 187.805 172.17C186.606 174.855 184.887 176.958 182.649 178.481C180.411 179.964 177.713 180.705 174.556 180.705ZM156.812 191.764V146.086H164.365V191.764H156.812ZM173.357 173.913C175.195 173.913 176.755 173.452 178.033 172.531C179.312 171.569 180.271 170.267 180.911 168.624C181.59 166.941 181.93 165.058 181.93 162.975C181.93 160.851 181.59 158.948 180.911 157.265C180.271 155.582 179.312 154.28 178.033 153.358C176.755 152.396 175.195 151.916 173.357 151.916C171.319 151.916 169.641 152.416 168.322 153.418C167.003 154.38 166.004 155.702 165.325 157.385C164.685 159.028 164.365 160.891 164.365 162.975C164.365 165.018 164.685 166.881 165.325 168.564C166.004 170.207 167.003 171.509 168.322 172.471C169.641 173.432 171.319 173.913 173.357 173.913Z" fill="black"/>
<path d="M208.627 180.712C205.213 180.712 202.215 179.971 199.634 178.488C197.093 176.965 195.108 174.861 193.679 172.176C192.289 169.491 191.594 166.425 191.594 162.978C191.594 159.492 192.289 156.406 193.679 153.72C195.108 151.035 197.093 148.931 199.634 147.408C202.215 145.886 205.233 145.124 208.687 145.124C212.102 145.124 215.08 145.886 217.621 147.408C220.162 148.931 222.128 151.035 223.517 153.72C224.946 156.406 225.661 159.492 225.661 162.978C225.661 166.425 224.946 169.491 223.517 172.176C222.128 174.861 220.162 176.965 217.621 178.488C215.08 179.971 212.082 180.712 208.627 180.712ZM208.687 173.919C210.712 173.919 212.419 173.458 213.809 172.536C215.199 171.575 216.251 170.272 216.966 168.629C217.681 166.946 218.038 165.062 218.038 162.978C218.038 160.854 217.681 158.95 216.966 157.267C216.251 155.584 215.199 154.282 213.809 153.36C212.419 152.398 210.712 151.917 208.687 151.917C206.623 151.917 204.896 152.398 203.506 153.36C202.116 154.282 201.064 155.584 200.349 157.267C199.634 158.95 199.277 160.854 199.277 162.978C199.277 165.062 199.634 166.946 200.349 168.629C201.064 170.272 202.116 171.575 203.506 172.536C204.896 173.458 206.623 173.919 208.687 173.919Z" fill="black"/>
<path d="M267.267 180.705C264.797 180.705 262.726 180.224 261.052 179.262C259.379 178.301 258.064 176.998 257.108 175.356V150.593C258.144 148.87 259.499 147.528 261.172 146.566C262.845 145.605 264.877 145.124 267.267 145.124C270.415 145.124 273.104 145.885 275.335 147.408C277.567 148.93 279.279 151.034 280.475 153.719C281.71 156.403 282.327 159.489 282.327 162.975C282.327 166.42 281.71 169.486 280.475 172.17C279.279 174.855 277.567 176.958 275.335 178.481C273.104 179.964 270.415 180.705 267.267 180.705ZM249.578 191.764V146.086H257.108V191.764H249.578ZM266.072 173.913C267.905 173.913 269.459 173.452 270.733 172.531C272.009 171.569 272.965 170.267 273.602 168.624C274.28 166.941 274.618 165.058 274.618 162.975C274.618 160.851 274.28 158.948 273.602 157.265C272.965 155.582 272.009 154.28 270.733 153.358C269.459 152.396 267.905 151.916 266.072 151.916C264.04 151.916 262.367 152.416 261.052 153.418C259.737 154.38 258.742 155.702 258.064 157.385C257.427 159.028 257.108 160.891 257.108 162.975C257.108 165.018 257.427 166.881 258.064 168.564C258.742 170.207 259.737 171.509 261.052 172.471C262.367 173.432 264.04 173.913 266.072 173.913Z" fill="black"/>
<path d="M364.71 180.705C367.18 180.705 369.252 180.224 370.925 179.262C372.598 178.301 373.913 176.998 374.869 175.356V150.593C373.833 148.87 372.479 147.528 370.806 146.566C369.132 145.605 367.101 145.124 364.71 145.124C361.563 145.124 358.873 145.885 356.642 147.408C354.411 148.931 352.698 151.034 351.503 153.719C350.268 156.403 349.65 159.489 349.65 162.975C349.65 166.42 350.268 169.486 351.503 172.17C352.698 174.855 354.411 176.958 356.642 178.481C358.873 179.964 361.563 180.705 364.71 180.705ZM382.399 180.705V146.086H374.869V180.705H382.399ZM365.905 173.913C364.072 173.913 362.519 173.452 361.244 172.531C359.969 171.569 359.013 170.267 358.376 168.624C357.698 166.941 357.359 165.058 357.359 162.975C357.359 160.851 357.698 158.948 358.376 157.265C359.013 155.582 359.969 154.28 361.244 153.358C362.519 152.396 364.072 151.916 365.905 151.916C367.937 151.916 369.61 152.416 370.925 153.418C372.24 154.38 373.236 155.702 373.913 157.385C374.551 159.028 374.869 160.891 374.869 162.975C374.869 165.018 374.551 166.881 373.913 168.564C373.236 170.207 372.24 171.509 370.925 172.471C369.61 173.432 367.937 173.913 365.905 173.913Z" fill="black"/>
<path d="M287.741 146.193H295.059V179.698H287.741V146.193ZM285.575 134.346L293.595 132.551L295.41 140.748L287.39 142.603L285.575 134.346Z" fill="black"/>
<path d="M388.162 146.193H395.479V179.698H388.162V146.193ZM385.996 134.346L394.016 132.551L395.83 140.748L387.81 142.603L385.996 134.346Z" fill="black"/>
<path d="M306.591 165.443V159.251H326.231L323.545 160.995C323.704 159.471 323.505 158.029 322.948 156.666C322.431 155.263 321.575 154.121 320.381 153.24C319.187 152.358 317.635 151.917 315.724 151.917C313.137 151.917 310.968 152.739 309.217 154.382C307.466 156.025 306.591 158.389 306.591 161.475H298.651C298.889 157.989 299.785 155.043 301.337 152.638C302.929 150.194 304.959 148.33 307.426 147.048C309.934 145.765 312.7 145.124 315.724 145.124C317.993 145.124 320.122 145.585 322.112 146.507C324.142 147.388 325.873 148.711 327.306 150.474C328.779 152.198 329.853 154.322 330.53 156.846C331.246 159.371 331.385 162.237 330.948 165.443H306.591ZM315.724 180.712C312.58 180.712 309.794 180.071 307.366 178.789C304.939 177.506 302.988 175.723 301.516 173.438C300.043 171.154 299.128 168.489 298.77 165.443H306.591C306.909 167.928 307.804 169.972 309.277 171.575C310.749 173.138 312.899 173.919 315.724 173.919C317.714 173.919 319.306 173.458 320.5 172.536C321.734 171.575 322.61 170.412 323.127 169.05H331.007C330.53 171.374 329.594 173.418 328.201 175.182C326.809 176.905 325.058 178.267 322.948 179.269C320.838 180.231 318.431 180.712 315.724 180.712Z" fill="black"/>
<path d="M245.991 179.616V173.275H238.489V152.6H245.053V146.17H238.489V132.595H231.121V146.17H226.7V152.6H231.121V179.616H245.991Z" fill="black"/>
<path d="M344.636 170.616L336.616 172.411L338.43 180.667L346.45 178.813L344.636 170.616Z" fill="black"/>
<path fill-rule="evenodd" clip-rule="evenodd" d="M113.35 134.609C116.856 131.13 122.508 131.13 126.014 134.609C127.883 136.463 130.469 137.405 133.091 137.187C137.197 136.845 140.891 139.32 142.264 143.007L122.325 154.384L120.709 155.323C119.306 156.14 118.434 157.631 118.41 159.255L118.294 167.278V169.654C118.294 171.364 119.231 172.943 120.745 173.759L139.02 183.608C137.433 184.516 136.143 185.897 135.348 187.583C133.243 192.052 127.931 193.986 123.448 191.918C121.058 190.815 118.306 190.815 115.916 191.918C111.433 193.986 106.121 192.052 104.015 187.583C102.893 185.201 100.784 183.431 98.2453 182.738C93.482 181.44 90.6559 176.541 91.9131 171.763C92.5832 169.216 92.1053 166.504 90.605 164.34C87.7909 160.281 88.7723 154.711 92.8042 151.86C94.9534 150.34 96.3296 147.955 96.5702 145.333C97.0219 140.414 101.352 136.777 106.272 137.187C108.894 137.405 111.481 136.463 113.35 134.609Z" fill="#B6E343"/>
<path fill-rule="evenodd" clip-rule="evenodd" d="M124.031 158.169L124.067 158.097L124.104 158.04C124.074 158.081 124.049 158.123 124.031 158.169ZM143.479 177.656C143.801 177.831 143.963 177.918 144.048 178.062C144.118 178.18 144.148 178.347 144.124 178.481C144.094 178.646 143.985 178.771 143.767 179.02C143.426 179.41 143.051 179.773 142.645 180.101C142.434 180.272 142.328 180.357 142.174 180.409C142.05 180.451 141.882 180.467 141.753 180.449C141.592 180.426 141.453 180.351 141.176 180.202L122.644 170.22C122.433 170.106 122.301 169.884 122.301 169.643V167.268C122.301 166.773 122.828 166.457 123.263 166.692L143.479 177.656Z" fill="#B6E343"/>
<path fill-rule="evenodd" clip-rule="evenodd" d="M143.392 149.04C143.665 148.28 143.801 147.899 143.715 147.685C143.639 147.498 143.477 147.361 143.281 147.319C143.054 147.269 142.703 147.468 141.999 147.865L124.311 157.856C124.226 157.905 124.158 157.968 124.105 158.04L124.069 158.097L124.032 158.169C123.991 158.268 123.975 158.375 123.984 158.479L123.987 158.509C124.012 158.709 124.128 158.898 124.332 159.005L143.137 169.628C143.489 169.827 143.665 169.926 143.778 169.901C143.876 169.88 143.957 169.812 143.995 169.719C144.038 169.611 143.97 169.421 143.833 169.041L140.141 158.754C140.097 158.632 140.075 158.571 140.066 158.509C140.059 158.454 140.059 158.397 140.066 158.342C140.075 158.28 140.097 158.219 140.141 158.097L143.392 149.04Z" fill="#B6E343"/>
<path d="M503.404 136L509.056 119.377H512.452L518.103 136H515.752L513.971 130.799H507.536L505.755 136H503.404ZM508.248 128.733H513.283L510.765 121.372L508.248 128.733ZM525.096 141.129C522.127 141.129 519.752 139.467 519.752 137.401L522.151 137.164C522.222 138.256 523.481 139.087 525.096 139.087C527.257 139.087 528.563 137.734 528.563 135.549V133.886C527.898 135.454 526.497 136.38 524.668 136.38C521.605 136.38 519.396 133.744 519.396 130.063C519.396 126.358 521.581 123.746 524.668 123.746C526.497 123.746 527.898 124.672 528.563 126.24V124.126H530.819V135.311C530.819 138.873 528.61 141.129 525.096 141.129ZM521.723 130.063C521.723 132.604 523.101 134.338 525.143 134.338C527.185 134.338 528.563 132.604 528.563 130.063C528.563 127.522 527.185 125.789 525.143 125.789C523.101 125.789 521.723 127.522 521.723 130.063ZM539.13 136.38C535.615 136.38 533.264 133.839 533.264 130.063C533.264 126.335 535.544 123.746 538.845 123.746C542.146 123.746 544.354 126.287 544.354 130.111V130.704H535.592C535.592 132.842 537.017 134.338 539.035 134.338C540.507 134.338 541.671 133.554 542.003 132.319L544.307 132.557C543.88 134.86 541.814 136.38 539.13 136.38ZM535.592 128.852H542.027C542.027 126.952 540.792 125.789 538.821 125.789C536.85 125.789 535.592 126.976 535.592 128.852ZM554.498 128.543C554.498 126.81 553.643 125.789 552.218 125.789C550.295 125.789 548.965 127.617 548.965 130.229V136H546.709V124.126H548.965V126.264C549.677 124.744 551.221 123.746 553.097 123.746C555.424 123.746 556.754 125.29 556.754 127.95V136H554.498V128.543ZM564.606 136C562.208 136 561.044 134.86 561.044 132.509V126.169H558.479V124.126H561.044V120.327H563.3V124.126H566.862V126.169H563.3V132.533C563.3 133.483 563.775 133.958 564.725 133.958H566.862V136H564.606ZM573.856 136.38C570.721 136.38 568.465 134.528 568.465 131.987L570.674 131.749C570.674 133.269 572.004 134.338 573.951 134.338C575.566 134.338 576.635 133.578 576.635 132.485C576.635 129.374 569.059 132.248 569.059 127.332C569.059 125.266 571.054 123.746 573.785 123.746C576.492 123.746 578.463 125.242 578.463 127.285L576.255 127.522C576.255 126.477 575.234 125.789 573.714 125.789C572.313 125.789 571.386 126.406 571.386 127.332C571.386 130.039 578.962 127.285 578.962 132.485C578.962 134.718 576.801 136.38 573.856 136.38ZM588.482 122.63C588.482 120.279 589.646 119.139 592.044 119.139H594.3V121.182H592.163C591.213 121.182 590.738 121.656 590.738 122.606V124.126H594.3V126.169H590.738V136H588.482V126.169H585.917V124.126H588.482V122.63ZM600.863 136.38C597.443 136.38 595.068 133.791 595.068 130.087C595.068 126.382 597.467 123.746 600.863 123.746C604.259 123.746 606.633 126.358 606.633 130.087C606.633 133.815 604.259 136.38 600.863 136.38ZM597.396 130.087C597.396 132.652 598.773 134.338 600.863 134.338C602.952 134.338 604.33 132.652 604.33 130.087C604.33 127.498 602.952 125.789 600.863 125.789C598.773 125.789 597.396 127.498 597.396 130.087ZM609.116 136V124.126H611.372V126.952C611.799 125.147 612.725 124.126 614.008 124.126H616.192V126.169H614.245C612.274 126.169 611.372 127.617 611.372 130.752V136H609.116ZM509.792 196.38C506.372 196.38 503.997 193.791 503.997 190.087C503.997 186.382 506.396 183.746 509.792 183.746C513.188 183.746 515.562 186.358 515.562 190.087C515.562 193.815 513.188 196.38 509.792 196.38ZM506.325 190.087C506.325 192.652 507.702 194.338 509.792 194.338C511.882 194.338 513.259 192.652 513.259 190.087C513.259 187.498 511.882 185.789 509.792 185.789C507.702 185.789 506.325 187.498 506.325 190.087ZM525.834 188.543C525.834 186.81 524.979 185.789 523.554 185.789C521.631 185.789 520.301 187.617 520.301 190.229V196H518.045V184.126H520.301V186.264C521.013 184.744 522.557 183.746 524.433 183.746C526.76 183.746 528.09 185.29 528.09 187.95V196H525.834V188.543ZM536.899 196V179.139H539.155V196H536.899ZM545.909 196.38C543.581 196.38 541.848 194.789 541.848 192.652C541.848 190.396 543.795 188.947 547.072 188.804C549.115 188.71 549.969 188.14 549.732 187.095C549.542 186.24 548.735 185.789 547.429 185.789C545.576 185.789 544.365 186.691 544.365 188.092L542.157 187.855C542.157 185.409 544.294 183.746 547.476 183.746C550.492 183.746 552.083 185.266 552.083 188.187V196H549.827V193.435C549.281 195.264 547.856 196.38 545.909 196.38ZM544.175 192.58C544.175 193.649 545.03 194.338 546.265 194.338C548.26 194.338 549.827 192.533 549.827 190.229V189.588C549.352 190.134 548.545 190.467 547.405 190.538C545.529 190.633 544.175 191.227 544.175 192.58ZM555.011 196V184.126H557.267V186.952C557.694 185.147 558.621 184.126 559.903 184.126H562.088V186.169H560.14C558.169 186.169 557.267 187.617 557.267 190.752V196H555.011ZM568.555 201.129C565.587 201.129 563.212 199.467 563.212 197.401L565.611 197.164C565.682 198.256 566.941 199.087 568.555 199.087C570.716 199.087 572.023 197.734 572.023 195.549V193.886C571.358 195.454 569.957 196.38 568.128 196.38C565.065 196.38 562.856 193.744 562.856 190.063C562.856 186.358 565.041 183.746 568.128 183.746C569.957 183.746 571.358 184.672 572.023 186.24V184.126H574.279V195.311C574.279 198.873 572.07 201.129 568.555 201.129ZM565.183 190.063C565.183 192.604 566.561 194.338 568.603 194.338C570.645 194.338 572.023 192.604 572.023 190.063C572.023 187.522 570.645 185.789 568.603 185.789C566.561 185.789 565.183 187.522 565.183 190.063ZM582.59 196.38C579.075 196.38 576.724 193.839 576.724 190.063C576.724 186.335 579.004 183.746 582.305 183.746C585.606 183.746 587.814 186.287 587.814 190.111V190.704H579.052C579.052 192.842 580.476 194.338 582.495 194.338C583.967 194.338 585.131 193.554 585.463 192.319L587.767 192.557C587.339 194.86 585.273 196.38 582.59 196.38ZM579.052 188.852H585.487C585.487 186.952 584.252 185.789 582.281 185.789C580.31 185.789 579.052 186.976 579.052 188.852ZM601.025 196.38C597.534 196.38 595.231 193.863 595.231 190.111C595.231 186.335 597.582 183.746 601.025 183.746C603.993 183.746 606.178 185.694 606.463 188.52L604.065 188.757C603.875 186.905 602.711 185.789 601.025 185.789C598.935 185.789 597.629 187.451 597.629 190.111C597.629 192.747 598.888 194.338 601.025 194.338C602.735 194.338 603.875 193.293 604.065 191.512L606.463 191.749C606.202 194.528 604.017 196.38 601.025 196.38ZM614.244 196.38C610.824 196.38 608.449 193.791 608.449 190.087C608.449 186.382 610.848 183.746 614.244 183.746C617.64 183.746 620.015 186.358 620.015 190.087C620.015 193.815 617.64 196.38 614.244 196.38ZM610.777 190.087C610.777 192.652 612.154 194.338 614.244 194.338C616.334 194.338 617.711 192.652 617.711 190.087C617.711 187.498 616.334 185.789 614.244 185.789C612.154 185.789 610.777 187.498 610.777 190.087ZM627.288 196.38C624.225 196.38 622.016 193.744 622.016 190.063C622.016 186.358 624.177 183.746 627.288 183.746C629.117 183.746 630.518 184.696 631.183 186.24V179.377H633.439V196H631.183V193.886C630.518 195.43 629.117 196.38 627.288 196.38ZM624.343 190.063C624.343 192.604 625.721 194.338 627.763 194.338C629.805 194.338 631.183 192.604 631.183 190.063C631.183 187.522 629.805 185.789 627.763 185.789C625.721 185.789 624.343 187.522 624.343 190.063ZM641.866 196.38C638.351 196.38 636 193.839 636 190.063C636 186.335 638.28 183.746 641.581 183.746C644.882 183.746 647.09 186.287 647.09 190.111V190.704H638.328C638.328 192.842 639.752 194.338 641.771 194.338C643.243 194.338 644.407 193.554 644.739 192.319L647.043 192.557C646.615 194.86 644.549 196.38 641.866 196.38ZM638.328 188.852H644.763C644.763 186.952 643.528 185.789 641.557 185.789C639.586 185.789 638.328 186.976 638.328 188.852ZM655.711 196.38C653.906 196.38 652.505 195.454 651.817 193.934V196H649.561V179.377H651.817V186.192C652.505 184.672 653.906 183.746 655.711 183.746C658.798 183.746 660.983 186.382 660.983 190.063C660.983 193.744 658.798 196.38 655.711 196.38ZM651.817 190.063C651.817 192.604 653.194 194.338 655.236 194.338C657.279 194.338 658.656 192.604 658.656 190.063C658.656 187.522 657.279 185.789 655.236 185.789C653.194 185.789 651.817 187.522 651.817 190.063ZM667.128 196.38C664.801 196.38 663.067 194.789 663.067 192.652C663.067 190.396 665.014 188.947 668.291 188.804C670.334 188.71 671.189 188.14 670.951 187.095C670.761 186.24 669.954 185.789 668.648 185.789C666.795 185.789 665.584 186.691 665.584 188.092L663.376 187.855C663.376 185.409 665.513 183.746 668.695 183.746C671.711 183.746 673.302 185.266 673.302 188.187V196H671.046V193.435C670.5 195.264 669.075 196.38 667.128 196.38ZM665.394 192.58C665.394 193.649 666.249 194.338 667.484 194.338C669.479 194.338 671.046 192.533 671.046 190.229V189.588C670.571 190.134 669.764 190.467 668.624 190.538C666.748 190.633 665.394 191.227 665.394 192.58ZM681.022 196.38C677.887 196.38 675.631 194.528 675.631 191.987L677.839 191.749C677.839 193.269 679.169 194.338 681.117 194.338C682.731 194.338 683.8 193.578 683.8 192.485C683.8 189.374 676.225 192.248 676.225 187.332C676.225 185.266 678.219 183.746 680.95 183.746C683.658 183.746 685.629 185.242 685.629 187.285L683.42 187.522C683.42 186.477 682.399 185.789 680.879 185.789C679.478 185.789 678.552 186.406 678.552 187.332C678.552 190.039 686.127 187.285 686.127 192.485C686.127 194.718 683.966 196.38 681.022 196.38ZM693.883 196.38C690.369 196.38 688.018 193.839 688.018 190.063C688.018 186.335 690.297 183.746 693.598 183.746C696.899 183.746 699.108 186.287 699.108 190.111V190.704H690.345C690.345 192.842 691.77 194.338 693.788 194.338C695.261 194.338 696.424 193.554 696.757 192.319L699.06 192.557C698.633 194.86 696.567 196.38 693.883 196.38ZM690.345 188.852H696.781C696.781 186.952 695.546 185.789 693.575 185.789C691.604 185.789 690.345 186.976 690.345 188.852ZM706.253 196.38C703.119 196.38 700.863 194.528 700.863 191.987L703.071 191.749C703.071 193.269 704.401 194.338 706.348 194.338C707.963 194.338 709.032 193.578 709.032 192.485C709.032 189.374 701.456 192.248 701.456 187.332C701.456 185.266 703.451 183.746 706.182 183.746C708.889 183.746 710.86 185.242 710.86 187.285L708.652 187.522C708.652 186.477 707.631 185.789 706.111 185.789C704.71 185.789 703.784 186.406 703.784 187.332C703.784 190.039 711.359 187.285 711.359 192.485C711.359 194.718 709.198 196.38 706.253 196.38Z" fill="black"/>
<path d="M509.269 166.38C506.135 166.38 503.879 164.528 503.879 161.987L506.087 161.749C506.087 163.269 507.417 164.338 509.364 164.338C510.979 164.338 512.048 163.578 512.048 162.485C512.048 159.374 504.472 162.248 504.472 157.332C504.472 155.266 506.467 153.746 509.198 153.746C511.905 153.746 513.876 155.242 513.876 157.285L511.668 157.522C511.668 156.477 510.647 155.789 509.127 155.789C507.726 155.789 506.8 156.406 506.8 157.332C506.8 160.039 514.375 157.285 514.375 162.485C514.375 164.718 512.214 166.38 509.269 166.38ZM523.128 166.38C521.324 166.38 519.923 165.454 519.234 163.934V170.75H516.978V154.126H519.234V156.192C519.923 154.672 521.324 153.746 523.128 153.746C526.216 153.746 528.4 156.382 528.4 160.063C528.4 163.744 526.216 166.38 523.128 166.38ZM519.234 160.063C519.234 162.604 520.611 164.338 522.654 164.338C524.696 164.338 526.073 162.604 526.073 160.063C526.073 157.522 524.696 155.789 522.654 155.789C520.611 155.789 519.234 157.522 519.234 160.063ZM536.231 166.38C532.717 166.38 530.366 163.839 530.366 160.063C530.366 156.335 532.645 153.746 535.946 153.746C539.247 153.746 541.456 156.287 541.456 160.111V160.704H532.693C532.693 162.842 534.118 164.338 536.136 164.338C537.609 164.338 538.772 163.554 539.105 162.319L541.408 162.557C540.981 164.86 538.915 166.38 536.231 166.38ZM532.693 158.852H539.128C539.128 156.952 537.893 155.789 535.922 155.789C533.951 155.789 532.693 156.976 532.693 158.852ZM549.124 166.38C545.633 166.38 543.329 163.863 543.329 160.111C543.329 156.335 545.68 153.746 549.124 153.746C552.092 153.746 554.277 155.694 554.562 158.52L552.163 158.757C551.973 156.905 550.81 155.789 549.124 155.789C547.034 155.789 545.728 157.451 545.728 160.111C545.728 162.747 546.986 164.338 549.124 164.338C550.833 164.338 551.973 163.293 552.163 161.512L554.562 161.749C554.301 164.528 552.116 166.38 549.124 166.38ZM567.363 166.38C564.299 166.38 562.091 163.744 562.091 160.063C562.091 156.358 564.252 153.746 567.363 153.746C569.191 153.746 570.592 154.696 571.257 156.24V149.377H573.513V166H571.257V163.886C570.592 165.43 569.191 166.38 567.363 166.38ZM564.418 160.063C564.418 162.604 565.795 164.338 567.838 164.338C569.88 164.338 571.257 162.604 571.257 160.063C571.257 157.522 569.88 155.789 567.838 155.789C565.795 155.789 564.418 157.522 564.418 160.063ZM576.903 166V154.126H579.159V156.952C579.587 155.147 580.513 154.126 581.795 154.126H583.98V156.169H582.033C580.062 156.169 579.159 157.617 579.159 160.752V166H576.903ZM586.093 166V154.126H588.349V166H586.093ZM585.832 152.298V149.78H588.587V152.298H585.832ZM594.571 166L590.321 154.126H592.672L596.02 163.459L599.558 154.126H601.933L597.445 166H594.571ZM608.726 166.38C605.211 166.38 602.86 163.839 602.86 160.063C602.86 156.335 605.14 153.746 608.441 153.746C611.742 153.746 613.951 156.287 613.951 160.111V160.704H605.188C605.188 162.842 606.613 164.338 608.631 164.338C610.103 164.338 611.267 163.554 611.6 162.319L613.903 162.557C613.476 164.86 611.41 166.38 608.726 166.38ZM605.188 158.852H611.623C611.623 156.952 610.388 155.789 608.417 155.789C606.446 155.789 605.188 156.976 605.188 158.852ZM624.094 158.543C624.094 156.81 623.239 155.789 621.814 155.789C619.891 155.789 618.561 157.617 618.561 160.229V166H616.305V154.126H618.561V156.264C619.273 154.744 620.817 153.746 622.693 153.746C625.02 153.746 626.35 155.29 626.35 157.95V166H624.094V158.543ZM639.719 166.38C636.655 166.38 634.447 163.744 634.447 160.063C634.447 156.358 636.608 153.746 639.719 153.746C641.547 153.746 642.948 154.696 643.613 156.24V149.377H645.869V166H643.613V163.886C642.948 165.43 641.547 166.38 639.719 166.38ZM636.774 160.063C636.774 162.604 638.151 164.338 640.193 164.338C642.236 164.338 643.613 162.604 643.613 160.063C643.613 157.522 642.236 155.789 640.193 155.789C638.151 155.789 636.774 157.522 636.774 160.063ZM654.296 166.38C650.782 166.38 648.431 163.839 648.431 160.063C648.431 156.335 650.71 153.746 654.011 153.746C657.312 153.746 659.521 156.287 659.521 160.111V160.704H650.758C650.758 162.842 652.183 164.338 654.201 164.338C655.674 164.338 656.837 163.554 657.17 162.319L659.473 162.557C659.046 164.86 656.98 166.38 654.296 166.38ZM650.758 158.852H657.194C657.194 156.952 655.959 155.789 653.988 155.789C652.017 155.789 650.758 156.976 650.758 158.852ZM664.585 166L660.334 154.126H662.685L666.034 163.459L669.572 154.126H671.947L667.458 166H664.585ZM678.74 166.38C675.225 166.38 672.874 163.839 672.874 160.063C672.874 156.335 675.154 153.746 678.455 153.746C681.756 153.746 683.964 156.287 683.964 160.111V160.704H675.201C675.201 162.842 676.626 164.338 678.645 164.338C680.117 164.338 681.281 163.554 681.613 162.319L683.917 162.557C683.489 164.86 681.423 166.38 678.74 166.38ZM675.201 158.852H681.637C681.637 156.952 680.402 155.789 678.431 155.789C676.46 155.789 675.201 156.976 675.201 158.852ZM686.434 166V149.139H688.69V166H686.434ZM697.059 166.38C693.639 166.38 691.264 163.791 691.264 160.087C691.264 156.382 693.663 153.746 697.059 153.746C700.455 153.746 702.829 156.358 702.829 160.087C702.829 163.815 700.455 166.38 697.059 166.38ZM693.592 160.087C693.592 162.652 694.969 164.338 697.059 164.338C699.149 164.338 700.526 162.652 700.526 160.087C700.526 157.498 699.149 155.789 697.059 155.789C694.969 155.789 693.592 157.498 693.592 160.087ZM711.462 166.38C709.657 166.38 708.256 165.454 707.568 163.934V170.75H705.312V154.126H707.568V156.192C708.256 154.672 709.657 153.746 711.462 153.746C714.549 153.746 716.734 156.382 716.734 160.063C716.734 163.744 714.549 166.38 711.462 166.38ZM707.568 160.063C707.568 162.604 708.945 164.338 710.987 164.338C713.03 164.338 714.407 162.604 714.407 160.063C714.407 157.522 713.03 155.789 710.987 155.789C708.945 155.789 707.568 157.522 707.568 160.063ZM734.283 158.543C734.283 156.81 733.428 155.789 732.027 155.789C730.199 155.789 728.988 157.57 728.988 160.229V166H726.732V158.543C726.732 156.81 725.877 155.789 724.476 155.789C722.647 155.789 721.436 157.57 721.436 160.229V166H719.18V154.126H721.436V156.192C722.125 154.696 723.573 153.746 725.354 153.746C727.159 153.746 728.37 154.72 728.821 156.43C729.463 154.815 731.006 153.746 732.906 153.746C735.209 153.746 736.539 155.29 736.539 157.95V166H734.283V158.543ZM744.973 166.38C741.458 166.38 739.107 163.839 739.107 160.063C739.107 156.335 741.387 153.746 744.688 153.746C747.989 153.746 750.197 156.287 750.197 160.111V160.704H741.435C741.435 162.842 742.859 164.338 744.878 164.338C746.35 164.338 747.514 163.554 747.846 162.319L750.15 162.557C749.723 164.86 747.656 166.38 744.973 166.38ZM741.435 158.852H747.87C747.87 156.952 746.635 155.789 744.664 155.789C742.693 155.789 741.435 156.976 741.435 158.852ZM760.341 158.543C760.341 156.81 759.486 155.789 758.061 155.789C756.137 155.789 754.808 157.617 754.808 160.229V166H752.552V154.126H754.808V156.264C755.52 154.744 757.064 153.746 758.94 153.746C761.267 153.746 762.597 155.29 762.597 157.95V166H760.341V158.543ZM770.449 166C768.051 166 766.887 164.86 766.887 162.509V156.169H764.322V154.126H766.887V150.327H769.143V154.126H772.705V156.169H769.143V162.533C769.143 163.483 769.618 163.958 770.568 163.958H772.705V166H770.449Z" fill="#B6E343"/>
</svg>
