<svg width="80" height="80" viewBox="0 0 80 80" fill="none" xmlns="http://www.w3.org/2000/svg">
<path d="M0 40C0 17.9086 17.9086 0 40 0C62.0914 0 80 17.9086 80 40C80 62.0914 62.0914 80 40 80C17.9086 80 0 62.0914 0 40Z" fill="#022D2C" fill-opacity="0.12"/>
<path d="M12 40C12 24.536 24.536 12 40 12C55.464 12 68 24.536 68 40C68 55.464 55.464 68 40 68C24.536 68 12 55.464 12 40Z" fill="white"/>
<path d="M30 52.6C30 49.9479 31.0536 47.4043 32.9289 45.529C34.8043 43.6536 37.3479 42.6 40 42.6C42.6522 42.6 45.1957 43.6536 47.0711 45.529C48.9465 47.4043 50 49.9479 50 52.6H47.5C47.5 50.6109 46.7099 48.7033 45.3033 47.2967C43.8968 45.8902 41.9892 45.1 40 45.1C38.0109 45.1 36.1032 45.8902 34.6967 47.2967C33.2902 48.7033 32.5 50.6109 32.5 52.6H30ZM40 41.35C35.8563 41.35 32.5 37.9938 32.5 33.85C32.5 29.7062 35.8563 26.35 40 26.35C44.1438 26.35 47.5 29.7062 47.5 33.85C47.5 37.9938 44.1438 41.35 40 41.35ZM40 38.85C42.7625 38.85 45 36.6125 45 33.85C45 31.0875 42.7625 28.85 40 28.85C37.2375 28.85 35 31.0875 35 33.85C35 36.6125 37.2375 38.85 40 38.85Z" fill="#022D2C"/>
</svg>
