<svg width="42" height="42" viewBox="0 0 42 42" fill="none" xmlns="http://www.w3.org/2000/svg">
<path fill-rule="evenodd" clip-rule="evenodd" d="M16.8783 1.89901C19.1652 -0.369984 22.8519 -0.369984 25.1388 1.89901C26.3577 3.10815 28.0447 3.72254 29.7551 3.58033C32.4329 3.35721 34.8425 4.97175 35.7383 7.37666L22.7325 14.7973L21.6789 15.4101C20.7638 15.9428 20.1946 16.9154 20.1793 17.9745L20.1034 23.2078V24.7571C20.1034 25.8728 20.7147 26.9028 21.7017 27.4347L33.6218 33.859C32.5868 34.4514 31.7458 35.3518 31.2273 36.4517C29.8537 39.3665 26.3891 40.6283 23.4649 39.2793C21.9061 38.5597 20.1109 38.5597 18.5521 39.2793C15.6279 40.6283 12.1633 39.3665 10.7898 36.4517C10.0577 34.8985 8.68244 33.7435 7.02645 33.2918C3.91954 32.4448 2.07618 29.2495 2.89622 26.1328C3.33324 24.4719 3.02153 22.7026 2.04299 21.2916C0.207479 18.6439 0.847599 15.011 3.47741 13.1513C4.87923 12.1598 5.77685 10.6042 5.93379 8.89378C6.22841 5.68513 9.05268 3.31321 12.2619 3.58033C13.9723 3.72254 15.6593 3.10815 16.8783 1.89901Z" fill="#B6E343"/>
<path fill-rule="evenodd" clip-rule="evenodd" d="M23.8489 17.2658L23.8729 17.2187L23.8964 17.1817C23.8772 17.2084 23.8611 17.2359 23.8489 17.2658ZM36.5341 29.9764C36.7445 30.0905 36.8496 30.1476 36.9054 30.2413C36.951 30.318 36.9706 30.4271 36.9546 30.5148C36.9351 30.6222 36.8641 30.7035 36.7221 30.8663C36.5 31.1207 36.2554 31.357 35.9901 31.5714C35.8524 31.6826 35.7836 31.7383 35.6835 31.7723C35.6024 31.7998 35.4929 31.81 35.4082 31.7979C35.3035 31.783 35.2131 31.7343 35.0323 31.6369L22.9446 25.1264C22.8067 25.0517 22.7207 24.9072 22.7207 24.75V23.2007C22.7207 22.8778 23.0648 22.6719 23.3484 22.8252L36.5341 29.9764Z" fill="#B6E343"/>
<path fill-rule="evenodd" clip-rule="evenodd" d="M36.4751 11.3107C36.6531 10.8147 36.7421 10.5667 36.6855 10.4266C36.6364 10.3052 36.5305 10.2159 36.4026 10.188C36.2549 10.1558 36.0255 10.2854 35.5666 10.5445L24.0296 17.0609C23.9738 17.0931 23.9294 17.1339 23.8952 17.1811L23.8716 17.218L23.8477 17.2651C23.821 17.3296 23.8104 17.3995 23.8159 17.4671L23.8178 17.4867C23.8343 17.6171 23.9097 17.7405 24.0433 17.8104L36.3088 24.7395C36.5382 24.8692 36.6529 24.934 36.7268 24.9179C36.7908 24.9039 36.8437 24.8593 36.8683 24.7986C36.8966 24.7285 36.8521 24.6045 36.763 24.3564L34.3544 17.6467C34.3259 17.5673 34.3117 17.5276 34.306 17.4869C34.301 17.4508 34.301 17.4141 34.306 17.378C34.3117 17.3373 34.3259 17.2976 34.3544 17.2183L36.4751 11.3107Z" fill="#B6E343"/>
</svg>
