<svg width="1444" height="1453" viewBox="0 0 1444 1453" fill="none" xmlns="http://www.w3.org/2000/svg">
<path d="M0.33935 1452.63L160.699 1304.49L1283.72 1304.49L1443.58 1180.59M0.33935 1432.63L160.699 1284.48L1283.72 1284.48L1443.58 1160.58M0.33935 1412.63L160.699 1264.48L1283.72 1264.48L1443.58 1140.58M0.33935 1392.62L160.699 1244.48L1283.72 1244.48L1443.58 1120.58M0.33935 1372.62L160.699 1224.47L1283.72 1224.47L1443.58 1100.58M0.33935 1352.62L160.699 1204.47L1283.72 1204.47L1443.58 1080.57M0.33935 1332.61L160.699 1184.47L1283.72 1184.47L1443.58 1060.57M0.33935 1312.61L160.699 1164.46L1283.72 1164.46L1443.58 1040.57M0.33935 1292.61L160.699 1144.46L1283.72 1144.46L1443.58 1020.56M0.33935 1272.6L160.699 1124.46L1283.72 1124.46L1443.58 1000.56M0.33935 1252.6L160.699 1104.45L1283.72 1104.45L1443.58 980.556M0.33935 1232.6L160.699 1084.45L1283.72 1084.45L1443.58 960.552M0.33935 1212.59L160.699 1064.45L1283.72 1064.45L1443.58 940.549M0.33935 1192.59L160.699 1044.44L1283.72 1044.44L1443.58 920.546M0.33935 1172.59L160.699 1024.44L1283.72 1024.44L1443.58 900.542M0.33935 1152.58L160.699 1004.44L1283.72 1004.44L1443.58 880.539M0.33935 1132.58L160.699 984.435L1283.72 984.434L1443.58 860.536M0.33935 1112.58L160.699 964.432L1283.72 964.43L1443.58 840.533M0.33935 1092.57L160.699 944.429L1283.72 944.427L1443.58 820.529M0.33935 1072.57L160.699 924.425L1283.72 924.424L1443.58 800.526M0.33935 1052.57L160.699 904.422L1283.72 904.421L1443.58 780.523M0.33935 1032.56L160.699 884.419L1283.72 884.417L1443.58 760.52M0.33935 1012.56L160.699 864.416L1283.72 864.414L1443.58 740.516M0.33935 992.557L160.699 844.412L1283.72 844.411L1443.58 720.513M0.33935 972.554L160.699 824.409L1283.72 824.407L1443.58 700.51M0.33935 952.551L160.699 804.406L1283.72 804.404L1443.58 680.506M0.33935 932.548L160.699 784.402L1283.72 784.401L1443.58 660.503M0.33935 912.544L160.699 764.399L1283.72 764.398L1443.58 640.5M0.33935 892.541L160.699 744.396L1283.72 744.394L1443.58 620.497M0.33935 872.538L160.699 724.393L1283.72 724.391L1443.58 600.493M0.33935 852.534L160.699 704.389L1283.72 704.388L1443.58 580.49M0.33935 832.531L160.699 684.386L1283.72 684.385L1443.58 560.487M0.33935 812.528L160.699 664.383L1283.72 664.381L1443.58 540.484M0.33935 792.525L160.699 644.38L1283.72 644.378L1443.58 520.48M0.33935 772.521L160.699 624.376L1283.72 624.375L1443.58 500.477M0.33935 752.518L160.699 604.373L1283.72 604.372L1443.58 480.474M0.33935 732.515L160.699 584.37L1283.72 584.368L1443.58 460.47M0.33935 712.512L160.699 564.366L1283.72 564.365L1443.58 440.467M0.33935 692.508L160.699 544.363L1283.72 544.362L1443.58 420.464M0.33935 672.505L160.699 524.36L1283.72 524.358L1443.58 400.461M0.33935 652.502L160.699 504.357L1283.72 504.355L1443.58 380.457M0.33935 632.498L160.699 484.353L1283.72 484.352L1443.58 360.454M0.33935 612.495L160.699 464.35L1283.72 464.349L1443.58 340.451M0.33935 592.492L160.699 444.347L1283.72 444.345L1443.58 320.448M0.33935 572.489L160.699 424.344L1283.72 424.342L1443.58 300.444M0.33935 552.485L160.699 404.34L1283.72 404.339L1443.58 280.441M0.33935 532.482L160.699 384.337L1283.72 384.336L1443.58 260.438M0.33935 512.479L160.699 364.334L1283.72 364.332L1443.58 240.435M0.33935 492.476L160.699 344.331L1283.72 344.329L1443.58 220.431M0.33935 472.472L160.699 324.327L1283.72 324.326L1443.58 200.428M0.33935 452.469L160.699 304.324L1283.72 304.322L1443.58 180.425M0.33935 432.466L160.699 284.321L1283.72 284.319L1443.58 160.421M0.33935 412.463L160.699 264.317L1283.72 264.316L1443.58 140.418M0.33935 392.459L160.699 244.314L1283.72 244.313L1443.58 120.415M0.33935 372.456L160.699 224.311L1283.72 224.309L1443.58 100.412M0.33935 352.453L160.699 204.308L1283.72 204.306L1443.58 80.4083M0.33935 332.449L160.699 184.304L1283.72 184.303L1443.58 60.4051M0.33935 312.446L160.699 164.301L1283.72 164.3L1443.58 40.4018M0.33935 292.443L160.699 144.298L1283.72 144.296L1443.58 20.3985M0.33935 272.44L160.699 124.295L1283.72 124.293L1443.58 0.395267" stroke="url(#paint0_radial_3_89)" stroke-opacity="0.6"/>
<defs>
<radialGradient id="paint0_radial_3_89" cx="0" cy="0" r="1" gradientUnits="userSpaceOnUse" gradientTransform="translate(721.957 385.708) rotate(89.9549) scale(917.15 2101.71)">
<stop stop-color="#005138"/>
<stop offset="0.55" stop-color="#005138"/>
<stop offset="1" stop-color="#B4D13F"/>
</radialGradient>
</defs>
</svg>
