<svg width="392" height="40" viewBox="0 0 392 40" fill="none" xmlns="http://www.w3.org/2000/svg">
<rect x="0.5" y="0.5" width="189" height="39" fill="white"/>
<rect x="0.5" y="0.5" width="189" height="39" stroke="#EBEBEB"/>
<path d="M95 11.6256C99.6041 11.6256 103.333 15.3547 103.333 19.9589C103.333 21.7049 102.785 23.4069 101.766 24.8252C100.748 26.2435 99.3105 27.3067 97.6562 27.8651C97.2395 27.9485 97.0833 27.6881 97.0833 27.4693C97.0833 27.1881 97.0937 26.2922 97.0937 25.1776C97.0937 24.3964 96.8333 23.8964 96.5312 23.636C98.3854 23.4276 100.333 22.7193 100.333 19.5214C100.333 18.6047 100.01 17.8651 99.4791 17.2818C99.5625 17.0735 99.8541 16.2193 99.3958 15.0735C99.3958 15.0735 98.6979 14.8443 97.1041 15.9276C96.4375 15.7401 95.7291 15.6464 95.0208 15.6464C94.3125 15.6464 93.6041 15.7401 92.9375 15.9276C91.3437 14.8547 90.6458 15.0735 90.6458 15.0735C90.1875 16.2193 90.4791 17.0735 90.5625 17.2818C90.0312 17.8651 89.7083 18.6151 89.7083 19.5214C89.7083 22.7089 91.6458 23.4276 93.5 23.636C93.2604 23.8443 93.0416 24.2089 92.9687 24.7506C92.4895 24.9693 91.2916 25.3235 90.5416 24.0631C90.3854 23.8131 89.9166 23.1985 89.2604 23.2089C88.5625 23.2193 88.9791 23.6047 89.2708 23.761C89.625 23.9589 90.0312 24.6985 90.125 24.9381C90.2916 25.4068 90.8333 26.3026 92.927 25.9172C92.927 26.6151 92.9375 27.2714 92.9375 27.4693C92.9375 27.6881 92.7812 27.9381 92.3645 27.8651C90.7048 27.3127 89.2611 26.2516 88.2384 24.8325C87.2156 23.4133 86.6657 21.7082 86.6666 19.9589C86.6666 15.3547 90.3958 11.6256 95 11.6256Z" fill="black"/>
<rect x="202.5" y="0.5" width="189" height="39" fill="white"/>
<rect x="202.5" y="0.5" width="189" height="39" stroke="#EBEBEB"/>
<path d="M297.153 18.6365V21.541H301.272C301.091 22.4751 300.548 23.2661 299.734 23.7979L302.218 25.6866C303.665 24.3775 304.5 22.4547 304.5 20.1706C304.5 19.6388 304.451 19.1274 304.361 18.6366L297.153 18.6365Z" fill="#4285F4"/>
<path d="M290.321 16.6388C289.799 17.6478 289.5 18.7865 289.5 20.0001C289.5 21.2138 289.799 22.3524 290.321 23.3615C290.321 23.3682 292.867 21.4251 292.867 21.4251C292.714 20.9751 292.624 20.4978 292.624 20.0001C292.624 19.5023 292.714 19.025 292.867 18.575L290.321 16.6388Z" fill="#FBBC05"/>
<path d="M297.153 15.4864C298.28 15.4864 299.282 15.8682 300.082 16.6046L302.274 14.4569C300.945 13.2432 299.219 12.5 297.153 12.5C294.161 12.5 291.58 14.1841 290.321 16.6387L292.867 18.575C293.473 16.8023 295.163 15.4864 297.153 15.4864Z" fill="#EA4335"/>
<path d="M292.864 21.4276L292.304 21.8479L290.321 23.3615C291.58 25.8092 294.161 27.5001 297.153 27.5001C299.219 27.5001 300.951 26.8319 302.218 25.6865L299.734 23.7978C299.052 24.2478 298.182 24.5206 297.153 24.5206C295.163 24.5206 293.472 23.2047 292.867 21.4319L292.864 21.4276Z" fill="#34A853"/>
</svg>
